G04*
G04 #@! TF.GenerationSoftware,Altium Limited,Altium Designer,24.3.1 (35)*
G04*
G04 Layer_Color=128*
%FSLAX44Y44*%
%MOMM*%
G71*
G04*
G04 #@! TF.SameCoordinates,025A4B24-8724-457C-B47B-0DB420FA472D*
G04*
G04*
G04 #@! TF.FilePolarity,Positive*
G04*
G01*
G75*
%ADD25R,0.6200X0.5700*%
%ADD27R,0.5000X0.5500*%
%ADD36R,0.5700X0.6200*%
%ADD49R,0.5500X0.5000*%
%ADD51R,1.0000X0.9000*%
%ADD59R,1.0000X1.0500*%
%ADD60R,1.0500X2.2000*%
%ADD64R,0.7000X0.6000*%
%ADD65R,1.8000X1.1000*%
%ADD149R,0.9000X0.3000*%
%ADD150R,0.3000X0.9000*%
%ADD152R,0.3000X0.3000*%
%ADD153R,0.7000X1.0000*%
%ADD154R,0.7000X0.3000*%
%ADD162R,0.7500X0.7500*%
%ADD163R,0.7000X0.4500*%
%ADD164R,0.7000X0.4500*%
D25*
X374650Y84860D02*
D03*
Y75160D02*
D03*
X360680D02*
D03*
Y84860D02*
D03*
D27*
X322910Y139700D02*
D03*
X332410D02*
D03*
X322830Y151130D02*
D03*
X332330D02*
D03*
X500050Y-60975D02*
D03*
X490550D02*
D03*
X457530Y-60960D02*
D03*
X467030D02*
D03*
D36*
X390576Y93980D02*
D03*
X400276D02*
D03*
X400276Y80853D02*
D03*
X390576D02*
D03*
D49*
X343242Y85627D02*
D03*
Y76127D02*
D03*
X439420Y18567D02*
D03*
Y28067D02*
D03*
D51*
X-303450Y63690D02*
D03*
Y79690D02*
D03*
D59*
X-410210Y-41900D02*
D03*
X-379240Y110500D02*
D03*
D60*
X-395460Y-57150D02*
D03*
X-424960D02*
D03*
X-364490Y95250D02*
D03*
X-393990D02*
D03*
D64*
X-330200Y114950D02*
D03*
Y100950D02*
D03*
D65*
X-308530Y131510D02*
D03*
Y101510D02*
D03*
D149*
X388880Y129420D02*
D03*
Y124420D02*
D03*
Y119420D02*
D03*
Y114420D02*
D03*
X357880D02*
D03*
Y119420D02*
D03*
Y124420D02*
D03*
Y129420D02*
D03*
D150*
X380880Y106420D02*
D03*
X375880D02*
D03*
X370880D02*
D03*
X365880D02*
D03*
Y137420D02*
D03*
X370880D02*
D03*
X375880D02*
D03*
X380880D02*
D03*
D152*
X385880Y134420D02*
D03*
X360880D02*
D03*
X385880Y109420D02*
D03*
X360880D02*
D03*
D153*
X472800Y-31000D02*
D03*
Y31000D02*
D03*
D154*
Y22500D02*
D03*
Y17500D02*
D03*
Y12500D02*
D03*
Y7500D02*
D03*
Y2500D02*
D03*
Y-2500D02*
D03*
Y-7500D02*
D03*
Y-12500D02*
D03*
Y-17500D02*
D03*
Y-22500D02*
D03*
X459800Y-30000D02*
D03*
Y-25000D02*
D03*
Y-20000D02*
D03*
Y-15000D02*
D03*
Y-10000D02*
D03*
Y-5000D02*
D03*
Y5000D02*
D03*
Y10000D02*
D03*
Y15000D02*
D03*
Y20000D02*
D03*
Y25000D02*
D03*
Y30000D02*
D03*
D162*
X378130Y126670D02*
D03*
X368630D02*
D03*
X378130Y117170D02*
D03*
X368630D02*
D03*
D163*
X422210Y47600D02*
D03*
Y28600D02*
D03*
X398210D02*
D03*
Y47600D02*
D03*
D164*
X422210Y38100D02*
D03*
X398210D02*
D03*
M02*
