G04*
G04 #@! TF.GenerationSoftware,Altium Limited,Altium Designer,24.3.1 (35)*
G04*
G04 Layer_Color=65535*
%FSLAX44Y44*%
%MOMM*%
G71*
G04*
G04 #@! TF.SameCoordinates,025A4B24-8724-457C-B47B-0DB420FA472D*
G04*
G04*
G04 #@! TF.FilePolarity,Positive*
G04*
G01*
G75*
%ADD10C,0.2000*%
%ADD11C,0.3000*%
%ADD12C,0.2500*%
%ADD13C,0.2032*%
%ADD14C,0.1000*%
%ADD15C,0.0500*%
%ADD16C,0.2030*%
%ADD17C,0.2540*%
%ADD18C,0.0700*%
G36*
X-244041Y117604D02*
X-243828D01*
Y114831D01*
X-243614D01*
Y112271D01*
X-243401D01*
Y109711D01*
X-243188D01*
Y107791D01*
X-242974D01*
Y105658D01*
X-242761D01*
Y103525D01*
X-242548D01*
Y101605D01*
X-242334D01*
Y99898D01*
X-242121D01*
Y98832D01*
X-241908D01*
Y97765D01*
X-241694D01*
Y96912D01*
X-241481D01*
Y96272D01*
X-241268D01*
Y95845D01*
X-241054D01*
Y95419D01*
X-240841D01*
Y94992D01*
X-240628D01*
Y94779D01*
X-240415D01*
Y94565D01*
X-240201D01*
Y94352D01*
X-239988D01*
Y94139D01*
X-239774D01*
Y93925D01*
X-239561D01*
Y93712D01*
X-238921D01*
Y93499D01*
X-236575D01*
Y93712D01*
X-235508D01*
Y93925D01*
X-234655D01*
Y94139D01*
X-234015D01*
Y94352D01*
X-233375D01*
Y94565D01*
X-232735D01*
Y94779D01*
X-232095D01*
Y94992D01*
X-231455D01*
Y95205D01*
X-231028D01*
Y95419D01*
X-230388D01*
Y95632D01*
X-229962D01*
Y95845D01*
X-229535D01*
Y96059D01*
X-228895D01*
Y96272D01*
X-228468D01*
Y96485D01*
X-228042D01*
Y96699D01*
X-227615D01*
Y96912D01*
X-226975D01*
Y97125D01*
X-226549D01*
Y97339D01*
X-226122D01*
Y97552D01*
X-225695D01*
Y97765D01*
X-225269D01*
Y97978D01*
X-224842D01*
Y98192D01*
X-224415D01*
Y98405D01*
X-223989D01*
Y98618D01*
X-223562D01*
Y98832D01*
X-223136D01*
Y99045D01*
X-222922D01*
Y99258D01*
X-222496D01*
Y99472D01*
X-222069D01*
Y99685D01*
X-221642D01*
Y99898D01*
X-221216D01*
Y100112D01*
X-220789D01*
Y100325D01*
X-220362D01*
Y100538D01*
X-220149D01*
Y100752D01*
X-219722D01*
Y100965D01*
X-219296D01*
Y101178D01*
X-218869D01*
Y101392D01*
X-218656D01*
Y101605D01*
X-218229D01*
Y101818D01*
X-217803D01*
Y102032D01*
X-217376D01*
Y101818D01*
X-217589D01*
Y101605D01*
X-217803D01*
Y101392D01*
X-218016D01*
Y101178D01*
X-218229D01*
Y100965D01*
X-218442D01*
Y100752D01*
X-218656D01*
Y100538D01*
X-218869D01*
Y100325D01*
X-219082D01*
Y100112D01*
X-219296D01*
Y99898D01*
X-219509D01*
Y99685D01*
X-219722D01*
Y99472D01*
X-219936D01*
Y99258D01*
X-220149D01*
Y99045D01*
X-220362D01*
Y98832D01*
X-220576D01*
Y98618D01*
X-220789D01*
Y98405D01*
X-221002D01*
Y98192D01*
X-221216D01*
Y97978D01*
X-221429D01*
Y97765D01*
X-221642D01*
Y97552D01*
X-221856D01*
Y97339D01*
X-222069D01*
Y97125D01*
X-222282D01*
Y96912D01*
X-222496D01*
Y96485D01*
X-222709D01*
Y96272D01*
X-222922D01*
Y96059D01*
X-223136D01*
Y95845D01*
X-223349D01*
Y95419D01*
X-223562D01*
Y95205D01*
X-223776D01*
Y94779D01*
X-223989D01*
Y94565D01*
X-224202D01*
Y94139D01*
X-224415D01*
Y93925D01*
X-224629D01*
Y93499D01*
X-224842D01*
Y93286D01*
X-225055D01*
Y92859D01*
X-225269D01*
Y92432D01*
X-225482D01*
Y92006D01*
X-225695D01*
Y91579D01*
X-225909D01*
Y91152D01*
X-226122D01*
Y90726D01*
X-226335D01*
Y90299D01*
X-226549D01*
Y89872D01*
X-226762D01*
Y89232D01*
X-226975D01*
Y88592D01*
X-227189D01*
Y87952D01*
X-227402D01*
Y87312D01*
X-227615D01*
Y86246D01*
X-227829D01*
Y85393D01*
X-229322D01*
Y85606D01*
X-230815D01*
Y86886D01*
X-230602D01*
Y87952D01*
X-230388D01*
Y88592D01*
X-230175D01*
Y89232D01*
X-229962D01*
Y89872D01*
X-229748D01*
Y90512D01*
X-229535D01*
Y91152D01*
X-229322D01*
Y91579D01*
X-229109D01*
Y92219D01*
X-229535D01*
Y92006D01*
X-229748D01*
Y91792D01*
X-230388D01*
Y91579D01*
X-230815D01*
Y91366D01*
X-231242D01*
Y91152D01*
X-231668D01*
Y90939D01*
X-232308D01*
Y90726D01*
X-233162D01*
Y90512D01*
X-233801D01*
Y90299D01*
X-235082D01*
Y90086D01*
X-238068D01*
Y90299D01*
X-239135D01*
Y90512D01*
X-239774D01*
Y90726D01*
X-240201D01*
Y90939D01*
X-240841D01*
Y91152D01*
X-241054D01*
Y91366D01*
X-241481D01*
Y91579D01*
X-241694D01*
Y91792D01*
X-242121D01*
Y92006D01*
X-242334D01*
Y92219D01*
X-242548D01*
Y92432D01*
X-242761D01*
Y92646D01*
X-242974D01*
Y93072D01*
X-243188D01*
Y93286D01*
X-243401D01*
Y93712D01*
X-243614D01*
Y93925D01*
X-243828D01*
Y94352D01*
X-244041D01*
Y94779D01*
X-244254D01*
Y95419D01*
X-244468D01*
Y96059D01*
X-244681D01*
Y96912D01*
X-244894D01*
Y97765D01*
X-245107D01*
Y99045D01*
X-245321D01*
Y101392D01*
X-245534D01*
Y102671D01*
X-245748D01*
Y102458D01*
X-245961D01*
Y102032D01*
X-246174D01*
Y101605D01*
X-246387D01*
Y101178D01*
X-246601D01*
Y100752D01*
X-246814D01*
Y100112D01*
X-247027D01*
Y99685D01*
X-247241D01*
Y99258D01*
X-247454D01*
Y98832D01*
X-247667D01*
Y98618D01*
X-247881D01*
Y98192D01*
X-248094D01*
Y97765D01*
X-248307D01*
Y97339D01*
X-248521D01*
Y97125D01*
X-248734D01*
Y96699D01*
X-248947D01*
Y96272D01*
X-249161D01*
Y96059D01*
X-249374D01*
Y95632D01*
X-249587D01*
Y95419D01*
X-249801D01*
Y94992D01*
X-250014D01*
Y94779D01*
X-250227D01*
Y94352D01*
X-250441D01*
Y94139D01*
X-250654D01*
Y93925D01*
X-250867D01*
Y93712D01*
X-251080D01*
Y93286D01*
X-251294D01*
Y93072D01*
X-251507D01*
Y92859D01*
X-251721D01*
Y92646D01*
X-251934D01*
Y92432D01*
X-252147D01*
Y92219D01*
X-252360D01*
Y92006D01*
X-252574D01*
Y91792D01*
X-252787D01*
Y91579D01*
X-253000D01*
Y91366D01*
X-253427D01*
Y91152D01*
X-253640D01*
Y90939D01*
X-254067D01*
Y90726D01*
X-254280D01*
Y90512D01*
X-254707D01*
Y90299D01*
X-255347D01*
Y90086D01*
X-255987D01*
Y89872D01*
X-257480D01*
Y89659D01*
X-258333D01*
Y89872D01*
X-260040D01*
Y90086D01*
X-261106D01*
Y90299D01*
X-261960D01*
Y90512D01*
X-262600D01*
Y90726D01*
X-263240D01*
Y90939D01*
X-263880D01*
Y91152D01*
X-264306D01*
Y91366D01*
X-264946D01*
Y91579D01*
X-265373D01*
Y91792D01*
X-265800D01*
Y92006D01*
X-266439D01*
Y92219D01*
X-266866D01*
Y92432D01*
X-267293D01*
Y92646D01*
X-267719D01*
Y92859D01*
X-268146D01*
Y93072D01*
X-268573D01*
Y93286D01*
X-268999D01*
Y93499D01*
X-269426D01*
Y93712D01*
X-269639D01*
Y93925D01*
X-270066D01*
Y94139D01*
X-270493D01*
Y94352D01*
X-270919D01*
Y94565D01*
X-271346D01*
Y94779D01*
X-271559D01*
Y94992D01*
X-271986D01*
Y95205D01*
X-272412D01*
Y95419D01*
X-272626D01*
Y95632D01*
X-273053D01*
Y95845D01*
X-273266D01*
Y95205D01*
X-273053D01*
Y94992D01*
X-272839D01*
Y94779D01*
X-272626D01*
Y94565D01*
X-272412D01*
Y94352D01*
X-272199D01*
Y94139D01*
X-271986D01*
Y93925D01*
X-271773D01*
Y93712D01*
X-271559D01*
Y93499D01*
X-271346D01*
Y93072D01*
X-271133D01*
Y92859D01*
X-270919D01*
Y92646D01*
X-270706D01*
Y92432D01*
X-270493D01*
Y92219D01*
X-270279D01*
Y92006D01*
X-270066D01*
Y91579D01*
X-269853D01*
Y91366D01*
X-269639D01*
Y91152D01*
X-269426D01*
Y90939D01*
X-269213D01*
Y90512D01*
X-268999D01*
Y90299D01*
X-268786D01*
Y90086D01*
X-268573D01*
Y89872D01*
X-268359D01*
Y89446D01*
X-268146D01*
Y89232D01*
X-267933D01*
Y89019D01*
X-267719D01*
Y88592D01*
X-267506D01*
Y88379D01*
X-267293D01*
Y87952D01*
X-267080D01*
Y87739D01*
X-266866D01*
Y87526D01*
X-266653D01*
Y87099D01*
X-266439D01*
Y86672D01*
X-266226D01*
Y86459D01*
X-266013D01*
Y86033D01*
X-265800D01*
Y85606D01*
X-265586D01*
Y85393D01*
X-265373D01*
Y84966D01*
X-265160D01*
Y84539D01*
X-264946D01*
Y84113D01*
X-264733D01*
Y83473D01*
X-264520D01*
Y82619D01*
X-264306D01*
Y79420D01*
X-264520D01*
Y78780D01*
X-264733D01*
Y78140D01*
X-264946D01*
Y77713D01*
X-265160D01*
Y77500D01*
X-265373D01*
Y77073D01*
X-265586D01*
Y76860D01*
X-265800D01*
Y76433D01*
X-266013D01*
Y76220D01*
X-266226D01*
Y76006D01*
X-266439D01*
Y75793D01*
X-266653D01*
Y75580D01*
X-266866D01*
Y75367D01*
X-267080D01*
Y75153D01*
X-267293D01*
Y74940D01*
X-267506D01*
Y74727D01*
X-267933D01*
Y74513D01*
X-268146D01*
Y74300D01*
X-268359D01*
Y74087D01*
X-268786D01*
Y73873D01*
X-268999D01*
Y73660D01*
X-269426D01*
Y73447D01*
X-269853D01*
Y73233D01*
X-270066D01*
Y73020D01*
X-270493D01*
Y72807D01*
X-270919D01*
Y72593D01*
X-271346D01*
Y72167D01*
X-269853D01*
Y71953D01*
X-268146D01*
Y71740D01*
X-267080D01*
Y71527D01*
X-266226D01*
Y71314D01*
X-265586D01*
Y71100D01*
X-264946D01*
Y70887D01*
X-264306D01*
Y70673D01*
X-263880D01*
Y70460D01*
X-263453D01*
Y70247D01*
X-263026D01*
Y70034D01*
X-262813D01*
Y69820D01*
X-262386D01*
Y69607D01*
X-262173D01*
Y69394D01*
X-261960D01*
Y69180D01*
X-261747D01*
Y68967D01*
X-261533D01*
Y68754D01*
X-261320D01*
Y68540D01*
X-261106D01*
Y68114D01*
X-260893D01*
Y67900D01*
X-260680D01*
Y67474D01*
X-260467D01*
Y67260D01*
X-260253D01*
Y66834D01*
X-260040D01*
Y66407D01*
X-259827D01*
Y65981D01*
X-259613D01*
Y65554D01*
X-259400D01*
Y64914D01*
X-259187D01*
Y64061D01*
X-258973D01*
Y62994D01*
X-258760D01*
Y59581D01*
X-258973D01*
Y57874D01*
X-258760D01*
Y58088D01*
X-258547D01*
Y58301D01*
X-258333D01*
Y58514D01*
X-257907D01*
Y58728D01*
X-257693D01*
Y58941D01*
X-257480D01*
Y59154D01*
X-257054D01*
Y59367D01*
X-256840D01*
Y59581D01*
X-256627D01*
Y59794D01*
X-256200D01*
Y60008D01*
X-255987D01*
Y60221D01*
X-255560D01*
Y60434D01*
X-255347D01*
Y60648D01*
X-254920D01*
Y60861D01*
X-254494D01*
Y61074D01*
X-254067D01*
Y61287D01*
X-253640D01*
Y61501D01*
X-253214D01*
Y61714D01*
X-252787D01*
Y61927D01*
X-252360D01*
Y62141D01*
X-251721D01*
Y62354D01*
X-250867D01*
Y62567D01*
X-250014D01*
Y62781D01*
X-246174D01*
Y62567D01*
X-245321D01*
Y62354D01*
X-244681D01*
Y62141D01*
X-244041D01*
Y61927D01*
X-243614D01*
Y61714D01*
X-243188D01*
Y61501D01*
X-242761D01*
Y61287D01*
X-242548D01*
Y61074D01*
X-242121D01*
Y60861D01*
X-241908D01*
Y60648D01*
X-241481D01*
Y60434D01*
X-241268D01*
Y60221D01*
X-241054D01*
Y60008D01*
X-240841D01*
Y59794D01*
X-240628D01*
Y59581D01*
X-240201D01*
Y59367D01*
X-239988D01*
Y59154D01*
X-239774D01*
Y58941D01*
X-239561D01*
Y58728D01*
X-239348D01*
Y58514D01*
X-239135D01*
Y58301D01*
X-238921D01*
Y57874D01*
X-238708D01*
Y57661D01*
X-238495D01*
Y57448D01*
X-238281D01*
Y57234D01*
X-238068D01*
Y57021D01*
Y56808D01*
X-237855D01*
Y56594D01*
X-237641D01*
Y56381D01*
X-237428D01*
Y55954D01*
X-237215D01*
Y55741D01*
X-237001D01*
Y55314D01*
X-236788D01*
Y55101D01*
X-236575D01*
Y54675D01*
X-236361D01*
Y54461D01*
X-236148D01*
Y54035D01*
X-235935D01*
Y54248D01*
X-235721D01*
Y55101D01*
X-235508D01*
Y55741D01*
X-235295D01*
Y56594D01*
X-235082D01*
Y57234D01*
X-234868D01*
Y57874D01*
X-234655D01*
Y58514D01*
X-234442D01*
Y58941D01*
X-234228D01*
Y59581D01*
X-234015D01*
Y60008D01*
X-233801D01*
Y60221D01*
X-233588D01*
Y60648D01*
X-233375D01*
Y60861D01*
X-233162D01*
Y61074D01*
X-232948D01*
Y61287D01*
X-232735D01*
Y80913D01*
X-228468D01*
Y79633D01*
X-228042D01*
Y79846D01*
X-227829D01*
Y80060D01*
X-227615D01*
Y80273D01*
X-227402D01*
Y80486D01*
X-227189D01*
Y80700D01*
X-226762D01*
Y80913D01*
X-226122D01*
Y81126D01*
X-225482D01*
Y81340D01*
X-223136D01*
Y81126D01*
X-222282D01*
Y80913D01*
X-221642D01*
Y80700D01*
X-221216D01*
Y80486D01*
X-220789D01*
Y80273D01*
X-220362D01*
Y80060D01*
X-220149D01*
Y79846D01*
X-219936D01*
Y79633D01*
X-219722D01*
Y79420D01*
X-219509D01*
Y79206D01*
X-219296D01*
Y78993D01*
X-219082D01*
Y78780D01*
X-218869D01*
Y78353D01*
X-218656D01*
Y77926D01*
X-218442D01*
Y77500D01*
X-218229D01*
Y77073D01*
X-218016D01*
Y76433D01*
X-217803D01*
Y75153D01*
X-217589D01*
Y73447D01*
X-217803D01*
Y72167D01*
X-218016D01*
Y71527D01*
X-218229D01*
Y71100D01*
X-218442D01*
Y70673D01*
X-218656D01*
Y70247D01*
X-218869D01*
Y70034D01*
X-219082D01*
Y69607D01*
X-219296D01*
Y69394D01*
X-219509D01*
Y69180D01*
X-219722D01*
Y68967D01*
X-219936D01*
Y68754D01*
X-220149D01*
Y68540D01*
X-220362D01*
Y68327D01*
X-220789D01*
Y68114D01*
X-221002D01*
Y67900D01*
X-221429D01*
Y67687D01*
X-222069D01*
Y67474D01*
X-222922D01*
Y67260D01*
X-225482D01*
Y67474D01*
X-226335D01*
Y67687D01*
X-226762D01*
Y67900D01*
X-227189D01*
Y68114D01*
X-227402D01*
Y68327D01*
X-227829D01*
Y68540D01*
X-228042D01*
Y68754D01*
X-228255D01*
Y68967D01*
X-228468D01*
Y63847D01*
X-228042D01*
Y64061D01*
X-226975D01*
Y64274D01*
X-225909D01*
Y64487D01*
X-223989D01*
Y64701D01*
X-219509D01*
Y64487D01*
X-103036D01*
Y64274D01*
X-102396D01*
Y64061D01*
X-101970D01*
Y63847D01*
X-101543D01*
Y63634D01*
X-101330D01*
Y63421D01*
X-100903D01*
Y63207D01*
X-100690D01*
Y62994D01*
X-100476D01*
Y62567D01*
X-100263D01*
Y62354D01*
X-100050D01*
Y62141D01*
X-99836D01*
Y61927D01*
X-99623D01*
Y61714D01*
X-99410D01*
Y61287D01*
X-99196D01*
Y61074D01*
X-98983D01*
Y60648D01*
X-98770D01*
Y60434D01*
X-98556D01*
Y60008D01*
X-98343D01*
Y59581D01*
X-98130D01*
Y59367D01*
X-97916D01*
Y58941D01*
X-97703D01*
Y58728D01*
X-97490D01*
Y58941D01*
X-97276D01*
Y59794D01*
X-97063D01*
Y61074D01*
X-96850D01*
Y62781D01*
X-96637D01*
Y64701D01*
X-96423D01*
Y66834D01*
X-96210D01*
Y68327D01*
X-95997D01*
Y69394D01*
X-95783D01*
Y70247D01*
X-95570D01*
Y70673D01*
X-95357D01*
Y70887D01*
X-95143D01*
Y71100D01*
X-94930D01*
Y71314D01*
X-94503D01*
Y71527D01*
X-93010D01*
Y71314D01*
X-92584D01*
Y71100D01*
X-92157D01*
Y70887D01*
X-91944D01*
Y70673D01*
X-91730D01*
Y70460D01*
X-91517D01*
Y70247D01*
X-91304D01*
Y69820D01*
X-91090D01*
Y69394D01*
X-90877D01*
Y69180D01*
X-90664D01*
Y68540D01*
X-90450D01*
Y68114D01*
X-90237D01*
Y67687D01*
X-90024D01*
Y67260D01*
X-89810D01*
Y66834D01*
X-89597D01*
Y66407D01*
X-89384D01*
Y66194D01*
X-89170D01*
Y65767D01*
X-88957D01*
Y65554D01*
X-88744D01*
Y65340D01*
X-88530D01*
Y65127D01*
X-88317D01*
Y64914D01*
X-88104D01*
Y64701D01*
X-87037D01*
Y64487D01*
X-81917D01*
Y64701D01*
X-81704D01*
Y64914D01*
X-81917D01*
Y65340D01*
X-82131D01*
Y65981D01*
X-82344D01*
Y66407D01*
X-82557D01*
Y66834D01*
X-82771D01*
Y67474D01*
X-82344D01*
Y67260D01*
X-81917D01*
Y67047D01*
X-81278D01*
Y66834D01*
X-80851D01*
Y66620D01*
X-80424D01*
Y66407D01*
X-79784D01*
Y66194D01*
X-79358D01*
Y65981D01*
X-78931D01*
Y65767D01*
X-78291D01*
Y65554D01*
X-77864D01*
Y65340D01*
X-77224D01*
Y65127D01*
X-76798D01*
Y64914D01*
X-76371D01*
Y64701D01*
X-75731D01*
Y64487D01*
X-75304D01*
Y64274D01*
X-74878D01*
Y64061D01*
X-74238D01*
Y63847D01*
X-73811D01*
Y63634D01*
X-73171D01*
Y63421D01*
X-72745D01*
Y63207D01*
X-72318D01*
Y62994D01*
X-72531D01*
Y62781D01*
X-72958D01*
Y62567D01*
X-73598D01*
Y62354D01*
X-74025D01*
Y62141D01*
X-74451D01*
Y61927D01*
X-75091D01*
Y61714D01*
X-75518D01*
Y61501D01*
X-75944D01*
Y61287D01*
X-76585D01*
Y61074D01*
X-77011D01*
Y60861D01*
X-77651D01*
Y60648D01*
X-78078D01*
Y60434D01*
X-78504D01*
Y60221D01*
X-79144D01*
Y60008D01*
X-79571D01*
Y59794D01*
X-80211D01*
Y59581D01*
X-80638D01*
Y59367D01*
X-81064D01*
Y59154D01*
X-81704D01*
Y58941D01*
X-82131D01*
Y58728D01*
X-82557D01*
Y58514D01*
X-82984D01*
Y58728D01*
X-82771D01*
Y59154D01*
X-82557D01*
Y59794D01*
X-82344D01*
Y60221D01*
X-82131D01*
Y60861D01*
X-81917D01*
Y61287D01*
X-81704D01*
Y61501D01*
X-87464D01*
Y61714D01*
X-88744D01*
Y61927D01*
X-89170D01*
Y62141D01*
X-89597D01*
Y62354D01*
X-90024D01*
Y62567D01*
X-90237D01*
Y62781D01*
X-90664D01*
Y62994D01*
X-90877D01*
Y63421D01*
X-91090D01*
Y63634D01*
X-91304D01*
Y63847D01*
X-91517D01*
Y64274D01*
X-91730D01*
Y64487D01*
X-91944D01*
Y64914D01*
X-92157D01*
Y65127D01*
X-92370D01*
Y65554D01*
X-92584D01*
Y65981D01*
X-92797D01*
Y66620D01*
X-93010D01*
Y66834D01*
X-93223D01*
Y66407D01*
X-93437D01*
Y64487D01*
X-93650D01*
Y62354D01*
X-93863D01*
Y60434D01*
X-94077D01*
Y59367D01*
X-94290D01*
Y58301D01*
X-94503D01*
Y57661D01*
X-94717D01*
Y57234D01*
X-94930D01*
Y56594D01*
X-95143D01*
Y56381D01*
X-95357D01*
Y55954D01*
X-95570D01*
Y55741D01*
X-95783D01*
Y55528D01*
X-96210D01*
Y55314D01*
X-97063D01*
Y55101D01*
X-97490D01*
Y55314D01*
X-98343D01*
Y55528D01*
X-98770D01*
Y55741D01*
X-99196D01*
Y55954D01*
X-99410D01*
Y56168D01*
X-99623D01*
Y56381D01*
X-99836D01*
Y56594D01*
X-100050D01*
Y57021D01*
X-100263D01*
Y57448D01*
X-100476D01*
Y57661D01*
X-100690D01*
Y58088D01*
X-100903D01*
Y58301D01*
X-101116D01*
Y58728D01*
X-101330D01*
Y59154D01*
X-101543D01*
Y59367D01*
X-101756D01*
Y59794D01*
X-101970D01*
Y60008D01*
X-102183D01*
Y60221D01*
X-102396D01*
Y60434D01*
X-102610D01*
Y60648D01*
X-102823D01*
Y60861D01*
X-103036D01*
Y61074D01*
X-103250D01*
Y61287D01*
X-103676D01*
Y61501D01*
X-220149D01*
Y61714D01*
X-223349D01*
Y61501D01*
X-225269D01*
Y61287D01*
X-226549D01*
Y61074D01*
X-227402D01*
Y60861D01*
X-228255D01*
Y60648D01*
X-228682D01*
Y60434D01*
X-229109D01*
Y60221D01*
X-229535D01*
Y60008D01*
X-229962D01*
Y59794D01*
X-230175D01*
Y59581D01*
X-230388D01*
Y59367D01*
X-230602D01*
Y59154D01*
X-230815D01*
Y58941D01*
X-231028D01*
Y58728D01*
X-231242D01*
Y58301D01*
X-231455D01*
Y58088D01*
X-231668D01*
Y57661D01*
X-231882D01*
Y57234D01*
X-232095D01*
Y56594D01*
X-232308D01*
Y56168D01*
X-232522D01*
Y55314D01*
X-232735D01*
Y54248D01*
X-232948D01*
Y52328D01*
X-233162D01*
Y50621D01*
X-232948D01*
Y48488D01*
X-232735D01*
Y47208D01*
X-232522D01*
Y46142D01*
X-232308D01*
Y45288D01*
X-232522D01*
Y45502D01*
X-232735D01*
Y45928D01*
X-232948D01*
Y46142D01*
X-233162D01*
Y46568D01*
X-233375D01*
Y46782D01*
X-233588D01*
Y46995D01*
X-233801D01*
Y47422D01*
X-234015D01*
Y47635D01*
X-234228D01*
Y47848D01*
X-234442D01*
Y48275D01*
X-234655D01*
Y48488D01*
X-234868D01*
Y48702D01*
X-235082D01*
Y49128D01*
X-235295D01*
Y49342D01*
X-235508D01*
Y49555D01*
X-235721D01*
Y49768D01*
X-235935D01*
Y50195D01*
X-236148D01*
Y50408D01*
X-236361D01*
Y50621D01*
X-236575D01*
Y50835D01*
X-236788D01*
Y51261D01*
X-237001D01*
Y51475D01*
X-237215D01*
Y51688D01*
X-237428D01*
Y51901D01*
X-237641D01*
Y52115D01*
X-237855D01*
Y52541D01*
X-238068D01*
Y52755D01*
X-238281D01*
Y52968D01*
X-238495D01*
Y53181D01*
X-238708D01*
Y53395D01*
X-238921D01*
Y53608D01*
X-239135D01*
Y53821D01*
X-239348D01*
Y54035D01*
X-239561D01*
Y54248D01*
X-239774D01*
Y54461D01*
X-239988D01*
Y54675D01*
X-240201D01*
Y54888D01*
X-240415D01*
Y55101D01*
X-240628D01*
Y55314D01*
X-240841D01*
Y55528D01*
X-241054D01*
Y55741D01*
X-241268D01*
Y55954D01*
X-241481D01*
Y56168D01*
X-241694D01*
Y56381D01*
X-241908D01*
Y56594D01*
X-242121D01*
Y56808D01*
X-242334D01*
Y57021D01*
X-242548D01*
Y57234D01*
X-242761D01*
Y57448D01*
X-243188D01*
Y57661D01*
X-243401D01*
Y57874D01*
X-243614D01*
Y58088D01*
X-244041D01*
Y58301D01*
X-244254D01*
Y58514D01*
X-244681D01*
Y58728D01*
X-244894D01*
Y58941D01*
X-245321D01*
Y59154D01*
X-245748D01*
Y59367D01*
X-246174D01*
Y59581D01*
X-246814D01*
Y59794D01*
X-249587D01*
Y59581D01*
X-250441D01*
Y59367D01*
X-251080D01*
Y59154D01*
X-251721D01*
Y58941D01*
X-252147D01*
Y58728D01*
X-252574D01*
Y58514D01*
X-253000D01*
Y58301D01*
X-253427D01*
Y58088D01*
X-253640D01*
Y57874D01*
X-254067D01*
Y57661D01*
X-254280D01*
Y57448D01*
X-254707D01*
Y57234D01*
X-254920D01*
Y57021D01*
X-255347D01*
Y56808D01*
X-255560D01*
Y56594D01*
X-255774D01*
Y56381D01*
X-255987D01*
Y56168D01*
X-256413D01*
Y55954D01*
X-256627D01*
Y55741D01*
X-256840D01*
Y55528D01*
X-257054D01*
Y55314D01*
X-257267D01*
Y55101D01*
X-257480D01*
Y54888D01*
X-257907D01*
Y54675D01*
X-258120D01*
Y54461D01*
X-258333D01*
Y54248D01*
X-258547D01*
Y54035D01*
X-258760D01*
Y53821D01*
X-258973D01*
Y53608D01*
X-259187D01*
Y53395D01*
X-259400D01*
Y53181D01*
X-259613D01*
Y52755D01*
X-259827D01*
Y52541D01*
X-260040D01*
Y52328D01*
X-260253D01*
Y52115D01*
X-260467D01*
Y51901D01*
X-260680D01*
Y51688D01*
X-260893D01*
Y51475D01*
X-261106D01*
Y51261D01*
X-261320D01*
Y50835D01*
X-261533D01*
Y50621D01*
X-261747D01*
Y50408D01*
X-261960D01*
Y50195D01*
X-262173D01*
Y49981D01*
X-262386D01*
Y49555D01*
X-262600D01*
Y49342D01*
X-262813D01*
Y50195D01*
X-262600D01*
Y51048D01*
X-262386D01*
Y52115D01*
X-262173D01*
Y53181D01*
X-261960D01*
Y54675D01*
X-261747D01*
Y57021D01*
X-261533D01*
Y60434D01*
X-261747D01*
Y62141D01*
X-261960D01*
Y63207D01*
X-262173D01*
Y64061D01*
X-262386D01*
Y64487D01*
X-262600D01*
Y64914D01*
X-262813D01*
Y65554D01*
X-263026D01*
Y65767D01*
X-263240D01*
Y66194D01*
X-263453D01*
Y66407D01*
X-263666D01*
Y66834D01*
X-263880D01*
Y67047D01*
X-264093D01*
Y67260D01*
X-264306D01*
Y67474D01*
X-264733D01*
Y67687D01*
X-264946D01*
Y67900D01*
X-265373D01*
Y68114D01*
X-266013D01*
Y68327D01*
X-266653D01*
Y68540D01*
X-267506D01*
Y68754D01*
X-268573D01*
Y68967D01*
X-270279D01*
Y69180D01*
X-279025D01*
Y68967D01*
X-281585D01*
Y68754D01*
X-283505D01*
Y68540D01*
X-284359D01*
Y68754D01*
X-283932D01*
Y68967D01*
X-283505D01*
Y69180D01*
X-283078D01*
Y69394D01*
X-282652D01*
Y69607D01*
X-282225D01*
Y69820D01*
X-281799D01*
Y70034D01*
X-281372D01*
Y70247D01*
X-280945D01*
Y70460D01*
X-280519D01*
Y70673D01*
X-280092D01*
Y70887D01*
X-279665D01*
Y71100D01*
X-279239D01*
Y71314D01*
X-279025D01*
Y71527D01*
X-278599D01*
Y71740D01*
X-278172D01*
Y71953D01*
X-277745D01*
Y72167D01*
X-277319D01*
Y72380D01*
X-276892D01*
Y72593D01*
X-276466D01*
Y72807D01*
X-276252D01*
Y73020D01*
X-275826D01*
Y73233D01*
X-275399D01*
Y73447D01*
X-274972D01*
Y73660D01*
X-274759D01*
Y73873D01*
X-274332D01*
Y74087D01*
X-273906D01*
Y74300D01*
X-273479D01*
Y74513D01*
X-273266D01*
Y74727D01*
X-272839D01*
Y74940D01*
X-272626D01*
Y75153D01*
X-272199D01*
Y75367D01*
X-271986D01*
Y75580D01*
X-271559D01*
Y75793D01*
X-271346D01*
Y76006D01*
X-270919D01*
Y76220D01*
X-270706D01*
Y76433D01*
X-270279D01*
Y76646D01*
X-270066D01*
Y76860D01*
X-269853D01*
Y77073D01*
X-269639D01*
Y77286D01*
X-269213D01*
Y77500D01*
X-268999D01*
Y77713D01*
X-268786D01*
Y77926D01*
X-268573D01*
Y78140D01*
X-268359D01*
Y78353D01*
X-268146D01*
Y78780D01*
X-267933D01*
Y78993D01*
X-267719D01*
Y79420D01*
X-267506D01*
Y80060D01*
X-267293D01*
Y82193D01*
X-267506D01*
Y82833D01*
X-267719D01*
Y83259D01*
X-267933D01*
Y83686D01*
X-268146D01*
Y84113D01*
X-268359D01*
Y84539D01*
X-268573D01*
Y84753D01*
X-268786D01*
Y85179D01*
X-268999D01*
Y85606D01*
X-269213D01*
Y85819D01*
X-269426D01*
Y86246D01*
X-269639D01*
Y86459D01*
X-269853D01*
Y86886D01*
X-270066D01*
Y87099D01*
X-270279D01*
Y87526D01*
X-270493D01*
Y87739D01*
X-270706D01*
Y88166D01*
X-270919D01*
Y88379D01*
X-271133D01*
Y88592D01*
X-271346D01*
Y89019D01*
X-271559D01*
Y89232D01*
X-271773D01*
Y89659D01*
X-271986D01*
Y89872D01*
X-272199D01*
Y90086D01*
X-272412D01*
Y90512D01*
X-272626D01*
Y90726D01*
X-272839D01*
Y90939D01*
X-273053D01*
Y91366D01*
X-273266D01*
Y91579D01*
X-273479D01*
Y91792D01*
X-273692D01*
Y92219D01*
X-273906D01*
Y92432D01*
X-274119D01*
Y92646D01*
X-274332D01*
Y92859D01*
X-274546D01*
Y93286D01*
X-274759D01*
Y93499D01*
X-274972D01*
Y93712D01*
X-275186D01*
Y93925D01*
X-275399D01*
Y94352D01*
X-275612D01*
Y94565D01*
X-275826D01*
Y94779D01*
X-276039D01*
Y94992D01*
X-276252D01*
Y95419D01*
X-276466D01*
Y95632D01*
X-276679D01*
Y95845D01*
X-276892D01*
Y96059D01*
X-277106D01*
Y96485D01*
X-277319D01*
Y96699D01*
X-277532D01*
Y96912D01*
X-277745D01*
Y97125D01*
X-277959D01*
Y97339D01*
X-278172D01*
Y97765D01*
X-278386D01*
Y97978D01*
X-278599D01*
Y98192D01*
X-278812D01*
Y98405D01*
X-279025D01*
Y98832D01*
X-279239D01*
Y99045D01*
X-279452D01*
Y99258D01*
X-279665D01*
Y99472D01*
X-279879D01*
Y99685D01*
X-280092D01*
Y99898D01*
X-280305D01*
Y100325D01*
X-280519D01*
Y100538D01*
X-280732D01*
Y100752D01*
X-280945D01*
Y100965D01*
X-281159D01*
Y101178D01*
X-281372D01*
Y101605D01*
X-281585D01*
Y101818D01*
X-281799D01*
Y102032D01*
X-282012D01*
Y102245D01*
X-282225D01*
Y102458D01*
X-282439D01*
Y102671D01*
X-282652D01*
Y103098D01*
X-282865D01*
Y103312D01*
X-283078D01*
Y103525D01*
X-283292D01*
Y103738D01*
X-283505D01*
Y103952D01*
X-283718D01*
Y104378D01*
X-283932D01*
Y104591D01*
X-284145D01*
Y104805D01*
X-284359D01*
Y105018D01*
X-284572D01*
Y105231D01*
X-284785D01*
Y105445D01*
X-284998D01*
Y105658D01*
X-285212D01*
Y106085D01*
X-285425D01*
Y106298D01*
X-285638D01*
Y106511D01*
X-285852D01*
Y106725D01*
X-286065D01*
Y106938D01*
X-286278D01*
Y107151D01*
X-286492D01*
Y107365D01*
X-286705D01*
Y107791D01*
X-286918D01*
Y108005D01*
X-287132D01*
Y108218D01*
X-287345D01*
Y108431D01*
X-287558D01*
Y108645D01*
X-287772D01*
Y108858D01*
X-287985D01*
Y109071D01*
X-288198D01*
Y109498D01*
X-288412D01*
Y109711D01*
X-288625D01*
Y109924D01*
X-288838D01*
Y110138D01*
X-289051D01*
Y110351D01*
X-289265D01*
Y110564D01*
X-289478D01*
Y110778D01*
X-289265D01*
Y110564D01*
X-288838D01*
Y110351D01*
X-288625D01*
Y110138D01*
X-288412D01*
Y109924D01*
X-287985D01*
Y109711D01*
X-287772D01*
Y109498D01*
X-287558D01*
Y109284D01*
X-287132D01*
Y109071D01*
X-286918D01*
Y108858D01*
X-286492D01*
Y108645D01*
X-286278D01*
Y108431D01*
X-286065D01*
Y108218D01*
X-285638D01*
Y108005D01*
X-285425D01*
Y107791D01*
X-285212D01*
Y107578D01*
X-284785D01*
Y107365D01*
X-284572D01*
Y107151D01*
X-284145D01*
Y106938D01*
X-283932D01*
Y106725D01*
X-283718D01*
Y106511D01*
X-283292D01*
Y106298D01*
X-283078D01*
Y106085D01*
X-282865D01*
Y105871D01*
X-282439D01*
Y105658D01*
X-282225D01*
Y105445D01*
X-281799D01*
Y105231D01*
X-281585D01*
Y105018D01*
X-281159D01*
Y104805D01*
X-280945D01*
Y104591D01*
X-280732D01*
Y104378D01*
X-280305D01*
Y104165D01*
X-280092D01*
Y103952D01*
X-279665D01*
Y103738D01*
X-279452D01*
Y103525D01*
X-279239D01*
Y103312D01*
X-278812D01*
Y103098D01*
X-278599D01*
Y102885D01*
X-278172D01*
Y102671D01*
X-277959D01*
Y102458D01*
X-277532D01*
Y102245D01*
X-277319D01*
Y102032D01*
X-276892D01*
Y101818D01*
X-276679D01*
Y101605D01*
X-276252D01*
Y101392D01*
X-276039D01*
Y101178D01*
X-275612D01*
Y100965D01*
X-275399D01*
Y100752D01*
X-274972D01*
Y100538D01*
X-274759D01*
Y100325D01*
X-274332D01*
Y100112D01*
X-274119D01*
Y99898D01*
X-273692D01*
Y99685D01*
X-273479D01*
Y99472D01*
X-273053D01*
Y99258D01*
X-272839D01*
Y99045D01*
X-272412D01*
Y98832D01*
X-272199D01*
Y98618D01*
X-271773D01*
Y98405D01*
X-271346D01*
Y98192D01*
X-271133D01*
Y97978D01*
X-270706D01*
Y97765D01*
X-270279D01*
Y97552D01*
X-270066D01*
Y97339D01*
X-269639D01*
Y97125D01*
X-269213D01*
Y96912D01*
X-268786D01*
Y96699D01*
X-268573D01*
Y96485D01*
X-268146D01*
Y96272D01*
X-267719D01*
Y96059D01*
X-267293D01*
Y95845D01*
X-266866D01*
Y95632D01*
X-266439D01*
Y95419D01*
X-266013D01*
Y95205D01*
X-265800D01*
Y94992D01*
X-265160D01*
Y94779D01*
X-264733D01*
Y94565D01*
X-264306D01*
Y94352D01*
X-263880D01*
Y94139D01*
X-263240D01*
Y93925D01*
X-262813D01*
Y93712D01*
X-262173D01*
Y93499D01*
X-261533D01*
Y93286D01*
X-260893D01*
Y93072D01*
X-260040D01*
Y92859D01*
X-256413D01*
Y93072D01*
X-255987D01*
Y93286D01*
X-255560D01*
Y93499D01*
X-255134D01*
Y93712D01*
X-254920D01*
Y93925D01*
X-254707D01*
Y94139D01*
X-254280D01*
Y94352D01*
X-254067D01*
Y94565D01*
X-253854D01*
Y94779D01*
X-253640D01*
Y94992D01*
X-253427D01*
Y95205D01*
X-253214D01*
Y95419D01*
X-253000D01*
Y95845D01*
X-252787D01*
Y96059D01*
X-252574D01*
Y96272D01*
X-252360D01*
Y96485D01*
X-252147D01*
Y96912D01*
X-251934D01*
Y97125D01*
X-251721D01*
Y97552D01*
X-251507D01*
Y97978D01*
X-251294D01*
Y98192D01*
X-251080D01*
Y98618D01*
X-250867D01*
Y98832D01*
X-250654D01*
Y99258D01*
X-250441D01*
Y99685D01*
X-250227D01*
Y100112D01*
X-250014D01*
Y100538D01*
X-249801D01*
Y100965D01*
X-249587D01*
Y101392D01*
X-249374D01*
Y101818D01*
X-249161D01*
Y102245D01*
X-248947D01*
Y102671D01*
X-248734D01*
Y103098D01*
X-248521D01*
Y103738D01*
X-248307D01*
Y104165D01*
X-248094D01*
Y104805D01*
X-247881D01*
Y105231D01*
X-247667D01*
Y105871D01*
X-247454D01*
Y106511D01*
X-247241D01*
Y106938D01*
X-247027D01*
Y107578D01*
X-246814D01*
Y108218D01*
X-246601D01*
Y108645D01*
X-246387D01*
Y109498D01*
X-246174D01*
Y110138D01*
X-245961D01*
Y111204D01*
X-245748D01*
Y111844D01*
X-245534D01*
Y112698D01*
X-245321D01*
Y113764D01*
X-245107D01*
Y114831D01*
X-244894D01*
Y115897D01*
X-244681D01*
Y116964D01*
X-244468D01*
Y118244D01*
X-244254D01*
Y119311D01*
X-244041D01*
Y117604D01*
D02*
G37*
G36*
X-190071Y81126D02*
X-188578D01*
Y80913D01*
X-188151D01*
Y80700D01*
X-187511D01*
Y80486D01*
X-187298D01*
Y80273D01*
X-187084D01*
Y80060D01*
X-186658D01*
Y79846D01*
X-186444D01*
Y79420D01*
X-186231D01*
Y79206D01*
X-186018D01*
Y78780D01*
X-185805D01*
Y78353D01*
X-185591D01*
Y77500D01*
X-185378D01*
Y67687D01*
X-189644D01*
Y75793D01*
X-189858D01*
Y76433D01*
X-190071D01*
Y76860D01*
X-190284D01*
Y77073D01*
X-190497D01*
Y77286D01*
X-190711D01*
Y77500D01*
X-191351D01*
Y77713D01*
X-192631D01*
Y77500D01*
X-193271D01*
Y77286D01*
X-193484D01*
Y77073D01*
X-193697D01*
Y76860D01*
X-193911D01*
Y76646D01*
X-194124D01*
Y76220D01*
X-194337D01*
Y75793D01*
X-194551D01*
Y67687D01*
X-198817D01*
Y74087D01*
Y74300D01*
Y80913D01*
X-194551D01*
Y79633D01*
X-194337D01*
Y79846D01*
X-194124D01*
Y80060D01*
X-193697D01*
Y80273D01*
X-193484D01*
Y80486D01*
X-193271D01*
Y80700D01*
X-192844D01*
Y80913D01*
X-192204D01*
Y81126D01*
X-190924D01*
Y81340D01*
X-190071D01*
Y81126D01*
D02*
G37*
G36*
X-132901Y77286D02*
X-133114D01*
Y77073D01*
X-133541D01*
Y77286D01*
X-134181D01*
Y77500D01*
X-135674D01*
Y77286D01*
X-136314D01*
Y77073D01*
X-136741D01*
Y76860D01*
X-136954D01*
Y76646D01*
X-137167D01*
Y76433D01*
X-137381D01*
Y76006D01*
X-137594D01*
Y75580D01*
X-137807D01*
Y74940D01*
X-138021D01*
Y67900D01*
X-138234D01*
Y67687D01*
X-142287D01*
Y80913D01*
X-138234D01*
Y80700D01*
X-138021D01*
Y79206D01*
X-137807D01*
Y79420D01*
X-137594D01*
Y79846D01*
X-137381D01*
Y80060D01*
X-137167D01*
Y80273D01*
X-136954D01*
Y80486D01*
X-136528D01*
Y80700D01*
X-136314D01*
Y80913D01*
X-135674D01*
Y81126D01*
X-132901D01*
Y77286D01*
D02*
G37*
G36*
X-162553Y87312D02*
X-162339D01*
Y69394D01*
Y69180D01*
Y67687D01*
X-166392D01*
Y67900D01*
X-166606D01*
Y68114D01*
X-166819D01*
Y68327D01*
X-167032D01*
Y68540D01*
X-167246D01*
Y68967D01*
X-167459D01*
Y69180D01*
X-167672D01*
Y69394D01*
X-167886D01*
Y69607D01*
X-168099D01*
Y69820D01*
X-168312D01*
Y70247D01*
X-168526D01*
Y70460D01*
X-168739D01*
Y70673D01*
X-168952D01*
Y70887D01*
X-169165D01*
Y71100D01*
X-169379D01*
Y71527D01*
X-169592D01*
Y71740D01*
X-169806D01*
Y71953D01*
X-170019D01*
Y72167D01*
X-170232D01*
Y72380D01*
X-170445D01*
Y72807D01*
X-170659D01*
Y73020D01*
X-170872D01*
Y73233D01*
X-171085D01*
Y73447D01*
X-171299D01*
Y73660D01*
X-171512D01*
Y74087D01*
X-171725D01*
Y74300D01*
X-171939D01*
Y74513D01*
X-172152D01*
Y74727D01*
X-172365D01*
Y74940D01*
X-172579D01*
Y75367D01*
X-172792D01*
Y75580D01*
X-173005D01*
Y75793D01*
X-173219D01*
Y76006D01*
X-173432D01*
Y76220D01*
X-173645D01*
Y76433D01*
X-173859D01*
Y76860D01*
X-174072D01*
Y77073D01*
X-174285D01*
Y77286D01*
X-174499D01*
Y77500D01*
X-174712D01*
Y77713D01*
X-174925D01*
Y78140D01*
X-175138D01*
Y78353D01*
X-175352D01*
Y78566D01*
X-175565D01*
Y78780D01*
X-175778D01*
Y78993D01*
X-175992D01*
Y79420D01*
X-176205D01*
Y79633D01*
X-176418D01*
Y79846D01*
X-176632D01*
Y80060D01*
X-176845D01*
Y80273D01*
X-177058D01*
Y67687D01*
X-181538D01*
Y87526D01*
X-177698D01*
Y87312D01*
X-177485D01*
Y87099D01*
X-177272D01*
Y86886D01*
X-177058D01*
Y86672D01*
X-176845D01*
Y86459D01*
X-176632D01*
Y86033D01*
X-176418D01*
Y85819D01*
X-176205D01*
Y85606D01*
X-175992D01*
Y85393D01*
X-175778D01*
Y85179D01*
X-175565D01*
Y84966D01*
X-175352D01*
Y84539D01*
X-175138D01*
Y84326D01*
X-174925D01*
Y84113D01*
X-174712D01*
Y83899D01*
X-174499D01*
Y83686D01*
X-174285D01*
Y83259D01*
X-174072D01*
Y83046D01*
X-173859D01*
Y82833D01*
X-173645D01*
Y82619D01*
X-173432D01*
Y82406D01*
X-173219D01*
Y82193D01*
X-173005D01*
Y81766D01*
X-172792D01*
Y81553D01*
X-172579D01*
Y81340D01*
X-172365D01*
Y81126D01*
X-172152D01*
Y80913D01*
X-171939D01*
Y80486D01*
X-171725D01*
Y80273D01*
X-171512D01*
Y80060D01*
X-171299D01*
Y79846D01*
X-171085D01*
Y79633D01*
X-170872D01*
Y79206D01*
X-170659D01*
Y78993D01*
X-170445D01*
Y78780D01*
X-170232D01*
Y78566D01*
X-170019D01*
Y78353D01*
X-169806D01*
Y78140D01*
X-169592D01*
Y77713D01*
X-169379D01*
Y77500D01*
X-169165D01*
Y77286D01*
X-168952D01*
Y77073D01*
X-168739D01*
Y76860D01*
X-168526D01*
Y76433D01*
X-168312D01*
Y76220D01*
X-168099D01*
Y76006D01*
X-167886D01*
Y75793D01*
X-167672D01*
Y75580D01*
X-167459D01*
Y75153D01*
X-167246D01*
Y74940D01*
X-167032D01*
Y87099D01*
X-166819D01*
Y87526D01*
X-162553D01*
Y87312D01*
D02*
G37*
G36*
X-115835Y80486D02*
X-116049D01*
Y80060D01*
X-116262D01*
Y79633D01*
X-116475D01*
Y79206D01*
X-116689D01*
Y78780D01*
X-116902D01*
Y78353D01*
X-117115D01*
Y77926D01*
X-117329D01*
Y77500D01*
X-117542D01*
Y77073D01*
X-117755D01*
Y76646D01*
X-117969D01*
Y76220D01*
X-118182D01*
Y75793D01*
X-118395D01*
Y75367D01*
X-118609D01*
Y74940D01*
X-118822D01*
Y74513D01*
X-119035D01*
Y74087D01*
X-119249D01*
Y73660D01*
X-119462D01*
Y73233D01*
X-119675D01*
Y72807D01*
X-119888D01*
Y72380D01*
X-120102D01*
Y71953D01*
X-120315D01*
Y71527D01*
X-120528D01*
Y71100D01*
X-120742D01*
Y70673D01*
X-120955D01*
Y70247D01*
X-121168D01*
Y69820D01*
X-121382D01*
Y69394D01*
X-121595D01*
Y68967D01*
X-121808D01*
Y68540D01*
X-122022D01*
Y68114D01*
X-122235D01*
Y67900D01*
X-122448D01*
Y67687D01*
X-125008D01*
Y67900D01*
X-125222D01*
Y68114D01*
X-125435D01*
Y68540D01*
X-125648D01*
Y68967D01*
X-125862D01*
Y69394D01*
X-126075D01*
Y69820D01*
X-126288D01*
Y70247D01*
X-126501D01*
Y70673D01*
X-126715D01*
Y71100D01*
X-126928D01*
Y71527D01*
X-127141D01*
Y71953D01*
X-127355D01*
Y72380D01*
X-127568D01*
Y72807D01*
X-127781D01*
Y73233D01*
X-127995D01*
Y73660D01*
X-128208D01*
Y74087D01*
X-128421D01*
Y74513D01*
X-128635D01*
Y74940D01*
X-128848D01*
Y75367D01*
X-129061D01*
Y75793D01*
X-129275D01*
Y76220D01*
X-129488D01*
Y76646D01*
X-129701D01*
Y77073D01*
X-129915D01*
Y77500D01*
X-130128D01*
Y77926D01*
X-130341D01*
Y78353D01*
X-130555D01*
Y78780D01*
X-130768D01*
Y79206D01*
X-130981D01*
Y79633D01*
X-131194D01*
Y80060D01*
X-131408D01*
Y80486D01*
X-131621D01*
Y80913D01*
X-126928D01*
Y80486D01*
X-126715D01*
Y80060D01*
X-126501D01*
Y79420D01*
X-126288D01*
Y78993D01*
X-126075D01*
Y78566D01*
X-125862D01*
Y78140D01*
X-125648D01*
Y77713D01*
X-125435D01*
Y77286D01*
X-125222D01*
Y76860D01*
X-125008D01*
Y76433D01*
X-124795D01*
Y75793D01*
X-124581D01*
Y75367D01*
X-124368D01*
Y74940D01*
X-124155D01*
Y74513D01*
X-123942D01*
Y74087D01*
X-123515D01*
Y74513D01*
X-123302D01*
Y74940D01*
X-123088D01*
Y75367D01*
X-122875D01*
Y75793D01*
X-122662D01*
Y76433D01*
X-122448D01*
Y76860D01*
X-122235D01*
Y77286D01*
X-122022D01*
Y77713D01*
X-121808D01*
Y78140D01*
X-121595D01*
Y78566D01*
X-121382D01*
Y78993D01*
X-121168D01*
Y79420D01*
X-120955D01*
Y79846D01*
X-120742D01*
Y80486D01*
X-120528D01*
Y80700D01*
X-120315D01*
Y80913D01*
X-115835D01*
Y80486D01*
D02*
G37*
G36*
X-106449Y81126D02*
X-105596D01*
Y80913D01*
X-104956D01*
Y80700D01*
X-104529D01*
Y80486D01*
X-104103D01*
Y80273D01*
X-103676D01*
Y80060D01*
X-103463D01*
Y79846D01*
X-103250D01*
Y79633D01*
X-103036D01*
Y79420D01*
X-102823D01*
Y79206D01*
X-102610D01*
Y78993D01*
X-102396D01*
Y78780D01*
X-102183D01*
Y78566D01*
X-101970D01*
Y78140D01*
X-101756D01*
Y77713D01*
X-101543D01*
Y77286D01*
X-101330D01*
Y76646D01*
X-101116D01*
Y75367D01*
X-100903D01*
Y73660D01*
X-110502D01*
Y73447D01*
X-110716D01*
Y72593D01*
X-110502D01*
Y71953D01*
X-110289D01*
Y71527D01*
X-110076D01*
Y71314D01*
X-109862D01*
Y71100D01*
X-109649D01*
Y70887D01*
X-109222D01*
Y70673D01*
X-108582D01*
Y70460D01*
X-106876D01*
Y70673D01*
X-106236D01*
Y70887D01*
X-106023D01*
Y71100D01*
X-105596D01*
Y71527D01*
X-105383D01*
Y71740D01*
X-105169D01*
Y71953D01*
X-103890D01*
Y71740D01*
X-101756D01*
Y71527D01*
X-101116D01*
Y71314D01*
X-101330D01*
Y70673D01*
X-101543D01*
Y70247D01*
X-101756D01*
Y70034D01*
X-101970D01*
Y69607D01*
X-102183D01*
Y69394D01*
X-102396D01*
Y69180D01*
X-102610D01*
Y68967D01*
X-102823D01*
Y68754D01*
X-103036D01*
Y68540D01*
X-103250D01*
Y68327D01*
X-103676D01*
Y68114D01*
X-104103D01*
Y67900D01*
X-104529D01*
Y67687D01*
X-105169D01*
Y67474D01*
X-106023D01*
Y67260D01*
X-109649D01*
Y67474D01*
X-110502D01*
Y67687D01*
X-111142D01*
Y67900D01*
X-111569D01*
Y68114D01*
X-111996D01*
Y68327D01*
X-112209D01*
Y68540D01*
X-112636D01*
Y68754D01*
X-112849D01*
Y68967D01*
X-113062D01*
Y69180D01*
X-113276D01*
Y69394D01*
X-113489D01*
Y69607D01*
X-113702D01*
Y70034D01*
X-113916D01*
Y70247D01*
X-114129D01*
Y70673D01*
X-114342D01*
Y71100D01*
X-114556D01*
Y71527D01*
X-114769D01*
Y72380D01*
X-114982D01*
Y73873D01*
X-115196D01*
Y74727D01*
X-114982D01*
Y76220D01*
X-114769D01*
Y76860D01*
X-114556D01*
Y77500D01*
X-114342D01*
Y77926D01*
X-114129D01*
Y78140D01*
X-113916D01*
Y78566D01*
X-113702D01*
Y78780D01*
X-113489D01*
Y79206D01*
X-113276D01*
Y79420D01*
X-113062D01*
Y79633D01*
X-112849D01*
Y79846D01*
X-112422D01*
Y80060D01*
X-112209D01*
Y80273D01*
X-111996D01*
Y80486D01*
X-111569D01*
Y80700D01*
X-110929D01*
Y80913D01*
X-110502D01*
Y81126D01*
X-109436D01*
Y81340D01*
X-106449D01*
Y81126D01*
D02*
G37*
G36*
X-150607D02*
X-149753D01*
Y80913D01*
X-149113D01*
Y80700D01*
X-148473D01*
Y80486D01*
X-148260D01*
Y80273D01*
X-147833D01*
Y80060D01*
X-147620D01*
Y79846D01*
X-147193D01*
Y79633D01*
X-146980D01*
Y79420D01*
X-146767D01*
Y78993D01*
X-146553D01*
Y78780D01*
X-146340D01*
Y78566D01*
X-146127D01*
Y78140D01*
X-145914D01*
Y77713D01*
X-145700D01*
Y77286D01*
X-145487D01*
Y76646D01*
X-145274D01*
Y75793D01*
X-145060D01*
Y74940D01*
Y74727D01*
Y73660D01*
X-154660D01*
Y73447D01*
X-154873D01*
Y72807D01*
X-154660D01*
Y72167D01*
X-154446D01*
Y71740D01*
X-154233D01*
Y71314D01*
X-154020D01*
Y71100D01*
X-153806D01*
Y70887D01*
X-153380D01*
Y70673D01*
X-152740D01*
Y70460D01*
X-151033D01*
Y70673D01*
X-150393D01*
Y70887D01*
X-149967D01*
Y71100D01*
X-149753D01*
Y71314D01*
X-149540D01*
Y71740D01*
X-149327D01*
Y71953D01*
X-148047D01*
Y71740D01*
X-145914D01*
Y71527D01*
X-145274D01*
Y71100D01*
X-145487D01*
Y70673D01*
X-145700D01*
Y70247D01*
X-145914D01*
Y69820D01*
X-146127D01*
Y69607D01*
X-146340D01*
Y69394D01*
X-146553D01*
Y69180D01*
X-146767D01*
Y68967D01*
X-146980D01*
Y68754D01*
X-147193D01*
Y68540D01*
X-147407D01*
Y68327D01*
X-147833D01*
Y68114D01*
X-148260D01*
Y67900D01*
X-148687D01*
Y67687D01*
X-149327D01*
Y67474D01*
X-150180D01*
Y67260D01*
X-153593D01*
Y67474D01*
X-154660D01*
Y67687D01*
X-155300D01*
Y67900D01*
X-155726D01*
Y68114D01*
X-156153D01*
Y68327D01*
X-156366D01*
Y68540D01*
X-156580D01*
Y68754D01*
X-157006D01*
Y68967D01*
X-157219D01*
Y69180D01*
X-157433D01*
Y69394D01*
X-157646D01*
Y69820D01*
X-157859D01*
Y70034D01*
X-158073D01*
Y70247D01*
X-158286D01*
Y70673D01*
X-158499D01*
Y71100D01*
X-158713D01*
Y71740D01*
X-158926D01*
Y72593D01*
X-159139D01*
Y76006D01*
X-158926D01*
Y76646D01*
X-158713D01*
Y77286D01*
X-158499D01*
Y77713D01*
X-158286D01*
Y78140D01*
X-158073D01*
Y78566D01*
X-157859D01*
Y78780D01*
X-157646D01*
Y78993D01*
X-157433D01*
Y79206D01*
X-157219D01*
Y79633D01*
X-156793D01*
Y79846D01*
X-156580D01*
Y80060D01*
X-156366D01*
Y80273D01*
X-155940D01*
Y80486D01*
X-155513D01*
Y80700D01*
X-155086D01*
Y80913D01*
X-154446D01*
Y81126D01*
X-153593D01*
Y81340D01*
X-150607D01*
Y81126D01*
D02*
G37*
G36*
X-207136D02*
X-206070D01*
Y80913D01*
X-205430D01*
Y80700D01*
X-205003D01*
Y80486D01*
X-204577D01*
Y80273D01*
X-204363D01*
Y80060D01*
X-203937D01*
Y79846D01*
X-203723D01*
Y79633D01*
X-203510D01*
Y79420D01*
X-203297D01*
Y79206D01*
X-203083D01*
Y78993D01*
X-202870D01*
Y78566D01*
X-202657D01*
Y78353D01*
X-202444D01*
Y77926D01*
X-202230D01*
Y77500D01*
X-202017D01*
Y76860D01*
X-201803D01*
Y76006D01*
X-201590D01*
Y73660D01*
X-211190D01*
Y73447D01*
X-211403D01*
Y73020D01*
X-211190D01*
Y72807D01*
Y72593D01*
Y72167D01*
X-210976D01*
Y71740D01*
X-210763D01*
Y71527D01*
X-210550D01*
Y71314D01*
X-210336D01*
Y71100D01*
X-210123D01*
Y70887D01*
X-209910D01*
Y70673D01*
X-209056D01*
Y70460D01*
X-207563D01*
Y70673D01*
X-206923D01*
Y70887D01*
X-206497D01*
Y71100D01*
X-206283D01*
Y71314D01*
X-206070D01*
Y71527D01*
X-205857D01*
Y71953D01*
X-204577D01*
Y71740D01*
X-202444D01*
Y71527D01*
X-201803D01*
Y70887D01*
X-202017D01*
Y70460D01*
X-202230D01*
Y70034D01*
X-202444D01*
Y69820D01*
X-202657D01*
Y69607D01*
X-202870D01*
Y69394D01*
X-203083D01*
Y68967D01*
X-203297D01*
Y68754D01*
X-203723D01*
Y68540D01*
X-203937D01*
Y68327D01*
X-204150D01*
Y68114D01*
X-204577D01*
Y67900D01*
X-205217D01*
Y67687D01*
X-205643D01*
Y67474D01*
X-206710D01*
Y67260D01*
X-210123D01*
Y67474D01*
X-211190D01*
Y67687D01*
X-211616D01*
Y67900D01*
X-212256D01*
Y68114D01*
X-212470D01*
Y68327D01*
X-212896D01*
Y68540D01*
X-213109D01*
Y68754D01*
X-213323D01*
Y68967D01*
X-213536D01*
Y69180D01*
X-213749D01*
Y69394D01*
X-213963D01*
Y69607D01*
X-214176D01*
Y69820D01*
X-214389D01*
Y70034D01*
X-214603D01*
Y70460D01*
X-214816D01*
Y70887D01*
X-215029D01*
Y71314D01*
X-215243D01*
Y71953D01*
X-215456D01*
Y72807D01*
X-215669D01*
Y75580D01*
X-215456D01*
Y76433D01*
X-215243D01*
Y77073D01*
X-215029D01*
Y77713D01*
X-214816D01*
Y78140D01*
X-214603D01*
Y78353D01*
X-214389D01*
Y78780D01*
X-214176D01*
Y78993D01*
X-213963D01*
Y79206D01*
X-213749D01*
Y79420D01*
X-213536D01*
Y79633D01*
X-213323D01*
Y79846D01*
X-213109D01*
Y80060D01*
X-212896D01*
Y80273D01*
X-212470D01*
Y80486D01*
X-212043D01*
Y80700D01*
X-211616D01*
Y80913D01*
X-210976D01*
Y81126D01*
X-210123D01*
Y81340D01*
X-207136D01*
Y81126D01*
D02*
G37*
G36*
X-245748Y87739D02*
X-243828D01*
Y87526D01*
X-242974D01*
Y87312D01*
X-242121D01*
Y87099D01*
X-241694D01*
Y86886D01*
X-241268D01*
Y86672D01*
X-240841D01*
Y86459D01*
X-240415D01*
Y86246D01*
X-239988D01*
Y86033D01*
X-239774D01*
Y85819D01*
X-239561D01*
Y85606D01*
X-239135D01*
Y85393D01*
X-238921D01*
Y85179D01*
X-238708D01*
Y84966D01*
X-238495D01*
Y84753D01*
X-238281D01*
Y84539D01*
X-238068D01*
Y84326D01*
X-237855D01*
Y83899D01*
X-237641D01*
Y83686D01*
X-237428D01*
Y83473D01*
X-237215D01*
Y83046D01*
X-237001D01*
Y82619D01*
X-236788D01*
Y82406D01*
X-236575D01*
Y81766D01*
X-236361D01*
Y81340D01*
X-236148D01*
Y80700D01*
X-235935D01*
Y79846D01*
X-235721D01*
Y78353D01*
X-235508D01*
Y76646D01*
X-235721D01*
Y75153D01*
X-235935D01*
Y74513D01*
X-236148D01*
Y73873D01*
X-236361D01*
Y73233D01*
X-236575D01*
Y72807D01*
X-236788D01*
Y72380D01*
X-237001D01*
Y72167D01*
X-237215D01*
Y71740D01*
X-237428D01*
Y71527D01*
X-237641D01*
Y71100D01*
X-237855D01*
Y70887D01*
X-238068D01*
Y70673D01*
X-238281D01*
Y70460D01*
X-238495D01*
Y70247D01*
X-238708D01*
Y70034D01*
X-238921D01*
Y69820D01*
X-239135D01*
Y69607D01*
X-239348D01*
Y69394D01*
X-239774D01*
Y69180D01*
X-239988D01*
Y68967D01*
X-240201D01*
Y68754D01*
X-240628D01*
Y68540D01*
X-241054D01*
Y68327D01*
X-241481D01*
Y68114D01*
X-241908D01*
Y67900D01*
X-242548D01*
Y67687D01*
X-243401D01*
Y67474D01*
X-244468D01*
Y67260D01*
X-248094D01*
Y67474D01*
X-249161D01*
Y67687D01*
X-250014D01*
Y67900D01*
X-250654D01*
Y68114D01*
X-251080D01*
Y68327D01*
X-251507D01*
Y68540D01*
X-251934D01*
Y68754D01*
X-252360D01*
Y68967D01*
X-252574D01*
Y69180D01*
X-253000D01*
Y69394D01*
X-253214D01*
Y69607D01*
X-253427D01*
Y69820D01*
X-253854D01*
Y70034D01*
X-254067D01*
Y70247D01*
X-254280D01*
Y70460D01*
X-254494D01*
Y70673D01*
X-254707D01*
Y71100D01*
X-254920D01*
Y71314D01*
X-255134D01*
Y71527D01*
X-255347D01*
Y71953D01*
X-255560D01*
Y72167D01*
X-255774D01*
Y72593D01*
X-255987D01*
Y73020D01*
X-256200D01*
Y73447D01*
X-256413D01*
Y74087D01*
X-256627D01*
Y74727D01*
X-256840D01*
Y75793D01*
X-257054D01*
Y78993D01*
X-256840D01*
Y80060D01*
X-256627D01*
Y80913D01*
X-256413D01*
Y81340D01*
X-256200D01*
Y81980D01*
X-255987D01*
Y82406D01*
X-255774D01*
Y82833D01*
X-255560D01*
Y83046D01*
X-255347D01*
Y83473D01*
X-255134D01*
Y83686D01*
X-254920D01*
Y84113D01*
X-254707D01*
Y84326D01*
X-254494D01*
Y84539D01*
X-254280D01*
Y84753D01*
X-254067D01*
Y84966D01*
X-253854D01*
Y85179D01*
X-253640D01*
Y85393D01*
X-253427D01*
Y85606D01*
X-253214D01*
Y85819D01*
X-252787D01*
Y86033D01*
X-252574D01*
Y86246D01*
X-252147D01*
Y86459D01*
X-251934D01*
Y86672D01*
X-251507D01*
Y86886D01*
X-250867D01*
Y87099D01*
X-250441D01*
Y87312D01*
X-249801D01*
Y87526D01*
X-248734D01*
Y87739D01*
X-246814D01*
Y87952D01*
X-245748D01*
Y87739D01*
D02*
G37*
G36*
X-262813Y49128D02*
X-263026D01*
Y49342D01*
X-262813D01*
Y49128D01*
D02*
G37*
%LPC*%
G36*
X-224842Y77713D02*
X-225909D01*
Y77500D01*
X-226549D01*
Y77286D01*
X-226975D01*
Y77073D01*
X-227402D01*
Y76860D01*
X-227615D01*
Y76646D01*
X-227829D01*
Y76433D01*
X-228042D01*
Y76220D01*
X-228255D01*
Y75793D01*
X-228468D01*
Y75153D01*
X-228682D01*
Y73233D01*
X-228468D01*
Y72807D01*
X-228255D01*
Y72380D01*
X-228042D01*
Y72167D01*
X-227829D01*
Y71953D01*
X-227615D01*
Y71740D01*
X-227402D01*
Y71527D01*
X-227189D01*
Y71314D01*
X-226762D01*
Y71100D01*
X-225909D01*
Y70887D01*
X-224842D01*
Y71100D01*
X-223989D01*
Y71314D01*
X-223776D01*
Y71527D01*
X-223349D01*
Y71740D01*
X-223136D01*
Y71953D01*
X-222922D01*
Y72167D01*
X-222709D01*
Y72380D01*
X-222496D01*
Y72807D01*
X-222282D01*
Y73447D01*
X-222069D01*
Y75153D01*
X-222282D01*
Y75793D01*
X-222496D01*
Y76220D01*
X-222709D01*
Y76433D01*
X-222922D01*
Y76646D01*
X-223136D01*
Y76860D01*
X-223349D01*
Y77073D01*
X-223562D01*
Y77286D01*
X-223989D01*
Y77500D01*
X-224842D01*
Y77713D01*
D02*
G37*
G36*
X-106876Y78353D02*
X-108582D01*
Y78140D01*
X-109222D01*
Y77926D01*
X-109436D01*
Y77713D01*
X-109649D01*
Y77500D01*
X-109862D01*
Y77286D01*
X-110076D01*
Y77073D01*
X-110289D01*
Y76646D01*
X-110502D01*
Y76006D01*
X-105169D01*
Y76220D01*
X-104956D01*
Y76646D01*
X-105169D01*
Y76860D01*
Y77073D01*
X-105383D01*
Y77286D01*
X-105596D01*
Y77500D01*
X-105809D01*
Y77713D01*
X-106023D01*
Y77926D01*
X-106236D01*
Y78140D01*
X-106876D01*
Y78353D01*
D02*
G37*
G36*
X-151033D02*
X-152740D01*
Y78140D01*
X-153167D01*
Y77926D01*
X-153593D01*
Y77713D01*
X-153806D01*
Y77500D01*
X-154020D01*
Y77286D01*
X-154233D01*
Y77073D01*
X-154446D01*
Y76646D01*
X-154660D01*
Y76220D01*
X-154446D01*
Y76006D01*
X-149113D01*
Y76646D01*
X-149327D01*
Y77073D01*
X-149540D01*
Y77500D01*
X-149753D01*
Y77713D01*
X-150180D01*
Y77926D01*
X-150393D01*
Y78140D01*
X-151033D01*
Y78353D01*
D02*
G37*
G36*
X-207350D02*
X-209270D01*
Y78140D01*
X-209696D01*
Y77926D01*
X-210123D01*
Y77713D01*
X-210336D01*
Y77500D01*
X-210550D01*
Y77286D01*
X-210763D01*
Y76860D01*
X-210976D01*
Y76433D01*
X-211190D01*
Y76220D01*
X-210976D01*
Y76006D01*
X-205643D01*
Y76220D01*
X-205430D01*
Y76433D01*
X-205643D01*
Y76860D01*
X-205857D01*
Y77073D01*
Y77286D01*
X-206070D01*
Y77500D01*
X-206283D01*
Y77713D01*
X-206497D01*
Y77926D01*
X-206923D01*
Y78140D01*
X-207350D01*
Y78353D01*
D02*
G37*
%LPD*%
D10*
X197510Y-201350D02*
G03*
X197510Y-201350I-1000J0D01*
G01*
X17510D02*
G03*
X17510Y-201350I-1000J0D01*
G01*
X-162490D02*
G03*
X-162490Y-201350I-1000J0D01*
G01*
X-120974Y239129D02*
Y282309D01*
Y239129D02*
X13646D01*
Y282309D01*
X-120974D02*
X13646D01*
D11*
X204470Y173990D02*
G03*
X204470Y173990I-1270J0D01*
G01*
Y142240D02*
G03*
X204470Y142240I-1270J0D01*
G01*
D12*
X-83540Y-156150D02*
G03*
X-83540Y-156150I-1250J0D01*
G01*
X27920D02*
G03*
X27920Y-156150I-1250J0D01*
G01*
X139380D02*
G03*
X139380Y-156150I-1250J0D01*
G01*
D13*
X-478419Y173596D02*
G03*
X-478585Y-173444I228521J-173630D01*
G01*
X478652Y-173415D02*
G03*
X529497Y-65057I-228684J173415D01*
G01*
X529474Y65021D02*
G03*
X478588Y173438I-279531J-65049D01*
G01*
X-478419Y173608D02*
X-296579Y173608D01*
Y282578D01*
X-478662Y-173421D02*
X-296607Y-173421D01*
X-296570Y282587D02*
X-296557Y282600D01*
X296680D01*
Y282449D02*
X296689Y282440D01*
X296680Y282449D02*
Y282600D01*
X296689Y173470D02*
Y282440D01*
X529477Y-34290D02*
Y34290D01*
X-296607Y-282614D02*
Y-173421D01*
Y-282614D02*
X296559D01*
Y-173418D01*
X478464D01*
X296689Y173470D02*
X478259D01*
D14*
X-34290Y-34680D02*
X-29210D01*
X-34290D02*
Y-29600D01*
X-488580Y-78680D02*
X-461480D01*
X430590Y-74460D02*
Y-47360D01*
X285827Y-108419D02*
Y-102682D01*
X279271Y-108419D02*
X285827D01*
X273612Y67387D02*
X279349D01*
Y60831D02*
Y67387D01*
X-144792Y-18470D02*
X-144426D01*
X-139346D01*
X-144792D02*
Y-12864D01*
X-162560Y17090D02*
X-162194D01*
X-167640D02*
X-162560D01*
X-162194Y11484D02*
Y17090D01*
X361950Y-8890D02*
Y2540D01*
X179691Y-30325D02*
X186004D01*
X-354060Y-75190D02*
X-350060D01*
Y-79190D02*
Y-75190D01*
X-399270Y28160D02*
Y33670D01*
X-393729D01*
X375741Y-135984D02*
X393476Y-135866D01*
X403860Y82550D02*
X412750D01*
X408305Y78105D02*
Y86995D01*
Y103505D02*
Y112395D01*
X328975Y-58975D02*
X351835D01*
X257855Y5795D02*
X280715D01*
X-316611Y-23325D02*
X-305966D01*
X-148853Y-75256D02*
X-138208D01*
X-345090Y95310D02*
Y101310D01*
X-361090Y95310D02*
Y101310D01*
X116570Y145637D02*
Y140639D01*
X119069Y138140D01*
X121568Y140639D01*
Y145637D01*
X129066Y144388D02*
X127816Y145637D01*
X125317D01*
X124068Y144388D01*
Y139389D01*
X125317Y138140D01*
X127816D01*
X129066Y139389D01*
X131565Y145637D02*
Y138140D01*
Y141888D01*
X136564D01*
Y145637D01*
Y138140D01*
X144061Y144388D02*
X142812Y145637D01*
X140312D01*
X139063Y144388D01*
Y139389D01*
X140312Y138140D01*
X142812D01*
X144061Y139389D01*
Y141888D01*
X141562D01*
X146560Y136890D02*
X151559D01*
X157807Y145637D02*
X155308D01*
X154058Y144388D01*
Y139389D01*
X155308Y138140D01*
X157807D01*
X159056Y139389D01*
Y144388D01*
X157807Y145637D01*
X161556Y138140D02*
Y145637D01*
X166554Y138140D01*
Y145637D01*
X124190Y177408D02*
X125440Y178657D01*
X127939D01*
X129188Y177408D01*
Y176158D01*
X127939Y174908D01*
X126689D01*
X127939D01*
X129188Y173659D01*
Y172409D01*
X127939Y171160D01*
X125440D01*
X124190Y172409D01*
X131688Y178657D02*
Y173659D01*
X134187Y171160D01*
X136686Y173659D01*
Y178657D01*
X139185Y177408D02*
X140435Y178657D01*
X142934D01*
X144184Y177408D01*
Y176158D01*
X142934Y174908D01*
X141684D01*
X142934D01*
X144184Y173659D01*
Y172409D01*
X142934Y171160D01*
X140435D01*
X139185Y172409D01*
X146683Y169910D02*
X151681D01*
X157929Y178657D02*
X155430D01*
X154180Y177408D01*
Y172409D01*
X155430Y171160D01*
X157929D01*
X159179Y172409D01*
Y177408D01*
X157929Y178657D01*
X161678Y171160D02*
Y178657D01*
X166676Y171160D01*
Y178657D01*
X83468Y103748D02*
X80969D01*
X82219D01*
Y97500D01*
X80969Y96250D01*
X79720D01*
X78470Y97500D01*
X85968Y103748D02*
X90966D01*
X88467D01*
Y96250D01*
X93465D02*
Y101248D01*
X95964Y103748D01*
X98464Y101248D01*
Y96250D01*
Y99999D01*
X93465D01*
X105961Y102498D02*
X104712Y103748D01*
X102212D01*
X100963Y102498D01*
Y97500D01*
X102212Y96250D01*
X104712D01*
X105961Y97500D01*
Y99999D01*
X103462D01*
X-522322Y-27042D02*
X-523571Y-25792D01*
X-526070D01*
X-527320Y-27042D01*
Y-32040D01*
X-526070Y-33290D01*
X-523571D01*
X-522322Y-32040D01*
Y-29541D01*
X-524821D01*
X-519822Y-33290D02*
Y-25792D01*
X-514824Y-33290D01*
Y-25792D01*
X-512325D02*
Y-33290D01*
X-508576D01*
X-507326Y-32040D01*
Y-27042D01*
X-508576Y-25792D01*
X-512325D01*
X-282292Y-123562D02*
X-283541Y-122312D01*
X-286040D01*
X-287290Y-123562D01*
Y-128560D01*
X-286040Y-129810D01*
X-283541D01*
X-282292Y-128560D01*
Y-126061D01*
X-284791D01*
X-279792Y-129810D02*
Y-122312D01*
X-274794Y-129810D01*
Y-122312D01*
X-272295D02*
Y-129810D01*
X-268546D01*
X-267296Y-128560D01*
Y-123562D01*
X-268546Y-122312D01*
X-272295D01*
X35952Y98790D02*
X43450D01*
Y102539D01*
X42200Y103788D01*
X40951D01*
X39701Y102539D01*
Y98790D01*
Y102539D01*
X38452Y103788D01*
X37202D01*
X35952Y102539D01*
Y98790D01*
Y106288D02*
X43450D01*
Y111286D01*
X35952Y118784D02*
Y113785D01*
X43450D01*
Y118784D01*
X39701Y113785D02*
Y116284D01*
X43450Y128780D02*
X38452D01*
X35952Y131280D01*
X38452Y133779D01*
X43450D01*
X39701D01*
Y128780D01*
X43450Y136278D02*
X38452D01*
Y140027D01*
X39701Y141276D01*
X43450D01*
X37202Y145025D02*
X38452D01*
Y143776D01*
Y146275D01*
Y145025D01*
X42200D01*
X43450Y146275D01*
Y153772D02*
Y151273D01*
X42200Y150024D01*
X39701D01*
X38452Y151273D01*
Y153772D01*
X39701Y155022D01*
X40951D01*
Y150024D01*
X43450Y157521D02*
X38452D01*
Y161270D01*
X39701Y162520D01*
X43450D01*
Y165019D02*
X38452D01*
Y168768D01*
X39701Y170017D01*
X43450D01*
X38452Y173766D02*
Y176265D01*
X39701Y177515D01*
X43450D01*
Y173766D01*
X42200Y172516D01*
X40951Y173766D01*
Y177515D01*
X-29480Y-154062D02*
Y-161560D01*
X-25731D01*
X-24482Y-160310D01*
Y-159061D01*
X-25731Y-157811D01*
X-29480D01*
X-25731D01*
X-24482Y-156562D01*
Y-155312D01*
X-25731Y-154062D01*
X-29480D01*
X-21982D02*
Y-160310D01*
X-20733Y-161560D01*
X-18234D01*
X-16984Y-160310D01*
Y-154062D01*
X-14485D02*
X-9486D01*
X-11986D01*
Y-161560D01*
X-6987Y-154062D02*
X-1989D01*
X-4488D01*
Y-161560D01*
X4259Y-154062D02*
X1760D01*
X510Y-155312D01*
Y-160310D01*
X1760Y-161560D01*
X4259D01*
X5509Y-160310D01*
Y-155312D01*
X4259Y-154062D01*
X8008Y-161560D02*
Y-154062D01*
X13006Y-161560D01*
Y-154062D01*
X20504Y-161560D02*
X15506D01*
X20504Y-156562D01*
Y-155312D01*
X19254Y-154062D01*
X16755D01*
X15506Y-155312D01*
X83550Y-154062D02*
Y-161560D01*
X87299D01*
X88548Y-160310D01*
Y-159061D01*
X87299Y-157811D01*
X83550D01*
X87299D01*
X88548Y-156562D01*
Y-155312D01*
X87299Y-154062D01*
X83550D01*
X91048D02*
Y-160310D01*
X92297Y-161560D01*
X94796D01*
X96046Y-160310D01*
Y-154062D01*
X98545D02*
X103544D01*
X101044D01*
Y-161560D01*
X106043Y-154062D02*
X111041D01*
X108542D01*
Y-161560D01*
X117289Y-154062D02*
X114790D01*
X113540Y-155312D01*
Y-160310D01*
X114790Y-161560D01*
X117289D01*
X118539Y-160310D01*
Y-155312D01*
X117289Y-154062D01*
X121038Y-161560D02*
Y-154062D01*
X126036Y-161560D01*
Y-154062D01*
X128536Y-161560D02*
X131035D01*
X129785D01*
Y-154062D01*
X128536Y-155312D01*
X-142510Y-154062D02*
Y-161560D01*
X-138761D01*
X-137512Y-160310D01*
Y-159061D01*
X-138761Y-157811D01*
X-142510D01*
X-138761D01*
X-137512Y-156562D01*
Y-155312D01*
X-138761Y-154062D01*
X-142510D01*
X-135012D02*
Y-160310D01*
X-133763Y-161560D01*
X-131264D01*
X-130014Y-160310D01*
Y-154062D01*
X-127515D02*
X-122516D01*
X-125016D01*
Y-161560D01*
X-120017Y-154062D02*
X-115019D01*
X-117518D01*
Y-161560D01*
X-108771Y-154062D02*
X-111270D01*
X-112520Y-155312D01*
Y-160310D01*
X-111270Y-161560D01*
X-108771D01*
X-107521Y-160310D01*
Y-155312D01*
X-108771Y-154062D01*
X-105022Y-161560D02*
Y-154062D01*
X-100024Y-161560D01*
Y-154062D01*
X-97524Y-155312D02*
X-96275Y-154062D01*
X-93776D01*
X-92526Y-155312D01*
Y-156562D01*
X-93776Y-157811D01*
X-95025D01*
X-93776D01*
X-92526Y-159061D01*
Y-160310D01*
X-93776Y-161560D01*
X-96275D01*
X-97524Y-160310D01*
X-518512Y50387D02*
X-523510D01*
Y46638D01*
X-521011Y47888D01*
X-519761D01*
X-518512Y46638D01*
Y44139D01*
X-519761Y42890D01*
X-522260D01*
X-523510Y44139D01*
X-516012Y50387D02*
Y45389D01*
X-513513Y42890D01*
X-511014Y45389D01*
Y50387D01*
X-508515Y41640D02*
X-503516D01*
X-501017Y50387D02*
Y42890D01*
X-498518Y45389D01*
X-496019Y42890D01*
Y50387D01*
X-493520Y42890D02*
Y50387D01*
X-489771D01*
X-488521Y49138D01*
Y46638D01*
X-489771Y45389D01*
X-493520D01*
X-486022Y50387D02*
X-481024D01*
X-483523D01*
Y42890D01*
X-358191Y-157934D02*
X-359441Y-159183D01*
Y-161682D01*
X-358191Y-162932D01*
X-353193D01*
X-351943Y-161682D01*
Y-159183D01*
X-353193Y-157934D01*
X-359441Y-155434D02*
X-351943D01*
Y-150436D01*
X-359441Y-147937D02*
X-351943D01*
X-354442D01*
X-359441Y-142938D01*
X-355692Y-146687D01*
X-351943Y-142938D01*
X-374278Y-157934D02*
X-375528Y-159183D01*
Y-161682D01*
X-374278Y-162932D01*
X-369280D01*
X-368030Y-161682D01*
Y-159183D01*
X-369280Y-157934D01*
X-374278Y-150436D02*
X-375528Y-151686D01*
Y-154185D01*
X-374278Y-155434D01*
X-373028D01*
X-371779Y-154185D01*
Y-151686D01*
X-370529Y-150436D01*
X-369280D01*
X-368030Y-151686D01*
Y-154185D01*
X-369280Y-155434D01*
X-368030Y-147937D02*
X-373028D01*
Y-144188D01*
X-371779Y-142938D01*
X-368030D01*
X-326018Y-159102D02*
X-327268Y-160351D01*
Y-162850D01*
X-326018Y-164100D01*
X-324768D01*
X-323519Y-162850D01*
Y-160351D01*
X-322269Y-159102D01*
X-321020D01*
X-319770Y-160351D01*
Y-162850D01*
X-321020Y-164100D01*
X-327268Y-156602D02*
X-319770D01*
Y-152854D01*
X-321020Y-151604D01*
X-326018D01*
X-327268Y-152854D01*
Y-156602D01*
Y-145356D02*
Y-147855D01*
X-326018Y-149105D01*
X-321020D01*
X-319770Y-147855D01*
Y-145356D01*
X-321020Y-144106D01*
X-326018D01*
X-327268Y-145356D01*
X-342105Y-164182D02*
X-343354Y-165431D01*
Y-167930D01*
X-342105Y-169180D01*
X-340855D01*
X-339605Y-167930D01*
Y-165431D01*
X-338356Y-164182D01*
X-337106D01*
X-335857Y-165431D01*
Y-167930D01*
X-337106Y-169180D01*
X-343354Y-161682D02*
X-335857D01*
Y-157934D01*
X-337106Y-156684D01*
X-342105D01*
X-343354Y-157934D01*
Y-161682D01*
Y-154185D02*
Y-151686D01*
Y-152935D01*
X-335857D01*
Y-154185D01*
Y-151686D01*
Y-147937D02*
X-343354D01*
X-335857Y-142938D01*
X-343354D01*
X206740Y-136303D02*
Y-141301D01*
X209239Y-143800D01*
X211738Y-141301D01*
Y-136303D01*
X219236Y-137552D02*
X217986Y-136303D01*
X215487D01*
X214238Y-137552D01*
Y-142551D01*
X215487Y-143800D01*
X217986D01*
X219236Y-142551D01*
X221735Y-136303D02*
Y-143800D01*
Y-140052D01*
X226734D01*
Y-136303D01*
Y-143800D01*
X234231Y-137552D02*
X232982Y-136303D01*
X230482D01*
X229233Y-137552D01*
Y-142551D01*
X230482Y-143800D01*
X232982D01*
X234231Y-142551D01*
Y-140052D01*
X231732D01*
X236730Y-145050D02*
X241729D01*
X244228Y-143800D02*
Y-136303D01*
X246727Y-138802D01*
X249226Y-136303D01*
Y-143800D01*
X256724Y-136303D02*
X251726D01*
Y-143800D01*
X256724D01*
X251726Y-140052D02*
X254225D01*
X259223Y-143800D02*
Y-138802D01*
X261722Y-136303D01*
X264222Y-138802D01*
Y-143800D01*
Y-140052D01*
X259223D01*
X271719Y-137552D02*
X270470Y-136303D01*
X267970D01*
X266721Y-137552D01*
Y-138802D01*
X267970Y-140052D01*
X270470D01*
X271719Y-141301D01*
Y-142551D01*
X270470Y-143800D01*
X267970D01*
X266721Y-142551D01*
X-93588Y-38370D02*
X-86090D01*
Y-34621D01*
X-87340Y-33372D01*
X-88589D01*
X-89839Y-34621D01*
Y-38370D01*
Y-34621D01*
X-91088Y-33372D01*
X-92338D01*
X-93588Y-34621D01*
Y-38370D01*
Y-30872D02*
X-87340D01*
X-86090Y-29623D01*
Y-27124D01*
X-87340Y-25874D01*
X-93588D01*
Y-23375D02*
Y-18376D01*
X-92338D01*
X-87340Y-23375D01*
X-86090D01*
Y-18376D01*
X-93588Y-15877D02*
Y-10879D01*
X-92338D01*
X-87340Y-15877D01*
X-86090D01*
Y-10879D01*
X-93588Y-3381D02*
Y-8380D01*
X-86090D01*
Y-3381D01*
X-89839Y-8380D02*
Y-5880D01*
X-86090Y-882D02*
X-93588D01*
Y2867D01*
X-92338Y4116D01*
X-89839D01*
X-88589Y2867D01*
Y-882D01*
Y1617D02*
X-86090Y4116D01*
X-204740Y-150273D02*
Y-157770D01*
X-199742D01*
X-192244Y-150273D02*
X-197242D01*
Y-157770D01*
X-192244D01*
X-197242Y-154022D02*
X-194743D01*
X-189745Y-150273D02*
Y-157770D01*
X-185996D01*
X-184746Y-156521D01*
Y-151522D01*
X-185996Y-150273D01*
X-189745D01*
X-182247Y-159020D02*
X-177249D01*
X-174750Y-150273D02*
Y-157770D01*
X-171001D01*
X-169751Y-156521D01*
Y-151522D01*
X-171001Y-150273D01*
X-174750D01*
X-167252D02*
X-164753D01*
X-166002D01*
Y-157770D01*
X-167252D01*
X-164753D01*
X-161004D02*
Y-150273D01*
X-156006Y-157770D01*
Y-150273D01*
X119028Y-25792D02*
X114030D01*
Y-29541D01*
X116529Y-28292D01*
X117779D01*
X119028Y-29541D01*
Y-32040D01*
X117779Y-33290D01*
X115280D01*
X114030Y-32040D01*
X121528Y-25792D02*
Y-30791D01*
X124027Y-33290D01*
X126526Y-30791D01*
Y-25792D01*
X121022Y56880D02*
X119772Y58130D01*
Y60629D01*
X121022Y61878D01*
X122272D01*
X123521Y60629D01*
Y59379D01*
Y60629D01*
X124771Y61878D01*
X126020D01*
X127270Y60629D01*
Y58130D01*
X126020Y56880D01*
X119772Y64378D02*
X124771D01*
X127270Y66877D01*
X124771Y69376D01*
X119772D01*
Y71875D02*
Y76874D01*
X121022D01*
X126020Y71875D01*
X127270D01*
X150778Y108848D02*
X149529Y110098D01*
X147030D01*
X145780Y108848D01*
Y103850D01*
X147030Y102600D01*
X149529D01*
X150778Y103850D01*
Y106349D01*
X148279D01*
X153278Y102600D02*
Y110098D01*
X158276Y102600D01*
Y110098D01*
X160775D02*
Y102600D01*
X164524D01*
X165774Y103850D01*
Y108848D01*
X164524Y110098D01*
X160775D01*
X211738Y130438D02*
X210489Y131688D01*
X207990D01*
X206740Y130438D01*
Y125440D01*
X207990Y124190D01*
X210489D01*
X211738Y125440D01*
Y127939D01*
X209239D01*
X214238Y124190D02*
Y131688D01*
X219236Y124190D01*
Y131688D01*
X221735D02*
Y124190D01*
X225484D01*
X226734Y125440D01*
Y130438D01*
X225484Y131688D01*
X221735D01*
X454308Y65668D02*
X453059Y66918D01*
X450560D01*
X449310Y65668D01*
Y60670D01*
X450560Y59420D01*
X453059D01*
X454308Y60670D01*
Y63169D01*
X451809D01*
X456808Y59420D02*
Y66918D01*
X461806Y59420D01*
Y66918D01*
X464305D02*
Y59420D01*
X468054D01*
X469304Y60670D01*
Y65668D01*
X468054Y66918D01*
X464305D01*
X295640Y26278D02*
Y21279D01*
X298139Y18780D01*
X300638Y21279D01*
Y26278D01*
X303138D02*
Y18780D01*
X306886D01*
X308136Y20030D01*
Y21279D01*
X306886Y22529D01*
X303138D01*
X306886D01*
X308136Y23778D01*
Y25028D01*
X306886Y26278D01*
X303138D01*
X310635Y18780D02*
Y23778D01*
X313134Y26278D01*
X315634Y23778D01*
Y18780D01*
Y22529D01*
X310635D01*
X318133Y26278D02*
X323131D01*
X320632D01*
Y18780D01*
X225790Y18637D02*
Y13639D01*
X228289Y11140D01*
X230788Y13639D01*
Y18637D01*
X233288Y9890D02*
X238286D01*
X240785Y18637D02*
Y12389D01*
X242035Y11140D01*
X244534D01*
X245784Y12389D01*
Y18637D01*
X248283Y11140D02*
Y18637D01*
X253281Y11140D01*
Y18637D01*
X255780Y11140D02*
Y18637D01*
X259529D01*
X260779Y17388D01*
Y14888D01*
X259529Y13639D01*
X255780D01*
X258280D02*
X260779Y11140D01*
X268276Y18637D02*
X263278D01*
Y11140D01*
X268276D01*
X263278Y14888D02*
X265777D01*
X275774Y17388D02*
X274524Y18637D01*
X272025D01*
X270776Y17388D01*
Y12389D01*
X272025Y11140D01*
X274524D01*
X275774Y12389D01*
Y14888D01*
X273275D01*
X303260Y-32142D02*
Y-37141D01*
X305759Y-39640D01*
X308258Y-37141D01*
Y-32142D01*
X315756Y-33392D02*
X314506Y-32142D01*
X312007D01*
X310758Y-33392D01*
Y-38390D01*
X312007Y-39640D01*
X314506D01*
X315756Y-38390D01*
X318255Y-32142D02*
Y-39640D01*
Y-35891D01*
X323254D01*
Y-32142D01*
Y-39640D01*
X330751Y-33392D02*
X329502Y-32142D01*
X327002D01*
X325753Y-33392D01*
Y-38390D01*
X327002Y-39640D01*
X329502D01*
X330751Y-38390D01*
Y-35891D01*
X328252D01*
X394700Y-141403D02*
Y-146402D01*
X397199Y-148901D01*
X399698Y-146402D01*
Y-141403D01*
X402198Y-148901D02*
Y-143902D01*
X404697Y-141403D01*
X407196Y-143902D01*
Y-148901D01*
Y-145152D01*
X402198D01*
X409695Y-141403D02*
Y-147651D01*
X410945Y-148901D01*
X413444D01*
X414694Y-147651D01*
Y-141403D01*
X417193D02*
X422191Y-148901D01*
Y-141403D02*
X417193Y-148901D01*
X437186Y-142653D02*
X435937Y-141403D01*
X433438D01*
X432188Y-142653D01*
Y-143902D01*
X433438Y-145152D01*
X435937D01*
X437186Y-146402D01*
Y-147651D01*
X435937Y-148901D01*
X433438D01*
X432188Y-147651D01*
X439686Y-143902D02*
Y-147651D01*
X440935Y-148901D01*
X444684D01*
Y-143902D01*
X447183Y-151400D02*
Y-143902D01*
X450932D01*
X452182Y-145152D01*
Y-147651D01*
X450932Y-148901D01*
X447183D01*
X454681Y-151400D02*
Y-143902D01*
X458430D01*
X459679Y-145152D01*
Y-147651D01*
X458430Y-148901D01*
X454681D01*
X462178D02*
X464678D01*
X463428D01*
Y-141403D01*
X462178D01*
X468426Y-143902D02*
Y-147651D01*
X469676Y-148901D01*
X473425D01*
Y-150150D01*
X472175Y-151400D01*
X470926D01*
X473425Y-148901D02*
Y-143902D01*
X415020Y132958D02*
Y125460D01*
X418769D01*
X420018Y126710D01*
Y127959D01*
X418769Y129209D01*
X415020D01*
X418769D01*
X420018Y130458D01*
Y131708D01*
X418769Y132958D01*
X415020D01*
X422518Y125460D02*
Y130458D01*
X425017Y132958D01*
X427516Y130458D01*
Y125460D01*
Y129209D01*
X422518D01*
X430015Y132958D02*
X435014D01*
X432514D01*
Y125460D01*
X237220Y153257D02*
Y145760D01*
X240969D01*
X242218Y147009D01*
Y148259D01*
X240969Y149508D01*
X237220D01*
X240969D01*
X242218Y150758D01*
Y152008D01*
X240969Y153257D01*
X237220D01*
X244718Y145760D02*
Y150758D01*
X247217Y153257D01*
X249716Y150758D01*
Y145760D01*
Y149508D01*
X244718D01*
X252215Y153257D02*
X257214D01*
X254714D01*
Y145760D01*
X259713Y144510D02*
X264711D01*
X267210Y145760D02*
Y153257D01*
X269710Y150758D01*
X272209Y153257D01*
Y145760D01*
X279706Y153257D02*
X274708D01*
Y145760D01*
X279706D01*
X274708Y149508D02*
X277207D01*
X282206Y145760D02*
Y150758D01*
X284705Y153257D01*
X287204Y150758D01*
Y145760D01*
Y149508D01*
X282206D01*
X294702Y152008D02*
X293452Y153257D01*
X290953D01*
X289703Y152008D01*
Y150758D01*
X290953Y149508D01*
X293452D01*
X294702Y148259D01*
Y147009D01*
X293452Y145760D01*
X290953D01*
X289703Y147009D01*
X124108Y7248D02*
X122859Y8498D01*
X120360D01*
X119110Y7248D01*
Y2250D01*
X120360Y1000D01*
X122859D01*
X124108Y2250D01*
Y4749D01*
X121609D01*
X126608Y1000D02*
Y8498D01*
X131606Y1000D01*
Y8498D01*
X134105D02*
Y1000D01*
X137854D01*
X139104Y2250D01*
Y7248D01*
X137854Y8498D01*
X134105D01*
D15*
X-35220Y52180D02*
Y55930D01*
X-39470D02*
X-35220D01*
D16*
X529456Y52070D02*
Y65021D01*
X529497Y-65057D02*
Y-52070D01*
D17*
X-208280Y115947D02*
X-204281Y107950D01*
X-200283Y115947D01*
X-196284Y107950D02*
Y109949D01*
X-194284D01*
Y107950D01*
X-196284D01*
X-186287D02*
X-182288D01*
X-184288D01*
Y119946D01*
X-186287Y117947D01*
X-176290Y107950D02*
Y109949D01*
X-174291D01*
Y107950D01*
X-176290D01*
X-158296D02*
X-166294D01*
X-158296Y115947D01*
Y117947D01*
X-160296Y119946D01*
X-164294D01*
X-166294Y117947D01*
X-154297Y107950D02*
Y109949D01*
X-152298D01*
Y107950D01*
X-154297D01*
X-144301D02*
Y115947D01*
X-140302Y119946D01*
X-136303Y115947D01*
Y107950D01*
Y113948D01*
X-144301D01*
X-285750Y145535D02*
Y133539D01*
X-281751Y137537D01*
X-277753Y133539D01*
Y145535D01*
X-273754Y133539D02*
Y145535D01*
X-267756D01*
X-265756Y143535D01*
Y139537D01*
X-267756Y137537D01*
X-273754D01*
X-261758Y145535D02*
X-253760D01*
X-257759D01*
Y133539D01*
X-229768Y143535D02*
X-231768Y145535D01*
X-235766D01*
X-237766Y143535D01*
Y135538D01*
X-235766Y133539D01*
X-231768D01*
X-229768Y135538D01*
X-225769Y145535D02*
Y133539D01*
Y139537D01*
X-223770Y141536D01*
X-219771D01*
X-217772Y139537D01*
Y133539D01*
X-211774Y141536D02*
X-207775D01*
X-205776Y139537D01*
Y133539D01*
X-211774D01*
X-213773Y135538D01*
X-211774Y137537D01*
X-205776D01*
X-201777Y141536D02*
Y133539D01*
Y137537D01*
X-199778Y139537D01*
X-197778Y141536D01*
X-195779D01*
X-185782Y129540D02*
X-183783D01*
X-181784Y131539D01*
Y141536D01*
X-187782D01*
X-189781Y139537D01*
Y135538D01*
X-187782Y133539D01*
X-181784D01*
X-171787D02*
X-175786D01*
X-177785Y135538D01*
Y139537D01*
X-175786Y141536D01*
X-171787D01*
X-169788Y139537D01*
Y137537D01*
X-177785D01*
X-165789Y141536D02*
Y133539D01*
Y137537D01*
X-163790Y139537D01*
X-161790Y141536D01*
X-159791D01*
X-141797Y133539D02*
Y145535D01*
X-137798Y141536D01*
X-133799Y145535D01*
Y133539D01*
X-127801Y141536D02*
X-123802D01*
X-121803Y139537D01*
Y133539D01*
X-127801D01*
X-129801Y135538D01*
X-127801Y137537D01*
X-121803D01*
X-117804Y133539D02*
X-113806D01*
X-115805D01*
Y141536D01*
X-117804D01*
X-107808Y133539D02*
Y141536D01*
X-101810D01*
X-99810Y139537D01*
Y133539D01*
X-83815D02*
Y145535D01*
X-77817D01*
X-75818Y143535D01*
Y139537D01*
X-77817Y137537D01*
X-83815D01*
X-63822Y143535D02*
X-65821Y145535D01*
X-69820D01*
X-71819Y143535D01*
Y135538D01*
X-69820Y133539D01*
X-65821D01*
X-63822Y135538D01*
X-59823Y145535D02*
Y133539D01*
X-53825D01*
X-51826Y135538D01*
Y137537D01*
X-53825Y139537D01*
X-59823D01*
X-53825D01*
X-51826Y141536D01*
Y143535D01*
X-53825Y145535D01*
X-59823D01*
D18*
X-490616Y69515D02*
X-491449Y68682D01*
Y67016D01*
X-490616Y66183D01*
X-487284D01*
X-486451Y67016D01*
Y68682D01*
X-487284Y69515D01*
X-486451Y73680D02*
X-491449D01*
X-488950Y71181D01*
Y74513D01*
X-486451Y76180D02*
Y77846D01*
Y77013D01*
X-491449D01*
X-490616Y76180D01*
X-491449Y83677D02*
Y80345D01*
X-488950D01*
X-489783Y82011D01*
Y82844D01*
X-488950Y83677D01*
X-487284D01*
X-486451Y82844D01*
Y81178D01*
X-487284Y80345D01*
X-309006Y72055D02*
X-309839Y71222D01*
Y69556D01*
X-309006Y68723D01*
X-305674D01*
X-304841Y69556D01*
Y71222D01*
X-305674Y72055D01*
X-304841Y76220D02*
X-309839D01*
X-307340Y73721D01*
Y77053D01*
X-304841Y78720D02*
Y80386D01*
Y79553D01*
X-309839D01*
X-309006Y78720D01*
X-304841Y85384D02*
X-309839D01*
X-307340Y82885D01*
Y86217D01*
X-310276Y101265D02*
X-311109Y100432D01*
Y98766D01*
X-310276Y97933D01*
X-306944D01*
X-306111Y98766D01*
Y100432D01*
X-306944Y101265D01*
X-306111Y105430D02*
X-311109D01*
X-308610Y102931D01*
Y106263D01*
X-306111Y107930D02*
Y109596D01*
Y108763D01*
X-311109D01*
X-310276Y107930D01*
Y112095D02*
X-311109Y112928D01*
Y114594D01*
X-310276Y115427D01*
X-309443D01*
X-308610Y114594D01*
Y113761D01*
Y114594D01*
X-307777Y115427D01*
X-306944D01*
X-306111Y114594D01*
Y112928D01*
X-306944Y112095D01*
X-306740Y-112751D02*
X-303407D01*
X-305074D01*
Y-117749D01*
X-301741D02*
Y-112751D01*
X-299242D01*
X-298409Y-113584D01*
Y-115250D01*
X-299242Y-116083D01*
X-301741D01*
X-294244Y-117749D02*
Y-112751D01*
X-296743Y-115250D01*
X-293411D01*
X-288412Y-117749D02*
X-291745D01*
X-288412Y-114417D01*
Y-113584D01*
X-289245Y-112751D01*
X-290912D01*
X-291745Y-113584D01*
X-286746Y-117749D02*
X-285080D01*
X-285913D01*
Y-112751D01*
X-286746Y-113584D01*
X-528553Y-1311D02*
X-525221D01*
X-526887D01*
Y-6309D01*
X-523554D02*
Y-1311D01*
X-521055D01*
X-520222Y-2144D01*
Y-3810D01*
X-521055Y-4643D01*
X-523554D01*
X-516057Y-6309D02*
Y-1311D01*
X-518556Y-3810D01*
X-515224D01*
X-510225Y-6309D02*
X-513558D01*
X-510225Y-2977D01*
Y-2144D01*
X-511059Y-1311D01*
X-512725D01*
X-513558Y-2144D01*
X-508559D02*
X-507726Y-1311D01*
X-506060D01*
X-505227Y-2144D01*
Y-5476D01*
X-506060Y-6309D01*
X-507726D01*
X-508559Y-5476D01*
Y-2144D01*
X129307Y32979D02*
X132639D01*
X130973D01*
Y27981D01*
X134305D02*
Y32979D01*
X136805D01*
X137638Y32146D01*
Y30480D01*
X136805Y29647D01*
X134305D01*
X142636Y32979D02*
X139304D01*
Y30480D01*
X140970Y31313D01*
X141803D01*
X142636Y30480D01*
Y28814D01*
X141803Y27981D01*
X140137D01*
X139304Y28814D01*
X144302Y32146D02*
X145135Y32979D01*
X146801D01*
X147634Y32146D01*
Y28814D01*
X146801Y27981D01*
X145135D01*
X144302Y28814D01*
Y32146D01*
X149301Y32979D02*
X152633D01*
Y32146D01*
X149301Y28814D01*
Y27981D01*
X-488391Y-69891D02*
X-490057D01*
X-489224D01*
Y-74056D01*
X-490057Y-74889D01*
X-490890D01*
X-491723Y-74056D01*
X-486725Y-74889D02*
Y-69891D01*
X-484225D01*
X-483392Y-70724D01*
Y-72390D01*
X-484225Y-73223D01*
X-486725D01*
X-479227Y-74889D02*
Y-69891D01*
X-481726Y-72390D01*
X-478394D01*
X-476728Y-70724D02*
X-475895Y-69891D01*
X-474229D01*
X-473396Y-70724D01*
Y-74056D01*
X-474229Y-74889D01*
X-475895D01*
X-476728Y-74056D01*
Y-70724D01*
X-471729D02*
X-470896Y-69891D01*
X-469230D01*
X-468397Y-70724D01*
Y-74056D01*
X-469230Y-74889D01*
X-470896D01*
X-471729Y-74056D01*
Y-70724D01*
X181753Y114341D02*
Y119339D01*
X184252D01*
X185085Y118506D01*
Y116840D01*
X184252Y116007D01*
X181753D01*
X183419D02*
X185085Y114341D01*
X190084Y119339D02*
X188417Y118506D01*
X186751Y116840D01*
Y115174D01*
X187584Y114341D01*
X189250D01*
X190084Y115174D01*
Y116007D01*
X189250Y116840D01*
X186751D01*
X191750Y114341D02*
X193416D01*
X192583D01*
Y119339D01*
X191750Y118506D01*
X195915Y115174D02*
X196748Y114341D01*
X198414D01*
X199247Y115174D01*
Y118506D01*
X198414Y119339D01*
X196748D01*
X195915Y118506D01*
Y117673D01*
X196748Y116840D01*
X199247D01*
X202926Y156251D02*
Y161249D01*
X205425D01*
X206259Y160416D01*
Y158750D01*
X205425Y157917D01*
X202926D01*
X204592D02*
X206259Y156251D01*
X211257Y161249D02*
X207925D01*
Y158750D01*
X209591Y159583D01*
X210424D01*
X211257Y158750D01*
Y157084D01*
X210424Y156251D01*
X208758D01*
X207925Y157084D01*
X212923Y160416D02*
X213756Y161249D01*
X215422D01*
X216255Y160416D01*
Y157084D01*
X215422Y156251D01*
X213756D01*
X212923Y157084D01*
Y160416D01*
X220421Y156251D02*
Y161249D01*
X217921Y158750D01*
X221254D01*
X356532Y-47767D02*
Y-49433D01*
Y-48600D01*
X360698D01*
X361531Y-49433D01*
Y-50266D01*
X360698Y-51100D01*
X361531Y-46101D02*
X356532D01*
Y-43602D01*
X357365Y-42769D01*
X359031D01*
X359865Y-43602D01*
Y-46101D01*
X356532Y-37771D02*
X357365Y-39437D01*
X359031Y-41103D01*
X360698D01*
X361531Y-40270D01*
Y-38604D01*
X360698Y-37771D01*
X359865D01*
X359031Y-38604D01*
Y-41103D01*
X357365Y-36104D02*
X356532Y-35271D01*
Y-33605D01*
X357365Y-32772D01*
X360698D01*
X361531Y-33605D01*
Y-35271D01*
X360698Y-36104D01*
X357365D01*
X361531Y-31106D02*
Y-29440D01*
Y-30273D01*
X356532D01*
X357365Y-31106D01*
X149586Y156169D02*
Y151171D01*
X152086D01*
X152919Y152004D01*
Y155336D01*
X152086Y156169D01*
X149586D01*
X157917D02*
X156251Y155336D01*
X154585Y153670D01*
Y152004D01*
X155418Y151171D01*
X157084D01*
X157917Y152004D01*
Y152837D01*
X157084Y153670D01*
X154585D01*
X159583Y155336D02*
X160416Y156169D01*
X162082D01*
X162915Y155336D01*
Y152004D01*
X162082Y151171D01*
X160416D01*
X159583Y152004D01*
Y155336D01*
X167081Y151171D02*
Y156169D01*
X164581Y153670D01*
X167914D01*
X149586Y187919D02*
Y182921D01*
X152086D01*
X152919Y183754D01*
Y187086D01*
X152086Y187919D01*
X149586D01*
X157917D02*
X154585D01*
Y185420D01*
X156251Y186253D01*
X157084D01*
X157917Y185420D01*
Y183754D01*
X157084Y182921D01*
X155418D01*
X154585Y183754D01*
X159583Y187086D02*
X160416Y187919D01*
X162082D01*
X162915Y187086D01*
Y183754D01*
X162082Y182921D01*
X160416D01*
X159583Y183754D01*
Y187086D01*
X164581D02*
X165415Y187919D01*
X167081D01*
X167914Y187086D01*
Y183754D01*
X167081Y182921D01*
X165415D01*
X164581Y183754D01*
Y187086D01*
X-147553Y-40681D02*
X-144221D01*
X-145887D01*
Y-45679D01*
X-142555D02*
Y-40681D01*
X-140055D01*
X-139222Y-41514D01*
Y-43180D01*
X-140055Y-44013D01*
X-142555D01*
X-137556Y-41514D02*
X-136723Y-40681D01*
X-135057D01*
X-134224Y-41514D01*
Y-42347D01*
X-135057Y-43180D01*
X-135890D01*
X-135057D01*
X-134224Y-44013D01*
Y-44846D01*
X-135057Y-45679D01*
X-136723D01*
X-137556Y-44846D01*
X-132558Y-41514D02*
X-131725Y-40681D01*
X-130059D01*
X-129226Y-41514D01*
Y-44846D01*
X-130059Y-45679D01*
X-131725D01*
X-132558Y-44846D01*
Y-41514D01*
X-127559D02*
X-126726Y-40681D01*
X-125060D01*
X-124227Y-41514D01*
Y-42347D01*
X-125060Y-43180D01*
X-124227Y-44013D01*
Y-44846D01*
X-125060Y-45679D01*
X-126726D01*
X-127559Y-44846D01*
Y-44013D01*
X-126726Y-43180D01*
X-127559Y-42347D01*
Y-41514D01*
X-126726Y-43180D02*
X-125060D01*
X-104373Y24089D02*
X-101041D01*
X-102707D01*
Y19091D01*
X-99375D02*
Y24089D01*
X-96875D01*
X-96042Y23256D01*
Y21590D01*
X-96875Y20757D01*
X-99375D01*
X-94376Y23256D02*
X-93543Y24089D01*
X-91877D01*
X-91044Y23256D01*
Y22423D01*
X-91877Y21590D01*
X-92710D01*
X-91877D01*
X-91044Y20757D01*
Y19924D01*
X-91877Y19091D01*
X-93543D01*
X-94376Y19924D01*
X-89378Y23256D02*
X-88545Y24089D01*
X-86879D01*
X-86046Y23256D01*
Y19924D01*
X-86879Y19091D01*
X-88545D01*
X-89378Y19924D01*
Y23256D01*
X-84379Y24089D02*
X-81047D01*
Y23256D01*
X-84379Y19924D01*
Y19091D01*
X-195539Y-1544D02*
X-191374D01*
X-190541Y-711D01*
Y956D01*
X-191374Y1789D01*
X-195539D01*
X-194706Y3455D02*
X-195539Y4288D01*
Y5954D01*
X-194706Y6787D01*
X-193873D01*
X-193040Y5954D01*
Y5121D01*
Y5954D01*
X-192207Y6787D01*
X-191374D01*
X-190541Y5954D01*
Y4288D01*
X-191374Y3455D01*
X-194706Y8453D02*
X-195539Y9286D01*
Y10952D01*
X-194706Y11785D01*
X-191374D01*
X-190541Y10952D01*
Y9286D01*
X-191374Y8453D01*
X-194706D01*
X-190541Y16784D02*
Y13451D01*
X-193873Y16784D01*
X-194706D01*
X-195539Y15951D01*
Y14284D01*
X-194706Y13451D01*
X-118069Y996D02*
X-113904D01*
X-113071Y1829D01*
Y3496D01*
X-113904Y4329D01*
X-118069D01*
X-117236Y5995D02*
X-118069Y6828D01*
Y8494D01*
X-117236Y9327D01*
X-116403D01*
X-115570Y8494D01*
Y7661D01*
Y8494D01*
X-114737Y9327D01*
X-113904D01*
X-113071Y8494D01*
Y6828D01*
X-113904Y5995D01*
X-117236Y10993D02*
X-118069Y11826D01*
Y13492D01*
X-117236Y14325D01*
X-113904D01*
X-113071Y13492D01*
Y11826D01*
X-113904Y10993D01*
X-117236D01*
Y15991D02*
X-118069Y16825D01*
Y18491D01*
X-117236Y19324D01*
X-113904D01*
X-113071Y18491D01*
Y16825D01*
X-113904Y15991D01*
X-117236D01*
X264719Y-77511D02*
X268052D01*
X266385D01*
Y-82509D01*
X273050Y-77511D02*
X271384Y-78344D01*
X269718Y-80010D01*
Y-81676D01*
X270551Y-82509D01*
X272217D01*
X273050Y-81676D01*
Y-80843D01*
X272217Y-80010D01*
X269718D01*
X274716Y-78344D02*
X275549Y-77511D01*
X277215D01*
X278048Y-78344D01*
Y-81676D01*
X277215Y-82509D01*
X275549D01*
X274716Y-81676D01*
Y-78344D01*
X279715Y-82509D02*
X281381D01*
X280548D01*
Y-77511D01*
X279715Y-78344D01*
X285476Y59649D02*
X288809D01*
X287143D01*
Y54651D01*
X293807Y59649D02*
X292141Y58816D01*
X290475Y57150D01*
Y55484D01*
X291308Y54651D01*
X292974D01*
X293807Y55484D01*
Y56317D01*
X292974Y57150D01*
X290475D01*
X295473Y58816D02*
X296306Y59649D01*
X297972D01*
X298805Y58816D01*
Y55484D01*
X297972Y54651D01*
X296306D01*
X295473Y55484D01*
Y58816D01*
X300471D02*
X301304Y59649D01*
X302971D01*
X303804Y58816D01*
Y55484D01*
X302971Y54651D01*
X301304D01*
X300471Y55484D01*
Y58816D01*
X-201411Y-22464D02*
X-202244Y-21631D01*
X-203911D01*
X-204744Y-22464D01*
Y-25796D01*
X-203911Y-26629D01*
X-202244D01*
X-201411Y-25796D01*
X-199745Y-22464D02*
X-198912Y-21631D01*
X-197246D01*
X-196413Y-22464D01*
Y-23297D01*
X-197246Y-24130D01*
X-198079D01*
X-197246D01*
X-196413Y-24963D01*
Y-25796D01*
X-197246Y-26629D01*
X-198912D01*
X-199745Y-25796D01*
X-191415Y-26629D02*
X-194747D01*
X-191415Y-23297D01*
Y-22464D01*
X-192248Y-21631D01*
X-193914D01*
X-194747Y-22464D01*
X-186416Y-21631D02*
X-188083Y-22464D01*
X-189749Y-24130D01*
Y-25796D01*
X-188916Y-26629D01*
X-187249D01*
X-186416Y-25796D01*
Y-24963D01*
X-187249Y-24130D01*
X-189749D01*
X-174741Y38496D02*
X-175574Y39329D01*
X-177241D01*
X-178074Y38496D01*
Y35164D01*
X-177241Y34331D01*
X-175574D01*
X-174741Y35164D01*
X-173075Y38496D02*
X-172242Y39329D01*
X-170576D01*
X-169743Y38496D01*
Y37663D01*
X-170576Y36830D01*
X-171409D01*
X-170576D01*
X-169743Y35997D01*
Y35164D01*
X-170576Y34331D01*
X-172242D01*
X-173075Y35164D01*
X-164745Y34331D02*
X-168077D01*
X-164745Y37663D01*
Y38496D01*
X-165578Y39329D01*
X-167244D01*
X-168077Y38496D01*
X-159746Y39329D02*
X-163079D01*
Y36830D01*
X-161413Y37663D01*
X-160579D01*
X-159746Y36830D01*
Y35164D01*
X-160579Y34331D01*
X-162246D01*
X-163079Y35164D01*
X-154066Y-26151D02*
X-154899Y-26985D01*
Y-28651D01*
X-154066Y-29484D01*
X-150734D01*
X-149901Y-28651D01*
Y-26985D01*
X-150734Y-26151D01*
X-154066Y-24485D02*
X-154899Y-23652D01*
Y-21986D01*
X-154066Y-21153D01*
X-153233D01*
X-152400Y-21986D01*
Y-22819D01*
Y-21986D01*
X-151567Y-21153D01*
X-150734D01*
X-149901Y-21986D01*
Y-23652D01*
X-150734Y-24485D01*
X-149901Y-16155D02*
Y-19487D01*
X-153233Y-16155D01*
X-154066D01*
X-154899Y-16988D01*
Y-18654D01*
X-154066Y-19487D01*
X-149901Y-11989D02*
X-154899D01*
X-152400Y-14489D01*
Y-11156D01*
X-139181Y38496D02*
X-140014Y39329D01*
X-141681D01*
X-142514Y38496D01*
Y35164D01*
X-141681Y34331D01*
X-140014D01*
X-139181Y35164D01*
X-137515Y38496D02*
X-136682Y39329D01*
X-135016D01*
X-134183Y38496D01*
Y37663D01*
X-135016Y36830D01*
X-135849D01*
X-135016D01*
X-134183Y35997D01*
Y35164D01*
X-135016Y34331D01*
X-136682D01*
X-137515Y35164D01*
X-129185Y34331D02*
X-132517D01*
X-129185Y37663D01*
Y38496D01*
X-130018Y39329D01*
X-131684D01*
X-132517Y38496D01*
X-127519D02*
X-126685Y39329D01*
X-125019D01*
X-124186Y38496D01*
Y37663D01*
X-125019Y36830D01*
X-125852D01*
X-125019D01*
X-124186Y35997D01*
Y35164D01*
X-125019Y34331D01*
X-126685D01*
X-127519Y35164D01*
X-334406Y-68798D02*
X-335239Y-69631D01*
Y-71297D01*
X-334406Y-72130D01*
X-331074D01*
X-330241Y-71297D01*
Y-69631D01*
X-331074Y-68798D01*
X-330241Y-64633D02*
X-335239D01*
X-332740Y-67132D01*
Y-63799D01*
X-330241Y-62133D02*
Y-60467D01*
Y-61300D01*
X-335239D01*
X-334406Y-62133D01*
X-330241Y-54636D02*
Y-57968D01*
X-333573Y-54636D01*
X-334406D01*
X-335239Y-55469D01*
Y-57135D01*
X-334406Y-57968D01*
X-224686Y32979D02*
X-221353D01*
X-223020D01*
Y27981D01*
X-219687D02*
Y32979D01*
X-217188D01*
X-216355Y32146D01*
Y30480D01*
X-217188Y29647D01*
X-219687D01*
X-212190Y27981D02*
Y32979D01*
X-214689Y30480D01*
X-211357D01*
X-209691Y32146D02*
X-208857Y32979D01*
X-207191D01*
X-206358Y32146D01*
Y28814D01*
X-207191Y27981D01*
X-208857D01*
X-209691Y28814D01*
Y32146D01*
X-204692D02*
X-203859Y32979D01*
X-202193D01*
X-201360Y32146D01*
Y28814D01*
X-202193Y27981D01*
X-203859D01*
X-204692Y28814D01*
Y32146D01*
X308569Y-141540D02*
X303571D01*
Y-139041D01*
X304404Y-138208D01*
X306070D01*
X306903Y-139041D01*
Y-141540D01*
Y-139874D02*
X308569Y-138208D01*
X303571Y-133209D02*
X304404Y-134876D01*
X306070Y-136542D01*
X307736D01*
X308569Y-135709D01*
Y-134043D01*
X307736Y-133209D01*
X306903D01*
X306070Y-134043D01*
Y-136542D01*
X308569Y-131543D02*
Y-129877D01*
Y-130710D01*
X303571D01*
X304404Y-131543D01*
Y-127378D02*
X303571Y-126545D01*
Y-124879D01*
X304404Y-124046D01*
X305237D01*
X306070Y-124879D01*
X306903Y-124046D01*
X307736D01*
X308569Y-124879D01*
Y-126545D01*
X307736Y-127378D01*
X306903D01*
X306070Y-126545D01*
X305237Y-127378D01*
X304404D01*
X306070Y-126545D02*
Y-124879D01*
X288433Y-116140D02*
Y-111142D01*
X290932D01*
X291765Y-111975D01*
Y-113641D01*
X290932Y-114474D01*
X288433D01*
X290099D02*
X291765Y-116140D01*
X296763Y-111142D02*
X295097Y-111975D01*
X293431Y-113641D01*
Y-115307D01*
X294264Y-116140D01*
X295930D01*
X296763Y-115307D01*
Y-114474D01*
X295930Y-113641D01*
X293431D01*
X298430Y-116140D02*
X300096D01*
X299263D01*
Y-111142D01*
X298430Y-111975D01*
X305094Y-116140D02*
Y-111142D01*
X302595Y-113641D01*
X305927D01*
X262557Y-148631D02*
X265890D01*
X264223D01*
Y-153629D01*
X267556D02*
Y-148631D01*
X270055D01*
X270888Y-149464D01*
Y-151130D01*
X270055Y-151963D01*
X267556D01*
X275886Y-148631D02*
X274220Y-149464D01*
X272554Y-151130D01*
Y-152796D01*
X273387Y-153629D01*
X275053D01*
X275886Y-152796D01*
Y-151963D01*
X275053Y-151130D01*
X272554D01*
X277553Y-153629D02*
X279219D01*
X278386D01*
Y-148631D01*
X277553Y-149464D01*
X285050Y-148631D02*
X281718D01*
Y-151130D01*
X283384Y-150297D01*
X284217D01*
X285050Y-151130D01*
Y-152796D01*
X284217Y-153629D01*
X282551D01*
X281718Y-152796D01*
X468060Y78699D02*
X471392D01*
X469726D01*
Y73701D01*
X473058D02*
Y78699D01*
X475558D01*
X476391Y77866D01*
Y76200D01*
X475558Y75367D01*
X473058D01*
X481389Y78699D02*
X479723Y77866D01*
X478057Y76200D01*
Y74534D01*
X478890Y73701D01*
X480556D01*
X481389Y74534D01*
Y75367D01*
X480556Y76200D01*
X478057D01*
X483055Y73701D02*
X484721D01*
X483888D01*
Y78699D01*
X483055Y77866D01*
X489720Y73701D02*
Y78699D01*
X487220Y76200D01*
X490553D01*
X261050Y139659D02*
X264382D01*
X262716D01*
Y134661D01*
X266048D02*
Y139659D01*
X268547D01*
X269381Y138826D01*
Y137160D01*
X268547Y136327D01*
X266048D01*
X274379Y139659D02*
X272713Y138826D01*
X271047Y137160D01*
Y135494D01*
X271880Y134661D01*
X273546D01*
X274379Y135494D01*
Y136327D01*
X273546Y137160D01*
X271047D01*
X276045Y134661D02*
X277711D01*
X276878D01*
Y139659D01*
X276045Y138826D01*
X280210D02*
X281043Y139659D01*
X282710D01*
X283543Y138826D01*
Y137993D01*
X282710Y137160D01*
X281877D01*
X282710D01*
X283543Y136327D01*
Y135494D01*
X282710Y134661D01*
X281043D01*
X280210Y135494D01*
X123890Y96479D02*
X127222D01*
X125556D01*
Y91481D01*
X128888D02*
Y96479D01*
X131388D01*
X132221Y95646D01*
Y93980D01*
X131388Y93147D01*
X128888D01*
X137219Y96479D02*
X133887D01*
Y93980D01*
X135553Y94813D01*
X136386D01*
X137219Y93980D01*
Y92314D01*
X136386Y91481D01*
X134720D01*
X133887Y92314D01*
X138885Y95646D02*
X139718Y96479D01*
X141384D01*
X142217Y95646D01*
Y92314D01*
X141384Y91481D01*
X139718D01*
X138885Y92314D01*
Y95646D01*
X147216Y96479D02*
X145549Y95646D01*
X143883Y93980D01*
Y92314D01*
X144717Y91481D01*
X146383D01*
X147216Y92314D01*
Y93147D01*
X146383Y93980D01*
X143883D01*
X222950Y119339D02*
X226282D01*
X224616D01*
Y114341D01*
X227948D02*
Y119339D01*
X230448D01*
X231281Y118506D01*
Y116840D01*
X230448Y116007D01*
X227948D01*
X236279Y119339D02*
X232947D01*
Y116840D01*
X234613Y117673D01*
X235446D01*
X236279Y116840D01*
Y115174D01*
X235446Y114341D01*
X233780D01*
X232947Y115174D01*
X237945Y118506D02*
X238778Y119339D01*
X240444D01*
X241277Y118506D01*
Y115174D01*
X240444Y114341D01*
X238778D01*
X237945Y115174D01*
Y118506D01*
X246276Y119339D02*
X242943D01*
Y116840D01*
X244610Y117673D01*
X245443D01*
X246276Y116840D01*
Y115174D01*
X245443Y114341D01*
X243776D01*
X242943Y115174D01*
X200427Y-54040D02*
X203759D01*
X202093D01*
Y-59038D01*
X205425D02*
Y-54040D01*
X207925D01*
X208758Y-54873D01*
Y-56539D01*
X207925Y-57372D01*
X205425D01*
X213756Y-54040D02*
X210424D01*
Y-56539D01*
X212090Y-55706D01*
X212923D01*
X213756Y-56539D01*
Y-58205D01*
X212923Y-59038D01*
X211257D01*
X210424Y-58205D01*
X215422Y-54873D02*
X216255Y-54040D01*
X217921D01*
X218755Y-54873D01*
Y-58205D01*
X217921Y-59038D01*
X216255D01*
X215422Y-58205D01*
Y-54873D01*
X222920Y-59038D02*
Y-54040D01*
X220421Y-56539D01*
X223753D01*
X127700Y17739D02*
X131032D01*
X129366D01*
Y12741D01*
X132698D02*
Y17739D01*
X135197D01*
X136031Y16906D01*
Y15240D01*
X135197Y14407D01*
X132698D01*
X141029Y17739D02*
X137697D01*
Y15240D01*
X139363Y16073D01*
X140196D01*
X141029Y15240D01*
Y13574D01*
X140196Y12741D01*
X138530D01*
X137697Y13574D01*
X142695Y16906D02*
X143528Y17739D01*
X145194D01*
X146027Y16906D01*
Y13574D01*
X145194Y12741D01*
X143528D01*
X142695Y13574D01*
Y16906D01*
X147693D02*
X148526Y17739D01*
X150193D01*
X151026Y16906D01*
Y16073D01*
X150193Y15240D01*
X149360D01*
X150193D01*
X151026Y14407D01*
Y13574D01*
X150193Y12741D01*
X148526D01*
X147693Y13574D01*
X-462788Y-8854D02*
X-459456D01*
X-461122D01*
Y-13852D01*
X-457790D02*
Y-8854D01*
X-455290D01*
X-454457Y-9687D01*
Y-11353D01*
X-455290Y-12186D01*
X-457790D01*
X-450292Y-13852D02*
Y-8854D01*
X-452791Y-11353D01*
X-449459D01*
X-447793Y-13852D02*
X-446127D01*
X-446960D01*
Y-8854D01*
X-447793Y-9687D01*
X-443628Y-13019D02*
X-442794Y-13852D01*
X-441128D01*
X-440295Y-13019D01*
Y-9687D01*
X-441128Y-8854D01*
X-442794D01*
X-443628Y-9687D01*
Y-10520D01*
X-442794Y-11353D01*
X-440295D01*
X-523056Y37448D02*
X-519724D01*
X-521390D01*
Y32450D01*
X-518058D02*
Y37448D01*
X-515559D01*
X-514726Y36615D01*
Y34949D01*
X-515559Y34116D01*
X-518058D01*
X-510560Y32450D02*
Y37448D01*
X-513060Y34949D01*
X-509727D01*
X-508061Y32450D02*
X-506395D01*
X-507228D01*
Y37448D01*
X-508061Y36615D01*
X-503896D02*
X-503063Y37448D01*
X-501397D01*
X-500564Y36615D01*
Y35782D01*
X-501397Y34949D01*
X-500564Y34116D01*
Y33283D01*
X-501397Y32450D01*
X-503063D01*
X-503896Y33283D01*
Y34116D01*
X-503063Y34949D01*
X-503896Y35782D01*
Y36615D01*
X-503063Y34949D02*
X-501397D01*
X-307156Y-31180D02*
X-303824D01*
X-305490D01*
Y-36178D01*
X-302158D02*
Y-31180D01*
X-299659D01*
X-298826Y-32013D01*
Y-33679D01*
X-299659Y-34512D01*
X-302158D01*
X-294660Y-36178D02*
Y-31180D01*
X-297160Y-33679D01*
X-293827D01*
X-292161Y-36178D02*
X-290495D01*
X-291328D01*
Y-31180D01*
X-292161Y-32013D01*
X-287996Y-31180D02*
X-284664D01*
Y-32013D01*
X-287996Y-35345D01*
Y-36178D01*
X-263906Y36866D02*
X-260574D01*
X-262240D01*
Y31868D01*
X-258908D02*
Y36866D01*
X-256409D01*
X-255575Y36033D01*
Y34367D01*
X-256409Y33534D01*
X-258908D01*
X-251410Y31868D02*
Y36866D01*
X-253909Y34367D01*
X-250577D01*
X-248911Y31868D02*
X-247245D01*
X-248078D01*
Y36866D01*
X-248911Y36033D01*
X-241413Y36866D02*
X-243079Y36033D01*
X-244746Y34367D01*
Y32701D01*
X-243913Y31868D01*
X-242246D01*
X-241413Y32701D01*
Y33534D01*
X-242246Y34367D01*
X-244746D01*
X-454660Y44994D02*
X-451328D01*
X-452994D01*
Y39996D01*
X-449662D02*
Y44994D01*
X-447163D01*
X-446329Y44161D01*
Y42495D01*
X-447163Y41662D01*
X-449662D01*
X-442164Y39996D02*
Y44994D01*
X-444663Y42495D01*
X-441331D01*
X-439665Y39996D02*
X-437999D01*
X-438832D01*
Y44994D01*
X-439665Y44161D01*
X-432167Y44994D02*
X-435500D01*
Y42495D01*
X-433834Y43328D01*
X-433000D01*
X-432167Y42495D01*
Y40829D01*
X-433000Y39996D01*
X-434666D01*
X-435500Y40829D01*
X-298704Y49058D02*
X-295372D01*
X-297038D01*
Y44060D01*
X-293706D02*
Y49058D01*
X-291206D01*
X-290373Y48225D01*
Y46559D01*
X-291206Y45726D01*
X-293706D01*
X-286208Y44060D02*
Y49058D01*
X-288707Y46559D01*
X-285375D01*
X-283709Y44060D02*
X-282043D01*
X-282876D01*
Y49058D01*
X-283709Y48225D01*
X-277044Y44060D02*
Y49058D01*
X-279544Y46559D01*
X-276211D01*
X-397510Y-113756D02*
X-394178D01*
X-395844D01*
Y-118754D01*
X-392512D02*
Y-113756D01*
X-390013D01*
X-389179Y-114589D01*
Y-116255D01*
X-390013Y-117088D01*
X-392512D01*
X-385014Y-118754D02*
Y-113756D01*
X-387513Y-116255D01*
X-384181D01*
X-382515Y-118754D02*
X-380849D01*
X-381682D01*
Y-113756D01*
X-382515Y-114589D01*
X-378350D02*
X-377517Y-113756D01*
X-375850D01*
X-375017Y-114589D01*
Y-115422D01*
X-375850Y-116255D01*
X-376684D01*
X-375850D01*
X-375017Y-117088D01*
Y-117921D01*
X-375850Y-118754D01*
X-377517D01*
X-378350Y-117921D01*
X-335850Y-113730D02*
X-332518D01*
X-334184D01*
Y-118728D01*
X-330852D02*
Y-113730D01*
X-328353D01*
X-327519Y-114563D01*
Y-116229D01*
X-328353Y-117062D01*
X-330852D01*
X-323354Y-118728D02*
Y-113730D01*
X-325853Y-116229D01*
X-322521D01*
X-320855Y-118728D02*
X-319189D01*
X-320022D01*
Y-113730D01*
X-320855Y-114563D01*
X-313357Y-118728D02*
X-316690D01*
X-313357Y-115396D01*
Y-114563D01*
X-314190Y-113730D01*
X-315856D01*
X-316690Y-114563D01*
X-382523Y-134050D02*
X-379191D01*
X-380857D01*
Y-139048D01*
X-377525D02*
Y-134050D01*
X-375026D01*
X-374193Y-134883D01*
Y-136549D01*
X-375026Y-137382D01*
X-377525D01*
X-370027Y-139048D02*
Y-134050D01*
X-372527Y-136549D01*
X-369194D01*
X-367528Y-139048D02*
X-365862D01*
X-366695D01*
Y-134050D01*
X-367528Y-134883D01*
X-363363Y-139048D02*
X-361697D01*
X-362530D01*
Y-134050D01*
X-363363Y-134883D01*
X112460Y-196891D02*
X115792D01*
X114126D01*
Y-201889D01*
X117458D02*
Y-196891D01*
X119958D01*
X120791Y-197724D01*
Y-199390D01*
X119958Y-200223D01*
X117458D01*
X122457Y-197724D02*
X123290Y-196891D01*
X124956D01*
X125789Y-197724D01*
Y-198557D01*
X124956Y-199390D01*
X124123D01*
X124956D01*
X125789Y-200223D01*
Y-201056D01*
X124956Y-201889D01*
X123290D01*
X122457Y-201056D01*
X127455Y-197724D02*
X128288Y-196891D01*
X129954D01*
X130787Y-197724D01*
Y-201056D01*
X129954Y-201889D01*
X128288D01*
X127455Y-201056D01*
Y-197724D01*
X135786Y-196891D02*
X134120Y-197724D01*
X132453Y-199390D01*
Y-201056D01*
X133287Y-201889D01*
X134953D01*
X135786Y-201056D01*
Y-200223D01*
X134953Y-199390D01*
X132453D01*
X-65340Y-196891D02*
X-62008D01*
X-63674D01*
Y-201889D01*
X-60342D02*
Y-196891D01*
X-57842D01*
X-57009Y-197724D01*
Y-199390D01*
X-57842Y-200223D01*
X-60342D01*
X-55343Y-197724D02*
X-54510Y-196891D01*
X-52844D01*
X-52011Y-197724D01*
Y-198557D01*
X-52844Y-199390D01*
X-53677D01*
X-52844D01*
X-52011Y-200223D01*
Y-201056D01*
X-52844Y-201889D01*
X-54510D01*
X-55343Y-201056D01*
X-50345Y-197724D02*
X-49512Y-196891D01*
X-47846D01*
X-47013Y-197724D01*
Y-201056D01*
X-47846Y-201889D01*
X-49512D01*
X-50345Y-201056D01*
Y-197724D01*
X-42014Y-196891D02*
X-45347D01*
Y-199390D01*
X-43681Y-198557D01*
X-42847D01*
X-42014Y-199390D01*
Y-201056D01*
X-42847Y-201889D01*
X-44514D01*
X-45347Y-201056D01*
X-192340Y-165141D02*
X-189008D01*
X-190674D01*
Y-170139D01*
X-187342D02*
Y-165141D01*
X-184842D01*
X-184009Y-165974D01*
Y-167640D01*
X-184842Y-168473D01*
X-187342D01*
X-182343Y-165974D02*
X-181510Y-165141D01*
X-179844D01*
X-179011Y-165974D01*
Y-166807D01*
X-179844Y-167640D01*
X-180677D01*
X-179844D01*
X-179011Y-168473D01*
Y-169306D01*
X-179844Y-170139D01*
X-181510D01*
X-182343Y-169306D01*
X-177345Y-165974D02*
X-176512Y-165141D01*
X-174846D01*
X-174013Y-165974D01*
Y-169306D01*
X-174846Y-170139D01*
X-176512D01*
X-177345Y-169306D01*
Y-165974D01*
X-169847Y-170139D02*
Y-165141D01*
X-172347Y-167640D01*
X-169014D01*
X-102829Y-24700D02*
Y-21368D01*
Y-23034D01*
X-97831D01*
Y-19702D02*
X-102829D01*
Y-17203D01*
X-101996Y-16369D01*
X-100330D01*
X-99497Y-17203D01*
Y-19702D01*
X-101996Y-14703D02*
X-102829Y-13870D01*
Y-12204D01*
X-101996Y-11371D01*
X-101163D01*
X-100330Y-12204D01*
Y-13037D01*
Y-12204D01*
X-99497Y-11371D01*
X-98664D01*
X-97831Y-12204D01*
Y-13870D01*
X-98664Y-14703D01*
X-101996Y-9705D02*
X-102829Y-8872D01*
Y-7206D01*
X-101996Y-6373D01*
X-98664D01*
X-97831Y-7206D01*
Y-8872D01*
X-98664Y-9705D01*
X-101996D01*
Y-4707D02*
X-102829Y-3873D01*
Y-2207D01*
X-101996Y-1374D01*
X-101163D01*
X-100330Y-2207D01*
Y-3040D01*
Y-2207D01*
X-99497Y-1374D01*
X-98664D01*
X-97831Y-2207D01*
Y-3873D01*
X-98664Y-4707D01*
X-66610Y-119421D02*
X-63278D01*
X-64944D01*
Y-124419D01*
X-61612D02*
Y-119421D01*
X-59113D01*
X-58279Y-120254D01*
Y-121920D01*
X-59113Y-122753D01*
X-61612D01*
X-56613Y-120254D02*
X-55780Y-119421D01*
X-54114D01*
X-53281Y-120254D01*
Y-121087D01*
X-54114Y-121920D01*
X-54947D01*
X-54114D01*
X-53281Y-122753D01*
Y-123586D01*
X-54114Y-124419D01*
X-55780D01*
X-56613Y-123586D01*
X-51615Y-120254D02*
X-50782Y-119421D01*
X-49116D01*
X-48283Y-120254D01*
Y-123586D01*
X-49116Y-124419D01*
X-50782D01*
X-51615Y-123586D01*
Y-120254D01*
X-43284Y-124419D02*
X-46617D01*
X-43284Y-121087D01*
Y-120254D01*
X-44117Y-119421D01*
X-45784D01*
X-46617Y-120254D01*
X47690Y-120691D02*
X51022D01*
X49356D01*
Y-125689D01*
X52688D02*
Y-120691D01*
X55188D01*
X56021Y-121524D01*
Y-123190D01*
X55188Y-124023D01*
X52688D01*
X57687Y-121524D02*
X58520Y-120691D01*
X60186D01*
X61019Y-121524D01*
Y-122357D01*
X60186Y-123190D01*
X59353D01*
X60186D01*
X61019Y-124023D01*
Y-124856D01*
X60186Y-125689D01*
X58520D01*
X57687Y-124856D01*
X62685Y-121524D02*
X63518Y-120691D01*
X65184D01*
X66017Y-121524D01*
Y-124856D01*
X65184Y-125689D01*
X63518D01*
X62685Y-124856D01*
Y-121524D01*
X67683Y-125689D02*
X69349D01*
X68517D01*
Y-120691D01*
X67683Y-121524D01*
X177230Y-109261D02*
X180562D01*
X178896D01*
Y-114259D01*
X182228D02*
Y-109261D01*
X184727D01*
X185561Y-110094D01*
Y-111760D01*
X184727Y-112593D01*
X182228D01*
X187227Y-110094D02*
X188060Y-109261D01*
X189726D01*
X190559Y-110094D01*
Y-110927D01*
X189726Y-111760D01*
X188893D01*
X189726D01*
X190559Y-112593D01*
Y-113426D01*
X189726Y-114259D01*
X188060D01*
X187227Y-113426D01*
X192225Y-110094D02*
X193058Y-109261D01*
X194724D01*
X195557Y-110094D01*
Y-113426D01*
X194724Y-114259D01*
X193058D01*
X192225Y-113426D01*
Y-110094D01*
X197223D02*
X198057Y-109261D01*
X199723D01*
X200556Y-110094D01*
Y-113426D01*
X199723Y-114259D01*
X198057D01*
X197223Y-113426D01*
Y-110094D01*
X257769Y-131224D02*
X252771D01*
Y-128725D01*
X253604Y-127892D01*
X255270D01*
X256103Y-128725D01*
Y-131224D01*
Y-129558D02*
X257769Y-127892D01*
X252771Y-122894D02*
X253604Y-124560D01*
X255270Y-126226D01*
X256936D01*
X257769Y-125393D01*
Y-123727D01*
X256936Y-122894D01*
X256103D01*
X255270Y-123727D01*
Y-126226D01*
X257769Y-121228D02*
Y-119562D01*
Y-120394D01*
X252771D01*
X253604Y-121228D01*
X252771Y-117062D02*
Y-113730D01*
X253604D01*
X256936Y-117062D01*
X257769D01*
X9516Y172212D02*
X4518D01*
Y174711D01*
X5351Y175544D01*
X7017D01*
X7850Y174711D01*
Y172212D01*
Y173878D02*
X9516Y175544D01*
X5351Y177210D02*
X4518Y178043D01*
Y179710D01*
X5351Y180543D01*
X6184D01*
X7017Y179710D01*
Y178876D01*
Y179710D01*
X7850Y180543D01*
X8683D01*
X9516Y179710D01*
Y178043D01*
X8683Y177210D01*
X5351Y182209D02*
X4518Y183042D01*
Y184708D01*
X5351Y185541D01*
X8683D01*
X9516Y184708D01*
Y183042D01*
X8683Y182209D01*
X5351D01*
X9516Y187207D02*
Y188873D01*
Y188040D01*
X4518D01*
X5351Y187207D01*
X-67088Y234909D02*
X-68754D01*
X-67921D01*
Y230744D01*
X-68754Y229911D01*
X-69587D01*
X-70420Y230744D01*
X-65422Y234076D02*
X-64589Y234909D01*
X-62923D01*
X-62089Y234076D01*
Y233243D01*
X-62923Y232410D01*
X-63755D01*
X-62923D01*
X-62089Y231577D01*
Y230744D01*
X-62923Y229911D01*
X-64589D01*
X-65422Y230744D01*
X-60423Y234076D02*
X-59590Y234909D01*
X-57924D01*
X-57091Y234076D01*
Y230744D01*
X-57924Y229911D01*
X-59590D01*
X-60423Y230744D01*
Y234076D01*
X-52093Y229911D02*
X-55425D01*
X-52093Y233243D01*
Y234076D01*
X-52926Y234909D01*
X-54592D01*
X-55425Y234076D01*
X-23908Y162519D02*
X-25574D01*
X-24741D01*
Y158354D01*
X-25574Y157521D01*
X-26407D01*
X-27240Y158354D01*
X-22242Y161686D02*
X-21409Y162519D01*
X-19742D01*
X-18909Y161686D01*
Y160853D01*
X-19742Y160020D01*
X-20575D01*
X-19742D01*
X-18909Y159187D01*
Y158354D01*
X-19742Y157521D01*
X-21409D01*
X-22242Y158354D01*
X-17243Y161686D02*
X-16410Y162519D01*
X-14744D01*
X-13911Y161686D01*
Y158354D01*
X-14744Y157521D01*
X-16410D01*
X-17243Y158354D01*
Y161686D01*
X-12245Y157521D02*
X-10579D01*
X-11412D01*
Y162519D01*
X-12245Y161686D01*
X17029Y200445D02*
X16195Y201278D01*
X14529D01*
X13696Y200445D01*
Y197113D01*
X14529Y196280D01*
X16195D01*
X17029Y197113D01*
X18695Y200445D02*
X19528Y201278D01*
X21194D01*
X22027Y200445D01*
Y199612D01*
X21194Y198779D01*
X20361D01*
X21194D01*
X22027Y197946D01*
Y197113D01*
X21194Y196280D01*
X19528D01*
X18695Y197113D01*
X27025Y196280D02*
X23693D01*
X27025Y199612D01*
Y200445D01*
X26192Y201278D01*
X24526D01*
X23693Y200445D01*
X32024Y196280D02*
X28691D01*
X32024Y199612D01*
Y200445D01*
X31191Y201278D01*
X29525D01*
X28691Y200445D01*
X19924Y162782D02*
X19091Y161949D01*
Y160283D01*
X19924Y159450D01*
X23256D01*
X24089Y160283D01*
Y161949D01*
X23256Y162782D01*
X19924Y164448D02*
X19091Y165281D01*
Y166947D01*
X19924Y167781D01*
X20757D01*
X21590Y166947D01*
Y166115D01*
Y166947D01*
X22423Y167781D01*
X23256D01*
X24089Y166947D01*
Y165281D01*
X23256Y164448D01*
X24089Y172779D02*
Y169447D01*
X20757Y172779D01*
X19924D01*
X19091Y171946D01*
Y170280D01*
X19924Y169447D01*
X24089Y174445D02*
Y176111D01*
Y175278D01*
X19091D01*
X19924Y174445D01*
X3166Y-50120D02*
Y-50953D01*
X4832Y-52619D01*
X6498Y-50953D01*
Y-50120D01*
X4832Y-52619D02*
Y-55118D01*
X8164Y-50953D02*
X8997Y-50120D01*
X10664D01*
X11497Y-50953D01*
Y-51786D01*
X10664Y-52619D01*
X9830D01*
X10664D01*
X11497Y-53452D01*
Y-54285D01*
X10664Y-55118D01*
X8997D01*
X8164Y-54285D01*
X13163Y-50953D02*
X13996Y-50120D01*
X15662D01*
X16495Y-50953D01*
Y-54285D01*
X15662Y-55118D01*
X13996D01*
X13163Y-54285D01*
Y-50953D01*
X18161Y-55118D02*
X19827D01*
X18994D01*
Y-50120D01*
X18161Y-50953D01*
X-33294Y45020D02*
Y44187D01*
X-31628Y42521D01*
X-29961Y44187D01*
Y45020D01*
X-31628Y42521D02*
Y40022D01*
X-28295Y44187D02*
X-27462Y45020D01*
X-25796D01*
X-24963Y44187D01*
Y43354D01*
X-25796Y42521D01*
X-26629D01*
X-25796D01*
X-24963Y41688D01*
Y40855D01*
X-25796Y40022D01*
X-27462D01*
X-28295Y40855D01*
X-23297Y44187D02*
X-22464Y45020D01*
X-20798D01*
X-19965Y44187D01*
Y40855D01*
X-20798Y40022D01*
X-22464D01*
X-23297Y40855D01*
Y44187D01*
X-18299D02*
X-17465Y45020D01*
X-15799D01*
X-14966Y44187D01*
Y40855D01*
X-15799Y40022D01*
X-17465D01*
X-18299Y40855D01*
Y44187D01*
X-7061Y45068D02*
Y40903D01*
X-6227Y40070D01*
X-4561D01*
X-3728Y40903D01*
Y45068D01*
X-2062Y44235D02*
X-1229Y45068D01*
X437D01*
X1270Y44235D01*
Y43402D01*
X437Y42569D01*
X-396D01*
X437D01*
X1270Y41736D01*
Y40903D01*
X437Y40070D01*
X-1229D01*
X-2062Y40903D01*
X2936Y44235D02*
X3769Y45068D01*
X5435D01*
X6268Y44235D01*
Y40903D01*
X5435Y40070D01*
X3769D01*
X2936Y40903D01*
Y44235D01*
X7934Y40070D02*
X9601D01*
X8768D01*
Y45068D01*
X7934Y44235D01*
X309880Y143120D02*
X304882D01*
Y145619D01*
X305715Y146452D01*
X307381D01*
X308214Y145619D01*
Y143120D01*
Y144786D02*
X309880Y146452D01*
X304882Y151451D02*
X305715Y149784D01*
X307381Y148118D01*
X309047D01*
X309880Y148951D01*
Y150618D01*
X309047Y151451D01*
X308214D01*
X307381Y150618D01*
Y148118D01*
X309880Y153117D02*
Y154783D01*
Y153950D01*
X304882D01*
X305715Y153117D01*
X304882Y160614D02*
X305715Y158948D01*
X307381Y157282D01*
X309047D01*
X309880Y158115D01*
Y159781D01*
X309047Y160614D01*
X308214D01*
X307381Y159781D01*
Y157282D01*
X327660Y143120D02*
X322662D01*
Y145619D01*
X323495Y146452D01*
X325161D01*
X325994Y145619D01*
Y143120D01*
Y144786D02*
X327660Y146452D01*
X322662Y151451D02*
X323495Y149784D01*
X325161Y148118D01*
X326827D01*
X327660Y148951D01*
Y150618D01*
X326827Y151451D01*
X325994D01*
X325161Y150618D01*
Y148118D01*
X327660Y153117D02*
Y154783D01*
Y153950D01*
X322662D01*
X323495Y153117D01*
X322662Y160614D02*
Y157282D01*
X325161D01*
X324328Y158948D01*
Y159781D01*
X325161Y160614D01*
X326827D01*
X327660Y159781D01*
Y158115D01*
X326827Y157282D01*
X4518Y92964D02*
X9516D01*
Y96296D01*
X5351Y97962D02*
X4518Y98795D01*
Y100462D01*
X5351Y101295D01*
X6184D01*
X7017Y100462D01*
Y99628D01*
Y100462D01*
X7850Y101295D01*
X8683D01*
X9516Y100462D01*
Y98795D01*
X8683Y97962D01*
X5351Y102961D02*
X4518Y103794D01*
Y105460D01*
X5351Y106293D01*
X8683D01*
X9516Y105460D01*
Y103794D01*
X8683Y102961D01*
X5351D01*
Y107959D02*
X4518Y108792D01*
Y110458D01*
X5351Y111291D01*
X6184D01*
X7017Y110458D01*
Y109625D01*
Y110458D01*
X7850Y111291D01*
X8683D01*
X9516Y110458D01*
Y108792D01*
X8683Y107959D01*
X4518Y60960D02*
X9516D01*
Y64292D01*
X5351Y65958D02*
X4518Y66792D01*
Y68458D01*
X5351Y69291D01*
X6184D01*
X7017Y68458D01*
Y67625D01*
Y68458D01*
X7850Y69291D01*
X8683D01*
X9516Y68458D01*
Y66792D01*
X8683Y65958D01*
X5351Y70957D02*
X4518Y71790D01*
Y73456D01*
X5351Y74289D01*
X8683D01*
X9516Y73456D01*
Y71790D01*
X8683Y70957D01*
X5351D01*
X9516Y79287D02*
Y75955D01*
X6184Y79287D01*
X5351D01*
X4518Y78454D01*
Y76788D01*
X5351Y75955D01*
X-83779Y-38951D02*
X-78781D01*
Y-35619D01*
X-82946Y-33953D02*
X-83779Y-33120D01*
Y-31454D01*
X-82946Y-30621D01*
X-82113D01*
X-81280Y-31454D01*
Y-32287D01*
Y-31454D01*
X-80447Y-30621D01*
X-79614D01*
X-78781Y-31454D01*
Y-33120D01*
X-79614Y-33953D01*
X-82946Y-28955D02*
X-83779Y-28121D01*
Y-26455D01*
X-82946Y-25622D01*
X-79614D01*
X-78781Y-26455D01*
Y-28121D01*
X-79614Y-28955D01*
X-82946D01*
X-78781Y-23956D02*
Y-22290D01*
Y-23123D01*
X-83779D01*
X-82946Y-23956D01*
X-77388Y-1406D02*
X-72390D01*
Y1926D01*
X-76555Y3592D02*
X-77388Y4426D01*
Y6092D01*
X-76555Y6925D01*
X-75722D01*
X-74889Y6092D01*
Y5258D01*
Y6092D01*
X-74056Y6925D01*
X-73223D01*
X-72390Y6092D01*
Y4426D01*
X-73223Y3592D01*
X-76555Y8591D02*
X-77388Y9424D01*
Y11090D01*
X-76555Y11923D01*
X-73223D01*
X-72390Y11090D01*
Y9424D01*
X-73223Y8591D01*
X-76555D01*
Y13589D02*
X-77388Y14422D01*
Y16088D01*
X-76555Y16921D01*
X-73223D01*
X-72390Y16088D01*
Y14422D01*
X-73223Y13589D01*
X-76555D01*
X341712Y140580D02*
X346710D01*
Y143079D01*
X345877Y143912D01*
X342545D01*
X341712Y143079D01*
Y140580D01*
Y148911D02*
X342545Y147245D01*
X344211Y145578D01*
X345877D01*
X346710Y146411D01*
Y148078D01*
X345877Y148911D01*
X345044D01*
X344211Y148078D01*
Y145578D01*
X342545Y150577D02*
X341712Y151410D01*
Y153076D01*
X342545Y153909D01*
X345877D01*
X346710Y153076D01*
Y151410D01*
X345877Y150577D01*
X342545D01*
Y155575D02*
X341712Y156408D01*
Y158074D01*
X342545Y158907D01*
X343378D01*
X344211Y158074D01*
Y157241D01*
Y158074D01*
X345044Y158907D01*
X345877D01*
X346710Y158074D01*
Y156408D01*
X345877Y155575D01*
X43718Y4537D02*
X42885Y5370D01*
X41219D01*
X40386Y4537D01*
Y1205D01*
X41219Y372D01*
X42885D01*
X43718Y1205D01*
X45384Y4537D02*
X46217Y5370D01*
X47884D01*
X48717Y4537D01*
Y3704D01*
X47884Y2871D01*
X47050D01*
X47884D01*
X48717Y2038D01*
Y1205D01*
X47884Y372D01*
X46217D01*
X45384Y1205D01*
X53715Y372D02*
X50383D01*
X53715Y3704D01*
Y4537D01*
X52882Y5370D01*
X51216D01*
X50383Y4537D01*
X55381D02*
X56214Y5370D01*
X57880D01*
X58713Y4537D01*
Y1205D01*
X57880Y372D01*
X56214D01*
X55381Y1205D01*
Y4537D01*
X44480Y43653D02*
X43647Y44486D01*
X41981D01*
X41148Y43653D01*
Y40321D01*
X41981Y39488D01*
X43647D01*
X44480Y40321D01*
X46146Y43653D02*
X46979Y44486D01*
X48646D01*
X49479Y43653D01*
Y42820D01*
X48646Y41987D01*
X47812D01*
X48646D01*
X49479Y41154D01*
Y40321D01*
X48646Y39488D01*
X46979D01*
X46146Y40321D01*
X51145Y39488D02*
X52811D01*
X51978D01*
Y44486D01*
X51145Y43653D01*
X55310Y40321D02*
X56143Y39488D01*
X57809D01*
X58642Y40321D01*
Y43653D01*
X57809Y44486D01*
X56143D01*
X55310Y43653D01*
Y42820D01*
X56143Y41987D01*
X58642D01*
X35831Y-55342D02*
X34998Y-56175D01*
Y-57841D01*
X35831Y-58674D01*
X39163D01*
X39996Y-57841D01*
Y-56175D01*
X39163Y-55342D01*
X35831Y-53676D02*
X34998Y-52843D01*
Y-51177D01*
X35831Y-50343D01*
X36664D01*
X37497Y-51177D01*
Y-52010D01*
Y-51177D01*
X38330Y-50343D01*
X39163D01*
X39996Y-51177D01*
Y-52843D01*
X39163Y-53676D01*
X39996Y-48677D02*
Y-47011D01*
Y-47844D01*
X34998D01*
X35831Y-48677D01*
Y-44512D02*
X34998Y-43679D01*
Y-42013D01*
X35831Y-41180D01*
X36664D01*
X37497Y-42013D01*
X38330Y-41180D01*
X39163D01*
X39996Y-42013D01*
Y-43679D01*
X39163Y-44512D01*
X38330D01*
X37497Y-43679D01*
X36664Y-44512D01*
X35831D01*
X37497Y-43679D02*
Y-42013D01*
X7768Y87477D02*
X6935Y88310D01*
X5269D01*
X4436Y87477D01*
Y84145D01*
X5269Y83312D01*
X6935D01*
X7768Y84145D01*
X9434Y87477D02*
X10267Y88310D01*
X11934D01*
X12767Y87477D01*
Y86644D01*
X11934Y85811D01*
X11100D01*
X11934D01*
X12767Y84978D01*
Y84145D01*
X11934Y83312D01*
X10267D01*
X9434Y84145D01*
X14433Y83312D02*
X16099D01*
X15266D01*
Y88310D01*
X14433Y87477D01*
X18598Y88310D02*
X21930D01*
Y87477D01*
X18598Y84145D01*
Y83312D01*
X7768Y54965D02*
X6935Y55798D01*
X5269D01*
X4436Y54965D01*
Y51633D01*
X5269Y50800D01*
X6935D01*
X7768Y51633D01*
X9434Y54965D02*
X10267Y55798D01*
X11934D01*
X12767Y54965D01*
Y54132D01*
X11934Y53299D01*
X11100D01*
X11934D01*
X12767Y52466D01*
Y51633D01*
X11934Y50800D01*
X10267D01*
X9434Y51633D01*
X14433Y50800D02*
X16099D01*
X15266D01*
Y55798D01*
X14433Y54965D01*
X21930Y55798D02*
X20264Y54965D01*
X18598Y53299D01*
Y51633D01*
X19431Y50800D01*
X21097D01*
X21930Y51633D01*
Y52466D01*
X21097Y53299D01*
X18598D01*
X7260Y-69495D02*
X6427Y-68662D01*
X4761D01*
X3928Y-69495D01*
Y-72827D01*
X4761Y-73660D01*
X6427D01*
X7260Y-72827D01*
X8926Y-69495D02*
X9759Y-68662D01*
X11426D01*
X12259Y-69495D01*
Y-70328D01*
X11426Y-71161D01*
X10592D01*
X11426D01*
X12259Y-71994D01*
Y-72827D01*
X11426Y-73660D01*
X9759D01*
X8926Y-72827D01*
X13925Y-73660D02*
X15591D01*
X14758D01*
Y-68662D01*
X13925Y-69495D01*
X21422Y-68662D02*
X18090D01*
Y-71161D01*
X19756Y-70328D01*
X20589D01*
X21422Y-71161D01*
Y-72827D01*
X20589Y-73660D01*
X18923D01*
X18090Y-72827D01*
X-27025Y74062D02*
X-27858Y73229D01*
Y71563D01*
X-27025Y70730D01*
X-23693D01*
X-22860Y71563D01*
Y73229D01*
X-23693Y74062D01*
X-27025Y75728D02*
X-27858Y76561D01*
Y78228D01*
X-27025Y79061D01*
X-26192D01*
X-25359Y78228D01*
Y77394D01*
Y78228D01*
X-24526Y79061D01*
X-23693D01*
X-22860Y78228D01*
Y76561D01*
X-23693Y75728D01*
X-22860Y80727D02*
Y82393D01*
Y81560D01*
X-27858D01*
X-27025Y80727D01*
X-22860Y87391D02*
X-27858D01*
X-25359Y84892D01*
Y88224D01*
X-35784Y-79011D02*
X-36617Y-78178D01*
X-38283D01*
X-39116Y-79011D01*
Y-82343D01*
X-38283Y-83176D01*
X-36617D01*
X-35784Y-82343D01*
X-34118Y-79011D02*
X-33285Y-78178D01*
X-31618D01*
X-30785Y-79011D01*
Y-79844D01*
X-31618Y-80677D01*
X-32452D01*
X-31618D01*
X-30785Y-81510D01*
Y-82343D01*
X-31618Y-83176D01*
X-33285D01*
X-34118Y-82343D01*
X-29119Y-83176D02*
X-27453D01*
X-28286D01*
Y-78178D01*
X-29119Y-79011D01*
X-24954D02*
X-24121Y-78178D01*
X-22455D01*
X-21622Y-79011D01*
Y-79844D01*
X-22455Y-80677D01*
X-23288D01*
X-22455D01*
X-21622Y-81510D01*
Y-82343D01*
X-22455Y-83176D01*
X-24121D01*
X-24954Y-82343D01*
X-49754Y75911D02*
X-50587Y76744D01*
X-52253D01*
X-53086Y75911D01*
Y72579D01*
X-52253Y71746D01*
X-50587D01*
X-49754Y72579D01*
X-48088Y75911D02*
X-47255Y76744D01*
X-45588D01*
X-44755Y75911D01*
Y75078D01*
X-45588Y74245D01*
X-46421D01*
X-45588D01*
X-44755Y73412D01*
Y72579D01*
X-45588Y71746D01*
X-47255D01*
X-48088Y72579D01*
X-43089Y71746D02*
X-41423D01*
X-42256D01*
Y76744D01*
X-43089Y75911D01*
X-35592Y71746D02*
X-38924D01*
X-35592Y75078D01*
Y75911D01*
X-36425Y76744D01*
X-38091D01*
X-38924Y75911D01*
X-59152Y-65549D02*
X-59985Y-64716D01*
X-61651D01*
X-62484Y-65549D01*
Y-68881D01*
X-61651Y-69714D01*
X-59985D01*
X-59152Y-68881D01*
X-57486Y-65549D02*
X-56653Y-64716D01*
X-54987D01*
X-54153Y-65549D01*
Y-66382D01*
X-54987Y-67215D01*
X-55820D01*
X-54987D01*
X-54153Y-68048D01*
Y-68881D01*
X-54987Y-69714D01*
X-56653D01*
X-57486Y-68881D01*
X-52487Y-69714D02*
X-50821D01*
X-51654D01*
Y-64716D01*
X-52487Y-65549D01*
X-48322Y-69714D02*
X-46656D01*
X-47489D01*
Y-64716D01*
X-48322Y-65549D01*
X-77805Y32757D02*
X-78638Y33590D01*
X-80304D01*
X-81137Y32757D01*
Y29425D01*
X-80304Y28592D01*
X-78638D01*
X-77805Y29425D01*
X-76139Y32757D02*
X-75306Y33590D01*
X-73640D01*
X-72807Y32757D01*
Y31924D01*
X-73640Y31091D01*
X-74473D01*
X-73640D01*
X-72807Y30258D01*
Y29425D01*
X-73640Y28592D01*
X-75306D01*
X-76139Y29425D01*
X-71140Y28592D02*
X-69474D01*
X-70307D01*
Y33590D01*
X-71140Y32757D01*
X-66975D02*
X-66142Y33590D01*
X-64476D01*
X-63643Y32757D01*
Y29425D01*
X-64476Y28592D01*
X-66142D01*
X-66975Y29425D01*
Y32757D01*
X-81114Y-43079D02*
X-81947Y-42246D01*
X-83613D01*
X-84446Y-43079D01*
Y-46411D01*
X-83613Y-47244D01*
X-81947D01*
X-81114Y-46411D01*
X-79448Y-43079D02*
X-78615Y-42246D01*
X-76948D01*
X-76115Y-43079D01*
Y-43912D01*
X-76948Y-44745D01*
X-77782D01*
X-76948D01*
X-76115Y-45578D01*
Y-46411D01*
X-76948Y-47244D01*
X-78615D01*
X-79448Y-46411D01*
X-74449Y-43079D02*
X-73616Y-42246D01*
X-71950D01*
X-71117Y-43079D01*
Y-46411D01*
X-71950Y-47244D01*
X-73616D01*
X-74449Y-46411D01*
Y-43079D01*
X-69451Y-46411D02*
X-68618Y-47244D01*
X-66952D01*
X-66119Y-46411D01*
Y-43079D01*
X-66952Y-42246D01*
X-68618D01*
X-69451Y-43079D01*
Y-43912D01*
X-68618Y-44745D01*
X-66119D01*
X-62839Y64918D02*
X-63672Y64085D01*
Y62419D01*
X-62839Y61586D01*
X-59507D01*
X-58674Y62419D01*
Y64085D01*
X-59507Y64918D01*
X-62839Y66584D02*
X-63672Y67417D01*
Y69084D01*
X-62839Y69917D01*
X-62006D01*
X-61173Y69084D01*
Y68250D01*
Y69084D01*
X-60340Y69917D01*
X-59507D01*
X-58674Y69084D01*
Y67417D01*
X-59507Y66584D01*
X-62839Y71583D02*
X-63672Y72416D01*
Y74082D01*
X-62839Y74915D01*
X-59507D01*
X-58674Y74082D01*
Y72416D01*
X-59507Y71583D01*
X-62839D01*
Y76581D02*
X-63672Y77414D01*
Y79080D01*
X-62839Y79913D01*
X-62006D01*
X-61173Y79080D01*
X-60340Y79913D01*
X-59507D01*
X-58674Y79080D01*
Y77414D01*
X-59507Y76581D01*
X-60340D01*
X-61173Y77414D01*
X-62006Y76581D01*
X-62839D01*
X-61173Y77414D02*
Y79080D01*
X-6128Y-224394D02*
X-6961Y-223561D01*
X-8627D01*
X-9460Y-224394D01*
Y-227726D01*
X-8627Y-228559D01*
X-6961D01*
X-6128Y-227726D01*
X-4462Y-224394D02*
X-3629Y-223561D01*
X-1963D01*
X-1129Y-224394D01*
Y-225227D01*
X-1963Y-226060D01*
X-2795D01*
X-1963D01*
X-1129Y-226893D01*
Y-227726D01*
X-1963Y-228559D01*
X-3629D01*
X-4462Y-227726D01*
X537Y-224394D02*
X1370Y-223561D01*
X3036D01*
X3869Y-224394D01*
Y-227726D01*
X3036Y-228559D01*
X1370D01*
X537Y-227726D01*
Y-224394D01*
X5535Y-223561D02*
X8867D01*
Y-224394D01*
X5535Y-227726D01*
Y-228559D01*
X174212Y-223124D02*
X173379Y-222291D01*
X171713D01*
X170880Y-223124D01*
Y-226456D01*
X171713Y-227289D01*
X173379D01*
X174212Y-226456D01*
X175878Y-223124D02*
X176711Y-222291D01*
X178377D01*
X179211Y-223124D01*
Y-223957D01*
X178377Y-224790D01*
X177544D01*
X178377D01*
X179211Y-225623D01*
Y-226456D01*
X178377Y-227289D01*
X176711D01*
X175878Y-226456D01*
X180877Y-223124D02*
X181710Y-222291D01*
X183376D01*
X184209Y-223124D01*
Y-226456D01*
X183376Y-227289D01*
X181710D01*
X180877Y-226456D01*
Y-223124D01*
X189207Y-222291D02*
X187541Y-223124D01*
X185875Y-224790D01*
Y-226456D01*
X186708Y-227289D01*
X188374D01*
X189207Y-226456D01*
Y-225623D01*
X188374Y-224790D01*
X185875D01*
X-186468Y-223124D02*
X-187301Y-222291D01*
X-188967D01*
X-189800Y-223124D01*
Y-226456D01*
X-188967Y-227289D01*
X-187301D01*
X-186468Y-226456D01*
X-184802Y-223124D02*
X-183969Y-222291D01*
X-182302D01*
X-181469Y-223124D01*
Y-223957D01*
X-182302Y-224790D01*
X-183136D01*
X-182302D01*
X-181469Y-225623D01*
Y-226456D01*
X-182302Y-227289D01*
X-183969D01*
X-184802Y-226456D01*
X-179803Y-223124D02*
X-178970Y-222291D01*
X-177304D01*
X-176471Y-223124D01*
Y-226456D01*
X-177304Y-227289D01*
X-178970D01*
X-179803Y-226456D01*
Y-223124D01*
X-171473Y-222291D02*
X-174805D01*
Y-224790D01*
X-173139Y-223957D01*
X-172306D01*
X-171473Y-224790D01*
Y-226456D01*
X-172306Y-227289D01*
X-173972D01*
X-174805Y-226456D01*
X364998Y-10868D02*
Y-15033D01*
X365831Y-15866D01*
X367497D01*
X368330Y-15033D01*
Y-10868D01*
X373329D02*
X371662Y-11701D01*
X369996Y-13367D01*
Y-15033D01*
X370829Y-15866D01*
X372495D01*
X373329Y-15033D01*
Y-14200D01*
X372495Y-13367D01*
X369996D01*
X374995Y-11701D02*
X375828Y-10868D01*
X377494D01*
X378327Y-11701D01*
Y-15033D01*
X377494Y-15866D01*
X375828D01*
X374995Y-15033D01*
Y-11701D01*
X379993Y-15866D02*
X381659D01*
X380826D01*
Y-10868D01*
X379993Y-11701D01*
X189938Y-29972D02*
X194103D01*
X194936Y-29139D01*
Y-27473D01*
X194103Y-26640D01*
X189938D01*
Y-21641D02*
Y-24974D01*
X192437D01*
X191604Y-23307D01*
Y-22475D01*
X192437Y-21641D01*
X194103D01*
X194936Y-22475D01*
Y-24141D01*
X194103Y-24974D01*
X190771Y-19975D02*
X189938Y-19142D01*
Y-17476D01*
X190771Y-16643D01*
X194103D01*
X194936Y-17476D01*
Y-19142D01*
X194103Y-19975D01*
X190771D01*
X194936Y-14977D02*
Y-13311D01*
Y-14144D01*
X189938D01*
X190771Y-14977D01*
X178500Y105369D02*
Y101204D01*
X179333Y100371D01*
X180999D01*
X181832Y101204D01*
Y105369D01*
X186831D02*
X183498D01*
Y102870D01*
X185165Y103703D01*
X185998D01*
X186831Y102870D01*
Y101204D01*
X185998Y100371D01*
X184331D01*
X183498Y101204D01*
X188497Y104536D02*
X189330Y105369D01*
X190996D01*
X191829Y104536D01*
Y101204D01*
X190996Y100371D01*
X189330D01*
X188497Y101204D01*
Y104536D01*
X193495D02*
X194328Y105369D01*
X195994D01*
X196827Y104536D01*
Y101204D01*
X195994Y100371D01*
X194328D01*
X193495Y101204D01*
Y104536D01*
X-404711Y-103570D02*
Y-107735D01*
X-403878Y-108568D01*
X-402212D01*
X-401379Y-107735D01*
Y-103570D01*
X-397214Y-108568D02*
Y-103570D01*
X-399713Y-106069D01*
X-396381D01*
X-394715Y-104403D02*
X-393881Y-103570D01*
X-392215D01*
X-391382Y-104403D01*
Y-107735D01*
X-392215Y-108568D01*
X-393881D01*
X-394715Y-107735D01*
Y-104403D01*
X-389716Y-108568D02*
X-388050D01*
X-388883D01*
Y-103570D01*
X-389716Y-104403D01*
X-379648Y37964D02*
X-375483D01*
X-374650Y38797D01*
Y40463D01*
X-375483Y41296D01*
X-379648D01*
X-374650Y45462D02*
X-379648D01*
X-377149Y42962D01*
Y46295D01*
X-378815Y47961D02*
X-379648Y48794D01*
Y50460D01*
X-378815Y51293D01*
X-375483D01*
X-374650Y50460D01*
Y48794D01*
X-375483Y47961D01*
X-378815D01*
Y52959D02*
X-379648Y53792D01*
Y55458D01*
X-378815Y56291D01*
X-375483D01*
X-374650Y55458D01*
Y53792D01*
X-375483Y52959D01*
X-378815D01*
X373047Y-158180D02*
X376380D01*
X374714D01*
Y-163178D01*
X378046D02*
Y-158180D01*
X380545D01*
X381378Y-159013D01*
Y-160679D01*
X380545Y-161512D01*
X378046D01*
X386376Y-158180D02*
X384710Y-159013D01*
X383044Y-160679D01*
Y-162345D01*
X383877Y-163178D01*
X385543D01*
X386376Y-162345D01*
Y-161512D01*
X385543Y-160679D01*
X383044D01*
X388042Y-163178D02*
X389709D01*
X388876D01*
Y-158180D01*
X388042Y-159013D01*
X395540Y-163178D02*
X392208D01*
X395540Y-159846D01*
Y-159013D01*
X394707Y-158180D01*
X393041D01*
X392208Y-159013D01*
X313120Y-45761D02*
X316452D01*
X314786D01*
Y-50759D01*
X318118D02*
Y-45761D01*
X320617D01*
X321451Y-46594D01*
Y-48260D01*
X320617Y-49093D01*
X318118D01*
X326449Y-45761D02*
X324783Y-46594D01*
X323117Y-48260D01*
Y-49926D01*
X323950Y-50759D01*
X325616D01*
X326449Y-49926D01*
Y-49093D01*
X325616Y-48260D01*
X323117D01*
X328115Y-50759D02*
X329781D01*
X328948D01*
Y-45761D01*
X328115Y-46594D01*
X332280Y-50759D02*
X333946D01*
X333114D01*
Y-45761D01*
X332280Y-46594D01*
X225490Y7579D02*
X228822D01*
X227156D01*
Y2581D01*
X230488D02*
Y7579D01*
X232987D01*
X233821Y6746D01*
Y5080D01*
X232987Y4247D01*
X230488D01*
X238819Y7579D02*
X237153Y6746D01*
X235487Y5080D01*
Y3414D01*
X236320Y2581D01*
X237986D01*
X238819Y3414D01*
Y4247D01*
X237986Y5080D01*
X235487D01*
X240485Y2581D02*
X242151D01*
X241318D01*
Y7579D01*
X240485Y6746D01*
X244650D02*
X245483Y7579D01*
X247150D01*
X247983Y6746D01*
Y3414D01*
X247150Y2581D01*
X245483D01*
X244650Y3414D01*
Y6746D01*
X305837Y36178D02*
X309169D01*
X307503D01*
Y31180D01*
X310835D02*
Y36178D01*
X313335D01*
X314168Y35345D01*
Y33679D01*
X313335Y32846D01*
X310835D01*
X319166Y36178D02*
X317500Y35345D01*
X315834Y33679D01*
Y32013D01*
X316667Y31180D01*
X318333D01*
X319166Y32013D01*
Y32846D01*
X318333Y33679D01*
X315834D01*
X320832Y35345D02*
X321665Y36178D01*
X323331D01*
X324165Y35345D01*
Y32013D01*
X323331Y31180D01*
X321665D01*
X320832Y32013D01*
Y35345D01*
X325831Y32013D02*
X326664Y31180D01*
X328330D01*
X329163Y32013D01*
Y35345D01*
X328330Y36178D01*
X326664D01*
X325831Y35345D01*
Y34512D01*
X326664Y33679D01*
X329163D01*
X401087Y57768D02*
X404419D01*
X402753D01*
Y52770D01*
X406086D02*
Y57768D01*
X408585D01*
X409418Y56935D01*
Y55269D01*
X408585Y54436D01*
X406086D01*
X414416Y57768D02*
X412750Y56935D01*
X411084Y55269D01*
Y53603D01*
X411917Y52770D01*
X413583D01*
X414416Y53603D01*
Y54436D01*
X413583Y55269D01*
X411084D01*
X416082Y56935D02*
X416915Y57768D01*
X418581D01*
X419414Y56935D01*
Y53603D01*
X418581Y52770D01*
X416915D01*
X416082Y53603D01*
Y56935D01*
X421081D02*
X421914Y57768D01*
X423580D01*
X424413Y56935D01*
Y56102D01*
X423580Y55269D01*
X424413Y54436D01*
Y53603D01*
X423580Y52770D01*
X421914D01*
X421081Y53603D01*
Y54436D01*
X421914Y55269D01*
X421081Y56102D01*
Y56935D01*
X421914Y55269D02*
X423580D01*
X382016Y-37030D02*
X385348D01*
X383682D01*
Y-42028D01*
X387014D02*
Y-37030D01*
X389514D01*
X390347Y-37863D01*
Y-39529D01*
X389514Y-40362D01*
X387014D01*
X395345Y-37030D02*
X393679Y-37863D01*
X392013Y-39529D01*
Y-41195D01*
X392846Y-42028D01*
X394512D01*
X395345Y-41195D01*
Y-40362D01*
X394512Y-39529D01*
X392013D01*
X397011Y-37863D02*
X397844Y-37030D01*
X399510D01*
X400343Y-37863D01*
Y-41195D01*
X399510Y-42028D01*
X397844D01*
X397011Y-41195D01*
Y-37863D01*
X402010Y-37030D02*
X405342D01*
Y-37863D01*
X402010Y-41195D01*
Y-42028D01*
X437580Y-72623D02*
Y-69291D01*
Y-70957D01*
X442578D01*
Y-67625D02*
X437580D01*
Y-65125D01*
X438413Y-64292D01*
X440079D01*
X440912Y-65125D01*
Y-67625D01*
X437580Y-59294D02*
X438413Y-60960D01*
X440079Y-62626D01*
X441745D01*
X442578Y-61793D01*
Y-60127D01*
X441745Y-59294D01*
X440912D01*
X440079Y-60127D01*
Y-62626D01*
X438413Y-57628D02*
X437580Y-56795D01*
Y-55129D01*
X438413Y-54296D01*
X441745D01*
X442578Y-55129D01*
Y-56795D01*
X441745Y-57628D01*
X438413D01*
X437580Y-49297D02*
X438413Y-50963D01*
X440079Y-52629D01*
X441745D01*
X442578Y-51796D01*
Y-50130D01*
X441745Y-49297D01*
X440912D01*
X440079Y-50130D01*
Y-52629D01*
X336296Y69886D02*
X339628D01*
X337962D01*
Y64888D01*
X341294D02*
Y69886D01*
X343793D01*
X344627Y69053D01*
Y67387D01*
X343793Y66554D01*
X341294D01*
X349625Y69886D02*
X347959Y69053D01*
X346293Y67387D01*
Y65721D01*
X347126Y64888D01*
X348792D01*
X349625Y65721D01*
Y66554D01*
X348792Y67387D01*
X346293D01*
X351291Y69053D02*
X352124Y69886D01*
X353790D01*
X354623Y69053D01*
Y65721D01*
X353790Y64888D01*
X352124D01*
X351291Y65721D01*
Y69053D01*
X359622Y69886D02*
X356289D01*
Y67387D01*
X357956Y68220D01*
X358789D01*
X359622Y67387D01*
Y65721D01*
X358789Y64888D01*
X357122D01*
X356289Y65721D01*
X404622Y20356D02*
X407954D01*
X406288D01*
Y15358D01*
X409620D02*
Y20356D01*
X412119D01*
X412953Y19523D01*
Y17857D01*
X412119Y17024D01*
X409620D01*
X417951Y20356D02*
X416285Y19523D01*
X414619Y17857D01*
Y16191D01*
X415452Y15358D01*
X417118D01*
X417951Y16191D01*
Y17024D01*
X417118Y17857D01*
X414619D01*
X419617Y19523D02*
X420450Y20356D01*
X422116D01*
X422949Y19523D01*
Y16191D01*
X422116Y15358D01*
X420450D01*
X419617Y16191D01*
Y19523D01*
X427115Y15358D02*
Y20356D01*
X424616Y17857D01*
X427948D01*
X200764Y-73701D02*
X204097D01*
X202430D01*
Y-78699D01*
X205763D02*
Y-73701D01*
X208262D01*
X209095Y-74534D01*
Y-76200D01*
X208262Y-77033D01*
X205763D01*
X214093Y-73701D02*
X210761D01*
Y-76200D01*
X212427Y-75367D01*
X213260D01*
X214093Y-76200D01*
Y-77866D01*
X213260Y-78699D01*
X211594D01*
X210761Y-77866D01*
X215759Y-74534D02*
X216593Y-73701D01*
X218259D01*
X219092Y-74534D01*
Y-77866D01*
X218259Y-78699D01*
X216593D01*
X215759Y-77866D01*
Y-74534D01*
X224090Y-78699D02*
X220758D01*
X224090Y-75367D01*
Y-74534D01*
X223257Y-73701D01*
X221591D01*
X220758Y-74534D01*
X94680Y-15281D02*
X98012D01*
X96346D01*
Y-20279D01*
X99678D02*
Y-15281D01*
X102177D01*
X103011Y-16114D01*
Y-17780D01*
X102177Y-18613D01*
X99678D01*
X108009Y-15281D02*
X104677D01*
Y-17780D01*
X106343Y-16947D01*
X107176D01*
X108009Y-17780D01*
Y-19446D01*
X107176Y-20279D01*
X105510D01*
X104677Y-19446D01*
X109675Y-16114D02*
X110508Y-15281D01*
X112174D01*
X113007Y-16114D01*
Y-19446D01*
X112174Y-20279D01*
X110508D01*
X109675Y-19446D01*
Y-16114D01*
X114673Y-20279D02*
X116340D01*
X115506D01*
Y-15281D01*
X114673Y-16114D01*
X133391Y40070D02*
Y43402D01*
Y41736D01*
X138389D01*
Y45068D02*
X133391D01*
Y47568D01*
X134224Y48401D01*
X135890D01*
X136723Y47568D01*
Y45068D01*
X133391Y53399D02*
Y50067D01*
X135890D01*
X135057Y51733D01*
Y52566D01*
X135890Y53399D01*
X137556D01*
X138389Y52566D01*
Y50900D01*
X137556Y50067D01*
X134224Y55065D02*
X133391Y55898D01*
Y57564D01*
X134224Y58397D01*
X137556D01*
X138389Y57564D01*
Y55898D01*
X137556Y55065D01*
X134224D01*
Y60063D02*
X133391Y60897D01*
Y62563D01*
X134224Y63396D01*
X137556D01*
X138389Y62563D01*
Y60897D01*
X137556Y60063D01*
X134224D01*
X-356788Y-35442D02*
Y-32110D01*
Y-33776D01*
X-351790D01*
Y-30444D02*
X-356788D01*
Y-27944D01*
X-355955Y-27111D01*
X-354289D01*
X-353456Y-27944D01*
Y-30444D01*
X-351790Y-22946D02*
X-356788D01*
X-354289Y-25445D01*
Y-22113D01*
X-351790Y-20447D02*
Y-18781D01*
Y-19614D01*
X-356788D01*
X-355955Y-20447D01*
Y-16282D02*
X-356788Y-15448D01*
Y-13782D01*
X-355955Y-12949D01*
X-352623D01*
X-351790Y-13782D01*
Y-15448D01*
X-352623Y-16282D01*
X-355955D01*
X-264056Y-19091D02*
X-260723D01*
X-262390D01*
Y-24089D01*
X-259057D02*
Y-19091D01*
X-256558D01*
X-255725Y-19924D01*
Y-21590D01*
X-256558Y-22423D01*
X-259057D01*
X-251560Y-24089D02*
Y-19091D01*
X-254059Y-21590D01*
X-250727D01*
X-249061Y-19924D02*
X-248228Y-19091D01*
X-246561D01*
X-245728Y-19924D01*
Y-23256D01*
X-246561Y-24089D01*
X-248228D01*
X-249061Y-23256D01*
Y-19924D01*
X-244062Y-23256D02*
X-243229Y-24089D01*
X-241563D01*
X-240730Y-23256D01*
Y-19924D01*
X-241563Y-19091D01*
X-243229D01*
X-244062Y-19924D01*
Y-20757D01*
X-243229Y-21590D01*
X-240730D01*
X-398676Y133309D02*
X-395343D01*
X-397010D01*
Y128311D01*
X-393677D02*
Y133309D01*
X-391178D01*
X-390345Y132476D01*
Y130810D01*
X-391178Y129977D01*
X-393677D01*
X-386180Y128311D02*
Y133309D01*
X-388679Y130810D01*
X-385347D01*
X-383681Y132476D02*
X-382848Y133309D01*
X-381181D01*
X-380348Y132476D01*
Y129144D01*
X-381181Y128311D01*
X-382848D01*
X-383681Y129144D01*
Y132476D01*
X-378682D02*
X-377849Y133309D01*
X-376183D01*
X-375350Y132476D01*
Y131643D01*
X-376183Y130810D01*
X-375350Y129977D01*
Y129144D01*
X-376183Y128311D01*
X-377849D01*
X-378682Y129144D01*
Y129977D01*
X-377849Y130810D01*
X-378682Y131643D01*
Y132476D01*
X-377849Y130810D02*
X-376183D01*
X-344403Y-44491D02*
X-341071D01*
X-342737D01*
Y-49489D01*
X-339404D02*
Y-44491D01*
X-336905D01*
X-336072Y-45324D01*
Y-46990D01*
X-336905Y-47823D01*
X-339404D01*
X-331907Y-49489D02*
Y-44491D01*
X-334406Y-46990D01*
X-331074D01*
X-329408Y-45324D02*
X-328575Y-44491D01*
X-326909D01*
X-326076Y-45324D01*
Y-48656D01*
X-326909Y-49489D01*
X-328575D01*
X-329408Y-48656D01*
Y-45324D01*
X-324409Y-44491D02*
X-321077D01*
Y-45324D01*
X-324409Y-48656D01*
Y-49489D01*
X-309776Y-54651D02*
X-306443D01*
X-308110D01*
Y-59649D01*
X-304777D02*
Y-54651D01*
X-302278D01*
X-301445Y-55484D01*
Y-57150D01*
X-302278Y-57983D01*
X-304777D01*
X-297280Y-59649D02*
Y-54651D01*
X-299779Y-57150D01*
X-296447D01*
X-294781Y-55484D02*
X-293948Y-54651D01*
X-292281D01*
X-291448Y-55484D01*
Y-58816D01*
X-292281Y-59649D01*
X-293948D01*
X-294781Y-58816D01*
Y-55484D01*
X-286450Y-54651D02*
X-288116Y-55484D01*
X-289782Y-57150D01*
Y-58816D01*
X-288949Y-59649D01*
X-287283D01*
X-286450Y-58816D01*
Y-57983D01*
X-287283Y-57150D01*
X-289782D01*
X-367600Y-113730D02*
X-364268D01*
X-365934D01*
Y-118728D01*
X-362602D02*
Y-113730D01*
X-360103D01*
X-359269Y-114563D01*
Y-116229D01*
X-360103Y-117062D01*
X-362602D01*
X-355104Y-118728D02*
Y-113730D01*
X-357603Y-116229D01*
X-354271D01*
X-352605Y-114563D02*
X-351772Y-113730D01*
X-350106D01*
X-349273Y-114563D01*
Y-117895D01*
X-350106Y-118728D01*
X-351772D01*
X-352605Y-117895D01*
Y-114563D01*
X-344274Y-113730D02*
X-347607D01*
Y-116229D01*
X-345941Y-115396D01*
X-345107D01*
X-344274Y-116229D01*
Y-117895D01*
X-345107Y-118728D01*
X-346773D01*
X-347607Y-117895D01*
X-349820Y-134002D02*
X-346488D01*
X-348154D01*
Y-139000D01*
X-344822D02*
Y-134002D01*
X-342323D01*
X-341489Y-134835D01*
Y-136501D01*
X-342323Y-137334D01*
X-344822D01*
X-337324Y-139000D02*
Y-134002D01*
X-339823Y-136501D01*
X-336491D01*
X-334825Y-134835D02*
X-333992Y-134002D01*
X-332326D01*
X-331493Y-134835D01*
Y-138167D01*
X-332326Y-139000D01*
X-333992D01*
X-334825Y-138167D01*
Y-134835D01*
X-327327Y-139000D02*
Y-134002D01*
X-329827Y-136501D01*
X-326494D01*
X-436180Y-54651D02*
X-432848D01*
X-434514D01*
Y-59649D01*
X-431182D02*
Y-54651D01*
X-428683D01*
X-427849Y-55484D01*
Y-57150D01*
X-428683Y-57983D01*
X-431182D01*
X-423684Y-59649D02*
Y-54651D01*
X-426183Y-57150D01*
X-422851D01*
X-421185Y-55484D02*
X-420352Y-54651D01*
X-418686D01*
X-417853Y-55484D01*
Y-58816D01*
X-418686Y-59649D01*
X-420352D01*
X-421185Y-58816D01*
Y-55484D01*
X-416187D02*
X-415354Y-54651D01*
X-413687D01*
X-412854Y-55484D01*
Y-56317D01*
X-413687Y-57150D01*
X-414520D01*
X-413687D01*
X-412854Y-57983D01*
Y-58816D01*
X-413687Y-59649D01*
X-415354D01*
X-416187Y-58816D01*
X-369116Y-47752D02*
Y-44420D01*
Y-46086D01*
X-364118D01*
Y-42754D02*
X-369116D01*
Y-40254D01*
X-368283Y-39421D01*
X-366617D01*
X-365784Y-40254D01*
Y-42754D01*
X-364118Y-35256D02*
X-369116D01*
X-366617Y-37755D01*
Y-34423D01*
X-368283Y-32757D02*
X-369116Y-31924D01*
Y-30258D01*
X-368283Y-29425D01*
X-364951D01*
X-364118Y-30258D01*
Y-31924D01*
X-364951Y-32757D01*
X-368283D01*
X-364118Y-24426D02*
Y-27759D01*
X-367450Y-24426D01*
X-368283D01*
X-369116Y-25259D01*
Y-26925D01*
X-368283Y-27759D01*
X-427490Y-34331D02*
X-424157D01*
X-425823D01*
Y-39329D01*
X-422491D02*
Y-34331D01*
X-419992D01*
X-419159Y-35164D01*
Y-36830D01*
X-419992Y-37663D01*
X-422491D01*
X-414994Y-39329D02*
Y-34331D01*
X-417493Y-36830D01*
X-414161D01*
X-412495Y-35164D02*
X-411661Y-34331D01*
X-409995D01*
X-409162Y-35164D01*
Y-38496D01*
X-409995Y-39329D01*
X-411661D01*
X-412495Y-38496D01*
Y-35164D01*
X-407496Y-39329D02*
X-405830D01*
X-406663D01*
Y-34331D01*
X-407496Y-35164D01*
X-114778Y-96533D02*
X-115611Y-95700D01*
X-117277D01*
X-118110Y-96533D01*
Y-97366D01*
X-117277Y-98199D01*
X-115611D01*
X-114778Y-99032D01*
Y-99865D01*
X-115611Y-100698D01*
X-117277D01*
X-118110Y-99865D01*
X-113112Y-95700D02*
Y-100698D01*
X-111446Y-99032D01*
X-109779Y-100698D01*
Y-95700D01*
X-108113Y-96533D02*
X-107280Y-95700D01*
X-105614D01*
X-104781Y-96533D01*
Y-97366D01*
X-105614Y-98199D01*
X-106447D01*
X-105614D01*
X-104781Y-99032D01*
Y-99865D01*
X-105614Y-100698D01*
X-107280D01*
X-108113Y-99865D01*
X-3272Y-96533D02*
X-4105Y-95700D01*
X-5771D01*
X-6604Y-96533D01*
Y-97366D01*
X-5771Y-98199D01*
X-4105D01*
X-3272Y-99032D01*
Y-99865D01*
X-4105Y-100698D01*
X-5771D01*
X-6604Y-99865D01*
X-1606Y-95700D02*
Y-100698D01*
X60Y-99032D01*
X1727Y-100698D01*
Y-95700D01*
X6725Y-100698D02*
X3393D01*
X6725Y-97366D01*
Y-96533D01*
X5892Y-95700D01*
X4226D01*
X3393Y-96533D01*
X108996Y-96555D02*
X108163Y-95722D01*
X106497D01*
X105664Y-96555D01*
Y-97388D01*
X106497Y-98221D01*
X108163D01*
X108996Y-99054D01*
Y-99887D01*
X108163Y-100720D01*
X106497D01*
X105664Y-99887D01*
X110662Y-95722D02*
Y-100720D01*
X112329Y-99054D01*
X113995Y-100720D01*
Y-95722D01*
X115661Y-100720D02*
X117327D01*
X116494D01*
Y-95722D01*
X115661Y-96555D01*
X259223Y80710D02*
Y85708D01*
X261722D01*
X262555Y84875D01*
Y83209D01*
X261722Y82376D01*
X259223D01*
X260889D02*
X262555Y80710D01*
X267554Y85708D02*
X265887Y84875D01*
X264221Y83209D01*
Y81543D01*
X265054Y80710D01*
X266720D01*
X267554Y81543D01*
Y82376D01*
X266720Y83209D01*
X264221D01*
X269220Y80710D02*
X270886D01*
X270053D01*
Y85708D01*
X269220Y84875D01*
X273385D02*
X274218Y85708D01*
X275884D01*
X276717Y84875D01*
Y84042D01*
X275884Y83209D01*
X275051D01*
X275884D01*
X276717Y82376D01*
Y81543D01*
X275884Y80710D01*
X274218D01*
X273385Y81543D01*
X323809Y-168210D02*
X318811D01*
Y-165711D01*
X319644Y-164878D01*
X321310D01*
X322143Y-165711D01*
Y-168210D01*
Y-166544D02*
X323809Y-164878D01*
X318811Y-159879D02*
X319644Y-161546D01*
X321310Y-163212D01*
X322976D01*
X323809Y-162379D01*
Y-160713D01*
X322976Y-159879D01*
X322143D01*
X321310Y-160713D01*
Y-163212D01*
X323809Y-158213D02*
Y-156547D01*
Y-157380D01*
X318811D01*
X319644Y-158213D01*
X323809Y-150716D02*
Y-154048D01*
X320477Y-150716D01*
X319644D01*
X318811Y-151549D01*
Y-153215D01*
X319644Y-154048D01*
X360426Y92828D02*
Y97826D01*
X362925D01*
X363758Y96993D01*
Y95327D01*
X362925Y94494D01*
X360426D01*
X362092D02*
X363758Y92828D01*
X368757Y97826D02*
X367090Y96993D01*
X365424Y95327D01*
Y93661D01*
X366257Y92828D01*
X367924D01*
X368757Y93661D01*
Y94494D01*
X367924Y95327D01*
X365424D01*
X370423Y92828D02*
X372089D01*
X371256D01*
Y97826D01*
X370423Y96993D01*
X374588Y92828D02*
X376254D01*
X375421D01*
Y97826D01*
X374588Y96993D01*
X394318Y38956D02*
X389320D01*
Y41455D01*
X390153Y42288D01*
X391819D01*
X392652Y41455D01*
Y38956D01*
Y40622D02*
X394318Y42288D01*
X389320Y47286D02*
X390153Y45620D01*
X391819Y43954D01*
X393485D01*
X394318Y44787D01*
Y46453D01*
X393485Y47286D01*
X392652D01*
X391819Y46453D01*
Y43954D01*
X394318Y48952D02*
Y50619D01*
Y49785D01*
X389320D01*
X390153Y48952D01*
Y53118D02*
X389320Y53951D01*
Y55617D01*
X390153Y56450D01*
X393485D01*
X394318Y55617D01*
Y53951D01*
X393485Y53118D01*
X390153D01*
X405248Y-20066D02*
X400250D01*
Y-17567D01*
X401083Y-16734D01*
X402749D01*
X403582Y-17567D01*
Y-20066D01*
Y-18400D02*
X405248Y-16734D01*
X400250Y-11735D02*
X401083Y-13401D01*
X402749Y-15068D01*
X404415D01*
X405248Y-14235D01*
Y-12569D01*
X404415Y-11735D01*
X403582D01*
X402749Y-12569D01*
Y-15068D01*
X401083Y-10069D02*
X400250Y-9236D01*
Y-7570D01*
X401083Y-6737D01*
X404415D01*
X405248Y-7570D01*
Y-9236D01*
X404415Y-10069D01*
X401083D01*
X404415Y-5071D02*
X405248Y-4238D01*
Y-2572D01*
X404415Y-1739D01*
X401083D01*
X400250Y-2572D01*
Y-4238D01*
X401083Y-5071D01*
X401916D01*
X402749Y-4238D01*
Y-1739D01*
X346592Y-24130D02*
Y-19132D01*
X349091D01*
X349924Y-19965D01*
Y-21631D01*
X349091Y-22464D01*
X346592D01*
X348258D02*
X349924Y-24130D01*
X354923Y-19132D02*
X353256Y-19965D01*
X351590Y-21631D01*
Y-23297D01*
X352423Y-24130D01*
X354090D01*
X354923Y-23297D01*
Y-22464D01*
X354090Y-21631D01*
X351590D01*
X356589Y-19965D02*
X357422Y-19132D01*
X359088D01*
X359921Y-19965D01*
Y-23297D01*
X359088Y-24130D01*
X357422D01*
X356589Y-23297D01*
Y-19965D01*
X361587D02*
X362420Y-19132D01*
X364086D01*
X364919Y-19965D01*
Y-20798D01*
X364086Y-21631D01*
X364919Y-22464D01*
Y-23297D01*
X364086Y-24130D01*
X362420D01*
X361587Y-23297D01*
Y-22464D01*
X362420Y-21631D01*
X361587Y-20798D01*
Y-19965D01*
X362420Y-21631D02*
X364086D01*
X364372Y39116D02*
X359374D01*
Y41615D01*
X360207Y42448D01*
X361873D01*
X362706Y41615D01*
Y39116D01*
Y40782D02*
X364372Y42448D01*
X359374Y47447D02*
X360207Y45781D01*
X361873Y44114D01*
X363539D01*
X364372Y44947D01*
Y46613D01*
X363539Y47447D01*
X362706D01*
X361873Y46613D01*
Y44114D01*
X360207Y49113D02*
X359374Y49946D01*
Y51612D01*
X360207Y52445D01*
X363539D01*
X364372Y51612D01*
Y49946D01*
X363539Y49113D01*
X360207D01*
X359374Y54111D02*
Y57443D01*
X360207D01*
X363539Y54111D01*
X364372D01*
X389382Y23740D02*
Y28738D01*
X391881D01*
X392714Y27905D01*
Y26239D01*
X391881Y25406D01*
X389382D01*
X391048D02*
X392714Y23740D01*
X397713Y28738D02*
X396046Y27905D01*
X394380Y26239D01*
Y24573D01*
X395213Y23740D01*
X396880D01*
X397713Y24573D01*
Y25406D01*
X396880Y26239D01*
X394380D01*
X399379Y27905D02*
X400212Y28738D01*
X401878D01*
X402711Y27905D01*
Y24573D01*
X401878Y23740D01*
X400212D01*
X399379Y24573D01*
Y27905D01*
X407709Y28738D02*
X406043Y27905D01*
X404377Y26239D01*
Y24573D01*
X405210Y23740D01*
X406876D01*
X407709Y24573D01*
Y25406D01*
X406876Y26239D01*
X404377D01*
X130556Y-63618D02*
Y-58620D01*
X133055D01*
X133888Y-59453D01*
Y-61119D01*
X133055Y-61952D01*
X130556D01*
X132222D02*
X133888Y-63618D01*
X138887Y-58620D02*
X135554D01*
Y-61119D01*
X137220Y-60286D01*
X138054D01*
X138887Y-61119D01*
Y-62785D01*
X138054Y-63618D01*
X136387D01*
X135554Y-62785D01*
X140553Y-59453D02*
X141386Y-58620D01*
X143052D01*
X143885Y-59453D01*
Y-62785D01*
X143052Y-63618D01*
X141386D01*
X140553Y-62785D01*
Y-59453D01*
X145551D02*
X146384Y-58620D01*
X148050D01*
X148883Y-59453D01*
Y-60286D01*
X148050Y-61119D01*
X147217D01*
X148050D01*
X148883Y-61952D01*
Y-62785D01*
X148050Y-63618D01*
X146384D01*
X145551Y-62785D01*
X207890Y-41910D02*
Y-36912D01*
X210389D01*
X211222Y-37745D01*
Y-39411D01*
X210389Y-40244D01*
X207890D01*
X209556D02*
X211222Y-41910D01*
X216221Y-36912D02*
X212888D01*
Y-39411D01*
X214555Y-38578D01*
X215388D01*
X216221Y-39411D01*
Y-41077D01*
X215388Y-41910D01*
X213721D01*
X212888Y-41077D01*
X217887Y-37745D02*
X218720Y-36912D01*
X220386D01*
X221219Y-37745D01*
Y-41077D01*
X220386Y-41910D01*
X218720D01*
X217887Y-41077D01*
Y-37745D01*
X226217Y-41910D02*
X222885D01*
X226217Y-38578D01*
Y-37745D01*
X225384Y-36912D01*
X223718D01*
X222885Y-37745D01*
X166878Y-50918D02*
Y-45920D01*
X169377D01*
X170210Y-46753D01*
Y-48419D01*
X169377Y-49252D01*
X166878D01*
X168544D02*
X170210Y-50918D01*
X175209Y-45920D02*
X171876D01*
Y-48419D01*
X173542Y-47586D01*
X174375D01*
X175209Y-48419D01*
Y-50085D01*
X174375Y-50918D01*
X172709D01*
X171876Y-50085D01*
X176875Y-46753D02*
X177708Y-45920D01*
X179374D01*
X180207Y-46753D01*
Y-50085D01*
X179374Y-50918D01*
X177708D01*
X176875Y-50085D01*
Y-46753D01*
X181873Y-50918D02*
X183539D01*
X182706D01*
Y-45920D01*
X181873Y-46753D01*
X163556Y54040D02*
Y59038D01*
X166056D01*
X166889Y58205D01*
Y56539D01*
X166056Y55706D01*
X163556D01*
X165222D02*
X166889Y54040D01*
X171887Y59038D02*
X168555D01*
Y56539D01*
X170221Y57372D01*
X171054D01*
X171887Y56539D01*
Y54873D01*
X171054Y54040D01*
X169388D01*
X168555Y54873D01*
X173553Y58205D02*
X174386Y59038D01*
X176052D01*
X176885Y58205D01*
Y54873D01*
X176052Y54040D01*
X174386D01*
X173553Y54873D01*
Y58205D01*
X178551D02*
X179384Y59038D01*
X181051D01*
X181884Y58205D01*
Y54873D01*
X181051Y54040D01*
X179384D01*
X178551Y54873D01*
Y58205D01*
X-342900Y-104004D02*
Y-99006D01*
X-340401D01*
X-339568Y-99839D01*
Y-101505D01*
X-340401Y-102338D01*
X-342900D01*
X-341234D02*
X-339568Y-104004D01*
X-335402D02*
Y-99006D01*
X-337902Y-101505D01*
X-334569D01*
X-332903Y-104004D02*
X-331237D01*
X-332070D01*
Y-99006D01*
X-332903Y-99839D01*
X-328738D02*
X-327905Y-99006D01*
X-326239D01*
X-325406Y-99839D01*
Y-100672D01*
X-326239Y-101505D01*
X-327072D01*
X-326239D01*
X-325406Y-102338D01*
Y-103171D01*
X-326239Y-104004D01*
X-327905D01*
X-328738Y-103171D01*
X-298332Y2540D02*
X-303330D01*
Y5039D01*
X-302497Y5872D01*
X-300831D01*
X-299998Y5039D01*
Y2540D01*
Y4206D02*
X-298332Y5872D01*
Y10037D02*
X-303330D01*
X-300831Y7538D01*
Y10871D01*
X-298332Y12537D02*
Y14203D01*
Y13370D01*
X-303330D01*
X-302497Y12537D01*
X-298332Y20034D02*
Y16702D01*
X-301664Y20034D01*
X-302497D01*
X-303330Y19201D01*
Y17535D01*
X-302497Y16702D01*
X-339131Y-35974D02*
X-344129D01*
Y-33475D01*
X-343296Y-32642D01*
X-341630D01*
X-340797Y-33475D01*
Y-35974D01*
Y-34308D02*
X-339131Y-32642D01*
Y-28477D02*
X-344129D01*
X-341630Y-30976D01*
Y-27644D01*
X-339131Y-25978D02*
Y-24311D01*
Y-25145D01*
X-344129D01*
X-343296Y-25978D01*
Y-21812D02*
X-344129Y-20979D01*
Y-19313D01*
X-343296Y-18480D01*
X-339964D01*
X-339131Y-19313D01*
Y-20979D01*
X-339964Y-21812D01*
X-343296D01*
X-447294Y5452D02*
Y10450D01*
X-444795D01*
X-443962Y9617D01*
Y7951D01*
X-444795Y7118D01*
X-447294D01*
X-445628D02*
X-443962Y5452D01*
X-439796D02*
Y10450D01*
X-442296Y7951D01*
X-438963D01*
X-437297Y9617D02*
X-436464Y10450D01*
X-434798D01*
X-433965Y9617D01*
Y6285D01*
X-434798Y5452D01*
X-436464D01*
X-437297Y6285D01*
Y9617D01*
X-432299Y6285D02*
X-431466Y5452D01*
X-429800D01*
X-428967Y6285D01*
Y9617D01*
X-429800Y10450D01*
X-431466D01*
X-432299Y9617D01*
Y8784D01*
X-431466Y7951D01*
X-428967D01*
X-479942Y254D02*
X-484940D01*
Y2753D01*
X-484107Y3586D01*
X-482441D01*
X-481608Y2753D01*
Y254D01*
Y1920D02*
X-479942Y3586D01*
Y7752D02*
X-484940D01*
X-482441Y5252D01*
Y8585D01*
X-484107Y10251D02*
X-484940Y11084D01*
Y12750D01*
X-484107Y13583D01*
X-480775D01*
X-479942Y12750D01*
Y11084D01*
X-480775Y10251D01*
X-484107D01*
Y15249D02*
X-484940Y16082D01*
Y17748D01*
X-484107Y18581D01*
X-483274D01*
X-482441Y17748D01*
X-481608Y18581D01*
X-480775D01*
X-479942Y17748D01*
Y16082D01*
X-480775Y15249D01*
X-481608D01*
X-482441Y16082D01*
X-483274Y15249D01*
X-484107D01*
X-482441Y16082D02*
Y17748D01*
X-345694Y-4454D02*
Y544D01*
X-343195D01*
X-342362Y-289D01*
Y-1955D01*
X-343195Y-2788D01*
X-345694D01*
X-344028D02*
X-342362Y-4454D01*
X-338196D02*
Y544D01*
X-340696Y-1955D01*
X-337363D01*
X-335697Y-289D02*
X-334864Y544D01*
X-333198D01*
X-332365Y-289D01*
Y-3621D01*
X-333198Y-4454D01*
X-334864D01*
X-335697Y-3621D01*
Y-289D01*
X-330699Y544D02*
X-327367D01*
Y-289D01*
X-330699Y-3621D01*
Y-4454D01*
X-374768Y-70104D02*
X-379766D01*
Y-67605D01*
X-378933Y-66772D01*
X-377267D01*
X-376434Y-67605D01*
Y-70104D01*
Y-68438D02*
X-374768Y-66772D01*
Y-62607D02*
X-379766D01*
X-377267Y-65106D01*
Y-61773D01*
X-378933Y-60107D02*
X-379766Y-59274D01*
Y-57608D01*
X-378933Y-56775D01*
X-375601D01*
X-374768Y-57608D01*
Y-59274D01*
X-375601Y-60107D01*
X-378933D01*
X-379766Y-51777D02*
X-378933Y-53443D01*
X-377267Y-55109D01*
X-375601D01*
X-374768Y-54276D01*
Y-52610D01*
X-375601Y-51777D01*
X-376434D01*
X-377267Y-52610D01*
Y-55109D01*
X-415860Y-71079D02*
Y-66081D01*
X-413361D01*
X-412528Y-66914D01*
Y-68580D01*
X-413361Y-69413D01*
X-415860D01*
X-414194D02*
X-412528Y-71079D01*
X-408363D02*
Y-66081D01*
X-410862Y-68580D01*
X-407529D01*
X-405863Y-66914D02*
X-405030Y-66081D01*
X-403364D01*
X-402531Y-66914D01*
Y-70246D01*
X-403364Y-71079D01*
X-405030D01*
X-405863Y-70246D01*
Y-66914D01*
X-397533Y-66081D02*
X-400865D01*
Y-68580D01*
X-399199Y-67747D01*
X-398366D01*
X-397533Y-68580D01*
Y-70246D01*
X-398366Y-71079D01*
X-400032D01*
X-400865Y-70246D01*
X-460440Y-156484D02*
X-465438D01*
Y-153984D01*
X-464605Y-153151D01*
X-462939D01*
X-462106Y-153984D01*
Y-156484D01*
Y-154818D02*
X-460440Y-153151D01*
Y-148986D02*
X-465438D01*
X-462939Y-151485D01*
Y-148153D01*
X-464605Y-146487D02*
X-465438Y-145654D01*
Y-143988D01*
X-464605Y-143155D01*
X-461273D01*
X-460440Y-143988D01*
Y-145654D01*
X-461273Y-146487D01*
X-464605D01*
X-460440Y-138989D02*
X-465438D01*
X-462939Y-141489D01*
Y-138156D01*
X-321056Y37456D02*
Y42454D01*
X-318557D01*
X-317724Y41621D01*
Y39955D01*
X-318557Y39122D01*
X-321056D01*
X-319390D02*
X-317724Y37456D01*
X-313559D02*
Y42454D01*
X-316058Y39955D01*
X-312725D01*
X-311059Y41621D02*
X-310226Y42454D01*
X-308560D01*
X-307727Y41621D01*
Y38289D01*
X-308560Y37456D01*
X-310226D01*
X-311059Y38289D01*
Y41621D01*
X-306061D02*
X-305228Y42454D01*
X-303562D01*
X-302729Y41621D01*
Y40788D01*
X-303562Y39955D01*
X-304395D01*
X-303562D01*
X-302729Y39122D01*
Y38289D01*
X-303562Y37456D01*
X-305228D01*
X-306061Y38289D01*
X-410484Y-48219D02*
Y-43221D01*
X-407985D01*
X-407151Y-44054D01*
Y-45720D01*
X-407985Y-46553D01*
X-410484D01*
X-408817D02*
X-407151Y-48219D01*
X-402986D02*
Y-43221D01*
X-405485Y-45720D01*
X-402153D01*
X-400487Y-44054D02*
X-399654Y-43221D01*
X-397988D01*
X-397155Y-44054D01*
Y-47386D01*
X-397988Y-48219D01*
X-399654D01*
X-400487Y-47386D01*
Y-44054D01*
X-392156Y-48219D02*
X-395489D01*
X-392156Y-44887D01*
Y-44054D01*
X-392989Y-43221D01*
X-394655D01*
X-395489Y-44054D01*
X-429301Y-42761D02*
X-434299D01*
Y-40262D01*
X-433466Y-39429D01*
X-431800D01*
X-430967Y-40262D01*
Y-42761D01*
Y-41095D02*
X-429301Y-39429D01*
Y-35264D02*
X-434299D01*
X-431800Y-37763D01*
Y-34431D01*
X-433466Y-32764D02*
X-434299Y-31931D01*
Y-30265D01*
X-433466Y-29432D01*
X-430134D01*
X-429301Y-30265D01*
Y-31931D01*
X-430134Y-32764D01*
X-433466D01*
X-429301Y-27766D02*
Y-26100D01*
Y-26933D01*
X-434299D01*
X-433466Y-27766D01*
X-461010Y24756D02*
X-466008D01*
Y27255D01*
X-465175Y28088D01*
X-463509D01*
X-462676Y27255D01*
Y24756D01*
Y26422D02*
X-461010Y28088D01*
Y32254D02*
X-466008D01*
X-463509Y29754D01*
Y33087D01*
X-465175Y34753D02*
X-466008Y35586D01*
Y37252D01*
X-465175Y38085D01*
X-461843D01*
X-461010Y37252D01*
Y35586D01*
X-461843Y34753D01*
X-465175D01*
Y39751D02*
X-466008Y40584D01*
Y42250D01*
X-465175Y43083D01*
X-461843D01*
X-461010Y42250D01*
Y40584D01*
X-461843Y39751D01*
X-465175D01*
X-125771Y-89470D02*
X-130769D01*
Y-86971D01*
X-129936Y-86138D01*
X-128270D01*
X-127437Y-86971D01*
Y-89470D01*
Y-87804D02*
X-125771Y-86138D01*
X-129936Y-84472D02*
X-130769Y-83639D01*
Y-81973D01*
X-129936Y-81139D01*
X-129103D01*
X-128270Y-81973D01*
Y-82806D01*
Y-81973D01*
X-127437Y-81139D01*
X-126604D01*
X-125771Y-81973D01*
Y-83639D01*
X-126604Y-84472D01*
X-125771Y-79473D02*
Y-77807D01*
Y-78640D01*
X-130769D01*
X-129936Y-79473D01*
X-125771Y-71976D02*
Y-75308D01*
X-129103Y-71976D01*
X-129936D01*
X-130769Y-72809D01*
Y-74475D01*
X-129936Y-75308D01*
X-89662Y-72526D02*
Y-67528D01*
X-87163D01*
X-86330Y-68361D01*
Y-70027D01*
X-87163Y-70860D01*
X-89662D01*
X-87996D02*
X-86330Y-72526D01*
X-84664Y-68361D02*
X-83831Y-67528D01*
X-82164D01*
X-81331Y-68361D01*
Y-69194D01*
X-82164Y-70027D01*
X-82998D01*
X-82164D01*
X-81331Y-70860D01*
Y-71693D01*
X-82164Y-72526D01*
X-83831D01*
X-84664Y-71693D01*
X-79665Y-68361D02*
X-78832Y-67528D01*
X-77166D01*
X-76333Y-68361D01*
Y-71693D01*
X-77166Y-72526D01*
X-78832D01*
X-79665Y-71693D01*
Y-68361D01*
X-71335Y-67528D02*
X-74667D01*
Y-70027D01*
X-73001Y-69194D01*
X-72168D01*
X-71335Y-70027D01*
Y-71693D01*
X-72168Y-72526D01*
X-73834D01*
X-74667Y-71693D01*
X1914Y-81788D02*
Y-76790D01*
X4413D01*
X5246Y-77623D01*
Y-79289D01*
X4413Y-80122D01*
X1914D01*
X3580D02*
X5246Y-81788D01*
X6912Y-77623D02*
X7745Y-76790D01*
X9412D01*
X10245Y-77623D01*
Y-78456D01*
X9412Y-79289D01*
X8579D01*
X9412D01*
X10245Y-80122D01*
Y-80955D01*
X9412Y-81788D01*
X7745D01*
X6912Y-80955D01*
X11911Y-77623D02*
X12744Y-76790D01*
X14410D01*
X15243Y-77623D01*
Y-80955D01*
X14410Y-81788D01*
X12744D01*
X11911Y-80955D01*
Y-77623D01*
X19408Y-81788D02*
Y-76790D01*
X16909Y-79289D01*
X20241D01*
X79756Y-73542D02*
Y-68544D01*
X82255D01*
X83088Y-69377D01*
Y-71043D01*
X82255Y-71876D01*
X79756D01*
X81422D02*
X83088Y-73542D01*
X84754Y-69377D02*
X85587Y-68544D01*
X87254D01*
X88087Y-69377D01*
Y-70210D01*
X87254Y-71043D01*
X86420D01*
X87254D01*
X88087Y-71876D01*
Y-72709D01*
X87254Y-73542D01*
X85587D01*
X84754Y-72709D01*
X89753Y-69377D02*
X90586Y-68544D01*
X92252D01*
X93085Y-69377D01*
Y-72709D01*
X92252Y-73542D01*
X90586D01*
X89753Y-72709D01*
Y-69377D01*
X94751D02*
X95584Y-68544D01*
X97250D01*
X98083Y-69377D01*
Y-70210D01*
X97250Y-71043D01*
X96417D01*
X97250D01*
X98083Y-71876D01*
Y-72709D01*
X97250Y-73542D01*
X95584D01*
X94751Y-72709D01*
X-208321Y-204447D02*
X-213319D01*
Y-201948D01*
X-212486Y-201115D01*
X-210820D01*
X-209987Y-201948D01*
Y-204447D01*
Y-202781D02*
X-208321Y-201115D01*
X-212486Y-199449D02*
X-213319Y-198616D01*
Y-196950D01*
X-212486Y-196117D01*
X-211653D01*
X-210820Y-196950D01*
Y-197783D01*
Y-196950D01*
X-209987Y-196117D01*
X-209154D01*
X-208321Y-196950D01*
Y-198616D01*
X-209154Y-199449D01*
X-212486Y-194451D02*
X-213319Y-193617D01*
Y-191951D01*
X-212486Y-191118D01*
X-209154D01*
X-208321Y-191951D01*
Y-193617D01*
X-209154Y-194451D01*
X-212486D01*
Y-189452D02*
X-213319Y-188619D01*
Y-186953D01*
X-212486Y-186120D01*
X-209154D01*
X-208321Y-186953D01*
Y-188619D01*
X-209154Y-189452D01*
X-212486D01*
X-190541Y-74230D02*
X-195539D01*
Y-71731D01*
X-194706Y-70898D01*
X-193040D01*
X-192207Y-71731D01*
Y-74230D01*
X-194706Y-69232D02*
X-195539Y-68399D01*
Y-66733D01*
X-194706Y-65899D01*
X-193873D01*
X-193040Y-66733D01*
Y-67565D01*
Y-66733D01*
X-192207Y-65899D01*
X-191374D01*
X-190541Y-66733D01*
Y-68399D01*
X-191374Y-69232D01*
X-194706Y-64233D02*
X-195539Y-63400D01*
Y-61734D01*
X-194706Y-60901D01*
X-191374D01*
X-190541Y-61734D01*
Y-63400D01*
X-191374Y-64233D01*
X-194706D01*
Y-59235D02*
X-195539Y-58402D01*
Y-56736D01*
X-194706Y-55903D01*
X-191374D01*
X-190541Y-56736D01*
Y-58402D01*
X-191374Y-59235D01*
X-194706D01*
X-453254Y-68326D02*
X-458252D01*
X-453254Y-64994D01*
X-458252D01*
Y-63328D02*
Y-59995D01*
Y-61662D01*
X-453254D01*
X-457419Y-54997D02*
X-458252Y-55830D01*
Y-57496D01*
X-457419Y-58329D01*
X-454087D01*
X-453254Y-57496D01*
Y-55830D01*
X-454087Y-54997D01*
X-453254Y-50832D02*
X-458252D01*
X-455753Y-53331D01*
Y-49999D01*
X-457419Y-48333D02*
X-458252Y-47499D01*
Y-45833D01*
X-457419Y-45000D01*
X-454087D01*
X-453254Y-45833D01*
Y-47499D01*
X-454087Y-48333D01*
X-457419D01*
Y-43334D02*
X-458252Y-42501D01*
Y-40835D01*
X-457419Y-40002D01*
X-454087D01*
X-453254Y-40835D01*
Y-42501D01*
X-454087Y-43334D01*
X-457419D01*
X-257692Y-2286D02*
X-262690D01*
X-261024Y-620D01*
X-262690Y1046D01*
X-257692D01*
Y5211D02*
X-262690D01*
X-260191Y2712D01*
Y6045D01*
X-261857Y7711D02*
X-262690Y8544D01*
Y10210D01*
X-261857Y11043D01*
X-258525D01*
X-257692Y10210D01*
Y8544D01*
X-258525Y7711D01*
X-261857D01*
Y12709D02*
X-262690Y13542D01*
Y15208D01*
X-261857Y16041D01*
X-258525D01*
X-257692Y15208D01*
Y13542D01*
X-258525Y12709D01*
X-261857D01*
X-115824Y-45348D02*
Y-40350D01*
X-114158Y-42016D01*
X-112492Y-40350D01*
Y-45348D01*
X-110826Y-41183D02*
X-109993Y-40350D01*
X-108327D01*
X-107493Y-41183D01*
Y-42016D01*
X-108327Y-42849D01*
X-109159D01*
X-108327D01*
X-107493Y-43682D01*
Y-44515D01*
X-108327Y-45348D01*
X-109993D01*
X-110826Y-44515D01*
X-105827Y-41183D02*
X-104994Y-40350D01*
X-103328D01*
X-102495Y-41183D01*
Y-44515D01*
X-103328Y-45348D01*
X-104994D01*
X-105827Y-44515D01*
Y-41183D01*
X-100829D02*
X-99996Y-40350D01*
X-98330D01*
X-97497Y-41183D01*
Y-44515D01*
X-98330Y-45348D01*
X-99996D01*
X-100829Y-44515D01*
Y-41183D01*
X177546Y46518D02*
Y41520D01*
X180878D01*
X185877Y46518D02*
X182544D01*
Y44019D01*
X184210Y44852D01*
X185044D01*
X185877Y44019D01*
Y42353D01*
X185044Y41520D01*
X183377D01*
X182544Y42353D01*
X187543Y45685D02*
X188376Y46518D01*
X190042D01*
X190875Y45685D01*
Y42353D01*
X190042Y41520D01*
X188376D01*
X187543Y42353D01*
Y45685D01*
X192541D02*
X193374Y46518D01*
X195040D01*
X195873Y45685D01*
Y42353D01*
X195040Y41520D01*
X193374D01*
X192541Y42353D01*
Y45685D01*
X-436172Y102616D02*
X-431174D01*
Y105948D01*
Y110113D02*
X-436172D01*
X-433673Y107614D01*
Y110947D01*
X-435339Y112613D02*
X-436172Y113446D01*
Y115112D01*
X-435339Y115945D01*
X-432007D01*
X-431174Y115112D01*
Y113446D01*
X-432007Y112613D01*
X-435339D01*
Y117611D02*
X-436172Y118444D01*
Y120110D01*
X-435339Y120943D01*
X-432007D01*
X-431174Y120110D01*
Y118444D01*
X-432007Y117611D01*
X-435339D01*
X385032Y-76241D02*
X383366D01*
X384199D01*
Y-80406D01*
X383366Y-81239D01*
X382533D01*
X381700Y-80406D01*
X386698Y-81239D02*
Y-76241D01*
X389198D01*
X390031Y-77074D01*
Y-78740D01*
X389198Y-79573D01*
X386698D01*
X395029Y-76241D02*
X393363Y-77074D01*
X391697Y-78740D01*
Y-80406D01*
X392530Y-81239D01*
X394196D01*
X395029Y-80406D01*
Y-79573D01*
X394196Y-78740D01*
X391697D01*
X396695Y-77074D02*
X397528Y-76241D01*
X399194D01*
X400027Y-77074D01*
Y-80406D01*
X399194Y-81239D01*
X397528D01*
X396695Y-80406D01*
Y-77074D01*
X401693D02*
X402527Y-76241D01*
X404193D01*
X405026Y-77074D01*
Y-80406D01*
X404193Y-81239D01*
X402527D01*
X401693Y-80406D01*
Y-77074D01*
X436921Y90392D02*
Y88726D01*
Y89559D01*
X441086D01*
X441919Y88726D01*
Y87893D01*
X441086Y87060D01*
X436921Y95391D02*
X437754Y93724D01*
X439420Y92058D01*
X441086D01*
X441919Y92891D01*
Y94558D01*
X441086Y95391D01*
X440253D01*
X439420Y94558D01*
Y92058D01*
X437754Y97057D02*
X436921Y97890D01*
Y99556D01*
X437754Y100389D01*
X441086D01*
X441919Y99556D01*
Y97890D01*
X441086Y97057D01*
X437754D01*
X441919Y102055D02*
Y103721D01*
Y102888D01*
X436921D01*
X437754Y102055D01*
X87852Y112989D02*
X86186D01*
X87019D01*
Y108824D01*
X86186Y107991D01*
X85353D01*
X84520Y108824D01*
X89518Y112156D02*
X90351Y112989D01*
X92017D01*
X92851Y112156D01*
Y111323D01*
X92017Y110490D01*
X91185D01*
X92017D01*
X92851Y109657D01*
Y108824D01*
X92017Y107991D01*
X90351D01*
X89518Y108824D01*
X94517Y112156D02*
X95350Y112989D01*
X97016D01*
X97849Y112156D01*
Y108824D01*
X97016Y107991D01*
X95350D01*
X94517Y108824D01*
Y112156D01*
X99515D02*
X100348Y112989D01*
X102014D01*
X102847Y112156D01*
Y108824D01*
X102014Y107991D01*
X100348D01*
X99515Y108824D01*
Y112156D01*
X357578Y-99568D02*
X362576D01*
Y-97069D01*
X361743Y-96236D01*
X358411D01*
X357578Y-97069D01*
Y-99568D01*
Y-91237D02*
X358411Y-92903D01*
X360077Y-94570D01*
X361743D01*
X362576Y-93737D01*
Y-92071D01*
X361743Y-91237D01*
X360910D01*
X360077Y-92071D01*
Y-94570D01*
X358411Y-89571D02*
X357578Y-88738D01*
Y-87072D01*
X358411Y-86239D01*
X361743D01*
X362576Y-87072D01*
Y-88738D01*
X361743Y-89571D01*
X358411D01*
X362576Y-81241D02*
Y-84573D01*
X359244Y-81241D01*
X358411D01*
X357578Y-82074D01*
Y-83740D01*
X358411Y-84573D01*
X286458Y-34036D02*
X291456D01*
Y-31537D01*
X290623Y-30704D01*
X287291D01*
X286458Y-31537D01*
Y-34036D01*
Y-25705D02*
X287291Y-27371D01*
X288957Y-29038D01*
X290623D01*
X291456Y-28205D01*
Y-26539D01*
X290623Y-25705D01*
X289790D01*
X288957Y-26539D01*
Y-29038D01*
X287291Y-24039D02*
X286458Y-23206D01*
Y-21540D01*
X287291Y-20707D01*
X290623D01*
X291456Y-21540D01*
Y-23206D01*
X290623Y-24039D01*
X287291D01*
X291456Y-19041D02*
Y-17375D01*
Y-18208D01*
X286458D01*
X287291Y-19041D01*
X-303330Y-22606D02*
X-298332D01*
Y-20107D01*
X-299165Y-19274D01*
X-302497D01*
X-303330Y-20107D01*
Y-22606D01*
X-298332Y-15108D02*
X-303330D01*
X-300831Y-17608D01*
Y-14275D01*
X-302497Y-12609D02*
X-303330Y-11776D01*
Y-10110D01*
X-302497Y-9277D01*
X-299165D01*
X-298332Y-10110D01*
Y-11776D01*
X-299165Y-12609D01*
X-302497D01*
X-298332Y-7611D02*
Y-5945D01*
Y-6778D01*
X-303330D01*
X-302497Y-7611D01*
X-146009Y-97090D02*
X-141011D01*
Y-94591D01*
X-141844Y-93758D01*
X-145176D01*
X-146009Y-94591D01*
Y-97090D01*
X-145176Y-92092D02*
X-146009Y-91259D01*
Y-89593D01*
X-145176Y-88759D01*
X-144343D01*
X-143510Y-89593D01*
Y-90426D01*
Y-89593D01*
X-142677Y-88759D01*
X-141844D01*
X-141011Y-89593D01*
Y-91259D01*
X-141844Y-92092D01*
X-145176Y-87093D02*
X-146009Y-86260D01*
Y-84594D01*
X-145176Y-83761D01*
X-141844D01*
X-141011Y-84594D01*
Y-86260D01*
X-141844Y-87093D01*
X-145176D01*
Y-82095D02*
X-146009Y-81262D01*
Y-79596D01*
X-145176Y-78763D01*
X-144343D01*
X-143510Y-79596D01*
Y-80429D01*
Y-79596D01*
X-142677Y-78763D01*
X-141844D01*
X-141011Y-79596D01*
Y-81262D01*
X-141844Y-82095D01*
X170942Y-177764D02*
Y-182762D01*
X173441D01*
X174274Y-181929D01*
Y-178597D01*
X173441Y-177764D01*
X170942D01*
X175940Y-178597D02*
X176773Y-177764D01*
X178440D01*
X179273Y-178597D01*
Y-179430D01*
X178440Y-180263D01*
X177607D01*
X178440D01*
X179273Y-181096D01*
Y-181929D01*
X178440Y-182762D01*
X176773D01*
X175940Y-181929D01*
X180939Y-178597D02*
X181772Y-177764D01*
X183438D01*
X184271Y-178597D01*
Y-181929D01*
X183438Y-182762D01*
X181772D01*
X180939Y-181929D01*
Y-178597D01*
X189269Y-182762D02*
X185937D01*
X189269Y-179430D01*
Y-178597D01*
X188436Y-177764D01*
X186770D01*
X185937Y-178597D01*
X-8382Y-177764D02*
Y-182762D01*
X-5883D01*
X-5050Y-181929D01*
Y-178597D01*
X-5883Y-177764D01*
X-8382D01*
X-3384Y-178597D02*
X-2551Y-177764D01*
X-884D01*
X-51Y-178597D01*
Y-179430D01*
X-884Y-180263D01*
X-1717D01*
X-884D01*
X-51Y-181096D01*
Y-181929D01*
X-884Y-182762D01*
X-2551D01*
X-3384Y-181929D01*
X1615Y-178597D02*
X2448Y-177764D01*
X4114D01*
X4947Y-178597D01*
Y-181929D01*
X4114Y-182762D01*
X2448D01*
X1615Y-181929D01*
Y-178597D01*
X6613Y-182762D02*
X8279D01*
X7446D01*
Y-177764D01*
X6613Y-178597D01*
X-189230Y-177764D02*
Y-182762D01*
X-186731D01*
X-185898Y-181929D01*
Y-178597D01*
X-186731Y-177764D01*
X-189230D01*
X-184232Y-178597D02*
X-183399Y-177764D01*
X-181733D01*
X-180899Y-178597D01*
Y-179430D01*
X-181733Y-180263D01*
X-182565D01*
X-181733D01*
X-180899Y-181096D01*
Y-181929D01*
X-181733Y-182762D01*
X-183399D01*
X-184232Y-181929D01*
X-179233Y-178597D02*
X-178400Y-177764D01*
X-176734D01*
X-175901Y-178597D01*
Y-181929D01*
X-176734Y-182762D01*
X-178400D01*
X-179233Y-181929D01*
Y-178597D01*
X-174235D02*
X-173402Y-177764D01*
X-171736D01*
X-170903Y-178597D01*
Y-181929D01*
X-171736Y-182762D01*
X-173402D01*
X-174235Y-181929D01*
Y-178597D01*
X340649Y15778D02*
X339816Y14945D01*
Y13279D01*
X340649Y12446D01*
X343981D01*
X344814Y13279D01*
Y14945D01*
X343981Y15778D01*
X339816Y20777D02*
X340649Y19110D01*
X342315Y17444D01*
X343981D01*
X344814Y18277D01*
Y19943D01*
X343981Y20777D01*
X343148D01*
X342315Y19943D01*
Y17444D01*
X340649Y22443D02*
X339816Y23276D01*
Y24942D01*
X340649Y25775D01*
X343981D01*
X344814Y24942D01*
Y23276D01*
X343981Y22443D01*
X340649D01*
X339816Y30773D02*
X340649Y29107D01*
X342315Y27441D01*
X343981D01*
X344814Y28274D01*
Y29940D01*
X343981Y30773D01*
X343148D01*
X342315Y29940D01*
Y27441D01*
X340649Y-7472D02*
X339816Y-8305D01*
Y-9971D01*
X340649Y-10804D01*
X343981D01*
X344814Y-9971D01*
Y-8305D01*
X343981Y-7472D01*
X339816Y-2473D02*
X340649Y-4139D01*
X342315Y-5806D01*
X343981D01*
X344814Y-4973D01*
Y-3306D01*
X343981Y-2473D01*
X343148D01*
X342315Y-3306D01*
Y-5806D01*
X340649Y-807D02*
X339816Y26D01*
Y1692D01*
X340649Y2525D01*
X343981D01*
X344814Y1692D01*
Y26D01*
X343981Y-807D01*
X340649D01*
X339816Y7523D02*
Y4191D01*
X342315D01*
X341482Y5857D01*
Y6690D01*
X342315Y7523D01*
X343981D01*
X344814Y6690D01*
Y5024D01*
X343981Y4191D01*
X358170Y119345D02*
X357337Y120178D01*
X355671D01*
X354838Y119345D01*
Y116013D01*
X355671Y115180D01*
X357337D01*
X358170Y116013D01*
X363169Y120178D02*
X361502Y119345D01*
X359836Y117679D01*
Y116013D01*
X360669Y115180D01*
X362336D01*
X363169Y116013D01*
Y116846D01*
X362336Y117679D01*
X359836D01*
X364835Y119345D02*
X365668Y120178D01*
X367334D01*
X368167Y119345D01*
Y116013D01*
X367334Y115180D01*
X365668D01*
X364835Y116013D01*
Y119345D01*
X369833Y115180D02*
X371499D01*
X370666D01*
Y120178D01*
X369833Y119345D01*
X134909Y-22322D02*
X134076Y-23155D01*
Y-24821D01*
X134909Y-25654D01*
X138241D01*
X139074Y-24821D01*
Y-23155D01*
X138241Y-22322D01*
X134076Y-17323D02*
Y-20656D01*
X136575D01*
X135742Y-18989D01*
Y-18156D01*
X136575Y-17323D01*
X138241D01*
X139074Y-18156D01*
Y-19823D01*
X138241Y-20656D01*
X134909Y-15657D02*
X134076Y-14824D01*
Y-13158D01*
X134909Y-12325D01*
X138241D01*
X139074Y-13158D01*
Y-14824D01*
X138241Y-15657D01*
X134909D01*
Y-10659D02*
X134076Y-9826D01*
Y-8160D01*
X134909Y-7327D01*
X135742D01*
X136575Y-8160D01*
Y-8993D01*
Y-8160D01*
X137408Y-7327D01*
X138241D01*
X139074Y-8160D01*
Y-9826D01*
X138241Y-10659D01*
X208551Y-25878D02*
X207718Y-26711D01*
Y-28377D01*
X208551Y-29210D01*
X211883D01*
X212716Y-28377D01*
Y-26711D01*
X211883Y-25878D01*
X207718Y-20879D02*
Y-24212D01*
X210217D01*
X209384Y-22545D01*
Y-21713D01*
X210217Y-20879D01*
X211883D01*
X212716Y-21713D01*
Y-23379D01*
X211883Y-24212D01*
X208551Y-19213D02*
X207718Y-18380D01*
Y-16714D01*
X208551Y-15881D01*
X211883D01*
X212716Y-16714D01*
Y-18380D01*
X211883Y-19213D01*
X208551D01*
X212716Y-10883D02*
Y-14215D01*
X209384Y-10883D01*
X208551D01*
X207718Y-11716D01*
Y-13382D01*
X208551Y-14215D01*
X143725Y73882D02*
X142892Y73049D01*
Y71383D01*
X143725Y70550D01*
X147057D01*
X147890Y71383D01*
Y73049D01*
X147057Y73882D01*
X142892Y78881D02*
Y75548D01*
X145391D01*
X144558Y77214D01*
Y78047D01*
X145391Y78881D01*
X147057D01*
X147890Y78047D01*
Y76381D01*
X147057Y75548D01*
X143725Y80547D02*
X142892Y81380D01*
Y83046D01*
X143725Y83879D01*
X147057D01*
X147890Y83046D01*
Y81380D01*
X147057Y80547D01*
X143725D01*
X147890Y85545D02*
Y87211D01*
Y86378D01*
X142892D01*
X143725Y85545D01*
X230389Y105147D02*
X229555Y105980D01*
X227889D01*
X227056Y105147D01*
Y101815D01*
X227889Y100982D01*
X229555D01*
X230389Y101815D01*
X235387Y105980D02*
X232055D01*
Y103481D01*
X233721Y104314D01*
X234554D01*
X235387Y103481D01*
Y101815D01*
X234554Y100982D01*
X232888D01*
X232055Y101815D01*
X237053Y105147D02*
X237886Y105980D01*
X239552D01*
X240385Y105147D01*
Y101815D01*
X239552Y100982D01*
X237886D01*
X237053Y101815D01*
Y105147D01*
X242051D02*
X242885Y105980D01*
X244551D01*
X245384Y105147D01*
Y101815D01*
X244551Y100982D01*
X242885D01*
X242051Y101815D01*
Y105147D01*
X-348707Y6634D02*
X-349540Y5801D01*
Y4135D01*
X-348707Y3302D01*
X-345375D01*
X-344542Y4135D01*
Y5801D01*
X-345375Y6634D01*
X-344542Y10799D02*
X-349540D01*
X-347041Y8300D01*
Y11633D01*
X-344542Y13299D02*
Y14965D01*
Y14132D01*
X-349540D01*
X-348707Y13299D01*
X-344542Y17464D02*
Y19130D01*
Y18297D01*
X-349540D01*
X-348707Y17464D01*
X-320375Y-79614D02*
X-321208Y-78781D01*
X-322874D01*
X-323707Y-79614D01*
Y-82946D01*
X-322874Y-83779D01*
X-321208D01*
X-320375Y-82946D01*
X-316210Y-83779D02*
Y-78781D01*
X-318709Y-81280D01*
X-315376D01*
X-313710Y-83779D02*
X-312044D01*
X-312877D01*
Y-78781D01*
X-313710Y-79614D01*
X-309545D02*
X-308712Y-78781D01*
X-307046D01*
X-306213Y-79614D01*
Y-82946D01*
X-307046Y-83779D01*
X-308712D01*
X-309545Y-82946D01*
Y-79614D01*
X-406365Y-92934D02*
X-407198Y-93767D01*
Y-95433D01*
X-406365Y-96266D01*
X-403033D01*
X-402200Y-95433D01*
Y-93767D01*
X-403033Y-92934D01*
X-402200Y-88769D02*
X-407198D01*
X-404699Y-91268D01*
Y-87935D01*
X-406365Y-86269D02*
X-407198Y-85436D01*
Y-83770D01*
X-406365Y-82937D01*
X-403033D01*
X-402200Y-83770D01*
Y-85436D01*
X-403033Y-86269D01*
X-406365D01*
X-403033Y-81271D02*
X-402200Y-80438D01*
Y-78772D01*
X-403033Y-77939D01*
X-406365D01*
X-407198Y-78772D01*
Y-80438D01*
X-406365Y-81271D01*
X-405532D01*
X-404699Y-80438D01*
Y-77939D01*
X-323697Y-15328D02*
X-324530Y-16161D01*
Y-17827D01*
X-323697Y-18660D01*
X-320365D01*
X-319532Y-17827D01*
Y-16161D01*
X-320365Y-15328D01*
X-319532Y-11163D02*
X-324530D01*
X-322031Y-13662D01*
Y-10329D01*
X-323697Y-8663D02*
X-324530Y-7830D01*
Y-6164D01*
X-323697Y-5331D01*
X-320365D01*
X-319532Y-6164D01*
Y-7830D01*
X-320365Y-8663D01*
X-323697D01*
X-324530Y-3665D02*
Y-333D01*
X-323697D01*
X-320365Y-3665D01*
X-319532D01*
X-408677Y-21368D02*
X-409510Y-22201D01*
Y-23867D01*
X-408677Y-24700D01*
X-405345D01*
X-404512Y-23867D01*
Y-22201D01*
X-405345Y-21368D01*
X-404512Y-17203D02*
X-409510D01*
X-407011Y-19702D01*
Y-16369D01*
X-408677Y-14703D02*
X-409510Y-13870D01*
Y-12204D01*
X-408677Y-11371D01*
X-405345D01*
X-404512Y-12204D01*
Y-13870D01*
X-405345Y-14703D01*
X-408677D01*
X-409510Y-6373D02*
X-408677Y-8039D01*
X-407011Y-9705D01*
X-405345D01*
X-404512Y-8872D01*
Y-7206D01*
X-405345Y-6373D01*
X-406178D01*
X-407011Y-7206D01*
Y-9705D01*
X-454879Y11206D02*
X-455712Y10373D01*
Y8707D01*
X-454879Y7874D01*
X-451547D01*
X-450714Y8707D01*
Y10373D01*
X-451547Y11206D01*
X-450714Y15372D02*
X-455712D01*
X-453213Y12872D01*
Y16205D01*
X-454879Y17871D02*
X-455712Y18704D01*
Y20370D01*
X-454879Y21203D01*
X-451547D01*
X-450714Y20370D01*
Y18704D01*
X-451547Y17871D01*
X-454879D01*
X-455712Y26201D02*
Y22869D01*
X-453213D01*
X-454046Y24535D01*
Y25368D01*
X-453213Y26201D01*
X-451547D01*
X-450714Y25368D01*
Y23702D01*
X-451547Y22869D01*
X-371236Y94202D02*
X-372069Y93369D01*
Y91703D01*
X-371236Y90870D01*
X-367904D01*
X-367071Y91703D01*
Y93369D01*
X-367904Y94202D01*
X-367071Y98368D02*
X-372069D01*
X-369570Y95868D01*
Y99201D01*
X-371236Y100867D02*
X-372069Y101700D01*
Y103366D01*
X-371236Y104199D01*
X-367904D01*
X-367071Y103366D01*
Y101700D01*
X-367904Y100867D01*
X-371236D01*
X-367071Y108364D02*
X-372069D01*
X-369570Y105865D01*
Y109197D01*
X-404097Y45496D02*
X-404930Y44663D01*
Y42997D01*
X-404097Y42164D01*
X-400765D01*
X-399932Y42997D01*
Y44663D01*
X-400765Y45496D01*
X-399932Y49661D02*
X-404930D01*
X-402431Y47162D01*
Y50495D01*
X-404097Y52161D02*
X-404930Y52994D01*
Y54660D01*
X-404097Y55493D01*
X-400765D01*
X-399932Y54660D01*
Y52994D01*
X-400765Y52161D01*
X-404097D01*
Y57159D02*
X-404930Y57992D01*
Y59658D01*
X-404097Y60491D01*
X-403264D01*
X-402431Y59658D01*
Y58825D01*
Y59658D01*
X-401598Y60491D01*
X-400765D01*
X-399932Y59658D01*
Y57992D01*
X-400765Y57159D01*
X-359806Y45942D02*
X-360639Y45109D01*
Y43443D01*
X-359806Y42610D01*
X-356474D01*
X-355641Y43443D01*
Y45109D01*
X-356474Y45942D01*
X-355641Y50107D02*
X-360639D01*
X-358140Y47608D01*
Y50941D01*
X-359806Y52607D02*
X-360639Y53440D01*
Y55106D01*
X-359806Y55939D01*
X-356474D01*
X-355641Y55106D01*
Y53440D01*
X-356474Y52607D01*
X-359806D01*
X-355641Y60937D02*
Y57605D01*
X-358973Y60937D01*
X-359806D01*
X-360639Y60104D01*
Y58438D01*
X-359806Y57605D01*
X-424150Y31969D02*
X-424983Y32802D01*
X-426649D01*
X-427482Y31969D01*
Y28637D01*
X-426649Y27804D01*
X-424983D01*
X-424150Y28637D01*
X-419985Y27804D02*
Y32802D01*
X-422484Y30303D01*
X-419151D01*
X-417485Y31969D02*
X-416652Y32802D01*
X-414986D01*
X-414153Y31969D01*
Y28637D01*
X-414986Y27804D01*
X-416652D01*
X-417485Y28637D01*
Y31969D01*
X-412487Y27804D02*
X-410821D01*
X-411654D01*
Y32802D01*
X-412487Y31969D01*
X-407399Y2452D02*
X-408232Y1619D01*
Y-47D01*
X-407399Y-880D01*
X-404067D01*
X-403234Y-47D01*
Y1619D01*
X-404067Y2452D01*
X-403234Y6618D02*
X-408232D01*
X-405733Y4118D01*
Y7451D01*
X-407399Y9117D02*
X-408232Y9950D01*
Y11616D01*
X-407399Y12449D01*
X-404067D01*
X-403234Y11616D01*
Y9950D01*
X-404067Y9117D01*
X-407399D01*
Y14115D02*
X-408232Y14948D01*
Y16614D01*
X-407399Y17447D01*
X-404067D01*
X-403234Y16614D01*
Y14948D01*
X-404067Y14115D01*
X-407399D01*
X-65225Y-91044D02*
X-66058Y-90211D01*
X-67724D01*
X-68557Y-91044D01*
Y-94376D01*
X-67724Y-95209D01*
X-66058D01*
X-65225Y-94376D01*
X-63559Y-91044D02*
X-62726Y-90211D01*
X-61060D01*
X-60227Y-91044D01*
Y-91877D01*
X-61060Y-92710D01*
X-61893D01*
X-61060D01*
X-60227Y-93543D01*
Y-94376D01*
X-61060Y-95209D01*
X-62726D01*
X-63559Y-94376D01*
X-58561Y-91044D02*
X-57727Y-90211D01*
X-56061D01*
X-55228Y-91044D01*
Y-94376D01*
X-56061Y-95209D01*
X-57727D01*
X-58561Y-94376D01*
Y-91044D01*
X-51063Y-95209D02*
Y-90211D01*
X-53562Y-92710D01*
X-50230D01*
X5246Y-87783D02*
X4413Y-86950D01*
X2747D01*
X1914Y-87783D01*
Y-91115D01*
X2747Y-91948D01*
X4413D01*
X5246Y-91115D01*
X6912Y-87783D02*
X7745Y-86950D01*
X9412D01*
X10245Y-87783D01*
Y-88616D01*
X9412Y-89449D01*
X8579D01*
X9412D01*
X10245Y-90282D01*
Y-91115D01*
X9412Y-91948D01*
X7745D01*
X6912Y-91115D01*
X11911Y-87783D02*
X12744Y-86950D01*
X14410D01*
X15243Y-87783D01*
Y-91115D01*
X14410Y-91948D01*
X12744D01*
X11911Y-91115D01*
Y-87783D01*
X16909D02*
X17742Y-86950D01*
X19408D01*
X20241Y-87783D01*
Y-88616D01*
X19408Y-89449D01*
X18575D01*
X19408D01*
X20241Y-90282D01*
Y-91115D01*
X19408Y-91948D01*
X17742D01*
X16909Y-91115D01*
X104288Y-89053D02*
X103455Y-88220D01*
X101789D01*
X100956Y-89053D01*
Y-92385D01*
X101789Y-93218D01*
X103455D01*
X104288Y-92385D01*
X105954Y-89053D02*
X106787Y-88220D01*
X108454D01*
X109287Y-89053D01*
Y-89886D01*
X108454Y-90719D01*
X107620D01*
X108454D01*
X109287Y-91552D01*
Y-92385D01*
X108454Y-93218D01*
X106787D01*
X105954Y-92385D01*
X110953Y-89053D02*
X111786Y-88220D01*
X113452D01*
X114285Y-89053D01*
Y-92385D01*
X113452Y-93218D01*
X111786D01*
X110953Y-92385D01*
Y-89053D01*
X119283Y-93218D02*
X115951D01*
X119283Y-89886D01*
Y-89053D01*
X118450Y-88220D01*
X116784D01*
X115951Y-89053D01*
X-63855Y4466D02*
X-64688Y3633D01*
Y1967D01*
X-63855Y1134D01*
X-60523D01*
X-59690Y1967D01*
Y3633D01*
X-60523Y4466D01*
X-63855Y6132D02*
X-64688Y6965D01*
Y8632D01*
X-63855Y9465D01*
X-63022D01*
X-62189Y8632D01*
Y7799D01*
Y8632D01*
X-61356Y9465D01*
X-60523D01*
X-59690Y8632D01*
Y6965D01*
X-60523Y6132D01*
X-63855Y11131D02*
X-64688Y11964D01*
Y13630D01*
X-63855Y14463D01*
X-60523D01*
X-59690Y13630D01*
Y11964D01*
X-60523Y11131D01*
X-63855D01*
X-59690Y16129D02*
Y17795D01*
Y16962D01*
X-64688D01*
X-63855Y16129D01*
X-41973Y-15754D02*
X-42806Y-16587D01*
Y-18253D01*
X-41973Y-19086D01*
X-38640D01*
X-37807Y-18253D01*
Y-16587D01*
X-38640Y-15754D01*
X-41973Y-14087D02*
X-42806Y-13254D01*
Y-11588D01*
X-41973Y-10755D01*
X-41140D01*
X-40307Y-11588D01*
Y-12421D01*
Y-11588D01*
X-39474Y-10755D01*
X-38640D01*
X-37807Y-11588D01*
Y-13254D01*
X-38640Y-14087D01*
X-41973Y-9089D02*
X-42806Y-8256D01*
Y-6590D01*
X-41973Y-5757D01*
X-38640D01*
X-37807Y-6590D01*
Y-8256D01*
X-38640Y-9089D01*
X-41973D01*
Y-4091D02*
X-42806Y-3257D01*
Y-1591D01*
X-41973Y-758D01*
X-38640D01*
X-37807Y-1591D01*
Y-3257D01*
X-38640Y-4091D01*
X-41973D01*
M02*
