G04*
G04 #@! TF.GenerationSoftware,Altium Limited,Altium Designer,24.3.1 (35)*
G04*
G04 Layer_Color=8421504*
%FSLAX44Y44*%
%MOMM*%
G71*
G04*
G04 #@! TF.SameCoordinates,025A4B24-8724-457C-B47B-0DB420FA472D*
G04*
G04*
G04 #@! TF.FilePolarity,Positive*
G04*
G01*
G75*
%ADD19R,1.6300X0.8600*%
%ADD20R,1.7700X1.1000*%
%ADD21R,1.8800X0.8600*%
%ADD22O,0.2000X0.8000*%
%ADD23O,0.8000X0.2000*%
%ADD24R,4.7000X4.7000*%
%ADD25R,0.6200X0.5700*%
%ADD26R,0.8000X0.7000*%
%ADD27R,0.5000X0.5500*%
%ADD28R,0.9500X0.9500*%
%ADD29R,0.8000X0.4600*%
%ADD30R,1.2000X1.1000*%
%ADD31R,0.4000X0.3500*%
%ADD32R,0.4600X0.8000*%
%ADD33R,1.1000X1.2000*%
%ADD34R,0.3500X0.4000*%
%ADD35R,0.4000X0.9500*%
%ADD36R,0.5700X0.6200*%
%ADD37R,1.1000X1.9000*%
%ADD38R,0.5200X0.4700*%
%ADD39R,1.4500X1.0500*%
%ADD40R,0.3200X1.0500*%
G04:AMPARAMS|DCode=41|XSize=0.3mm|YSize=0.67mm|CornerRadius=0.02mm|HoleSize=0mm|Usage=FLASHONLY|Rotation=270.000|XOffset=0mm|YOffset=0mm|HoleType=Round|Shape=RoundedRectangle|*
%AMROUNDEDRECTD41*
21,1,0.3000,0.6300,0,0,270.0*
21,1,0.2600,0.6700,0,0,270.0*
1,1,0.0400,-0.3150,-0.1300*
1,1,0.0400,-0.3150,0.1300*
1,1,0.0400,0.3150,0.1300*
1,1,0.0400,0.3150,-0.1300*
%
%ADD41ROUNDEDRECTD41*%
%ADD42R,0.8001X0.5500*%
G04:AMPARAMS|DCode=43|XSize=0.8mm|YSize=0.8mm|CornerRadius=0.02mm|HoleSize=0mm|Usage=FLASHONLY|Rotation=270.000|XOffset=0mm|YOffset=0mm|HoleType=Round|Shape=RoundedRectangle|*
%AMROUNDEDRECTD43*
21,1,0.8000,0.7600,0,0,270.0*
21,1,0.7600,0.8000,0,0,270.0*
1,1,0.0400,-0.3800,-0.3800*
1,1,0.0400,-0.3800,0.3800*
1,1,0.0400,0.3800,0.3800*
1,1,0.0400,0.3800,-0.3800*
%
%ADD43ROUNDEDRECTD43*%
G04:AMPARAMS|DCode=44|XSize=0.24mm|YSize=0.6mm|CornerRadius=0.02mm|HoleSize=0mm|Usage=FLASHONLY|Rotation=270.000|XOffset=0mm|YOffset=0mm|HoleType=Round|Shape=RoundedRectangle|*
%AMROUNDEDRECTD44*
21,1,0.2400,0.5600,0,0,270.0*
21,1,0.2000,0.6000,0,0,270.0*
1,1,0.0400,-0.2800,-0.1000*
1,1,0.0400,-0.2800,0.1000*
1,1,0.0400,0.2800,0.1000*
1,1,0.0400,0.2800,-0.1000*
%
%ADD44ROUNDEDRECTD44*%
G04:AMPARAMS|DCode=45|XSize=0.24mm|YSize=0.6mm|CornerRadius=0.02mm|HoleSize=0mm|Usage=FLASHONLY|Rotation=0.000|XOffset=0mm|YOffset=0mm|HoleType=Round|Shape=RoundedRectangle|*
%AMROUNDEDRECTD45*
21,1,0.2400,0.5600,0,0,0.0*
21,1,0.2000,0.6000,0,0,0.0*
1,1,0.0400,0.1000,-0.2800*
1,1,0.0400,-0.1000,-0.2800*
1,1,0.0400,-0.1000,0.2800*
1,1,0.0400,0.1000,0.2800*
%
%ADD45ROUNDEDRECTD45*%
%ADD46R,0.2500X0.7000*%
%ADD47R,0.7000X0.2500*%
%ADD48R,1.8000X1.5000*%
%ADD49R,0.5500X0.5000*%
%ADD50R,0.9500X1.3500*%
%ADD51R,1.0000X0.9000*%
G04:AMPARAMS|DCode=52|XSize=1.6mm|YSize=1.5mm|CornerRadius=0.03mm|HoleSize=0mm|Usage=FLASHONLY|Rotation=90.000|XOffset=0mm|YOffset=0mm|HoleType=Round|Shape=RoundedRectangle|*
%AMROUNDEDRECTD52*
21,1,1.6000,1.4400,0,0,90.0*
21,1,1.5400,1.5000,0,0,90.0*
1,1,0.0600,0.7200,0.7700*
1,1,0.0600,0.7200,-0.7700*
1,1,0.0600,-0.7200,-0.7700*
1,1,0.0600,-0.7200,0.7700*
%
%ADD52ROUNDEDRECTD52*%
%ADD53R,1.0000X0.8000*%
%ADD54R,0.9000X0.7000*%
%ADD55R,0.7000X0.9000*%
G04:AMPARAMS|DCode=56|XSize=0.98mm|YSize=3.4mm|CornerRadius=0.08mm|HoleSize=0mm|Usage=FLASHONLY|Rotation=180.000|XOffset=0mm|YOffset=0mm|HoleType=Round|Shape=RoundedRectangle|*
%AMROUNDEDRECTD56*
21,1,0.9800,3.2400,0,0,180.0*
21,1,0.8200,3.4000,0,0,180.0*
1,1,0.1600,-0.4100,1.6200*
1,1,0.1600,0.4100,1.6200*
1,1,0.1600,0.4100,-1.6200*
1,1,0.1600,-0.4100,-1.6200*
%
%ADD56ROUNDEDRECTD56*%
G04:AMPARAMS|DCode=57|XSize=0.4mm|YSize=0.5mm|CornerRadius=0.03mm|HoleSize=0mm|Usage=FLASHONLY|Rotation=270.000|XOffset=0mm|YOffset=0mm|HoleType=Round|Shape=RoundedRectangle|*
%AMROUNDEDRECTD57*
21,1,0.4000,0.4400,0,0,270.0*
21,1,0.3400,0.5000,0,0,270.0*
1,1,0.0600,-0.2200,-0.1700*
1,1,0.0600,-0.2200,0.1700*
1,1,0.0600,0.2200,0.1700*
1,1,0.0600,0.2200,-0.1700*
%
%ADD57ROUNDEDRECTD57*%
%ADD58R,0.9000X0.9700*%
%ADD59R,1.0000X1.0500*%
%ADD60R,1.0500X2.2000*%
%ADD61R,0.7000X0.4000*%
%ADD62R,2.1000X1.4000*%
%ADD63R,0.7000X0.4000*%
%ADD64R,0.7000X0.6000*%
%ADD65R,1.8000X1.1000*%
%ADD66R,1.4000X0.9500*%
G36*
X-364019Y-11330D02*
X-390520D01*
Y21480D01*
X-387328Y24672D01*
X-364019D01*
Y-11330D01*
D02*
G37*
D19*
X-1564Y249519D02*
D03*
D20*
X-48564Y251069D02*
D03*
D21*
X-104464Y249519D02*
D03*
Y271919D02*
D03*
D22*
X-22000Y-30640D02*
D03*
X-18000D02*
D03*
X-14000D02*
D03*
X-10000D02*
D03*
X-6000D02*
D03*
X-2000D02*
D03*
X2000D02*
D03*
X6000D02*
D03*
X10000D02*
D03*
X14000D02*
D03*
X18000D02*
D03*
X22000D02*
D03*
Y29860D02*
D03*
X18000D02*
D03*
X14000D02*
D03*
X10000D02*
D03*
X6000D02*
D03*
X2000D02*
D03*
X-2000D02*
D03*
X-6000D02*
D03*
X-10000D02*
D03*
X-14000D02*
D03*
X-18000D02*
D03*
X-22000D02*
D03*
D23*
X30250Y-22390D02*
D03*
Y-18390D02*
D03*
Y-14390D02*
D03*
Y-10390D02*
D03*
Y-6390D02*
D03*
Y-2390D02*
D03*
Y1610D02*
D03*
Y5610D02*
D03*
Y9610D02*
D03*
Y13610D02*
D03*
Y17610D02*
D03*
Y21610D02*
D03*
X-30250D02*
D03*
Y17610D02*
D03*
Y13610D02*
D03*
Y9610D02*
D03*
Y5610D02*
D03*
Y1610D02*
D03*
Y-2390D02*
D03*
Y-6390D02*
D03*
Y-10390D02*
D03*
Y-14390D02*
D03*
Y-18390D02*
D03*
Y-22390D02*
D03*
D24*
X0Y-390D02*
D03*
D25*
X-480060Y71350D02*
D03*
Y81050D02*
D03*
X-297180Y72620D02*
D03*
Y82320D02*
D03*
Y111530D02*
D03*
Y101830D02*
D03*
X351790Y26440D02*
D03*
Y16740D02*
D03*
Y-2310D02*
D03*
Y7390D02*
D03*
X200660Y-15240D02*
D03*
Y-24940D02*
D03*
X156210Y83590D02*
D03*
Y73890D02*
D03*
X214630Y102640D02*
D03*
Y92940D02*
D03*
X-341630Y-65810D02*
D03*
Y-56110D02*
D03*
X-337390Y16125D02*
D03*
Y6425D02*
D03*
X-395000Y-91960D02*
D03*
Y-82260D02*
D03*
X-323420Y6410D02*
D03*
Y16110D02*
D03*
X-416590Y-11140D02*
D03*
Y-20840D02*
D03*
Y7910D02*
D03*
Y-1790D02*
D03*
X27940Y-45070D02*
D03*
Y-54770D02*
D03*
X-25400Y63920D02*
D03*
Y54220D02*
D03*
X-61250Y54800D02*
D03*
Y45100D02*
D03*
X-62230Y-15400D02*
D03*
Y-5700D02*
D03*
X-49530Y-15400D02*
D03*
Y-5700D02*
D03*
D26*
X186500Y-201000D02*
D03*
Y-189000D02*
D03*
X173500D02*
D03*
Y-201000D02*
D03*
X6500D02*
D03*
Y-189000D02*
D03*
X-6500D02*
D03*
Y-201000D02*
D03*
X-173500D02*
D03*
Y-189000D02*
D03*
X-186500D02*
D03*
Y-201000D02*
D03*
D27*
X185750Y158750D02*
D03*
X195250D02*
D03*
X185750Y125730D02*
D03*
X195250D02*
D03*
X270180Y72390D02*
D03*
X260680D02*
D03*
X371170Y-21590D02*
D03*
X380670D02*
D03*
X201600Y-39370D02*
D03*
X192100D02*
D03*
X179930D02*
D03*
X170430D02*
D03*
X157150Y57150D02*
D03*
X147650D02*
D03*
X-329340Y-92390D02*
D03*
X-338840D02*
D03*
X-442930Y247D02*
D03*
X-433430D02*
D03*
X-331880Y-9840D02*
D03*
X-341380D02*
D03*
X-316760Y31000D02*
D03*
X-307260D02*
D03*
X-375825Y-45078D02*
D03*
X-385325D02*
D03*
X-85260Y-79210D02*
D03*
X-75760D02*
D03*
X26500D02*
D03*
X36000D02*
D03*
X84150Y-80010D02*
D03*
X93650D02*
D03*
D28*
X191650Y173990D02*
D03*
X176650D02*
D03*
X191650Y142240D02*
D03*
X176650D02*
D03*
D29*
X271780Y-89420D02*
D03*
D30*
Y-99320D02*
D03*
D31*
X262268Y-90020D02*
D03*
X281292D02*
D03*
X262268Y-103020D02*
D03*
X281292D02*
D03*
X262268Y-96520D02*
D03*
X281292D02*
D03*
D32*
X260350Y53340D02*
D03*
D33*
X270250D02*
D03*
D34*
X260950Y43828D02*
D03*
Y62852D02*
D03*
X273950Y43828D02*
D03*
Y62852D02*
D03*
X267450Y43828D02*
D03*
Y62852D02*
D03*
D35*
X-139496Y10310D02*
D03*
X-126496D02*
D03*
Y-11690D02*
D03*
X-132996D02*
D03*
X-139496D02*
D03*
X-167490D02*
D03*
X-180490D02*
D03*
Y10310D02*
D03*
X-173990D02*
D03*
X-167490D02*
D03*
D36*
X-139470Y25400D02*
D03*
X-129770D02*
D03*
X-132996Y-25400D02*
D03*
X-142696D02*
D03*
X-55886Y28189D02*
D03*
X-46186D02*
D03*
X-167870Y-25400D02*
D03*
X-177570D02*
D03*
X-173760Y25400D02*
D03*
X-164060D02*
D03*
X358282Y108024D02*
D03*
X367982D02*
D03*
X-338940Y-80960D02*
D03*
X-329240D02*
D03*
X-435680Y17030D02*
D03*
X-445380D02*
D03*
X-414330Y20640D02*
D03*
X-424030D02*
D03*
X-1858Y198422D02*
D03*
X7842D02*
D03*
X-1858Y162862D02*
D03*
X7842D02*
D03*
X44680Y-6740D02*
D03*
X54380D02*
D03*
X44988Y32497D02*
D03*
X54688D02*
D03*
X-2318Y85782D02*
D03*
X-12018D02*
D03*
X-2168Y53380D02*
D03*
X-11868D02*
D03*
X-2770Y-71120D02*
D03*
X-12470D02*
D03*
X-35330D02*
D03*
X-25630D02*
D03*
X-49300Y64770D02*
D03*
X-39600D02*
D03*
X-49760Y-57540D02*
D03*
X-59460D02*
D03*
X-49760Y-44840D02*
D03*
X-59460D02*
D03*
X4850Y-215100D02*
D03*
X-4850D02*
D03*
X184850D02*
D03*
X175150D02*
D03*
X-175067Y-215005D02*
D03*
X-184767D02*
D03*
X-84860Y-93180D02*
D03*
X-75160D02*
D03*
X26900D02*
D03*
X36600D02*
D03*
X84550D02*
D03*
X94250D02*
D03*
D37*
X-6619Y-52700D02*
D03*
X-31619D02*
D03*
D38*
X-47570Y45330D02*
D03*
Y52030D02*
D03*
X-39370D02*
D03*
Y45330D02*
D03*
D39*
X373380Y11430D02*
D03*
D40*
X380880Y25530D02*
D03*
X375880D02*
D03*
X370880D02*
D03*
X365880D02*
D03*
X380880Y-2670D02*
D03*
X375880D02*
D03*
X370880D02*
D03*
X365880D02*
D03*
D41*
X182660Y-26590D02*
D03*
Y-21590D02*
D03*
Y-16590D02*
D03*
X167860D02*
D03*
Y-21590D02*
D03*
Y-26590D02*
D03*
D42*
X174181Y73050D02*
D03*
Y92050D02*
D03*
X199200D02*
D03*
Y82550D02*
D03*
Y73050D02*
D03*
D43*
X-367060Y-92190D02*
D03*
D44*
X-353060Y-84690D02*
D03*
Y-89690D02*
D03*
Y-94690D02*
D03*
Y-99690D02*
D03*
X-381060D02*
D03*
Y-94690D02*
D03*
Y-89690D02*
D03*
Y-84690D02*
D03*
D45*
X-359560Y-106190D02*
D03*
X-364560D02*
D03*
X-369560D02*
D03*
X-374560D02*
D03*
Y-78190D02*
D03*
X-369560D02*
D03*
X-364560D02*
D03*
X-359560D02*
D03*
D46*
X-384770Y-17330D02*
D03*
X-379770D02*
D03*
X-374770D02*
D03*
X-369770D02*
D03*
Y30670D02*
D03*
X-374770D02*
D03*
X-379770D02*
D03*
X-384770D02*
D03*
D47*
X-358270Y-5830D02*
D03*
Y-830D02*
D03*
Y4170D02*
D03*
Y9170D02*
D03*
Y14170D02*
D03*
Y19170D02*
D03*
X-396270Y4170D02*
D03*
Y19170D02*
D03*
Y14170D02*
D03*
Y9170D02*
D03*
Y-830D02*
D03*
Y-5830D02*
D03*
D48*
X-85460Y-112440D02*
D03*
Y-141440D02*
D03*
X-137460Y-112440D02*
D03*
Y-141440D02*
D03*
X26000Y-112440D02*
D03*
Y-141440D02*
D03*
X-26000Y-112440D02*
D03*
Y-141440D02*
D03*
X137460Y-112440D02*
D03*
Y-141440D02*
D03*
X85460Y-112440D02*
D03*
Y-141440D02*
D03*
D49*
X294640Y-136830D02*
D03*
Y-127330D02*
D03*
X265430Y-127000D02*
D03*
Y-117500D02*
D03*
X307340Y127330D02*
D03*
Y136830D02*
D03*
X325137Y127330D02*
D03*
Y136830D02*
D03*
X280670Y-126670D02*
D03*
Y-117170D02*
D03*
X309880Y-162814D02*
D03*
Y-153314D02*
D03*
X382270Y43510D02*
D03*
Y53010D02*
D03*
X393700Y-15740D02*
D03*
Y-6240D02*
D03*
X370840Y53010D02*
D03*
Y43510D02*
D03*
X393700Y17450D02*
D03*
Y7950D02*
D03*
X-309971Y16010D02*
D03*
Y6510D02*
D03*
X-331550Y-32040D02*
D03*
Y-22540D02*
D03*
X-491520Y4660D02*
D03*
Y14160D02*
D03*
X-368300Y-65710D02*
D03*
Y-56210D02*
D03*
X-391240Y-66660D02*
D03*
Y-57160D02*
D03*
X-431830Y-20740D02*
D03*
Y-11240D02*
D03*
X-128270Y-63560D02*
D03*
Y-54060D02*
D03*
X-2088Y175892D02*
D03*
Y185392D02*
D03*
X-200660Y-199530D02*
D03*
Y-190030D02*
D03*
D50*
X378050Y81280D02*
D03*
X358550D02*
D03*
X149450Y-46990D02*
D03*
X129950D02*
D03*
D51*
X-463580Y-262D02*
D03*
Y15738D02*
D03*
X148590Y-24510D02*
D03*
Y-8510D02*
D03*
D52*
X-171450Y-76160D02*
D03*
Y-54160D02*
D03*
D53*
X-444580Y-61540D02*
D03*
Y-47040D02*
D03*
D54*
X-290860Y6870D02*
D03*
X-271860Y13370D02*
D03*
Y370D02*
D03*
D55*
X-106680Y-73390D02*
D03*
X-113180Y-54390D02*
D03*
X-100180D02*
D03*
D56*
X198540Y15240D02*
D03*
X174840D02*
D03*
D57*
X-2088Y106112D02*
D03*
Y98112D02*
D03*
Y74152D02*
D03*
Y66152D02*
D03*
X-74930Y-7820D02*
D03*
Y-15820D02*
D03*
D58*
X-53340Y-29600D02*
D03*
X-69040D02*
D03*
D59*
X-2088Y122212D02*
D03*
D60*
X12662Y137462D02*
D03*
X-16838D02*
D03*
D61*
X344170Y134310D02*
D03*
Y127310D02*
D03*
D62*
X340360Y-113440D02*
D03*
Y-69440D02*
D03*
X269240Y-48670D02*
D03*
Y-4670D02*
D03*
D63*
X-311230Y-17150D02*
D03*
Y-10150D02*
D03*
D64*
X-143510Y-54350D02*
D03*
Y-68350D02*
D03*
D65*
X-353090Y113310D02*
D03*
Y83310D02*
D03*
D66*
X-416590Y41570D02*
D03*
Y61070D02*
D03*
X-339120Y41570D02*
D03*
Y61070D02*
D03*
M02*
