G04*
G04 #@! TF.GenerationSoftware,Altium Limited,Altium Designer,24.3.1 (35)*
G04*
G04 Layer_Physical_Order=2*
G04 Layer_Color=36540*
%FSLAX44Y44*%
%MOMM*%
G71*
G04*
G04 #@! TF.SameCoordinates,025A4B24-8724-457C-B47B-0DB420FA472D*
G04*
G04*
G04 #@! TF.FilePolarity,Positive*
G04*
G01*
G75*
G04:AMPARAMS|DCode=124|XSize=1.1mm|YSize=2.6mm|CornerRadius=0.55mm|HoleSize=0mm|Usage=FLASHONLY|Rotation=270.000|XOffset=0mm|YOffset=0mm|HoleType=Round|Shape=RoundedRectangle|*
%AMROUNDEDRECTD124*
21,1,1.1000,1.5000,0,0,270.0*
21,1,0.0000,2.6000,0,0,270.0*
1,1,1.1000,-0.7500,0.0000*
1,1,1.1000,-0.7500,0.0000*
1,1,1.1000,0.7500,0.0000*
1,1,1.1000,0.7500,0.0000*
%
%ADD124ROUNDEDRECTD124*%
G04:AMPARAMS|DCode=125|XSize=1.1mm|YSize=2.1mm|CornerRadius=0.55mm|HoleSize=0mm|Usage=FLASHONLY|Rotation=270.000|XOffset=0mm|YOffset=0mm|HoleType=Round|Shape=RoundedRectangle|*
%AMROUNDEDRECTD125*
21,1,1.1000,1.0000,0,0,270.0*
21,1,0.0000,2.1000,0,0,270.0*
1,1,1.1000,-0.5000,0.0000*
1,1,1.1000,-0.5000,0.0000*
1,1,1.1000,0.5000,0.0000*
1,1,1.1000,0.5000,0.0000*
%
%ADD125ROUNDEDRECTD125*%
%ADD142R,1.5500X1.5500*%
%ADD143C,1.5500*%
%ADD144R,1.5500X1.5500*%
%ADD145C,1.5000*%
%ADD146C,0.9910*%
%ADD147C,0.3650*%
%ADD148C,1.5240*%
G36*
X297935Y176784D02*
X298090Y176004D01*
X298532Y175342D01*
X299194Y174900D01*
X299974Y174745D01*
X479200D01*
X483347Y169341D01*
X492061Y156633D01*
X500083Y143477D01*
X507391Y129912D01*
X513964Y115975D01*
X519783Y101707D01*
X524831Y87149D01*
X529095Y72341D01*
X530770Y65085D01*
Y49227D01*
X529500Y48601D01*
X528542Y49335D01*
X526834Y50043D01*
X525000Y50285D01*
X510000D01*
X508166Y50043D01*
X506458Y49335D01*
X504990Y48210D01*
X503865Y46742D01*
X503157Y45034D01*
X502915Y43200D01*
X503157Y41366D01*
X503865Y39658D01*
X504990Y38190D01*
X506458Y37064D01*
X508166Y36357D01*
X510000Y36115D01*
X525000D01*
X526834Y36357D01*
X528542Y37064D01*
X529500Y37799D01*
X530770Y37173D01*
Y-37173D01*
X529500Y-37799D01*
X528542Y-37064D01*
X526834Y-36357D01*
X525000Y-36115D01*
X510000D01*
X508166Y-36357D01*
X506458Y-37064D01*
X504990Y-38190D01*
X503865Y-39658D01*
X503157Y-41366D01*
X502915Y-43200D01*
X503157Y-45034D01*
X503865Y-46742D01*
X504990Y-48210D01*
X506458Y-49335D01*
X508166Y-50043D01*
X510000Y-50285D01*
X525000D01*
X526834Y-50043D01*
X528542Y-49335D01*
X529500Y-48601D01*
X530770Y-49227D01*
Y-65085D01*
X529095Y-72341D01*
X524831Y-87149D01*
X519783Y-101707D01*
X513964Y-115975D01*
X507391Y-129911D01*
X500083Y-143477D01*
X492061Y-156632D01*
X483347Y-169341D01*
X479200Y-174745D01*
X299974D01*
X299194Y-174900D01*
X298532Y-175342D01*
X298090Y-176004D01*
X297935Y-176784D01*
Y-283922D01*
X-297935D01*
Y-176784D01*
X-298090Y-176004D01*
X-298532Y-175342D01*
X-299194Y-174900D01*
X-299974Y-174745D01*
X-479200D01*
X-483442Y-169217D01*
X-492319Y-156240D01*
X-500477Y-142797D01*
X-507889Y-128930D01*
X-514534Y-114680D01*
X-520392Y-100088D01*
X-525446Y-85199D01*
X-529681Y-70057D01*
X-533084Y-54706D01*
X-535646Y-39193D01*
X-537357Y-23563D01*
X-538215Y-7862D01*
X-538215Y7861D01*
X-537358Y23561D01*
X-535646Y39191D01*
X-533085Y54705D01*
X-529682Y70056D01*
X-525447Y85198D01*
X-520393Y100087D01*
X-514534Y114679D01*
X-507889Y128929D01*
X-500477Y142796D01*
X-492320Y156238D01*
X-483443Y169216D01*
X-479200Y174745D01*
X-467360D01*
Y72402D01*
X-427596D01*
X-427504Y71170D01*
X-428805Y70631D01*
X-429801Y69635D01*
X-430340Y68334D01*
Y66926D01*
X-429801Y65625D01*
X-429461Y65285D01*
X-428919Y64455D01*
X-429461Y63625D01*
X-429801Y63285D01*
X-430340Y61984D01*
Y60576D01*
X-429801Y59275D01*
X-429461Y58935D01*
X-428919Y58105D01*
X-429461Y57275D01*
X-429801Y56935D01*
X-430340Y55634D01*
Y54226D01*
X-429801Y52925D01*
X-428805Y51929D01*
X-427504Y51390D01*
X-426096D01*
X-424795Y51929D01*
X-423799Y52925D01*
X-423260Y54226D01*
Y55634D01*
X-423799Y56935D01*
X-424139Y57275D01*
X-424681Y58105D01*
X-424139Y58935D01*
X-423799Y59275D01*
X-423260Y60576D01*
Y61984D01*
X-423799Y63285D01*
X-424139Y63625D01*
X-424681Y64455D01*
X-424139Y65285D01*
X-423799Y65625D01*
X-423260Y66926D01*
Y68334D01*
X-423799Y69635D01*
X-424795Y70631D01*
X-426096Y71170D01*
X-426004Y72402D01*
X-406641D01*
X-406549Y71170D01*
X-407850Y70631D01*
X-408846Y69635D01*
X-409385Y68334D01*
Y66926D01*
X-408846Y65625D01*
X-408506Y65285D01*
X-407964Y64455D01*
X-408506Y63625D01*
X-408846Y63285D01*
X-409385Y61984D01*
Y60576D01*
X-408846Y59275D01*
X-408506Y58935D01*
X-407964Y58105D01*
X-408506Y57275D01*
X-408846Y56935D01*
X-409385Y55634D01*
Y54226D01*
X-408846Y52925D01*
X-407850Y51929D01*
X-406549Y51390D01*
X-405141D01*
X-403840Y51929D01*
X-402844Y52925D01*
X-402305Y54226D01*
Y55634D01*
X-402844Y56935D01*
X-403184Y57275D01*
X-403726Y58105D01*
X-403184Y58935D01*
X-402844Y59275D01*
X-402305Y60576D01*
Y61984D01*
X-402844Y63285D01*
X-403184Y63625D01*
X-403726Y64455D01*
X-403184Y65285D01*
X-402844Y65625D01*
X-402305Y66926D01*
Y68334D01*
X-402844Y69635D01*
X-403840Y70631D01*
X-405141Y71170D01*
X-405049Y72402D01*
X-350126D01*
X-350034Y71170D01*
X-351335Y70631D01*
X-352331Y69635D01*
X-352870Y68334D01*
Y66926D01*
X-352331Y65625D01*
X-351991Y65285D01*
X-351449Y64455D01*
X-351991Y63625D01*
X-352331Y63285D01*
X-352870Y61984D01*
Y60576D01*
X-352331Y59275D01*
X-351991Y58935D01*
X-351449Y58105D01*
X-351991Y57275D01*
X-352331Y56935D01*
X-352870Y55634D01*
Y54226D01*
X-352331Y52925D01*
X-351335Y51929D01*
X-350034Y51390D01*
X-348626D01*
X-347325Y51929D01*
X-346329Y52925D01*
X-345790Y54226D01*
Y55634D01*
X-346329Y56935D01*
X-346669Y57275D01*
X-347211Y58105D01*
X-346669Y58935D01*
X-346329Y59275D01*
X-345790Y60576D01*
Y61984D01*
X-346329Y63285D01*
X-346669Y63625D01*
X-347211Y64455D01*
X-346669Y65285D01*
X-346329Y65625D01*
X-345790Y66926D01*
Y68334D01*
X-346329Y69635D01*
X-347325Y70631D01*
X-348626Y71170D01*
X-348534Y72402D01*
X-329171D01*
X-329079Y71170D01*
X-330380Y70631D01*
X-331376Y69635D01*
X-331915Y68334D01*
Y66926D01*
X-331376Y65625D01*
X-331036Y65285D01*
X-330494Y64455D01*
X-331036Y63625D01*
X-331376Y63285D01*
X-331915Y61984D01*
Y60576D01*
X-331376Y59275D01*
X-331036Y58935D01*
X-330494Y58105D01*
X-331036Y57275D01*
X-331376Y56935D01*
X-331915Y55634D01*
Y54226D01*
X-331376Y52925D01*
X-330380Y51929D01*
X-329079Y51390D01*
X-327671D01*
X-326370Y51929D01*
X-325374Y52925D01*
X-324835Y54226D01*
Y55634D01*
X-325374Y56935D01*
X-325714Y57275D01*
X-326256Y58105D01*
X-325714Y58935D01*
X-325374Y59275D01*
X-324835Y60576D01*
Y61984D01*
X-325374Y63285D01*
X-325714Y63625D01*
X-326256Y64455D01*
X-325714Y65285D01*
X-325374Y65625D01*
X-324835Y66926D01*
Y68334D01*
X-325374Y69635D01*
X-326370Y70631D01*
X-327671Y71170D01*
X-327579Y72402D01*
X-316254D01*
Y174745D01*
X-299974D01*
X-299194Y174900D01*
X-298532Y175342D01*
X-298090Y176004D01*
X-297935Y176784D01*
Y203200D01*
X297935D01*
Y176784D01*
D02*
G37*
%LPC*%
G36*
X251848Y184040D02*
X248152D01*
X244581Y183083D01*
X241379Y181235D01*
X238765Y178621D01*
X236917Y175419D01*
X235960Y171848D01*
Y168152D01*
X236917Y164581D01*
X238765Y161379D01*
X241379Y158765D01*
X244581Y156917D01*
X248152Y155960D01*
X251848D01*
X255419Y156917D01*
X258621Y158765D01*
X261235Y161379D01*
X263083Y164581D01*
X264040Y168152D01*
Y171848D01*
X263083Y175419D01*
X261235Y178621D01*
X258621Y181235D01*
X255419Y183083D01*
X251848Y184040D01*
D02*
G37*
G36*
X-248152D02*
X-251848D01*
X-255419Y183083D01*
X-258621Y181235D01*
X-261235Y178621D01*
X-263083Y175419D01*
X-264040Y171848D01*
Y168152D01*
X-263083Y164581D01*
X-261235Y161379D01*
X-258621Y158765D01*
X-255419Y156917D01*
X-251848Y155960D01*
X-248152D01*
X-244581Y156917D01*
X-241379Y158765D01*
X-238765Y161379D01*
X-236917Y164581D01*
X-235960Y168152D01*
Y171848D01*
X-236917Y175419D01*
X-238765Y178621D01*
X-241379Y181235D01*
X-244581Y183083D01*
X-248152Y184040D01*
D02*
G37*
G36*
X203904Y162290D02*
X202496D01*
X201195Y161751D01*
X200199Y160755D01*
X199660Y159454D01*
Y158046D01*
X200199Y156745D01*
X201195Y155749D01*
X202496Y155210D01*
X203904D01*
X205205Y155749D01*
X206201Y156745D01*
X206740Y158046D01*
Y159454D01*
X206201Y160755D01*
X205205Y161751D01*
X203904Y162290D01*
D02*
G37*
G36*
X292804Y140700D02*
X291396D01*
X290095Y140161D01*
X289099Y139165D01*
X288560Y137864D01*
Y136456D01*
X289099Y135155D01*
X290095Y134159D01*
X291396Y133620D01*
X292804D01*
X294105Y134159D01*
X295101Y135155D01*
X295640Y136456D01*
Y137864D01*
X295101Y139165D01*
X294105Y140161D01*
X292804Y140700D01*
D02*
G37*
G36*
X-283844Y121581D02*
X-285253D01*
X-286554Y121042D01*
X-286860Y120737D01*
X-287689Y120146D01*
X-288519Y120737D01*
X-288825Y121042D01*
X-290126Y121581D01*
X-291534D01*
X-292835Y121042D01*
X-293831Y120047D01*
X-294370Y118746D01*
Y117337D01*
X-293831Y116036D01*
X-293525Y115730D01*
X-292935Y114901D01*
X-293525Y114071D01*
X-293831Y113765D01*
X-294370Y112464D01*
Y111056D01*
X-293831Y109755D01*
X-292835Y108759D01*
X-291534Y108220D01*
X-290126D01*
X-288825Y108759D01*
X-288519Y109065D01*
X-287689Y109655D01*
X-286860Y109065D01*
X-286554Y108759D01*
X-285253Y108220D01*
X-283844D01*
X-282543Y108759D01*
X-281548Y109755D01*
X-281009Y111056D01*
Y112464D01*
X-281548Y113765D01*
X-281853Y114071D01*
X-282444Y114901D01*
X-281853Y115730D01*
X-281548Y116036D01*
X-281009Y117337D01*
Y118746D01*
X-281548Y120047D01*
X-282543Y121042D01*
X-283844Y121581D01*
D02*
G37*
G36*
X425535Y118240D02*
X425450D01*
Y109220D01*
X434470D01*
Y109305D01*
X433769Y111922D01*
X432414Y114268D01*
X430498Y116184D01*
X428152Y117539D01*
X425535Y118240D01*
D02*
G37*
G36*
X422910D02*
X422825D01*
X420208Y117539D01*
X417862Y116184D01*
X415946Y114268D01*
X414591Y111922D01*
X413890Y109305D01*
Y109220D01*
X422910D01*
Y118240D01*
D02*
G37*
G36*
X434470Y106680D02*
X425450D01*
Y97660D01*
X425535D01*
X428152Y98361D01*
X430498Y99716D01*
X432414Y101632D01*
X433769Y103978D01*
X434470Y106595D01*
Y106680D01*
D02*
G37*
G36*
X422910D02*
X413890D01*
Y106595D01*
X414591Y103978D01*
X415946Y101632D01*
X417862Y99716D01*
X420208Y98361D01*
X422825Y97660D01*
X422910D01*
Y106680D01*
D02*
G37*
G36*
X266134Y88630D02*
X264726D01*
X263425Y88091D01*
X262429Y87095D01*
X261890Y85794D01*
Y85070D01*
X261616Y84271D01*
X260718Y83897D01*
X260079D01*
X258778Y83358D01*
X257782Y82362D01*
X257243Y81061D01*
Y79653D01*
X257782Y78351D01*
X258778Y77356D01*
X260079Y76817D01*
X261487D01*
X262788Y77356D01*
X263784Y78351D01*
X264323Y79653D01*
Y80377D01*
X264597Y81175D01*
X265495Y81550D01*
X266134D01*
X267435Y82089D01*
X268431Y83085D01*
X268970Y84386D01*
Y85794D01*
X268431Y87095D01*
X267435Y88091D01*
X266134Y88630D01*
D02*
G37*
G36*
X-283844Y75930D02*
X-285253D01*
X-286554Y75391D01*
X-286860Y75085D01*
X-287689Y74495D01*
X-288519Y75085D01*
X-288825Y75391D01*
X-290126Y75930D01*
X-291534D01*
X-292835Y75391D01*
X-293831Y74395D01*
X-294370Y73094D01*
Y71686D01*
X-293831Y70385D01*
X-293525Y70079D01*
X-292935Y69249D01*
X-293525Y68420D01*
X-293831Y68114D01*
X-294370Y66813D01*
Y65404D01*
X-293831Y64103D01*
X-292835Y63108D01*
X-291534Y62569D01*
X-290126D01*
X-288825Y63108D01*
X-288519Y63413D01*
X-287689Y64004D01*
X-286860Y63413D01*
X-286554Y63108D01*
X-285253Y62569D01*
X-283844D01*
X-282543Y63108D01*
X-281548Y64103D01*
X-281009Y65404D01*
Y66813D01*
X-281548Y68114D01*
X-281853Y68420D01*
X-282444Y69249D01*
X-281853Y70079D01*
X-281548Y70385D01*
X-281009Y71686D01*
Y73094D01*
X-281548Y74395D01*
X-282543Y75391D01*
X-283844Y75930D01*
D02*
G37*
G36*
X433454Y91824D02*
X414906D01*
Y73276D01*
X433454D01*
Y91824D01*
D02*
G37*
G36*
X-488246Y74660D02*
X-489654D01*
X-490955Y74121D01*
X-491261Y73815D01*
X-492091Y73225D01*
X-492920Y73815D01*
X-493226Y74121D01*
X-494527Y74660D01*
X-495936D01*
X-497237Y74121D01*
X-498232Y73125D01*
X-498771Y71824D01*
Y70416D01*
X-498232Y69115D01*
X-497927Y68809D01*
X-497336Y67979D01*
X-497927Y67150D01*
X-498232Y66844D01*
X-498771Y65543D01*
Y64134D01*
X-498232Y62833D01*
X-497237Y61838D01*
X-495936Y61299D01*
X-494527D01*
X-493226Y61838D01*
X-492920Y62143D01*
X-492091Y62734D01*
X-491261Y62143D01*
X-490955Y61838D01*
X-489654Y61299D01*
X-488246D01*
X-486945Y61838D01*
X-485949Y62833D01*
X-485410Y64134D01*
Y65543D01*
X-485949Y66844D01*
X-486255Y67150D01*
X-486845Y67979D01*
X-486255Y68809D01*
X-485949Y69115D01*
X-485410Y70416D01*
Y71824D01*
X-485949Y73125D01*
X-486945Y74121D01*
X-488246Y74660D01*
D02*
G37*
G36*
X105117Y87505D02*
X103143D01*
X101237Y86994D01*
X99528Y86007D01*
X98132Y84612D01*
X97146Y82903D01*
X96635Y80997D01*
Y79023D01*
X97146Y77117D01*
X98132Y75408D01*
X99528Y74012D01*
X101237Y73026D01*
X103143Y72515D01*
X105117D01*
X107023Y73026D01*
X108732Y74012D01*
X110127Y75408D01*
X111114Y77117D01*
X111625Y79023D01*
Y80997D01*
X111114Y82903D01*
X110127Y84612D01*
X108732Y86007D01*
X107023Y86994D01*
X105117Y87505D01*
D02*
G37*
G36*
X84817D02*
X82843D01*
X80937Y86994D01*
X79228Y86007D01*
X77832Y84612D01*
X76846Y82903D01*
X76335Y80997D01*
Y79023D01*
X76846Y77117D01*
X77832Y75408D01*
X79228Y74012D01*
X80937Y73026D01*
X82843Y72515D01*
X84817D01*
X86723Y73026D01*
X88432Y74012D01*
X89827Y75408D01*
X90814Y77117D01*
X91325Y79023D01*
Y80997D01*
X90814Y82903D01*
X89827Y84612D01*
X88432Y86007D01*
X86723Y86994D01*
X84817Y87505D01*
D02*
G37*
G36*
X135930Y75479D02*
X134521D01*
X133220Y74940D01*
X132224Y73944D01*
X131685Y72643D01*
Y71235D01*
X132224Y69934D01*
X132943Y69215D01*
X133112Y68447D01*
X132971Y67805D01*
X131834Y67214D01*
X131221Y67615D01*
X130881Y67955D01*
X129580Y68494D01*
X128171D01*
X126870Y67955D01*
X125874Y66959D01*
X125336Y65658D01*
Y64250D01*
X125874Y62949D01*
X126870Y61953D01*
X127411Y61729D01*
Y60355D01*
X126692Y60057D01*
X125696Y59061D01*
X125157Y57760D01*
Y56352D01*
X125696Y55051D01*
X126415Y54332D01*
X126584Y53563D01*
X126415Y52795D01*
X125696Y52076D01*
X125157Y50775D01*
Y49367D01*
X125696Y48066D01*
X126415Y47347D01*
X126584Y46578D01*
X126415Y45810D01*
X125696Y45091D01*
X125157Y43790D01*
Y42382D01*
X125696Y41081D01*
X126692Y40085D01*
X127993Y39546D01*
X129401D01*
X130703Y40085D01*
X131043Y40425D01*
X131872Y40967D01*
X132702Y40425D01*
X133042Y40085D01*
X134343Y39546D01*
X135751D01*
X137053Y40085D01*
X137393Y40425D01*
X138222Y40967D01*
X139052Y40425D01*
X139392Y40085D01*
X140693Y39546D01*
X142101D01*
X143403Y40085D01*
X143743Y40425D01*
X144572Y40967D01*
X145402Y40425D01*
X145742Y40085D01*
X147043Y39546D01*
X148451D01*
X149753Y40085D01*
X150093Y40425D01*
X150922Y40967D01*
X151752Y40425D01*
X152092Y40085D01*
X153393Y39546D01*
X154801D01*
X156103Y40085D01*
X157098Y41081D01*
X157637Y42382D01*
Y43790D01*
X157098Y45091D01*
X156380Y45810D01*
X156211Y46578D01*
X156380Y47347D01*
X157098Y48066D01*
X157637Y49367D01*
Y50775D01*
X157098Y52076D01*
X156103Y53072D01*
X154801Y53611D01*
X153393D01*
X152092Y53072D01*
X151752Y52732D01*
X150922Y52190D01*
X150093Y52732D01*
X149753Y53072D01*
X148451Y53611D01*
X147043D01*
X145742Y53072D01*
X145402Y52732D01*
X144789Y52331D01*
X143652Y52922D01*
X143511Y53563D01*
X143680Y54332D01*
X144398Y55051D01*
X144937Y56352D01*
Y57760D01*
X144398Y59061D01*
X143403Y60057D01*
X142862Y60281D01*
Y61656D01*
X143581Y61953D01*
X144577Y62949D01*
X145115Y64250D01*
Y65658D01*
X144577Y66959D01*
X143581Y67955D01*
X142280Y68494D01*
X140871D01*
X139570Y67955D01*
X139230Y67615D01*
X138617Y67214D01*
X137480Y67805D01*
X137339Y68447D01*
X137508Y69215D01*
X138226Y69934D01*
X138765Y71235D01*
Y72643D01*
X138226Y73944D01*
X137231Y74940D01*
X135930Y75479D01*
D02*
G37*
G36*
X396944Y68310D02*
X395536D01*
X394235Y67771D01*
X393239Y66775D01*
X392700Y65474D01*
Y64066D01*
X393239Y62765D01*
X394235Y61769D01*
X395536Y61230D01*
X396944D01*
X398245Y61769D01*
X399241Y62765D01*
X399780Y64066D01*
Y65474D01*
X399241Y66775D01*
X398245Y67771D01*
X396944Y68310D01*
D02*
G37*
G36*
X382974Y63230D02*
X381566D01*
X380265Y62691D01*
X379269Y61695D01*
X378730Y60394D01*
Y58986D01*
X379269Y57685D01*
X380265Y56689D01*
X381566Y56150D01*
X382974D01*
X384275Y56689D01*
X385271Y57685D01*
X385810Y58986D01*
Y60394D01*
X385271Y61695D01*
X384275Y62691D01*
X382974Y63230D01*
D02*
G37*
G36*
X346333Y68379D02*
X344925D01*
X343624Y67840D01*
X342628Y66844D01*
X342089Y65543D01*
Y64134D01*
X342628Y62833D01*
X343624Y61838D01*
X344925Y61299D01*
X345463D01*
X345774Y60600D01*
X345852Y60029D01*
X344979Y59155D01*
X344440Y57854D01*
Y56446D01*
X344979Y55145D01*
X345975Y54149D01*
X347276Y53610D01*
X348684D01*
X349985Y54149D01*
X350981Y55145D01*
X351520Y56446D01*
Y57854D01*
X350981Y59155D01*
X349985Y60151D01*
X348684Y60690D01*
X348146D01*
X347835Y61389D01*
X347757Y61960D01*
X348630Y62833D01*
X349169Y64134D01*
Y65543D01*
X348630Y66844D01*
X347635Y67840D01*
X346333Y68379D01*
D02*
G37*
G36*
X33319Y58157D02*
X31911D01*
X30609Y57618D01*
X29614Y56623D01*
X29075Y55321D01*
Y53913D01*
X29614Y52612D01*
X29770Y52456D01*
X30521Y51548D01*
X29525Y50552D01*
X28986Y49251D01*
Y47842D01*
X29525Y46541D01*
X30521Y45546D01*
X31822Y45007D01*
X33230D01*
X34531Y45546D01*
X35527Y46541D01*
X36066Y47842D01*
Y49251D01*
X35527Y50552D01*
X35371Y50708D01*
X34620Y51616D01*
X35616Y52612D01*
X36155Y53913D01*
Y55321D01*
X35616Y56623D01*
X34620Y57618D01*
X33319Y58157D01*
D02*
G37*
G36*
X112464Y58150D02*
X111056D01*
X109755Y57611D01*
X108759Y56615D01*
X108220Y55314D01*
Y53906D01*
X108759Y52605D01*
X109099Y52265D01*
X109641Y51435D01*
X109099Y50605D01*
X108759Y50265D01*
X108220Y48964D01*
Y47556D01*
X108759Y46255D01*
X109755Y45259D01*
X111056Y44720D01*
X112464D01*
X113765Y45259D01*
X114761Y46255D01*
X115300Y47556D01*
Y48964D01*
X114761Y50265D01*
X114421Y50605D01*
X113879Y51435D01*
X114421Y52265D01*
X114761Y52605D01*
X115300Y53906D01*
Y55314D01*
X114761Y56615D01*
X113765Y57611D01*
X112464Y58150D01*
D02*
G37*
G36*
X-13487Y46649D02*
X-14896D01*
X-16197Y46110D01*
X-17193Y45114D01*
X-17731Y43813D01*
Y42405D01*
X-17193Y41104D01*
X-16197Y40108D01*
X-14896Y39569D01*
X-13487D01*
X-12186Y40108D01*
X-11191Y41104D01*
X-10652Y42405D01*
Y43813D01*
X-11191Y45114D01*
X-12186Y46110D01*
X-13487Y46649D01*
D02*
G37*
G36*
X19619Y50666D02*
X18210D01*
X16909Y50127D01*
X15913Y49131D01*
X15374Y47830D01*
Y47529D01*
X15312Y46418D01*
X14201Y46356D01*
X13900D01*
X12599Y45817D01*
X11603Y44821D01*
X11064Y43520D01*
Y42112D01*
X11603Y40810D01*
X12599Y39815D01*
X13900Y39276D01*
X15309D01*
X16610Y39815D01*
X17606Y40810D01*
X18144Y42112D01*
Y42412D01*
X18207Y43523D01*
X19318Y43586D01*
X19619D01*
X20920Y44124D01*
X21916Y45120D01*
X22454Y46421D01*
Y47830D01*
X21916Y49131D01*
X20920Y50127D01*
X19619Y50666D01*
D02*
G37*
G36*
X-459751Y40690D02*
X-461159D01*
X-462460Y40151D01*
X-463179Y39432D01*
X-463947Y39263D01*
X-464716Y39432D01*
X-465435Y40151D01*
X-466736Y40690D01*
X-468144D01*
X-469445Y40151D01*
X-470164Y39432D01*
X-470933Y39263D01*
X-471701Y39432D01*
X-472420Y40151D01*
X-473721Y40690D01*
X-475129D01*
X-476430Y40151D01*
X-477149Y39432D01*
X-477918Y39263D01*
X-478686Y39432D01*
X-479405Y40151D01*
X-480706Y40690D01*
X-482114D01*
X-483415Y40151D01*
X-484411Y39155D01*
X-484950Y37854D01*
Y36446D01*
X-484411Y35145D01*
X-484071Y34805D01*
X-483529Y33975D01*
X-484071Y33145D01*
X-484411Y32805D01*
X-484950Y31504D01*
Y30096D01*
X-484411Y28795D01*
X-484071Y28455D01*
X-483529Y27625D01*
X-484071Y26795D01*
X-484411Y26455D01*
X-484950Y25154D01*
Y23746D01*
X-484411Y22445D01*
X-484071Y22105D01*
X-483529Y21275D01*
X-484071Y20445D01*
X-484411Y20105D01*
X-484950Y18804D01*
Y17396D01*
X-484411Y16095D01*
X-484071Y15755D01*
X-483529Y14925D01*
X-484071Y14095D01*
X-484411Y13755D01*
X-484950Y12454D01*
Y11046D01*
X-484411Y9745D01*
X-483415Y8749D01*
X-482634Y8425D01*
Y7051D01*
X-483415Y6727D01*
X-484411Y5732D01*
X-484950Y4430D01*
Y3022D01*
X-484411Y1721D01*
X-484071Y1381D01*
X-483529Y551D01*
X-484071Y-278D01*
X-484411Y-618D01*
X-484950Y-1919D01*
Y-3328D01*
X-484411Y-4629D01*
X-484071Y-4969D01*
X-483529Y-5799D01*
X-484071Y-6628D01*
X-484411Y-6968D01*
X-484950Y-8270D01*
Y-9678D01*
X-484411Y-10979D01*
X-484071Y-11319D01*
X-483529Y-12149D01*
X-484071Y-12978D01*
X-484411Y-13318D01*
X-484950Y-14619D01*
Y-16028D01*
X-484411Y-17329D01*
X-484071Y-17669D01*
X-483529Y-18499D01*
X-484071Y-19328D01*
X-484411Y-19668D01*
X-484950Y-20970D01*
Y-22378D01*
X-484411Y-23679D01*
X-483415Y-24675D01*
X-482114Y-25214D01*
X-480706D01*
X-479405Y-24675D01*
X-478686Y-23956D01*
X-477918Y-23787D01*
X-477149Y-23956D01*
X-476430Y-24675D01*
X-475129Y-25214D01*
X-473721D01*
X-472420Y-24675D01*
X-471701Y-23956D01*
X-470933Y-23787D01*
X-470164Y-23956D01*
X-469445Y-24675D01*
X-468144Y-25214D01*
X-466736D01*
X-465435Y-24675D01*
X-464716Y-23956D01*
X-463947Y-23787D01*
X-463179Y-23956D01*
X-462460Y-24675D01*
X-461159Y-25214D01*
X-459751D01*
X-458450Y-24675D01*
X-457454Y-23679D01*
X-456915Y-22378D01*
Y-20970D01*
X-457454Y-19668D01*
X-457794Y-19328D01*
X-458336Y-18499D01*
X-457794Y-17669D01*
X-457454Y-17329D01*
X-456915Y-16028D01*
Y-14619D01*
X-457454Y-13318D01*
X-457794Y-12978D01*
X-458336Y-12149D01*
X-457794Y-11319D01*
X-457454Y-10979D01*
X-456915Y-9678D01*
Y-8270D01*
X-457454Y-6968D01*
X-458450Y-5973D01*
X-459751Y-5434D01*
X-461159D01*
X-462460Y-5973D01*
X-463179Y-6691D01*
X-463947Y-6860D01*
X-464716Y-6691D01*
X-465435Y-5973D01*
X-466736Y-5434D01*
X-468144D01*
X-469445Y-5973D01*
X-470164Y-6691D01*
X-470933Y-6860D01*
X-471574Y-6719D01*
X-472165Y-5582D01*
X-471764Y-4969D01*
X-471424Y-4629D01*
X-470885Y-3328D01*
Y-1919D01*
X-471424Y-618D01*
X-471764Y-278D01*
X-472306Y551D01*
X-471764Y1381D01*
X-471424Y1721D01*
X-470885Y3022D01*
Y4430D01*
X-471424Y5732D01*
X-472420Y6727D01*
X-473201Y7051D01*
Y8425D01*
X-472420Y8749D01*
X-471424Y9745D01*
X-470885Y11046D01*
Y12454D01*
X-471424Y13755D01*
X-471764Y14095D01*
X-472306Y14925D01*
X-471764Y15755D01*
X-471424Y16095D01*
X-470885Y17396D01*
Y18804D01*
X-471424Y20105D01*
X-471764Y20445D01*
X-472165Y21058D01*
X-471574Y22196D01*
X-470933Y22337D01*
X-470164Y22168D01*
X-469445Y21449D01*
X-468144Y20910D01*
X-466736D01*
X-465435Y21449D01*
X-464716Y22168D01*
X-463947Y22337D01*
X-463179Y22168D01*
X-462460Y21449D01*
X-461159Y20910D01*
X-459751D01*
X-458450Y21449D01*
X-457454Y22445D01*
X-456915Y23746D01*
Y25154D01*
X-457454Y26455D01*
X-457794Y26795D01*
X-458336Y27625D01*
X-457794Y28455D01*
X-457454Y28795D01*
X-456915Y30096D01*
Y31504D01*
X-457454Y32805D01*
X-457794Y33145D01*
X-458336Y33975D01*
X-457794Y34805D01*
X-457454Y35145D01*
X-456915Y36446D01*
Y37854D01*
X-457454Y39155D01*
X-458450Y40151D01*
X-459751Y40690D01*
D02*
G37*
G36*
X45643Y43298D02*
X44234D01*
X42933Y42759D01*
X41937Y41763D01*
X41398Y40462D01*
Y39053D01*
X41937Y37752D01*
X42933Y36757D01*
X44234Y36218D01*
X45643D01*
X46944Y36757D01*
X47940Y37752D01*
X48478Y39053D01*
Y40462D01*
X47940Y41763D01*
X46944Y42759D01*
X45643Y43298D01*
D02*
G37*
G36*
X468900Y50285D02*
X458900D01*
X457066Y50043D01*
X455358Y49335D01*
X453890Y48210D01*
X452765Y46742D01*
X452057Y45034D01*
X451815Y43200D01*
X452057Y41366D01*
X452765Y39658D01*
X453890Y38190D01*
X455358Y37064D01*
X457066Y36357D01*
X458900Y36115D01*
X468900D01*
X470734Y36357D01*
X472442Y37064D01*
X473910Y38190D01*
X475035Y39658D01*
X475743Y41366D01*
X475985Y43200D01*
X475743Y45034D01*
X475035Y46742D01*
X473910Y48210D01*
X472442Y49335D01*
X470734Y50043D01*
X468900Y50285D01*
D02*
G37*
G36*
X-306636Y41640D02*
X-308044D01*
X-309345Y41101D01*
X-310341Y40105D01*
X-310880Y38804D01*
Y37396D01*
X-310341Y36095D01*
X-309345Y35099D01*
X-308044Y34560D01*
X-306636D01*
X-305335Y35099D01*
X-304530Y35904D01*
X-303626Y35711D01*
X-303260Y35514D01*
Y35356D01*
X-302721Y34055D01*
X-301725Y33059D01*
X-300424Y32520D01*
X-299016D01*
X-297715Y33059D01*
X-296719Y34055D01*
X-296180Y35356D01*
Y36764D01*
X-296719Y38065D01*
X-297715Y39061D01*
X-299016Y39600D01*
X-300424D01*
X-301725Y39061D01*
X-302530Y38256D01*
X-303434Y38449D01*
X-303800Y38646D01*
Y38804D01*
X-304339Y40105D01*
X-305335Y41101D01*
X-306636Y41640D01*
D02*
G37*
G36*
X-45704Y38481D02*
X-47113D01*
X-48414Y37942D01*
X-49409Y36946D01*
X-49948Y35645D01*
Y34237D01*
X-49409Y32936D01*
X-48414Y31940D01*
X-47113Y31401D01*
X-45704D01*
X-44403Y31940D01*
X-43407Y32936D01*
X-42868Y34237D01*
Y35645D01*
X-43407Y36946D01*
X-44403Y37942D01*
X-45704Y38481D01*
D02*
G37*
G36*
X-138766Y36790D02*
X-140174D01*
X-141475Y36251D01*
X-142471Y35255D01*
X-143010Y33954D01*
Y32546D01*
X-142471Y31245D01*
X-141475Y30249D01*
X-140174Y29710D01*
X-138766D01*
X-137465Y30249D01*
X-136469Y31245D01*
X-135930Y32546D01*
Y33954D01*
X-136469Y35255D01*
X-137465Y36251D01*
X-138766Y36790D01*
D02*
G37*
G36*
X73094Y42910D02*
X71686D01*
X70385Y42371D01*
X69389Y41375D01*
X68850Y40074D01*
Y38666D01*
X69389Y37365D01*
X69729Y37025D01*
X70271Y36195D01*
X69729Y35365D01*
X69389Y35025D01*
X68850Y33724D01*
Y32316D01*
X69389Y31015D01*
X70385Y30019D01*
X71686Y29480D01*
X73094D01*
X74395Y30019D01*
X75391Y31015D01*
X75930Y32316D01*
Y33724D01*
X75391Y35025D01*
X75051Y35365D01*
X74509Y36195D01*
X75051Y37025D01*
X75391Y37365D01*
X75930Y38666D01*
Y40074D01*
X75391Y41375D01*
X74395Y42371D01*
X73094Y42910D01*
D02*
G37*
G36*
X-173286Y36560D02*
X-174694D01*
X-175995Y36021D01*
X-176991Y35025D01*
X-177530Y33724D01*
Y32316D01*
X-176991Y31015D01*
X-175995Y30019D01*
X-174694Y29480D01*
X-173286D01*
X-171985Y30019D01*
X-170989Y31015D01*
X-170450Y32316D01*
Y33724D01*
X-170989Y35025D01*
X-171985Y36021D01*
X-173286Y36560D01*
D02*
G37*
G36*
X-231706Y34540D02*
X-233114D01*
X-234415Y34001D01*
X-235411Y33005D01*
X-235950Y31704D01*
Y30296D01*
X-235411Y28995D01*
X-234415Y27999D01*
X-233114Y27460D01*
X-231706D01*
X-230405Y27999D01*
X-229409Y28995D01*
X-228870Y30296D01*
Y31704D01*
X-229409Y33005D01*
X-230405Y34001D01*
X-231706Y34540D01*
D02*
G37*
G36*
X-321756Y34540D02*
X-323164D01*
X-324465Y34001D01*
X-325461Y33005D01*
X-326000Y31704D01*
Y30296D01*
X-325461Y28995D01*
X-324465Y27999D01*
X-323164Y27460D01*
X-321756D01*
X-320455Y27999D01*
X-319459Y28995D01*
X-318920Y30296D01*
Y31704D01*
X-319459Y33005D01*
X-320455Y34001D01*
X-321756Y34540D01*
D02*
G37*
G36*
X-414217Y30547D02*
X-415625D01*
X-416927Y30008D01*
X-417922Y29012D01*
X-418461Y27711D01*
Y26303D01*
X-417922Y25002D01*
X-416927Y24006D01*
X-415625Y23467D01*
X-414217D01*
X-412916Y24006D01*
X-411920Y25002D01*
X-411381Y26303D01*
Y27711D01*
X-411920Y29012D01*
X-412916Y30008D01*
X-414217Y30547D01*
D02*
G37*
G36*
X-146616Y28940D02*
X-148024D01*
X-149325Y28401D01*
X-150321Y27405D01*
X-150860Y26104D01*
Y24696D01*
X-150321Y23395D01*
X-149325Y22399D01*
X-148024Y21860D01*
X-146616D01*
X-145315Y22399D01*
X-144319Y23395D01*
X-143780Y24696D01*
Y26104D01*
X-144319Y27405D01*
X-145315Y28401D01*
X-146616Y28940D01*
D02*
G37*
G36*
X-180906D02*
X-182314D01*
X-183615Y28401D01*
X-184611Y27405D01*
X-185150Y26104D01*
Y24696D01*
X-184611Y23395D01*
X-183615Y22399D01*
X-182314Y21860D01*
X-180906D01*
X-179605Y22399D01*
X-178609Y23395D01*
X-178070Y24696D01*
Y26104D01*
X-178609Y27405D01*
X-179605Y28401D01*
X-180906Y28940D01*
D02*
G37*
G36*
X-39667Y21306D02*
X-41075D01*
X-42376Y20767D01*
X-43372Y19771D01*
X-43730Y18908D01*
X-44636Y19284D01*
X-46045D01*
X-47346Y18745D01*
X-48341Y17749D01*
X-48880Y16448D01*
Y16313D01*
X-50065Y15701D01*
X-51366Y16240D01*
X-52774D01*
X-54075Y15701D01*
X-55071Y14705D01*
X-55610Y13404D01*
Y11996D01*
X-55492Y11710D01*
X-55864Y10440D01*
X-57165Y9901D01*
X-58161Y8905D01*
X-58700Y7604D01*
Y6196D01*
X-58161Y4895D01*
X-57165Y3899D01*
X-55864Y3360D01*
X-54456D01*
X-53155Y3899D01*
X-52159Y4895D01*
X-51620Y6196D01*
Y7604D01*
X-51739Y7890D01*
X-51366Y9160D01*
X-50065Y9699D01*
X-49069Y10695D01*
X-48530Y11996D01*
Y12131D01*
X-47346Y12743D01*
X-46045Y12204D01*
X-44636D01*
X-43335Y12743D01*
X-42339Y13738D01*
X-41982Y14601D01*
X-41075Y14226D01*
X-39667D01*
X-38366Y14765D01*
X-37370Y15761D01*
X-36831Y17062D01*
Y18470D01*
X-37370Y19771D01*
X-38366Y20767D01*
X-39667Y21306D01*
D02*
G37*
G36*
X-332116Y25450D02*
X-333524D01*
X-334825Y24911D01*
X-335821Y23915D01*
X-336360Y22614D01*
Y21206D01*
X-335821Y19905D01*
X-334825Y18909D01*
X-333524Y18370D01*
X-332116D01*
X-330815Y18909D01*
X-329819Y19905D01*
X-329280Y21206D01*
Y22614D01*
X-329819Y23915D01*
X-330815Y24911D01*
X-332116Y25450D01*
D02*
G37*
G36*
X109924Y20050D02*
X108516D01*
X107215Y19511D01*
X106219Y18515D01*
X105680Y17214D01*
Y15806D01*
X106219Y14505D01*
X107215Y13509D01*
X108516Y12970D01*
X109924D01*
X111225Y13509D01*
X112221Y14505D01*
X112760Y15806D01*
Y17214D01*
X112221Y18515D01*
X111225Y19511D01*
X109924Y20050D01*
D02*
G37*
G36*
X-290206Y19100D02*
X-291614D01*
X-292915Y18561D01*
X-293911Y17565D01*
X-294450Y16264D01*
Y14856D01*
X-293911Y13555D01*
X-292915Y12559D01*
X-291614Y12020D01*
X-290206D01*
X-288905Y12559D01*
X-287909Y13555D01*
X-287370Y14856D01*
Y16264D01*
X-287909Y17565D01*
X-288905Y18561D01*
X-290206Y19100D01*
D02*
G37*
G36*
X42597Y15207D02*
X41188D01*
X39887Y14668D01*
X38891Y13673D01*
X38353Y12371D01*
Y10963D01*
X38891Y9662D01*
X39887Y8666D01*
X41188Y8127D01*
X42597D01*
X43898Y8666D01*
X44894Y9662D01*
X45433Y10963D01*
Y12371D01*
X44894Y13673D01*
X43898Y14668D01*
X42597Y15207D01*
D02*
G37*
G36*
X296614Y4810D02*
X295206D01*
X293905Y4271D01*
X293370Y3736D01*
X292835Y4271D01*
X291534Y4810D01*
X290126D01*
X288825Y4271D01*
X287829Y3275D01*
X287290Y1974D01*
Y566D01*
X287829Y-735D01*
X288825Y-1731D01*
X290126Y-2270D01*
X291534D01*
X292835Y-1731D01*
X293370Y-1196D01*
X293905Y-1731D01*
X295206Y-2270D01*
X296614D01*
X297915Y-1731D01*
X298911Y-735D01*
X299450Y566D01*
Y1974D01*
X298911Y3275D01*
X297915Y4271D01*
X296614Y4810D01*
D02*
G37*
G36*
X454094Y8620D02*
X452686D01*
X451385Y8081D01*
X450389Y7085D01*
X449850Y5784D01*
Y4376D01*
X450389Y3075D01*
X451385Y2079D01*
X452686Y1540D01*
X454094D01*
X455395Y2079D01*
X456391Y3075D01*
X456930Y4376D01*
Y5784D01*
X456391Y7085D01*
X455395Y8081D01*
X454094Y8620D01*
D02*
G37*
G36*
X52774Y10616D02*
X51366D01*
X50065Y10077D01*
X49069Y9081D01*
X48530Y7780D01*
Y6372D01*
X48630Y6131D01*
X49043Y5059D01*
X47995Y4598D01*
X47751Y4497D01*
X46755Y3501D01*
X46216Y2200D01*
Y792D01*
X46755Y-509D01*
X47751Y-1505D01*
X49052Y-2044D01*
X50460D01*
X51761Y-1505D01*
X52757Y-509D01*
X53296Y792D01*
Y2200D01*
X53196Y2441D01*
X52783Y3513D01*
X53831Y3974D01*
X54075Y4075D01*
X55071Y5071D01*
X55610Y6372D01*
Y7780D01*
X55071Y9081D01*
X54075Y10077D01*
X52774Y10616D01*
D02*
G37*
G36*
X94967Y11305D02*
X92993D01*
X91087Y10794D01*
X89378Y9808D01*
X87983Y8412D01*
X86996Y6703D01*
X86485Y4797D01*
Y2823D01*
X86996Y917D01*
X87983Y-792D01*
X89378Y-2188D01*
X91087Y-3174D01*
X92993Y-3685D01*
X94967D01*
X96873Y-3174D01*
X98582Y-2188D01*
X99978Y-792D01*
X100964Y917D01*
X101475Y2823D01*
Y4797D01*
X100964Y6703D01*
X99978Y8412D01*
X98582Y9808D01*
X96873Y10794D01*
X94967Y11305D01*
D02*
G37*
G36*
X39684Y2000D02*
X38276D01*
X36975Y1461D01*
X35979Y465D01*
X35440Y-836D01*
Y-2244D01*
X35979Y-3545D01*
X36975Y-4541D01*
X38276Y-5080D01*
X39684D01*
X40985Y-4541D01*
X41981Y-3545D01*
X42520Y-2244D01*
Y-836D01*
X41981Y465D01*
X40985Y1461D01*
X39684Y2000D01*
D02*
G37*
G36*
X467544Y85D02*
X466136D01*
X464835Y-454D01*
X463839Y-1449D01*
X463300Y-2751D01*
Y-4159D01*
X463839Y-5460D01*
X464835Y-6456D01*
X466136Y-6995D01*
X467544D01*
X468845Y-6456D01*
X469841Y-5460D01*
X470380Y-4159D01*
Y-2751D01*
X469841Y-1449D01*
X468845Y-454D01*
X467544Y85D01*
D02*
G37*
G36*
X480538Y-1314D02*
X479130D01*
X477829Y-1853D01*
X476833Y-2849D01*
X476294Y-4150D01*
Y-5558D01*
X476833Y-6859D01*
X477829Y-7855D01*
X479130Y-8394D01*
X480538D01*
X481839Y-7855D01*
X482835Y-6859D01*
X483374Y-5558D01*
Y-4150D01*
X482835Y-2849D01*
X481839Y-1853D01*
X480538Y-1314D01*
D02*
G37*
G36*
X-41206Y3422D02*
X-42614D01*
X-43915Y2883D01*
X-44911Y1887D01*
X-45450Y586D01*
Y-822D01*
X-44911Y-2123D01*
X-43915Y-3119D01*
X-44283Y-4341D01*
X-44424Y-4680D01*
Y-6088D01*
X-43885Y-7389D01*
X-42889Y-8385D01*
X-41588Y-8924D01*
X-40180D01*
X-38878Y-8385D01*
X-37883Y-7389D01*
X-37344Y-6088D01*
Y-4680D01*
X-37883Y-3379D01*
X-38878Y-2383D01*
X-38510Y-1161D01*
X-38370Y-822D01*
Y586D01*
X-38909Y1887D01*
X-39905Y2883D01*
X-41206Y3422D01*
D02*
G37*
G36*
X400754Y-2810D02*
X399346D01*
X398045Y-3349D01*
X397049Y-4345D01*
X396510Y-5646D01*
Y-7054D01*
X397049Y-8355D01*
X398045Y-9351D01*
X399346Y-9890D01*
X400754D01*
X402055Y-9351D01*
X403051Y-8355D01*
X403590Y-7054D01*
Y-5646D01*
X403051Y-4345D01*
X402055Y-3349D01*
X400754Y-2810D01*
D02*
G37*
G36*
X49581Y-10063D02*
X48172D01*
X46871Y-10602D01*
X45876Y-11598D01*
X45337Y-12899D01*
Y-14307D01*
X45876Y-15608D01*
X46871Y-16604D01*
X48172Y-17143D01*
X49581D01*
X50882Y-16604D01*
X51878Y-15608D01*
X52417Y-14307D01*
Y-12899D01*
X51878Y-11598D01*
X50882Y-10602D01*
X49581Y-10063D01*
D02*
G37*
G36*
X-39620Y-11935D02*
X-41029D01*
X-42330Y-12474D01*
X-43326Y-13470D01*
X-43865Y-14771D01*
Y-16180D01*
X-43326Y-17481D01*
X-42330Y-18477D01*
X-41029Y-19016D01*
X-39620D01*
X-38319Y-18477D01*
X-37324Y-17481D01*
X-36785Y-16180D01*
Y-14771D01*
X-37324Y-13470D01*
X-38319Y-12474D01*
X-39620Y-11935D01*
D02*
G37*
G36*
X-395536Y-14240D02*
X-396944D01*
X-398245Y-14779D01*
X-399241Y-15775D01*
X-399780Y-17076D01*
Y-18484D01*
X-399241Y-19785D01*
X-398245Y-20781D01*
X-396944Y-21320D01*
X-395536D01*
X-394235Y-20781D01*
X-393239Y-19785D01*
X-392700Y-18484D01*
Y-17076D01*
X-393239Y-15775D01*
X-394235Y-14779D01*
X-395536Y-14240D01*
D02*
G37*
G36*
X-152966Y-20590D02*
X-154374D01*
X-155675Y-21129D01*
X-156671Y-22125D01*
X-157210Y-23426D01*
Y-23885D01*
X-158480Y-24138D01*
X-158834Y-23284D01*
X-159829Y-22289D01*
X-161130Y-21750D01*
X-162539D01*
X-163840Y-22289D01*
X-164836Y-23284D01*
X-165375Y-24585D01*
Y-25994D01*
X-164836Y-27295D01*
X-164744Y-27386D01*
X-165635Y-28287D01*
X-166936Y-27748D01*
X-168344D01*
X-169645Y-28287D01*
X-170641Y-29283D01*
X-171180Y-30584D01*
Y-31993D01*
X-170641Y-33294D01*
X-169645Y-34290D01*
X-168344Y-34829D01*
X-166936D01*
X-165635Y-34290D01*
X-164639Y-33294D01*
X-164100Y-31993D01*
Y-30584D01*
X-164639Y-29283D01*
X-164730Y-29192D01*
X-163840Y-28291D01*
X-162539Y-28830D01*
X-161130D01*
X-159829Y-28291D01*
X-158834Y-27295D01*
X-158295Y-25994D01*
Y-25534D01*
X-157025Y-25282D01*
X-156671Y-26135D01*
X-155675Y-27131D01*
X-154374Y-27670D01*
X-152966D01*
X-151665Y-27131D01*
X-150669Y-26135D01*
X-150130Y-24834D01*
Y-23426D01*
X-150669Y-22125D01*
X-151665Y-21129D01*
X-152966Y-20590D01*
D02*
G37*
G36*
X-443796Y-18050D02*
X-445204D01*
X-446505Y-18589D01*
X-447501Y-19585D01*
X-448040Y-20886D01*
Y-22294D01*
X-447501Y-23595D01*
X-446505Y-24591D01*
X-445204Y-25130D01*
X-443796D01*
X-442495Y-24591D01*
X-441499Y-23595D01*
X-440960Y-22294D01*
Y-20886D01*
X-441499Y-19585D01*
X-442495Y-18589D01*
X-443796Y-18050D01*
D02*
G37*
G36*
X-323610Y-18975D02*
X-325019D01*
X-326320Y-19514D01*
X-327316Y-20510D01*
X-327855Y-21811D01*
Y-23219D01*
X-327316Y-24520D01*
X-326320Y-25516D01*
X-325019Y-26055D01*
X-323610D01*
X-322309Y-25516D01*
X-321314Y-24520D01*
X-320775Y-23219D01*
Y-21811D01*
X-321314Y-20510D01*
X-322309Y-19514D01*
X-323610Y-18975D01*
D02*
G37*
G36*
X134820Y-25442D02*
X133412D01*
X132111Y-25981D01*
X131771Y-26321D01*
X130941Y-26863D01*
X130112Y-26321D01*
X129772Y-25981D01*
X128470Y-25442D01*
X127062D01*
X125761Y-25981D01*
X125421Y-26321D01*
X124591Y-26863D01*
X123762Y-26321D01*
X123422Y-25981D01*
X122121Y-25442D01*
X120712D01*
X119411Y-25981D01*
X119071Y-26321D01*
X118241Y-26863D01*
X117412Y-26321D01*
X117072Y-25981D01*
X115771Y-25442D01*
X114362D01*
X113061Y-25981D01*
X112721Y-26321D01*
X111891Y-26863D01*
X111062Y-26321D01*
X110722Y-25981D01*
X109420Y-25442D01*
X108012D01*
X106711Y-25981D01*
X105715Y-26977D01*
X105176Y-28278D01*
Y-29686D01*
X105715Y-30987D01*
X106434Y-31706D01*
X106603Y-32474D01*
X106434Y-33243D01*
X105715Y-33962D01*
X105176Y-35263D01*
Y-36671D01*
X105715Y-37972D01*
X106434Y-38691D01*
X106603Y-39459D01*
X106434Y-40228D01*
X105715Y-40947D01*
X105176Y-42248D01*
Y-43656D01*
X105715Y-44957D01*
X106711Y-45953D01*
X107251Y-46177D01*
Y-47551D01*
X106533Y-47849D01*
X105537Y-48845D01*
X104998Y-50146D01*
Y-51554D01*
X105537Y-52855D01*
X106256Y-53574D01*
X106425Y-54342D01*
X106256Y-55111D01*
X105537Y-55830D01*
X104998Y-57131D01*
Y-58539D01*
X105537Y-59840D01*
X106256Y-60559D01*
X106425Y-61328D01*
X106256Y-62096D01*
X105537Y-62815D01*
X104998Y-64116D01*
Y-65524D01*
X105537Y-66825D01*
X106533Y-67821D01*
X107834Y-68360D01*
X109242D01*
X110543Y-67821D01*
X110884Y-67481D01*
X111713Y-66939D01*
X112543Y-67481D01*
X112883Y-67821D01*
X114184Y-68360D01*
X115592D01*
X116893Y-67821D01*
X117233Y-67481D01*
X118063Y-66939D01*
X118893Y-67481D01*
X119233Y-67821D01*
X120534Y-68360D01*
X121942D01*
X123243Y-67821D01*
X123583Y-67481D01*
X124413Y-66939D01*
X125243Y-67481D01*
X125583Y-67821D01*
X126884Y-68360D01*
X128292D01*
X129593Y-67821D01*
X129934Y-67481D01*
X130763Y-66939D01*
X131593Y-67481D01*
X131933Y-67821D01*
X133234Y-68360D01*
X134642D01*
X135943Y-67821D01*
X136939Y-66825D01*
X137478Y-65524D01*
Y-64116D01*
X136939Y-62815D01*
X136221Y-62096D01*
X136052Y-61328D01*
X136221Y-60559D01*
X136939Y-59840D01*
X137478Y-58539D01*
Y-57131D01*
X136939Y-55830D01*
X135943Y-54834D01*
X134642Y-54295D01*
X133234D01*
X131933Y-54834D01*
X131593Y-55174D01*
X130763Y-55716D01*
X129934Y-55174D01*
X129593Y-54834D01*
X128292Y-54295D01*
X126884D01*
X125583Y-54834D01*
X125243Y-55174D01*
X124630Y-55575D01*
X123492Y-54984D01*
X123351Y-54342D01*
X123520Y-53574D01*
X124239Y-52855D01*
X124778Y-51554D01*
Y-50146D01*
X124239Y-48845D01*
X123243Y-47849D01*
X122703Y-47625D01*
Y-46251D01*
X123422Y-45953D01*
X124417Y-44957D01*
X124956Y-43656D01*
Y-42248D01*
X124417Y-40947D01*
X123699Y-40228D01*
X123530Y-39459D01*
X123671Y-38818D01*
X124808Y-38227D01*
X125421Y-38628D01*
X125761Y-38968D01*
X127062Y-39507D01*
X128470D01*
X129772Y-38968D01*
X130112Y-38628D01*
X130941Y-38086D01*
X131771Y-38628D01*
X132111Y-38968D01*
X133412Y-39507D01*
X134820D01*
X136122Y-38968D01*
X137117Y-37972D01*
X137656Y-36671D01*
Y-35263D01*
X137117Y-33962D01*
X136399Y-33243D01*
X136230Y-32474D01*
X136399Y-31706D01*
X137117Y-30987D01*
X137656Y-29686D01*
Y-28278D01*
X137117Y-26977D01*
X136122Y-25981D01*
X134820Y-25442D01*
D02*
G37*
G36*
X-310501Y-20845D02*
X-311909D01*
X-313210Y-21384D01*
X-314206Y-22380D01*
X-314745Y-23681D01*
Y-25089D01*
X-314206Y-26391D01*
X-313210Y-27386D01*
X-311909Y-27925D01*
X-310501D01*
X-309200Y-27386D01*
X-308204Y-26391D01*
X-307665Y-25089D01*
Y-23681D01*
X-308204Y-22380D01*
X-309200Y-21384D01*
X-310501Y-20845D01*
D02*
G37*
G36*
X-125026Y-21860D02*
X-126434D01*
X-127735Y-22399D01*
X-128731Y-23395D01*
X-129270Y-24696D01*
Y-26104D01*
X-128731Y-27405D01*
X-127735Y-28401D01*
X-126434Y-28940D01*
X-125026D01*
X-123725Y-28401D01*
X-122729Y-27405D01*
X-122190Y-26104D01*
Y-24696D01*
X-122729Y-23395D01*
X-123725Y-22399D01*
X-125026Y-21860D01*
D02*
G37*
G36*
X-379106Y-22810D02*
X-380514D01*
X-381815Y-23349D01*
X-382811Y-24345D01*
X-383350Y-25646D01*
Y-27054D01*
X-382811Y-28355D01*
X-381815Y-29351D01*
X-380514Y-29890D01*
X-379106D01*
X-377805Y-29351D01*
X-376809Y-28355D01*
X-376270Y-27054D01*
Y-25646D01*
X-376809Y-24345D01*
X-377805Y-23349D01*
X-379106Y-22810D01*
D02*
G37*
G36*
X192519Y-24434D02*
X191111D01*
X189810Y-24973D01*
X188814Y-25969D01*
X188275Y-27270D01*
Y-28678D01*
X188814Y-29979D01*
X189810Y-30975D01*
X191111Y-31514D01*
X192519D01*
X193820Y-30975D01*
X194816Y-29979D01*
X195355Y-28678D01*
Y-27270D01*
X194816Y-25969D01*
X193820Y-24973D01*
X192519Y-24434D01*
D02*
G37*
G36*
X-264048Y-25252D02*
X-265456D01*
X-266757Y-25791D01*
X-267753Y-26786D01*
X-268292Y-28087D01*
Y-29496D01*
X-267753Y-30797D01*
X-266757Y-31793D01*
X-265456Y-32332D01*
X-264048D01*
X-262747Y-31793D01*
X-261751Y-30797D01*
X-261212Y-29496D01*
Y-28087D01*
X-261751Y-26786D01*
X-262747Y-25791D01*
X-264048Y-25252D01*
D02*
G37*
G36*
X381197Y-26178D02*
X379788D01*
X378487Y-26717D01*
X377491Y-27712D01*
X376952Y-29014D01*
Y-30422D01*
X377491Y-31723D01*
X378487Y-32719D01*
X379788Y-33258D01*
X381197D01*
X382498Y-32719D01*
X383493Y-31723D01*
X384032Y-30422D01*
Y-29014D01*
X383493Y-27712D01*
X382498Y-26717D01*
X381197Y-26178D01*
D02*
G37*
G36*
X-132292Y-28210D02*
X-133700D01*
X-135001Y-28749D01*
X-135997Y-29745D01*
X-136536Y-31046D01*
Y-32454D01*
X-135997Y-33755D01*
X-135001Y-34751D01*
X-133700Y-35290D01*
X-132292D01*
X-130991Y-34751D01*
X-129995Y-33755D01*
X-129456Y-32454D01*
Y-31046D01*
X-129995Y-29745D01*
X-130991Y-28749D01*
X-132292Y-28210D01*
D02*
G37*
G36*
X-314336Y-29160D02*
X-315744D01*
X-317045Y-29699D01*
X-318041Y-30695D01*
X-318580Y-31996D01*
Y-33404D01*
X-318041Y-34705D01*
X-317045Y-35701D01*
X-315744Y-36240D01*
X-314336D01*
X-313035Y-35701D01*
X-312039Y-34705D01*
X-311500Y-33404D01*
Y-31996D01*
X-312039Y-30695D01*
X-313035Y-29699D01*
X-314336Y-29160D01*
D02*
G37*
G36*
X50234Y-35830D02*
X48826D01*
X47525Y-36369D01*
X47185Y-36709D01*
X46355Y-37251D01*
X45525Y-36709D01*
X45185Y-36369D01*
X43884Y-35830D01*
X42476D01*
X41175Y-36369D01*
X40179Y-37365D01*
X39640Y-38666D01*
Y-40074D01*
X40179Y-41375D01*
X41175Y-42371D01*
X42476Y-42910D01*
X43884D01*
X45185Y-42371D01*
X45525Y-42031D01*
X46355Y-41489D01*
X47185Y-42031D01*
X47525Y-42371D01*
X48826Y-42910D01*
X50234D01*
X51535Y-42371D01*
X52531Y-41375D01*
X53070Y-40074D01*
Y-38666D01*
X52531Y-37365D01*
X51535Y-36369D01*
X50234Y-35830D01*
D02*
G37*
G36*
X419804Y-33290D02*
X418396D01*
X417095Y-33829D01*
X416099Y-34825D01*
X415560Y-36126D01*
Y-37534D01*
X416099Y-38835D01*
X417095Y-39831D01*
X418396Y-40370D01*
X419804D01*
X421105Y-39831D01*
X422101Y-38835D01*
X422640Y-37534D01*
Y-36126D01*
X422101Y-34825D01*
X421105Y-33829D01*
X419804Y-33290D01*
D02*
G37*
G36*
X409644D02*
X408236D01*
X406935Y-33829D01*
X405939Y-34825D01*
X405400Y-36126D01*
Y-37534D01*
X405939Y-38835D01*
X406935Y-39831D01*
X408236Y-40370D01*
X409644D01*
X410945Y-39831D01*
X411941Y-38835D01*
X412480Y-37534D01*
Y-36126D01*
X411941Y-34825D01*
X410945Y-33829D01*
X409644Y-33290D01*
D02*
G37*
G36*
X394404D02*
X392996D01*
X391695Y-33829D01*
X390699Y-34825D01*
X390160Y-36126D01*
Y-37534D01*
X390699Y-38835D01*
X391695Y-39831D01*
X392996Y-40370D01*
X394404D01*
X395705Y-39831D01*
X396701Y-38835D01*
X397240Y-37534D01*
Y-36126D01*
X396701Y-34825D01*
X395705Y-33829D01*
X394404Y-33290D01*
D02*
G37*
G36*
X371544D02*
X370136D01*
X368835Y-33829D01*
X367839Y-34825D01*
X367300Y-36126D01*
Y-37534D01*
X367839Y-38835D01*
X368835Y-39831D01*
X370136Y-40370D01*
X371544D01*
X372845Y-39831D01*
X373841Y-38835D01*
X374380Y-37534D01*
Y-36126D01*
X373841Y-34825D01*
X372845Y-33829D01*
X371544Y-33290D01*
D02*
G37*
G36*
X59124Y-35830D02*
X57716D01*
X56415Y-36369D01*
X55419Y-37365D01*
X54880Y-38666D01*
Y-40074D01*
X55419Y-41375D01*
X56415Y-42371D01*
X57716Y-42910D01*
X59124D01*
X60425Y-42371D01*
X61421Y-41375D01*
X61960Y-40074D01*
Y-38666D01*
X61421Y-37365D01*
X60425Y-36369D01*
X59124Y-35830D01*
D02*
G37*
G36*
X-8903Y-35019D02*
X-10311D01*
X-11612Y-35558D01*
X-12608Y-36554D01*
X-13147Y-37855D01*
Y-39263D01*
X-12608Y-40564D01*
X-11612Y-41560D01*
X-10311Y-42099D01*
X-8903D01*
X-8556Y-41956D01*
X-7357Y-41666D01*
X-6361Y-42661D01*
X-5060Y-43200D01*
X-3652D01*
X-2351Y-42661D01*
X-1800Y-42111D01*
X-1695Y-42006D01*
X-619Y-42725D01*
X-666Y-42839D01*
X-903Y-43412D01*
Y-44820D01*
X-364Y-46121D01*
X632Y-47117D01*
X1933Y-47656D01*
X3341D01*
X4642Y-47117D01*
X5638Y-46121D01*
X6177Y-44820D01*
Y-43412D01*
X5638Y-42111D01*
X4642Y-41115D01*
X3341Y-40576D01*
X1933D01*
X632Y-41115D01*
X81Y-41665D01*
X-24Y-41770D01*
X-1100Y-41051D01*
X-1053Y-40937D01*
X-816Y-40364D01*
Y-38956D01*
X-1355Y-37655D01*
X-2351Y-36659D01*
X-3652Y-36120D01*
X-5060D01*
X-5360Y-36244D01*
X-6606Y-36554D01*
X-7602Y-35558D01*
X-8903Y-35019D01*
D02*
G37*
G36*
X35469Y-41415D02*
X34061D01*
X32759Y-41954D01*
X31764Y-42950D01*
X31225Y-44251D01*
Y-45659D01*
X31764Y-46961D01*
X32759Y-47956D01*
X34061Y-48495D01*
X35469D01*
X36770Y-47956D01*
X37766Y-46961D01*
X38305Y-45659D01*
Y-44251D01*
X37766Y-42950D01*
X36770Y-41954D01*
X35469Y-41415D01*
D02*
G37*
G36*
X468900Y-36115D02*
X458900D01*
X457066Y-36357D01*
X455358Y-37064D01*
X453890Y-38190D01*
X452765Y-39658D01*
X452057Y-41366D01*
X451815Y-43200D01*
X452057Y-45034D01*
X452765Y-46742D01*
X453890Y-48210D01*
X455358Y-49335D01*
X457066Y-50043D01*
X458900Y-50285D01*
X468900D01*
X470734Y-50043D01*
X472442Y-49335D01*
X473910Y-48210D01*
X475035Y-46742D01*
X475743Y-45034D01*
X475985Y-43200D01*
X475743Y-41366D01*
X475035Y-39658D01*
X473910Y-38190D01*
X472442Y-37064D01*
X470734Y-36357D01*
X468900Y-36115D01*
D02*
G37*
G36*
X-50096Y-47260D02*
X-51504D01*
X-52805Y-47799D01*
X-53801Y-48795D01*
X-54340Y-50096D01*
Y-51504D01*
X-53801Y-52805D01*
X-52805Y-53801D01*
X-51504Y-54340D01*
X-50096D01*
X-48795Y-53801D01*
X-47799Y-52805D01*
X-47260Y-51504D01*
Y-50096D01*
X-47799Y-48795D01*
X-48795Y-47799D01*
X-50096Y-47260D01*
D02*
G37*
G36*
X-381646Y-48210D02*
X-383054D01*
X-384355Y-48749D01*
X-385351Y-49745D01*
X-385890Y-51046D01*
Y-52454D01*
X-385351Y-53755D01*
X-384355Y-54751D01*
X-383054Y-55290D01*
X-381646D01*
X-380345Y-54751D01*
X-379349Y-53755D01*
X-378810Y-52454D01*
Y-51046D01*
X-379349Y-49745D01*
X-380345Y-48749D01*
X-381646Y-48210D01*
D02*
G37*
G36*
X-83116Y-51070D02*
X-84524D01*
X-85825Y-51609D01*
X-86821Y-52605D01*
X-87360Y-53906D01*
Y-55314D01*
X-86821Y-56615D01*
X-85825Y-57611D01*
X-84524Y-58150D01*
X-83116D01*
X-81815Y-57611D01*
X-80819Y-56615D01*
X-80280Y-55314D01*
Y-53906D01*
X-80819Y-52605D01*
X-81815Y-51609D01*
X-83116Y-51070D01*
D02*
G37*
G36*
X425580Y-50670D02*
X416560D01*
Y-59690D01*
X425580D01*
Y-50670D01*
D02*
G37*
G36*
X391245D02*
X391160D01*
Y-59690D01*
X400180D01*
Y-59605D01*
X399479Y-56988D01*
X398124Y-54642D01*
X396208Y-52726D01*
X393862Y-51371D01*
X391245Y-50670D01*
D02*
G37*
G36*
X414020D02*
X405000D01*
Y-59690D01*
X414020D01*
Y-50670D01*
D02*
G37*
G36*
X388620D02*
X388535D01*
X385918Y-51371D01*
X383572Y-52726D01*
X381656Y-54642D01*
X380301Y-56988D01*
X379600Y-59605D01*
Y-59690D01*
X388620D01*
Y-50670D01*
D02*
G37*
G36*
X-316796Y-53610D02*
X-318204D01*
X-319505Y-54149D01*
X-320501Y-55145D01*
X-321040Y-56446D01*
Y-57854D01*
X-320501Y-59155D01*
X-319505Y-60151D01*
X-318204Y-60690D01*
X-316796D01*
X-315495Y-60151D01*
X-314499Y-59155D01*
X-313960Y-57854D01*
Y-56446D01*
X-314499Y-55145D01*
X-315495Y-54149D01*
X-316796Y-53610D01*
D02*
G37*
G36*
X447744Y-57420D02*
X446336D01*
X445035Y-57959D01*
X444039Y-58955D01*
X443500Y-60256D01*
Y-61664D01*
X444039Y-62965D01*
X445035Y-63961D01*
X446336Y-64500D01*
X447744D01*
X449045Y-63961D01*
X450041Y-62965D01*
X450580Y-61664D01*
Y-60256D01*
X450041Y-58955D01*
X449045Y-57959D01*
X447744Y-57420D01*
D02*
G37*
G36*
X425580Y-62230D02*
X416560D01*
Y-71250D01*
X425580D01*
Y-62230D01*
D02*
G37*
G36*
X414020D02*
X405000D01*
Y-71250D01*
X414020D01*
Y-62230D01*
D02*
G37*
G36*
X400180D02*
X391160D01*
Y-71250D01*
X391245D01*
X393862Y-70549D01*
X396208Y-69194D01*
X398124Y-67278D01*
X399479Y-64932D01*
X400180Y-62315D01*
Y-62230D01*
D02*
G37*
G36*
X388620D02*
X379600D01*
Y-62315D01*
X380301Y-64932D01*
X381656Y-67278D01*
X383572Y-69194D01*
X385918Y-70549D01*
X388535Y-71250D01*
X388620D01*
Y-62230D01*
D02*
G37*
G36*
X-191066Y-66310D02*
X-192474D01*
X-193775Y-66849D01*
X-194771Y-67845D01*
X-195310Y-69146D01*
Y-70554D01*
X-194771Y-71855D01*
X-193775Y-72851D01*
X-192474Y-73390D01*
X-191066D01*
X-189765Y-72851D01*
X-188769Y-71855D01*
X-188230Y-70554D01*
Y-69146D01*
X-188769Y-67845D01*
X-189765Y-66849D01*
X-191066Y-66310D01*
D02*
G37*
G36*
X-203766D02*
X-205174D01*
X-206475Y-66849D01*
X-207471Y-67845D01*
X-208010Y-69146D01*
Y-70554D01*
X-207471Y-71855D01*
X-206475Y-72851D01*
X-205174Y-73390D01*
X-203766D01*
X-202465Y-72851D01*
X-201469Y-71855D01*
X-200930Y-70554D01*
Y-69146D01*
X-201469Y-67845D01*
X-202465Y-66849D01*
X-203766Y-66310D01*
D02*
G37*
G36*
X94684Y-70120D02*
X93276D01*
X91975Y-70659D01*
X90979Y-71655D01*
X90440Y-72956D01*
Y-74364D01*
X90979Y-75665D01*
X91975Y-76661D01*
X93276Y-77200D01*
X94684D01*
X95985Y-76661D01*
X96981Y-75665D01*
X97520Y-74364D01*
Y-72956D01*
X96981Y-71655D01*
X95985Y-70659D01*
X94684Y-70120D01*
D02*
G37*
G36*
X-142806Y-71390D02*
X-144214D01*
X-145515Y-71929D01*
X-146511Y-72925D01*
X-147050Y-74226D01*
Y-75634D01*
X-146511Y-76935D01*
X-145515Y-77931D01*
X-144214Y-78470D01*
X-142806D01*
X-141505Y-77931D01*
X-140509Y-76935D01*
X-139970Y-75634D01*
Y-74226D01*
X-140509Y-72925D01*
X-141505Y-71929D01*
X-142806Y-71390D01*
D02*
G37*
G36*
X192474Y-72660D02*
X191066D01*
X189765Y-73199D01*
X188769Y-74195D01*
X188230Y-75496D01*
Y-76904D01*
X188769Y-78205D01*
X189765Y-79201D01*
X191066Y-79740D01*
X192474D01*
X193775Y-79201D01*
X194771Y-78205D01*
X195310Y-76904D01*
Y-75496D01*
X194771Y-74195D01*
X193775Y-73199D01*
X192474Y-72660D01*
D02*
G37*
G36*
X-158046D02*
X-159454D01*
X-160755Y-73199D01*
X-161751Y-74195D01*
X-162290Y-75496D01*
Y-76904D01*
X-161751Y-78205D01*
X-160755Y-79201D01*
X-159454Y-79740D01*
X-158046D01*
X-156745Y-79201D01*
X-155749Y-78205D01*
X-155210Y-76904D01*
Y-75496D01*
X-155749Y-74195D01*
X-156745Y-73199D01*
X-158046Y-72660D01*
D02*
G37*
G36*
X7324Y-52055D02*
X5916D01*
X4615Y-52593D01*
X3619Y-53589D01*
X3080Y-54890D01*
Y-56299D01*
X3619Y-57600D01*
X4615Y-58596D01*
X5916Y-59134D01*
X6453D01*
X6796Y-59665D01*
X7085Y-60405D01*
X6620Y-61526D01*
Y-62934D01*
X7159Y-64235D01*
X8155Y-65231D01*
X8325Y-65302D01*
X9160Y-66606D01*
Y-68014D01*
X9699Y-69315D01*
X10695Y-70311D01*
X10865Y-70382D01*
X11700Y-71686D01*
Y-73094D01*
X12239Y-74395D01*
X13235Y-75391D01*
X13405Y-75462D01*
X14240Y-76766D01*
Y-78174D01*
X14779Y-79475D01*
X15775Y-80471D01*
X17076Y-81010D01*
X18484D01*
X19785Y-80471D01*
X20781Y-79475D01*
X21320Y-78174D01*
Y-76766D01*
X20781Y-75465D01*
X19785Y-74469D01*
X19614Y-74398D01*
X18780Y-73094D01*
Y-71686D01*
X18241Y-70385D01*
X17245Y-69389D01*
X17075Y-69318D01*
X16240Y-68014D01*
Y-66606D01*
X15701Y-65305D01*
X14705Y-64309D01*
X14534Y-64238D01*
X13700Y-62934D01*
Y-61526D01*
X13161Y-60225D01*
X12165Y-59229D01*
X10864Y-58690D01*
X10327D01*
X9984Y-58160D01*
X9696Y-57420D01*
X10160Y-56299D01*
Y-54890D01*
X9621Y-53589D01*
X8625Y-52593D01*
X7324Y-52055D01*
D02*
G37*
G36*
X43529Y-75555D02*
X42121D01*
X40820Y-76094D01*
X39824Y-77090D01*
X39285Y-78391D01*
Y-79799D01*
X39824Y-81101D01*
X40820Y-82096D01*
X42121Y-82635D01*
X43529D01*
X44830Y-82096D01*
X45826Y-81101D01*
X46365Y-79799D01*
Y-78391D01*
X45826Y-77090D01*
X44830Y-76094D01*
X43529Y-75555D01*
D02*
G37*
G36*
X-68231D02*
X-69639D01*
X-70940Y-76094D01*
X-71936Y-77090D01*
X-72475Y-78391D01*
Y-79799D01*
X-71936Y-81101D01*
X-70940Y-82096D01*
X-69639Y-82635D01*
X-68231D01*
X-66930Y-82096D01*
X-65934Y-81101D01*
X-65395Y-79799D01*
Y-78391D01*
X-65934Y-77090D01*
X-66930Y-76094D01*
X-68231Y-75555D01*
D02*
G37*
G36*
X-403440Y-88373D02*
X-404849D01*
X-406150Y-88912D01*
X-407146Y-89908D01*
X-407684Y-91209D01*
Y-92617D01*
X-407146Y-93918D01*
X-406150Y-94914D01*
X-404849Y-95453D01*
X-403440D01*
X-402139Y-94914D01*
X-401143Y-93918D01*
X-400604Y-92617D01*
Y-91209D01*
X-401143Y-89908D01*
X-402139Y-88912D01*
X-403440Y-88373D01*
D02*
G37*
G36*
X-320686Y-88850D02*
X-322094D01*
X-323395Y-89389D01*
X-324391Y-90385D01*
X-324930Y-91686D01*
Y-93094D01*
X-324391Y-94395D01*
X-323395Y-95391D01*
X-322094Y-95930D01*
X-320686D01*
X-319385Y-95391D01*
X-318389Y-94395D01*
X-317850Y-93094D01*
Y-91686D01*
X-318389Y-90385D01*
X-319385Y-89389D01*
X-320686Y-88850D01*
D02*
G37*
G36*
X386165Y-87500D02*
X386080D01*
Y-96520D01*
X395100D01*
Y-96435D01*
X394399Y-93818D01*
X393044Y-91472D01*
X391128Y-89556D01*
X388782Y-88201D01*
X386165Y-87500D01*
D02*
G37*
G36*
X-419032Y-87630D02*
X-419100D01*
Y-96520D01*
X-410210D01*
Y-96452D01*
X-410902Y-93868D01*
X-412240Y-91552D01*
X-414132Y-89660D01*
X-416448Y-88322D01*
X-419032Y-87630D01*
D02*
G37*
G36*
X-421640D02*
X-421708D01*
X-424292Y-88322D01*
X-426608Y-89660D01*
X-428500Y-91552D01*
X-429838Y-93868D01*
X-430530Y-96452D01*
Y-96520D01*
X-421640D01*
Y-87630D01*
D02*
G37*
G36*
X383540Y-87500D02*
X383455D01*
X380838Y-88201D01*
X378492Y-89556D01*
X376576Y-91472D01*
X375221Y-93818D01*
X374520Y-96435D01*
Y-96520D01*
X383540D01*
Y-87500D01*
D02*
G37*
G36*
X-465706Y-84706D02*
X-484254D01*
Y-103254D01*
X-465706D01*
Y-84706D01*
D02*
G37*
G36*
X-389266Y-97740D02*
X-390674D01*
X-391975Y-98279D01*
X-392971Y-99275D01*
X-393510Y-100576D01*
Y-101984D01*
X-392971Y-103285D01*
X-391975Y-104281D01*
X-390674Y-104820D01*
X-389266D01*
X-387965Y-104281D01*
X-386969Y-103285D01*
X-386430Y-101984D01*
Y-100576D01*
X-386969Y-99275D01*
X-387965Y-98279D01*
X-389266Y-97740D01*
D02*
G37*
G36*
X-410210Y-99060D02*
X-419100D01*
Y-107950D01*
X-419032D01*
X-416448Y-107258D01*
X-414132Y-105920D01*
X-412240Y-104028D01*
X-410902Y-101712D01*
X-410210Y-99128D01*
Y-99060D01*
D02*
G37*
G36*
X-421640D02*
X-430530D01*
Y-99128D01*
X-429838Y-101712D01*
X-428500Y-104028D01*
X-426608Y-105920D01*
X-424292Y-107258D01*
X-421708Y-107950D01*
X-421640D01*
Y-99060D01*
D02*
G37*
G36*
X395100D02*
X386080D01*
Y-108080D01*
X386165D01*
X388782Y-107379D01*
X391128Y-106024D01*
X393044Y-104108D01*
X394399Y-101762D01*
X395100Y-99145D01*
Y-99060D01*
D02*
G37*
G36*
X383540D02*
X374520D01*
Y-99145D01*
X375221Y-101762D01*
X376576Y-104108D01*
X378492Y-106024D01*
X380838Y-107379D01*
X383455Y-108080D01*
X383540D01*
Y-99060D01*
D02*
G37*
G36*
X255974Y-92980D02*
X254566D01*
X253265Y-93519D01*
X252269Y-94515D01*
X251730Y-95816D01*
Y-97224D01*
X252269Y-98525D01*
X252609Y-98865D01*
X253151Y-99695D01*
X252609Y-100525D01*
X252269Y-100865D01*
X251730Y-102166D01*
Y-103574D01*
X252269Y-104875D01*
X252609Y-105215D01*
X253151Y-106045D01*
X252609Y-106875D01*
X252269Y-107215D01*
X251730Y-108516D01*
Y-109924D01*
X252269Y-111225D01*
X253265Y-112221D01*
X254566Y-112760D01*
X255974D01*
X257275Y-112221D01*
X257615Y-111881D01*
X258445Y-111339D01*
X259275Y-111881D01*
X259615Y-112221D01*
X260916Y-112760D01*
X262324D01*
X263625Y-112221D01*
X264621Y-111225D01*
X265160Y-109924D01*
Y-108516D01*
X264621Y-107215D01*
X263625Y-106219D01*
X262324Y-105680D01*
X260916D01*
X259615Y-106219D01*
X259275Y-106559D01*
X259203Y-106606D01*
X258218Y-106272D01*
X257884Y-105287D01*
X257931Y-105215D01*
X258271Y-104875D01*
X258810Y-103574D01*
Y-102166D01*
X258271Y-100865D01*
X257931Y-100525D01*
X257389Y-99695D01*
X257931Y-98865D01*
X258271Y-98525D01*
X258810Y-97224D01*
Y-95816D01*
X258271Y-94515D01*
X257275Y-93519D01*
X255974Y-92980D01*
D02*
G37*
G36*
X70554Y-108220D02*
X69146D01*
X67845Y-108759D01*
X66849Y-109755D01*
X66310Y-111056D01*
Y-112464D01*
X66849Y-113765D01*
X67845Y-114761D01*
X69146Y-115300D01*
X70554D01*
X71855Y-114761D01*
X72851Y-113765D01*
X73390Y-112464D01*
Y-111056D01*
X72851Y-109755D01*
X71855Y-108759D01*
X70554Y-108220D01*
D02*
G37*
G36*
X59124D02*
X57716D01*
X56415Y-108759D01*
X55419Y-109755D01*
X54880Y-111056D01*
Y-112464D01*
X55419Y-113765D01*
X56415Y-114761D01*
X57716Y-115300D01*
X59124D01*
X60425Y-114761D01*
X61421Y-113765D01*
X61960Y-112464D01*
Y-111056D01*
X61421Y-109755D01*
X60425Y-108759D01*
X59124Y-108220D01*
D02*
G37*
G36*
X-55176Y-118380D02*
X-56584D01*
X-57885Y-118919D01*
X-58881Y-119915D01*
X-59420Y-121216D01*
Y-122624D01*
X-58881Y-123925D01*
X-57885Y-124921D01*
X-56584Y-125460D01*
X-55176D01*
X-53875Y-124921D01*
X-52879Y-123925D01*
X-52340Y-122624D01*
Y-121216D01*
X-52879Y-119915D01*
X-53875Y-118919D01*
X-55176Y-118380D01*
D02*
G37*
G36*
X-473759Y-110106D02*
X-476201D01*
X-478560Y-110738D01*
X-480674Y-111959D01*
X-482401Y-113686D01*
X-483622Y-115800D01*
X-484254Y-118159D01*
Y-120601D01*
X-483622Y-122960D01*
X-482401Y-125074D01*
X-480674Y-126801D01*
X-478560Y-128022D01*
X-476201Y-128654D01*
X-473759D01*
X-471400Y-128022D01*
X-469286Y-126801D01*
X-467559Y-125074D01*
X-466338Y-122960D01*
X-465706Y-120601D01*
Y-118159D01*
X-466338Y-115800D01*
X-467559Y-113686D01*
X-469286Y-111959D01*
X-471400Y-110738D01*
X-473759Y-110106D01*
D02*
G37*
G36*
X-385456Y-123090D02*
X-386864D01*
X-388165Y-123629D01*
X-389161Y-124625D01*
X-389700Y-125926D01*
Y-127334D01*
X-389161Y-128635D01*
X-388165Y-129631D01*
X-386864Y-130170D01*
X-385456D01*
X-384155Y-129631D01*
X-383159Y-128635D01*
X-382620Y-127334D01*
Y-125926D01*
X-383159Y-124625D01*
X-384155Y-123629D01*
X-385456Y-123090D01*
D02*
G37*
G36*
X-323861Y-123140D02*
X-325269D01*
X-326570Y-123679D01*
X-327566Y-124675D01*
X-328105Y-125976D01*
Y-127384D01*
X-327566Y-128685D01*
X-326570Y-129681D01*
X-325269Y-130220D01*
X-323861D01*
X-322560Y-129681D01*
X-321564Y-128685D01*
X-321025Y-127384D01*
Y-125976D01*
X-321564Y-124675D01*
X-322560Y-123679D01*
X-323861Y-123140D01*
D02*
G37*
G36*
X-339272D02*
X-340680D01*
X-341982Y-123679D01*
X-342977Y-124675D01*
X-343516Y-125976D01*
Y-127384D01*
X-342977Y-128685D01*
X-341982Y-129681D01*
X-340680Y-130220D01*
X-339272D01*
X-337971Y-129681D01*
X-336975Y-128685D01*
X-336436Y-127384D01*
Y-125976D01*
X-336975Y-124675D01*
X-337971Y-123679D01*
X-339272Y-123140D01*
D02*
G37*
G36*
X-354683D02*
X-356092D01*
X-357393Y-123679D01*
X-358389Y-124675D01*
X-358927Y-125976D01*
Y-127384D01*
X-358389Y-128685D01*
X-357393Y-129681D01*
X-356092Y-130220D01*
X-354683D01*
X-353382Y-129681D01*
X-352386Y-128685D01*
X-351847Y-127384D01*
Y-125976D01*
X-352386Y-124675D01*
X-353382Y-123679D01*
X-354683Y-123140D01*
D02*
G37*
G36*
X-370136Y-123460D02*
X-371544D01*
X-372845Y-123999D01*
X-373841Y-124995D01*
X-374380Y-126296D01*
Y-127704D01*
X-373841Y-129005D01*
X-372845Y-130001D01*
X-371544Y-130540D01*
X-370136D01*
X-368835Y-130001D01*
X-367839Y-129005D01*
X-367300Y-127704D01*
Y-126296D01*
X-367839Y-124995D01*
X-368835Y-123999D01*
X-370136Y-123460D01*
D02*
G37*
G36*
X-444566Y-114046D02*
X-446974D01*
X-449300Y-114669D01*
X-451385Y-115873D01*
X-453087Y-117576D01*
X-454291Y-119661D01*
X-454914Y-121986D01*
Y-124394D01*
X-454291Y-126720D01*
X-453087Y-128805D01*
X-451385Y-130507D01*
X-449300Y-131711D01*
X-446974Y-132334D01*
X-444566D01*
X-442240Y-131711D01*
X-440155Y-130507D01*
X-438453Y-128805D01*
X-437249Y-126720D01*
X-436626Y-124394D01*
Y-121986D01*
X-437249Y-119661D01*
X-438453Y-117576D01*
X-440155Y-115873D01*
X-442240Y-114669D01*
X-444566Y-114046D01*
D02*
G37*
G36*
X394084Y-113916D02*
X375536D01*
Y-132464D01*
X394084D01*
Y-113916D01*
D02*
G37*
G36*
X281382Y-137491D02*
X279974D01*
X278673Y-138029D01*
X277677Y-139025D01*
X277138Y-140326D01*
Y-141735D01*
X277677Y-143036D01*
X278673Y-144032D01*
X279974Y-144571D01*
X281382D01*
X282683Y-144032D01*
X283679Y-143036D01*
X284218Y-141735D01*
Y-140326D01*
X283679Y-139025D01*
X282683Y-138029D01*
X281382Y-137491D01*
D02*
G37*
G36*
X-419166Y-139446D02*
X-421574D01*
X-423899Y-140069D01*
X-425984Y-141273D01*
X-427687Y-142976D01*
X-428891Y-145061D01*
X-429514Y-147386D01*
Y-149794D01*
X-428891Y-152120D01*
X-427687Y-154205D01*
X-425984Y-155907D01*
X-423899Y-157111D01*
X-421574Y-157734D01*
X-419166D01*
X-416841Y-157111D01*
X-414756Y-155907D01*
X-413053Y-154205D01*
X-411849Y-152120D01*
X-411226Y-149794D01*
Y-147386D01*
X-411849Y-145061D01*
X-413053Y-142976D01*
X-414756Y-141273D01*
X-416841Y-140069D01*
X-419166Y-139446D01*
D02*
G37*
G36*
X-199956Y-163700D02*
X-201364D01*
X-202665Y-164239D01*
X-203661Y-165235D01*
X-204200Y-166536D01*
Y-167944D01*
X-203661Y-169245D01*
X-202665Y-170241D01*
X-201364Y-170780D01*
X-199956D01*
X-198655Y-170241D01*
X-197659Y-169245D01*
X-197120Y-167944D01*
Y-166536D01*
X-197659Y-165235D01*
X-198655Y-164239D01*
X-199956Y-163700D01*
D02*
G37*
G36*
X251848Y-155960D02*
X248152D01*
X244581Y-156917D01*
X241379Y-158765D01*
X238765Y-161379D01*
X236917Y-164581D01*
X235960Y-168152D01*
Y-171848D01*
X236917Y-175419D01*
X238765Y-178621D01*
X241379Y-181235D01*
X244581Y-183083D01*
X248152Y-184040D01*
X251848D01*
X255419Y-183083D01*
X258621Y-181235D01*
X261235Y-178621D01*
X263083Y-175419D01*
X264040Y-171848D01*
Y-168152D01*
X263083Y-164581D01*
X261235Y-161379D01*
X258621Y-158765D01*
X255419Y-156917D01*
X251848Y-155960D01*
D02*
G37*
G36*
X-248152D02*
X-251848D01*
X-255419Y-156917D01*
X-258621Y-158765D01*
X-261235Y-161379D01*
X-263083Y-164581D01*
X-264040Y-168152D01*
Y-171848D01*
X-263083Y-175419D01*
X-261235Y-178621D01*
X-258621Y-181235D01*
X-255419Y-183083D01*
X-251848Y-184040D01*
X-248152D01*
X-244581Y-183083D01*
X-241379Y-181235D01*
X-238765Y-178621D01*
X-236917Y-175419D01*
X-235960Y-171848D01*
Y-168152D01*
X-236917Y-164581D01*
X-238765Y-161379D01*
X-241379Y-158765D01*
X-244581Y-156917D01*
X-248152Y-155960D01*
D02*
G37*
%LPD*%
D124*
X517500Y-43200D02*
D03*
Y43200D02*
D03*
D125*
X463900Y-43200D02*
D03*
Y43200D02*
D03*
D142*
X-474980Y-93980D02*
D03*
X384810Y-123190D02*
D03*
X424180Y82550D02*
D03*
D143*
X-474980Y-119380D02*
D03*
X389890Y-60960D02*
D03*
X384810Y-97790D02*
D03*
X424180Y107950D02*
D03*
D144*
X415290Y-60960D02*
D03*
D145*
X-449580Y86760D02*
D03*
Y136760D02*
D03*
D146*
X93980Y3810D02*
D03*
X104130Y80010D02*
D03*
X83830D02*
D03*
D147*
X-40325Y-15475D02*
D03*
X-477589Y97790D02*
D03*
X-483870D02*
D03*
X-477589Y91509D02*
D03*
X-483870D02*
D03*
X-290830Y88969D02*
D03*
X-284549D02*
D03*
X-290830Y95250D02*
D03*
X-284549D02*
D03*
Y118041D02*
D03*
X-290830D02*
D03*
X-284549Y111760D02*
D03*
X-290830D02*
D03*
Y72390D02*
D03*
X-284549D02*
D03*
X-290830Y66109D02*
D03*
X-284549D02*
D03*
X-488950Y64839D02*
D03*
X-495231D02*
D03*
X-488950Y71120D02*
D03*
X-495231D02*
D03*
X22860Y-195580D02*
D03*
X67310D02*
D03*
X109220D02*
D03*
X-72390D02*
D03*
X-114300D02*
D03*
X-158750D02*
D03*
X-123550Y-140920D02*
D03*
X-167640Y-31288D02*
D03*
X-161835Y-25290D02*
D03*
X484510Y147490D02*
D03*
X509510Y97490D02*
D03*
Y-102510D02*
D03*
X484510Y-152510D02*
D03*
X434510Y147490D02*
D03*
X459510Y97490D02*
D03*
Y-102510D02*
D03*
X434510Y-152510D02*
D03*
X384510Y147490D02*
D03*
X409510Y-102510D02*
D03*
X284510Y147490D02*
D03*
Y-252510D02*
D03*
X234510Y147490D02*
D03*
X259510Y-202510D02*
D03*
X234510Y-252510D02*
D03*
X184510Y-52510D02*
D03*
X209510Y-102510D02*
D03*
X184510Y-152510D02*
D03*
Y-252510D02*
D03*
X134510Y147490D02*
D03*
X159510Y-102510D02*
D03*
X134510Y-252510D02*
D03*
X84510Y147490D02*
D03*
X109510Y97490D02*
D03*
Y-2510D02*
D03*
X84510Y-52510D02*
D03*
Y-252510D02*
D03*
X34510D02*
D03*
X9510Y97490D02*
D03*
X-15490Y-252510D02*
D03*
X-65490Y147490D02*
D03*
Y-252510D02*
D03*
X-115490Y147490D02*
D03*
X-90490Y97490D02*
D03*
X-115490Y47490D02*
D03*
Y-152510D02*
D03*
Y-252510D02*
D03*
X-165490Y147490D02*
D03*
X-140490Y97490D02*
D03*
X-165490Y47490D02*
D03*
Y-152510D02*
D03*
Y-252510D02*
D03*
X-215490Y147490D02*
D03*
X-190490Y97490D02*
D03*
X-215490Y47490D02*
D03*
Y-52510D02*
D03*
Y-152510D02*
D03*
Y-252510D02*
D03*
X-265490Y147490D02*
D03*
X-240490Y97490D02*
D03*
X-265490Y47490D02*
D03*
Y-52510D02*
D03*
X-240490Y-202510D02*
D03*
X-265490Y-252510D02*
D03*
X-290490Y-102510D02*
D03*
X-315490Y-152510D02*
D03*
X-290490Y-202510D02*
D03*
X-365490Y-152510D02*
D03*
X-465490Y47490D02*
D03*
Y-52510D02*
D03*
Y-152510D02*
D03*
X-490490Y97490D02*
D03*
X-515490Y47490D02*
D03*
Y-52510D02*
D03*
X-490490Y-102510D02*
D03*
X-153670Y-24130D02*
D03*
X203200Y158750D02*
D03*
Y173990D02*
D03*
Y142240D02*
D03*
X-125730Y-25400D02*
D03*
X-181610Y25400D02*
D03*
X-173990Y33020D02*
D03*
X-147320Y25400D02*
D03*
X260783Y80357D02*
D03*
X265430Y85090D02*
D03*
X-46408Y34941D02*
D03*
X2637Y-44116D02*
D03*
X-4356Y-39660D02*
D03*
X-139470Y33250D02*
D03*
X-264752Y-28792D02*
D03*
X-187960Y12700D02*
D03*
X-186339Y-24618D02*
D03*
X-157698Y19942D02*
D03*
X-68252Y-3832D02*
D03*
X-132996Y-31750D02*
D03*
X-143510D02*
D03*
X-119380Y-11430D02*
D03*
X-121920Y25400D02*
D03*
X-59926Y36198D02*
D03*
X295910Y1270D02*
D03*
X290830D02*
D03*
X261620Y-109220D02*
D03*
X255270D02*
D03*
Y-102870D02*
D03*
Y-96520D02*
D03*
X-158750Y-76200D02*
D03*
X-334010Y-55880D02*
D03*
X-66040D02*
D03*
X-143510Y-74930D02*
D03*
X-204470Y-69850D02*
D03*
X-191770D02*
D03*
X-383488Y89493D02*
D03*
Y81493D02*
D03*
X-407488Y89493D02*
D03*
Y81493D02*
D03*
X-415488Y89493D02*
D03*
Y81493D02*
D03*
X-423488Y89493D02*
D03*
Y81493D02*
D03*
X-431488Y89493D02*
D03*
Y81493D02*
D03*
X-439488D02*
D03*
X-327488Y137493D02*
D03*
Y129493D02*
D03*
Y121493D02*
D03*
X-335488Y137493D02*
D03*
Y129493D02*
D03*
Y121493D02*
D03*
X-343488Y137493D02*
D03*
Y129493D02*
D03*
X-351488Y137493D02*
D03*
Y129493D02*
D03*
X-359488Y137493D02*
D03*
Y129493D02*
D03*
X-367488Y121493D02*
D03*
Y113493D02*
D03*
X-375488Y137493D02*
D03*
Y129493D02*
D03*
Y121493D02*
D03*
X-383488Y137493D02*
D03*
Y129493D02*
D03*
Y121493D02*
D03*
X-391488Y137493D02*
D03*
Y129493D02*
D03*
Y121493D02*
D03*
Y113493D02*
D03*
X-399488Y137493D02*
D03*
Y129493D02*
D03*
Y121493D02*
D03*
Y113493D02*
D03*
X-407488Y137493D02*
D03*
Y129493D02*
D03*
Y121493D02*
D03*
Y113493D02*
D03*
X-415488Y137493D02*
D03*
Y129493D02*
D03*
Y121493D02*
D03*
Y113493D02*
D03*
X-423488Y137493D02*
D03*
Y129493D02*
D03*
Y121493D02*
D03*
Y113493D02*
D03*
X-431488Y137493D02*
D03*
Y129493D02*
D03*
Y121493D02*
D03*
Y113493D02*
D03*
X-439488Y129493D02*
D03*
Y121493D02*
D03*
Y113493D02*
D03*
X-447488Y121493D02*
D03*
Y113493D02*
D03*
X-474425Y-2624D02*
D03*
X-467440Y-21674D02*
D03*
X-387430Y-87310D02*
D03*
X-444530Y-68800D02*
D03*
X-404144Y-91913D02*
D03*
X-403940Y-82230D02*
D03*
X-389970Y-101280D02*
D03*
X-424953Y-72786D02*
D03*
X-395452D02*
D03*
X-387188Y-134978D02*
D03*
X-386160Y-126630D02*
D03*
X-382350Y-51750D02*
D03*
X-379810Y-106360D02*
D03*
Y-26350D02*
D03*
X-372692Y-112208D02*
D03*
X-370840Y-127000D02*
D03*
X-367060Y-92190D02*
D03*
X-363997Y-121991D02*
D03*
X-355387Y-126680D02*
D03*
X-349650Y-120878D02*
D03*
X-339976Y-126680D02*
D03*
X-334010Y-120650D02*
D03*
X-467440Y-15324D02*
D03*
Y-8974D02*
D03*
X-460455Y-21674D02*
D03*
Y-15324D02*
D03*
Y-8974D02*
D03*
X-444500Y-21590D02*
D03*
X-396240Y-17780D02*
D03*
X-384890Y16830D02*
D03*
Y6670D02*
D03*
Y-3490D02*
D03*
X-377270Y16830D02*
D03*
Y-3490D02*
D03*
X-377270Y6670D02*
D03*
X-369650Y-3490D02*
D03*
Y16830D02*
D03*
Y6670D02*
D03*
X-324565Y-126680D02*
D03*
X-332820Y21910D02*
D03*
X-330538Y10404D02*
D03*
X-324620Y-9790D02*
D03*
X-324315Y-22515D02*
D03*
X-321980Y-80910D02*
D03*
X-321390Y-92390D02*
D03*
X-318770Y-120650D02*
D03*
X-317500Y-57150D02*
D03*
X-315040Y-32700D02*
D03*
X-311205Y-24385D02*
D03*
X-481410Y24450D02*
D03*
Y30800D02*
D03*
Y37150D02*
D03*
X-474425Y24450D02*
D03*
Y30800D02*
D03*
Y37150D02*
D03*
X-467440Y24450D02*
D03*
Y30800D02*
D03*
Y37150D02*
D03*
X-460455Y24450D02*
D03*
Y30800D02*
D03*
Y37150D02*
D03*
X-444580Y23180D02*
D03*
X-426800Y33340D02*
D03*
Y39690D02*
D03*
Y46040D02*
D03*
X-424260Y26990D02*
D03*
X-414921Y27007D02*
D03*
X-405845Y33340D02*
D03*
Y39690D02*
D03*
Y46040D02*
D03*
X-350600Y23180D02*
D03*
X-349865Y33340D02*
D03*
Y39690D02*
D03*
Y46040D02*
D03*
X-328910Y33340D02*
D03*
Y39690D02*
D03*
Y46040D02*
D03*
X-323366Y23063D02*
D03*
X-322460Y31000D02*
D03*
X-309960Y23180D02*
D03*
X-307340Y38100D02*
D03*
X-349330Y54930D02*
D03*
X-426800D02*
D03*
Y61280D02*
D03*
Y67630D02*
D03*
X-405845Y54930D02*
D03*
Y61280D02*
D03*
Y67630D02*
D03*
X-349330Y61280D02*
D03*
Y67630D02*
D03*
X-328375Y54930D02*
D03*
Y61280D02*
D03*
X-308582Y140684D02*
D03*
X-328375Y67630D02*
D03*
X-302301Y140684D02*
D03*
X-313921D02*
D03*
X-299720Y36060D02*
D03*
X-481410Y-21674D02*
D03*
Y-15324D02*
D03*
Y-8974D02*
D03*
Y18100D02*
D03*
Y3726D02*
D03*
Y-2624D02*
D03*
Y11750D02*
D03*
X-474425Y-21674D02*
D03*
Y-15324D02*
D03*
Y11750D02*
D03*
Y-8974D02*
D03*
Y3726D02*
D03*
Y18100D02*
D03*
X-416540Y-28100D02*
D03*
X-431780Y-28000D02*
D03*
X-290910Y15560D02*
D03*
X-264600Y13420D02*
D03*
X-232410Y31000D02*
D03*
X-6269Y-6390D02*
D03*
X22860Y137160D02*
D03*
X-40371Y17766D02*
D03*
X-42650Y-10450D02*
D03*
X-40884Y-5384D02*
D03*
X-41910Y-118D02*
D03*
X32615Y54617D02*
D03*
X111760Y54610D02*
D03*
X453390Y5080D02*
D03*
X-55880Y-5080D02*
D03*
X-55160Y6900D02*
D03*
X-52070Y12700D02*
D03*
X-45340Y15744D02*
D03*
X-83820Y-54610D02*
D03*
X17780Y-77470D02*
D03*
X12700Y-67310D02*
D03*
X15240Y-72390D02*
D03*
X10160Y-62230D02*
D03*
X6620Y-55595D02*
D03*
X-200660Y-167240D02*
D03*
X58420Y-111760D02*
D03*
X38980Y-1540D02*
D03*
X370840Y-36830D02*
D03*
X408940D02*
D03*
X393700D02*
D03*
X69850Y-111760D02*
D03*
X280678Y-141031D02*
D03*
X32526Y48547D02*
D03*
X111760Y48260D02*
D03*
X72390Y39370D02*
D03*
X292100Y137160D02*
D03*
X72390Y33020D02*
D03*
X479834Y-4854D02*
D03*
X373380Y121920D02*
D03*
X-97895Y198068D02*
D03*
X-106163D02*
D03*
X-31750D02*
D03*
X-40018D02*
D03*
X-48286D02*
D03*
X-56554D02*
D03*
X-64822D02*
D03*
X-31750Y157022D02*
D03*
Y165231D02*
D03*
Y173441D02*
D03*
Y181650D02*
D03*
Y189859D02*
D03*
Y115976D02*
D03*
Y124185D02*
D03*
Y132395D02*
D03*
Y140604D02*
D03*
Y148813D02*
D03*
Y107767D02*
D03*
Y91348D02*
D03*
Y83139D02*
D03*
Y74930D02*
D03*
Y99558D02*
D03*
X77470Y43180D02*
D03*
X118110Y48260D02*
D03*
Y54610D02*
D03*
X36830Y60960D02*
D03*
X37144Y44047D02*
D03*
X25400Y-72390D02*
D03*
X8890Y-82550D02*
D03*
X9157Y-76959D02*
D03*
X3239Y-59963D02*
D03*
X2113Y-64448D02*
D03*
X18914Y47126D02*
D03*
X-14639Y62270D02*
D03*
X14604Y42816D02*
D03*
X-7620Y44450D02*
D03*
X448068Y-30164D02*
D03*
Y-24660D02*
D03*
X481330Y-24130D02*
D03*
Y-36830D02*
D03*
Y24130D02*
D03*
Y36830D02*
D03*
X449580Y24130D02*
D03*
Y36830D02*
D03*
X191815Y-27974D02*
D03*
X191770Y-76200D02*
D03*
X200825Y-32465D02*
D03*
X206284Y-32514D02*
D03*
X195321D02*
D03*
X206808Y-25376D02*
D03*
X206675Y76831D02*
D03*
Y87822D02*
D03*
X221931Y102421D02*
D03*
Y109228D02*
D03*
X207150Y109163D02*
D03*
X214735Y109292D02*
D03*
X-296292Y130834D02*
D03*
X29832Y74982D02*
D03*
Y83191D02*
D03*
Y91400D02*
D03*
Y99609D02*
D03*
Y107818D02*
D03*
Y148865D02*
D03*
Y140655D02*
D03*
Y132446D02*
D03*
Y124237D02*
D03*
Y116028D02*
D03*
Y189911D02*
D03*
Y181702D02*
D03*
Y173492D02*
D03*
Y165283D02*
D03*
Y157074D02*
D03*
X62904Y198120D02*
D03*
X54636D02*
D03*
X46368D02*
D03*
X38100D02*
D03*
X29832D02*
D03*
X104245D02*
D03*
X95977D02*
D03*
X87709D02*
D03*
X79440D02*
D03*
X71172D02*
D03*
X-73090Y198068D02*
D03*
X-81358D02*
D03*
X-89627D02*
D03*
X18000Y5610D02*
D03*
X6000D02*
D03*
X-6000D02*
D03*
X-18000D02*
D03*
Y-6390D02*
D03*
X6000D02*
D03*
X18000D02*
D03*
Y-18390D02*
D03*
X6000D02*
D03*
X-6000D02*
D03*
X-18000D02*
D03*
X18000Y17610D02*
D03*
X317500Y-163064D02*
D03*
X214630Y117024D02*
D03*
X-9607Y-38559D02*
D03*
X-12700Y-77470D02*
D03*
X-25400D02*
D03*
X-55880Y-121920D02*
D03*
X43180Y-39370D02*
D03*
X49530D02*
D03*
X58420D02*
D03*
X60960Y-8890D02*
D03*
X77470Y28455D02*
D03*
X52070Y7076D02*
D03*
X49756Y1496D02*
D03*
X41893Y11667D02*
D03*
X466840Y-3455D02*
D03*
X368300Y118110D02*
D03*
X400050Y102870D02*
D03*
X364490Y53340D02*
D03*
X361246Y58690D02*
D03*
X374650Y59690D02*
D03*
X347980Y57150D02*
D03*
X345629Y64839D02*
D03*
X467360Y-67310D02*
D03*
X490220D02*
D03*
X396240Y64770D02*
D03*
X402590D02*
D03*
X-38862Y39878D02*
D03*
X-57150Y64770D02*
D03*
X-14191Y43109D02*
D03*
X-71480Y-140920D02*
D03*
X-11790D02*
D03*
X39010D02*
D03*
X-6500Y-182990D02*
D03*
X-12110Y-215150D02*
D03*
X167890D02*
D03*
X173500Y-182990D02*
D03*
X98700Y-142190D02*
D03*
X150770D02*
D03*
X294690Y-144090D02*
D03*
X400935Y17475D02*
D03*
X344530Y7340D02*
D03*
Y16690D02*
D03*
X373380Y11430D02*
D03*
X388115Y25555D02*
D03*
X350645Y114445D02*
D03*
X396115Y124395D02*
D03*
X277415Y72415D02*
D03*
X206435Y82575D02*
D03*
X156210Y93980D02*
D03*
X148590Y3810D02*
D03*
X163445Y83615D02*
D03*
X207395Y102615D02*
D03*
X201625Y-46605D02*
D03*
X157480Y-7120D02*
D03*
X167750Y-6460D02*
D03*
X307365Y120095D02*
D03*
X335280Y132080D02*
D03*
X439420Y34747D02*
D03*
X428890Y38100D02*
D03*
X459486Y76454D02*
D03*
X107590Y67360D02*
D03*
X106680Y44093D02*
D03*
X54638Y39758D02*
D03*
X-11968Y78522D02*
D03*
X-25858Y137412D02*
D03*
X15102Y162912D02*
D03*
Y198472D02*
D03*
X-32660Y63870D02*
D03*
X-68510Y54750D02*
D03*
X-66720Y-44890D02*
D03*
X-65628Y-83320D02*
D03*
X-113230Y-47130D02*
D03*
X43860Y-93130D02*
D03*
X27990Y-62030D02*
D03*
X101510Y-93130D02*
D03*
X-18000Y17610D02*
D03*
X-6000D02*
D03*
X6000D02*
D03*
X447040Y-60960D02*
D03*
X481330Y-30480D02*
D03*
Y30480D02*
D03*
X449700Y30360D02*
D03*
X108538Y-57835D02*
D03*
Y-64820D02*
D03*
Y-50850D02*
D03*
X114888Y-57835D02*
D03*
Y-64820D02*
D03*
Y-50850D02*
D03*
X121238D02*
D03*
Y-64820D02*
D03*
Y-57835D02*
D03*
X127588Y-64820D02*
D03*
Y-57835D02*
D03*
X133938Y-64820D02*
D03*
Y-57835D02*
D03*
X134116Y-35967D02*
D03*
Y-28982D02*
D03*
X127766Y-35967D02*
D03*
Y-28982D02*
D03*
X121416Y-35967D02*
D03*
Y-28982D02*
D03*
Y-42952D02*
D03*
X115066D02*
D03*
Y-28982D02*
D03*
Y-35967D02*
D03*
X108716Y-42952D02*
D03*
Y-28982D02*
D03*
Y-35967D02*
D03*
X-186500Y-182990D02*
D03*
X-192027Y-215054D02*
D03*
X419100Y-36830D02*
D03*
X448068Y-36675D02*
D03*
X42825Y-79095D02*
D03*
X-68935D02*
D03*
X34765Y-44955D02*
D03*
X-50800Y-50800D02*
D03*
X48877Y-13603D02*
D03*
X128876Y64954D02*
D03*
X135225D02*
D03*
X141575D02*
D03*
X154097Y50071D02*
D03*
Y43086D02*
D03*
X147747Y50071D02*
D03*
Y43086D02*
D03*
X141397Y50071D02*
D03*
Y43086D02*
D03*
X135047D02*
D03*
Y50071D02*
D03*
X128697Y57056D02*
D03*
Y43086D02*
D03*
Y50071D02*
D03*
X135225Y71939D02*
D03*
X135047Y57056D02*
D03*
X141397D02*
D03*
X109220Y16510D02*
D03*
X380492Y-29718D02*
D03*
X382270Y59690D02*
D03*
X400050Y-6350D02*
D03*
X44938Y39758D02*
D03*
X93980Y-73660D02*
D03*
D148*
X-420370Y-148590D02*
D03*
X-445770Y-123190D02*
D03*
X-420370Y-97790D02*
D03*
M02*
