M48
;Layer_Color=9474304
;FILE_FORMAT=4:4
METRIC,LZ
;TYPE=PLATED
T01F00S00C0.2000
T03F00S00C0.7112
T04F00S00C1.0200
;TYPE=NON_PLATED
T05F00S00C0.9910
T06F00S00C2.3000
%
T01
X0043451Y-0015251
X0048451
X0050951Y-0010251
X0045951
X0046736Y-0006731
X0049022
X0048133Y-0003683
Y-0003048
Y-0002413
X00479834Y-00004854
X0046684Y-00003455
X0045339Y0000508
X0044958Y0002413
X004497Y0003036
X0044958Y0003683
X0043942Y00034747
X0042889Y000381
X00400935Y00017475
X00388115Y00025555
X0037338Y0001143
X0040005Y-0000635
X003937Y-0003683
X0040894
X004191
X00448068Y-00036675
Y-00030164
Y-0002466
X0044704Y-0006096
X0040951Y-0010251
X00380492Y-00029718
X0037084Y-0003683
X0037465Y0005969
X0038227
X0039624Y0006477
X0040259
X00459486Y00076454
X0048133Y0003683
Y0003048
Y0002413
X0034453Y0001669
Y0000734
X0034798Y0005715
X00345629Y00064839
X00361246Y0005869
X0036449Y0005334
X00277415Y00072415
X00206675Y00076831
X00135225Y00071939
Y00064954
X00128876
X00128697Y00057056
X00135047
X00141397
Y00050071
X00147747
X00154097
Y00043086
X00147747
X00141397
X00135047
X00128697
Y00050071
X00135047
X0011811Y0004826
X0011176
Y0005461
X0011811
X0010668Y00044093
X0010759Y0006736
X00141575Y00064954
X0014859Y0000381
X0015748Y-0000712
X0016775Y-0000646
X00191815Y-00027974
X00195321Y-00032514
X00200825Y-00032465
X00206284Y-00032514
X00206808Y-00025376
X00201625Y-00046605
X0018451Y-0005251
X0019177Y-000762
X0020951Y-0010251
X0025527Y-0010287
Y-0010922
X0026162
X0025527Y-0009652
X00280678Y-00141031
X0029469Y-0014409
X003175Y-00163064
X0025951Y-0020251
X0028451Y-0025251
X0023451
X0018451
X0013451
X0008451
X0003451
X-0001549
X-0001211Y-0021515
X-000065Y-0018299
X0002286Y-0019558
X0006731
X0010922
X000987Y-0014219
X0010151Y-0009313
X0009398Y-0007366
X00108538Y-0006482
X00114888
X00121238
X00127588
X00133938
Y-00057835
X00127588
X00121238
X00114888
X00108538
Y-0005085
X00114888
X00121238
X00121416Y-00042952
X00115066
X00108716
Y-00035967
X00115066
X00121416
X00127766
X00134116
Y-00028982
X00127766
X00121416
X00115066
X00108716
X0010951Y-0000251
X0010922Y0001651
X0007747Y00028455
X0007239Y0003302
Y0003937
X0007747Y0004318
X00054638Y00039758
X00044938
X00037144Y00044047
X00032526Y00048547
X00032615Y00054617
X0003683Y0006096
X00029832Y00074982
X00018914Y00047126
X00014604Y00042816
X-0000762Y0004445
X-00014191Y00043109
X-00014639Y0006227
X-00011968Y00078522
X-00006Y0001761
X-00018
Y0000561
X-00006
X00006
X00018
Y-0000639
Y-0001839
X00006
Y-0000639
X-00006269
X-00018
Y-0001839
X-00006
X-00004356Y-0003966
X-00009607Y-00038559
X00002637Y-00044116
X0000662Y-00055595
X00003239Y-00059963
X00002113Y-00064448
X0001016Y-0006223
X000127Y-0006731
X0001524Y-0007239
X0001778Y-0007747
X00009157Y-00076959
X0000889Y-0008255
X000254Y-0007239
X0002799Y-0006203
X00034765Y-00044955
X0004318Y-0003937
X0004953
X0005842
X0006096Y-0000889
X00048877Y-00013603
X00049756Y00001496
X0005207Y00007076
X00041893Y00011667
X0003898Y-0000154
X00018Y0001761
X00006
X-000127Y-0007747
X-000254
X00042825Y-00079095
X0004386Y-0009313
X0005842Y-0011176
X0006985
X0003901Y-0014092
X-0001179
X0015077Y-0014219
X0018451Y-0015251
X001735Y-0018299
X0016789Y-0021515
X0015951Y-0010251
X0008451Y-0005251
X0029083Y0000127
X0029591
X-0004191Y-00000118
X-00040884Y-00005384
X-0004265Y-0001045
X-00040325Y-00015475
X-0005588Y-0000508
X-0005516Y000069
X-0005207Y000127
X-0004534Y00015744
X-00040371Y00017766
X-00046408Y00034941
X-00038862Y00039878
X-00059926Y00036198
X-0006851Y0005475
X-0005715Y0006477
X-0003266Y0006387
X-0003175Y0007493
X-0011549Y0004749
X-0012192Y000254
X-0014732
X-0013947Y0003325
X-00157698Y00019942
X-0018161Y000254
X-0017399Y0003302
X-0016549Y0004749
X-0021549
X-0023241Y00031
X-0026549Y0004749
X-002646Y0001342
X-0029091Y0001556
X-0030996Y0002318
X-00323366Y00023063
X-0032246Y00031
X-0032891Y0003334
Y0003969
Y0004604
X-00328375Y0005493
Y0006128
Y0006763
X-0034933
Y0006128
Y0005493
X-00349865Y0004604
Y0003969
Y0003334
X-003506Y0002318
X-0033282Y0002191
X-00330538Y00010404
X-0032462Y-0000979
X-00324315Y-00022515
X-00311205Y-00024385
X-0031504Y-000327
X-003175Y-0005715
X-0033401Y-0005588
X-0032198Y-0008091
X-0032139Y-0009239
X-0031877Y-0012065
X-00324565Y-0012668
X-00339976
X-0033401Y-0012065
X-0034965Y-00120878
X-00355387Y-0012668
X-00363997Y-00121991
X-0037084Y-00127
X-0038616Y-0012663
X-00387188Y-00134978
X-0037981Y-0010636
X-00372692Y-00112208
X-0036706Y-0009219
X-0038743Y-0008731
X-0038997Y-0010128
X-00404144Y-00091913
X-0040394Y-0008223
X-00395452Y-00072786
X-00424953
X-0041654Y-000281
X-0039624Y-0001778
X-0037981Y-0002635
X-0037727Y-0000349
X-0038489
Y0000667
X-0037727
X-0036965
Y-0000349
Y0001683
X-0037727
X-0038489
X-00405845Y0003334
Y0003969
Y0004604
Y0005493
Y0006128
Y0006763
X-004268
Y0006128
Y0005493
Y0004604
Y0003969
Y0003334
X-0042426Y0002699
X-00414921Y00027007
X-0038235Y-0005175
X-0026549Y-0005251
X-00264752Y-00028792
X-0021549Y-0005251
X-0020447Y-0006985
X-0019177
X-0015875Y-000762
X-0014351Y-0007493
Y-0003175
X-00132996
X-0012573Y-000254
X-0011938Y-0001143
X-0011323Y-0004713
X-0008382Y-0005461
X-0006604Y-0005588
X-0006672Y-0004489
X-000508Y-000508
X-00068935Y-00079095
X-00065628Y-0008332
X-0005588Y-0012192
X-0007148Y-0014092
X-0012355
X-0011549Y-0015251
X-001143Y-0019558
X-0007239
X-0006549Y-0025251
X-0011549
X-0016549
X-0021549
X-0026549
X-0024049Y-0020251
X-0029049
X-0031549Y-0015251
X-0036549
X-0029049Y-0010251
X-0021549Y-0015251
X-0020066Y-0016724
X-001865Y-0018299
X-00192027Y-00215054
X-0015875Y-0019558
X-0016549Y-0015251
X-0016764Y-00031288
X-00161835Y-0002529
X-0015367Y-0002413
X-00186339Y-00024618
X-0018796Y000127
X-0029972Y0003606
X-0030734Y000381
X-0029083Y00066109
Y0007239
X-00284549
Y00066109
X-00068252Y-00003832
X-0043178Y-00028
X-004445Y-0002159
X-00460455Y-00021674
Y-00015324
Y-00008974
X-0046744
Y-00015324
Y-00021674
X-00474425
Y-00015324
Y-00008974
Y-00002624
Y00003726
X-0048141
Y-00002624
Y-00008974
Y-00015324
Y-00021674
Y0001175
Y000181
Y0002445
Y000308
Y0003715
X-00474425
Y000308
Y0002445
Y000181
Y0001175
X-0046744Y0002445
Y000308
Y0003715
X-00460455
Y000308
Y0002445
X-0044458Y0002318
X-0046549Y0004749
X-0048895Y00064839
X-00495231
Y0007112
X-0048895
X-0051549Y0004749
Y-0005251
X-0046549
X-0044453Y-000688
X-0049049Y-0010251
X-0046549Y-0015251
X-00477589Y00091509
Y0009779
X-0048387
Y00091509
X-0049049Y0009749
X-00447488Y00113493
X-00439488
X-00431488
Y00121493
Y00129493
Y00137493
X-00439488Y00129493
Y00121493
X-00447488
X-00431488Y00089493
Y00081493
X-00439488
X-00423488
X-00415488
X-00407488
Y00089493
X-00415488
X-00423488
Y00113493
X-00415488
X-00407488
X-00399488
X-00391488
Y00121493
X-00383488
X-00375488
X-00367488
Y00113493
X-00359488Y00129493
X-00351488
X-00343488
X-00335488
X-00327488
Y00137493
X-00335488
X-00343488
X-00351488
X-00359488
X-00375488
Y00129493
X-00383488
Y00137493
X-00391488
Y00129493
X-00399488
Y00137493
X-00407488
Y00129493
Y00121493
X-00399488
X-00415488
Y00129493
Y00137493
X-00423488
Y00129493
Y00121493
X-00383488Y00089493
Y00081493
X-00335488Y00121493
X-00327488
X-00313921Y00140684
X-00308582
X-00302301
X-00296292Y00130834
X-0029083Y00118041
X-00284549
Y0011176
X-0029083
Y0009525
Y00088969
X-00284549
Y0009525
X-0024049Y0009749
X-0019049
X-0014049
X-0009049
X-0003175Y00099558
Y00107767
Y00115976
Y00124185
Y00132395
Y00140604
Y00148813
Y00157022
Y00165231
Y00173441
Y0018165
Y00189859
Y00198068
X-00040018
X-00048286
X-00056554
X-00064822
X-0007309
X-00081358
X-00089627
X-00097895
X-00106163
X-0011549Y0014749
X-0006549
X-0003175Y00091348
Y00083139
X-0016549Y0014749
X-0021549
X-0026549
X-00025858Y00137412
X0002286Y0013716
X00029832Y00140655
Y00148865
Y00157074
Y00165283
Y00173492
Y00181702
Y00189911
Y0019812
X000381
X00046368
X00054636
X00062904
X00071172
X0007944
X00087709
X00095977
X00104245
X0008451Y0014749
X0013451
X002032Y0014224
Y0015875
Y0017399
X0023451Y0014749
X0028451
X002921Y0013716
X00307365Y00120095
X0033528Y0013208
X00350645Y00114445
X0026543Y0008509
X00260783Y00080357
X00206435Y00082575
X00206675Y00087822
X00207395Y00102615
X0020715Y00109163
X00214735Y00109292
X00221931Y00109228
Y00102421
X0021463Y00117024
X0015621Y0009398
X00163445Y00083615
X0010951Y0009749
X00029832Y00099609
Y000914
Y00083191
Y00107818
Y00116028
Y00124237
Y00132446
X00015102Y00162912
Y00198472
X0000951Y0009749
X003683Y0011811
X0037338Y0012192
X00396115Y00124395
X0040005Y0010287
X0038451Y0014749
X0043451
X0048451
X0050951Y0009749
X0045951
T03
X-0042037Y-0014859
Y-0009779
X-0044577Y-0012319
T04
X0038481Y-0012319
Y-0009779
X0038989Y-0006096
X0041529
X-0047498Y-0009398
Y-0011938
X-0044958Y0008676
Y0013676
X0042418Y0010795
Y0008255
T05
X0009398Y0000381
X0010413Y0008001
X0008383
T06
X0025Y-0017
X-0025
Y0017
X0025
M30
