G04*
G04 #@! TF.GenerationSoftware,Altium Limited,Altium Designer,24.3.1 (35)*
G04*
G04 Layer_Color=65535*
%FSLAX44Y44*%
%MOMM*%
G71*
G04*
G04 #@! TF.SameCoordinates,063D28A7-869B-49E0-B519-EA391C4CE498*
G04*
G04*
G04 #@! TF.FilePolarity,Positive*
G04*
G01*
G75*
%ADD10C,0.2000*%
%ADD11C,0.1270*%
%ADD12C,0.2540*%
%ADD13C,0.1500*%
G36*
X1304153Y940910D02*
X1304212Y940777D01*
X1304242Y940659D01*
X1304271Y940527D01*
X1304315Y940482D01*
X1304359Y940379D01*
X1304389Y940276D01*
X1304411Y940195D01*
X1304463Y940144D01*
X1304477Y940114D01*
X1304521Y940011D01*
X1304544Y939915D01*
X1304617Y939798D01*
X1304639Y939731D01*
X1304661Y939650D01*
X1304676Y939591D01*
X1304706Y939518D01*
X1304757Y939466D01*
X1304787Y939392D01*
X1304831Y939216D01*
X1304882Y939179D01*
X1304904Y939157D01*
X1304919Y939127D01*
X1304949Y939054D01*
X1304963Y938892D01*
X1305030Y938811D01*
X1305067Y938745D01*
X1305096Y938627D01*
X1305118Y938531D01*
X1305184Y938465D01*
X1305228Y938362D01*
X1305243Y938258D01*
X1305265Y938177D01*
X1305324Y938089D01*
X1305361Y938008D01*
X1305383Y937912D01*
X1305398Y937853D01*
X1305435Y937802D01*
X1305464Y937772D01*
X1305479Y937743D01*
X1305508Y937669D01*
X1305523Y937610D01*
X1305538Y937537D01*
X1305597Y937448D01*
X1305641Y937345D01*
X1305663Y937235D01*
X1305751Y937087D01*
X1305788Y936992D01*
X1305810Y936896D01*
X1305832Y936844D01*
X1305884Y936808D01*
X1305921Y936741D01*
X1305936Y936683D01*
X1305950Y936535D01*
X1306039Y936447D01*
X1306068Y936373D01*
X1306083Y936314D01*
X1306098Y936211D01*
X1306142Y936137D01*
X1306201Y936079D01*
X1306230Y935961D01*
X1306245Y935843D01*
X1306304Y935784D01*
X1306318Y935755D01*
X1306363Y935651D01*
X1306377Y935534D01*
X1306473Y935394D01*
X1306495Y935328D01*
X1306517Y935232D01*
X1306532Y935173D01*
X1306554Y935151D01*
X1306569Y935121D01*
X1306598Y935092D01*
X1306642Y934945D01*
X1306657Y934856D01*
X1306731Y934753D01*
X1306760Y934679D01*
X1306790Y934576D01*
X1306863Y934444D01*
X1306893Y934414D01*
X1306922Y934311D01*
X1306937Y934193D01*
X1306966Y934164D01*
X1306981Y934135D01*
X1307011Y934105D01*
X1307025Y934076D01*
X1307070Y933972D01*
X1307062Y933936D01*
X1306989Y933950D01*
X1306900Y934039D01*
X1306841Y934053D01*
X1306738Y934068D01*
X1306635Y934127D01*
X1306503Y934186D01*
X1306385Y934201D01*
X1306282Y934274D01*
X1306237Y934319D01*
X1306090Y934333D01*
X1305958Y934407D01*
X1305913Y934451D01*
X1305854Y934466D01*
X1305707Y934481D01*
X1305604Y934539D01*
X1305545Y934598D01*
X1305486Y934613D01*
X1305390Y934635D01*
X1305339Y934657D01*
X1305206Y934716D01*
X1305148Y934702D01*
X1305125Y934679D01*
X1305096Y934576D01*
X1305081Y931189D01*
X1305067Y931145D01*
X1305052Y930865D01*
X1305037Y930821D01*
X1305015Y930710D01*
X1305000Y930651D01*
X1304978Y930570D01*
X1304963Y930511D01*
X1304941Y930121D01*
X1304912Y930047D01*
X1304890Y930025D01*
X1304875Y929996D01*
X1304831Y929952D01*
X1304779Y929723D01*
X1304728Y929642D01*
X1304669Y929583D01*
X1304654Y929466D01*
X1304610Y929392D01*
X1304566Y929348D01*
X1304551Y929318D01*
X1304463Y929156D01*
X1304411Y929119D01*
X1304352Y929031D01*
X1304301Y928979D01*
X1304286Y928950D01*
X1304227Y928847D01*
X1304190Y928810D01*
X1304161Y928795D01*
X1304094Y928729D01*
X1304087Y928707D01*
X1304058Y928692D01*
X1304028Y928663D01*
X1303999Y928648D01*
X1303962Y928626D01*
X1303947Y928597D01*
X1303896Y928545D01*
X1303815Y928508D01*
X1303800Y928479D01*
X1303734Y928412D01*
X1303638Y928376D01*
X1303557Y928295D01*
X1303527Y928280D01*
X1303387Y928184D01*
X1303351Y928147D01*
X1303248Y928103D01*
X1303218Y928089D01*
X1303181Y928052D01*
X1303174Y928030D01*
X1303144Y928015D01*
X1302982Y927926D01*
X1302923Y927868D01*
X1302776Y927809D01*
X1302739Y927772D01*
X1302725Y927742D01*
X1302703Y927720D01*
X1302673Y927706D01*
X1302629Y927691D01*
X1302570Y927676D01*
X1302496Y927661D01*
X1302437Y927602D01*
X1302408Y927588D01*
X1302305Y927543D01*
X1302216Y927529D01*
X1302180Y927492D01*
X1302165Y927462D01*
X1302099Y927426D01*
X1301996Y927396D01*
X1301907Y927382D01*
X1301863Y927337D01*
X1301834Y927323D01*
X1301701Y927264D01*
X1301627Y927249D01*
X1301591Y927212D01*
X1301576Y927153D01*
X1301591Y927021D01*
X1301613Y926999D01*
X1301716Y926969D01*
X1301944Y926947D01*
X1302018Y926932D01*
X1302077Y926918D01*
X1302194Y926903D01*
X1302268Y926888D01*
X1302467Y926866D01*
X1302879Y926851D01*
X1303078Y926829D01*
X1303270Y926800D01*
X1303535Y926756D01*
X1303608Y926741D01*
X1303756Y926726D01*
X1304153Y926711D01*
X1304286Y926697D01*
X1304639Y926667D01*
X1304728Y926653D01*
X1304853Y926616D01*
X1304993Y926593D01*
X1305184Y926579D01*
X1305670Y926564D01*
X1305744Y926549D01*
X1305862Y926505D01*
X1305936Y926476D01*
X1306017Y926454D01*
X1306075Y926439D01*
X1306458Y926424D01*
X1306503Y926410D01*
X1306584Y926387D01*
X1306642Y926373D01*
X1306709Y926350D01*
X1306782Y926321D01*
X1306885Y926292D01*
X1307121Y926277D01*
X1307276Y926240D01*
X1307364Y926181D01*
X1307460Y926144D01*
X1307607Y926130D01*
X1307651Y926115D01*
X1307784Y926041D01*
X1307858Y926012D01*
X1307916Y925997D01*
X1308005Y925982D01*
X1308108Y925923D01*
X1308181Y925879D01*
X1308270Y925864D01*
X1308373Y925806D01*
X1308447Y925732D01*
X1308535Y925717D01*
X1308564Y925688D01*
X1308594Y925673D01*
X1308623Y925629D01*
X1308653Y925614D01*
X1308756Y925555D01*
X1308940Y925371D01*
X1308955Y925342D01*
X1309028Y925268D01*
X1309058Y925194D01*
X1309073Y925121D01*
X1309095Y925099D01*
X1309124Y925084D01*
X1309161Y925018D01*
X1309190Y924900D01*
X1309212Y924789D01*
X1309242Y924716D01*
X1309294Y924591D01*
X1309308Y924443D01*
X1309294Y924252D01*
X1309220Y924090D01*
X1309205Y923987D01*
X1309190Y923928D01*
X1309168Y923788D01*
X1309154Y923729D01*
X1309109Y923655D01*
X1309080Y923641D01*
X1309058Y923574D01*
X1309028Y923456D01*
X1308970Y923353D01*
X1308940Y923324D01*
X1308903Y923228D01*
X1308866Y923177D01*
X1308837Y923147D01*
X1308822Y923118D01*
X1308778Y923074D01*
X1308763Y923044D01*
X1308645Y922926D01*
X1308631Y922897D01*
X1308579Y922845D01*
X1308557Y922838D01*
X1308542Y922808D01*
X1308513Y922794D01*
X1308498Y922764D01*
X1308432Y922713D01*
X1308403Y922698D01*
X1308344Y922639D01*
X1308314Y922624D01*
X1308211Y922580D01*
X1308174Y922573D01*
X1308159Y922543D01*
X1308108Y922492D01*
X1308034Y922462D01*
X1307983Y922440D01*
X1307968Y922411D01*
X1307916Y922359D01*
X1307813Y922315D01*
X1307740Y922286D01*
X1307666Y922212D01*
X1307563Y922168D01*
X1307534Y922153D01*
X1307430Y922050D01*
X1307327Y922020D01*
X1307298Y922006D01*
X1307209Y921917D01*
X1307136Y921888D01*
X1307077Y921873D01*
X1307047Y921858D01*
X1306959Y921770D01*
X1306863Y921733D01*
X1306812Y921696D01*
X1306782Y921667D01*
X1306753Y921652D01*
X1306591Y921564D01*
X1306517Y921490D01*
X1306385Y921416D01*
X1306311Y921343D01*
X1306178Y921269D01*
X1306120Y921210D01*
X1306046Y921181D01*
X1306024Y921159D01*
X1306009Y921129D01*
X1305928Y921048D01*
X1305899Y921034D01*
X1305818Y920967D01*
X1305810Y920945D01*
X1305781Y920930D01*
X1305751Y920901D01*
X1305722Y920886D01*
X1305626Y920791D01*
X1305619Y920769D01*
X1305589Y920754D01*
X1305523Y920687D01*
X1305508Y920658D01*
X1305471Y920607D01*
X1305442Y920592D01*
X1305413Y920562D01*
X1305383Y920548D01*
X1305354Y920474D01*
X1305302Y920393D01*
X1305258Y920349D01*
X1305243Y920290D01*
X1305221Y920194D01*
X1305199Y920143D01*
X1305111Y920010D01*
X1305096Y919818D01*
X1305081Y843305D01*
X1305067Y843260D01*
X1305044Y842929D01*
X1305030Y842679D01*
X1305022Y841213D01*
X1305037Y841169D01*
X1305052Y840757D01*
X1305067Y840712D01*
X1305089Y840381D01*
X1305103Y839954D01*
X1305118Y839704D01*
X1305140Y839637D01*
X1305177Y839541D01*
X1305192Y839482D01*
X1305228Y839357D01*
X1305243Y838945D01*
X1305258Y838842D01*
X1305309Y838702D01*
X1305332Y838636D01*
X1305346Y838577D01*
X1305383Y838334D01*
X1305398Y838260D01*
X1305413Y838201D01*
X1305479Y838046D01*
X1305508Y837943D01*
X1305530Y837803D01*
X1305545Y837745D01*
X1305582Y837693D01*
X1305611Y837619D01*
X1305641Y837516D01*
X1305663Y837406D01*
X1305737Y837288D01*
X1305773Y837207D01*
X1305818Y837060D01*
X1305832Y837030D01*
X1305869Y836993D01*
X1305891Y836986D01*
X1305906Y836957D01*
X1305936Y836883D01*
X1305965Y836765D01*
X1306053Y836677D01*
X1306112Y836529D01*
X1306142Y836500D01*
X1306149Y836478D01*
X1306178Y836463D01*
X1306201Y836441D01*
X1306245Y836323D01*
X1306282Y836286D01*
X1306311Y836272D01*
X1306348Y836235D01*
X1306392Y836161D01*
X1306422Y836132D01*
X1306429Y836110D01*
X1306458Y836095D01*
X1306480Y836073D01*
X1306495Y836043D01*
X1306525Y836014D01*
X1306532Y835992D01*
X1306561Y835977D01*
X1306591Y835948D01*
X1306620Y835933D01*
X1306657Y835911D01*
X1306672Y835881D01*
X1306701Y835852D01*
X1306716Y835823D01*
X1306738Y835800D01*
X1306768Y835786D01*
X1306849Y835719D01*
X1306915Y835653D01*
X1306974Y835638D01*
X1307055Y835572D01*
X1307143Y835513D01*
X1307261Y835440D01*
X1307298Y835388D01*
X1307416Y835344D01*
X1307467Y835307D01*
X1307475Y835285D01*
X1307578Y835241D01*
X1307673Y835204D01*
X1307725Y835167D01*
X1307769Y835123D01*
X1307872Y835094D01*
X1307990Y835049D01*
X1308034Y835005D01*
X1308064Y834990D01*
X1308137Y834961D01*
X1308240Y834946D01*
X1308329Y834931D01*
X1308410Y834865D01*
X1308447Y834828D01*
X1308631Y834806D01*
X1308690Y834791D01*
X1308837Y834703D01*
X1308903Y834681D01*
X1308962Y834666D01*
X1309139Y834652D01*
X1309183Y834637D01*
X1309271Y834622D01*
X1309463Y834534D01*
X1309698Y834519D01*
X1309743Y834504D01*
X1309934Y834490D01*
X1310067Y834431D01*
X1310185Y834401D01*
X1310450Y834387D01*
X1310494Y834372D01*
X1311105Y834350D01*
X1311238Y834335D01*
X1312247Y834328D01*
X1312291Y834342D01*
X1312526Y834357D01*
X1313086Y834372D01*
X1313130Y834387D01*
X1313491Y834409D01*
X1313565Y834423D01*
X1313624Y834438D01*
X1313690Y834460D01*
X1313793Y834490D01*
X1313852Y834504D01*
X1314191Y834519D01*
X1314235Y834534D01*
X1314456Y834548D01*
X1314588Y834607D01*
X1314706Y834637D01*
X1314905Y834659D01*
X1315096Y834674D01*
X1315185Y834688D01*
X1315258Y834718D01*
X1315340Y834755D01*
X1315413Y834784D01*
X1315472Y834799D01*
X1315575Y834814D01*
X1315767Y834828D01*
X1315811Y834843D01*
X1315870Y834858D01*
X1315877Y834836D01*
X1315796Y834784D01*
X1315708Y834696D01*
X1315678Y834681D01*
X1315605Y834652D01*
X1315553Y834644D01*
X1315546Y834652D01*
X1315494Y834615D01*
X1315479Y834571D01*
X1315428Y834519D01*
X1315369Y834504D01*
X1315317Y834453D01*
X1315303Y834423D01*
X1315281Y834401D01*
X1315251Y834387D01*
X1315119Y834313D01*
X1315060Y834254D01*
X1314964Y834217D01*
X1314920Y834173D01*
X1314905Y834144D01*
X1314883Y834121D01*
X1314780Y834062D01*
X1314706Y833989D01*
X1314677Y833974D01*
X1314574Y833901D01*
X1314544Y833886D01*
X1314530Y833856D01*
X1314500Y833842D01*
X1314375Y833775D01*
X1314360Y833746D01*
X1314294Y833680D01*
X1314191Y833621D01*
X1314117Y833547D01*
X1314088Y833532D01*
X1313985Y833473D01*
X1313948Y833422D01*
X1313881Y833385D01*
X1313808Y833341D01*
X1313749Y833282D01*
X1313719Y833267D01*
X1313638Y833201D01*
X1313587Y833164D01*
X1313557Y833135D01*
X1313528Y833120D01*
X1313499Y833090D01*
X1313469Y833076D01*
X1313432Y833054D01*
X1313418Y833024D01*
X1313395Y833002D01*
X1313366Y832987D01*
X1313263Y832914D01*
X1313189Y832840D01*
X1313094Y832788D01*
X1313049Y832715D01*
X1313012Y832678D01*
X1312880Y832604D01*
X1312821Y832545D01*
X1312791Y832531D01*
X1312696Y832465D01*
X1312688Y832442D01*
X1312659Y832428D01*
X1312630Y832398D01*
X1312556Y832369D01*
X1312467Y832280D01*
X1312394Y832236D01*
X1312276Y832118D01*
X1312247Y832104D01*
X1312144Y832001D01*
X1312114Y831986D01*
X1312033Y831919D01*
X1311967Y831853D01*
X1311893Y831809D01*
X1311856Y831772D01*
X1311841Y831743D01*
X1311819Y831721D01*
X1311790Y831706D01*
X1311687Y831632D01*
X1311657Y831588D01*
X1311628Y831573D01*
X1311525Y831500D01*
X1311436Y831411D01*
X1311407Y831397D01*
X1311378Y831367D01*
X1311348Y831352D01*
X1311311Y831301D01*
X1311289Y831279D01*
X1311260Y831264D01*
X1311127Y831161D01*
X1311098Y831132D01*
X1311068Y831117D01*
X1310950Y830999D01*
X1310921Y830984D01*
X1310855Y830933D01*
X1310840Y830903D01*
X1310803Y830866D01*
X1310774Y830852D01*
X1310626Y830704D01*
X1310597Y830690D01*
X1310494Y830587D01*
X1310464Y830572D01*
X1310369Y830476D01*
X1310354Y830447D01*
X1310302Y830410D01*
X1310221Y830344D01*
X1310185Y830292D01*
X1310155Y830277D01*
X1310126Y830248D01*
X1310096Y830233D01*
X1309831Y829968D01*
X1309802Y829953D01*
X1309647Y829799D01*
X1309632Y829769D01*
X1309448Y829585D01*
X1309419Y829570D01*
X1309375Y829526D01*
X1309352Y829519D01*
X1309338Y829489D01*
X1309220Y829371D01*
X1309205Y829342D01*
X1309124Y829261D01*
X1309095Y829246D01*
X1309043Y829195D01*
X1309028Y829165D01*
X1308977Y829128D01*
X1308925Y829077D01*
X1308911Y829047D01*
X1308844Y828981D01*
X1308815Y828967D01*
X1308778Y828930D01*
X1308763Y828900D01*
X1308645Y828782D01*
X1308631Y828753D01*
X1308483Y828606D01*
X1308469Y828576D01*
X1308417Y828525D01*
X1308388Y828510D01*
X1308366Y828488D01*
X1308351Y828458D01*
X1308285Y828363D01*
X1308255Y828348D01*
X1308204Y828296D01*
X1308189Y828267D01*
X1308123Y828186D01*
X1308042Y828105D01*
X1308027Y828075D01*
X1307939Y827987D01*
X1307924Y827958D01*
X1307858Y827877D01*
X1307791Y827810D01*
X1307776Y827781D01*
X1307710Y827700D01*
X1307644Y827634D01*
X1307585Y827531D01*
X1307534Y827494D01*
X1307511Y827471D01*
X1307475Y827376D01*
X1307394Y827295D01*
X1307379Y827265D01*
X1307305Y827133D01*
X1307231Y827059D01*
X1307195Y826963D01*
X1307158Y826912D01*
X1307106Y826860D01*
X1307084Y826853D01*
X1307070Y826794D01*
X1306996Y826691D01*
X1306937Y826632D01*
X1306922Y826573D01*
X1306863Y826470D01*
X1306819Y826426D01*
X1306804Y826396D01*
X1306775Y826323D01*
X1306716Y826220D01*
X1306687Y826190D01*
X1306657Y826116D01*
X1306628Y826013D01*
X1306569Y825910D01*
X1306539Y825881D01*
X1306510Y825778D01*
X1306458Y825638D01*
X1306422Y825601D01*
X1306377Y825498D01*
X1306355Y825358D01*
X1306340Y825284D01*
X1306326Y825226D01*
X1306282Y825137D01*
X1306245Y825056D01*
X1306230Y824909D01*
X1306245Y823627D01*
X1306259Y823583D01*
X1306274Y823554D01*
X1306318Y823451D01*
X1306333Y823392D01*
X1306363Y823186D01*
X1306385Y823001D01*
X1306414Y822928D01*
X1306480Y822773D01*
X1306510Y822670D01*
X1306532Y822545D01*
X1306591Y822457D01*
X1306628Y822375D01*
X1306650Y822250D01*
X1306664Y822177D01*
X1306723Y822088D01*
X1306760Y822007D01*
X1306775Y821948D01*
X1306819Y821831D01*
X1306863Y821786D01*
X1306878Y821757D01*
X1306922Y821654D01*
X1306937Y821565D01*
X1306966Y821536D01*
X1306981Y821507D01*
X1307040Y821448D01*
X1307055Y821389D01*
X1307099Y821271D01*
X1307121Y821249D01*
X1307143Y821241D01*
X1307158Y821212D01*
X1307187Y821182D01*
X1307217Y821079D01*
X1307239Y821013D01*
X1307268Y820998D01*
X1307305Y820962D01*
X1307320Y820932D01*
X1307364Y820829D01*
X1307379Y820755D01*
X1307401Y820733D01*
X1307430Y820719D01*
X1307453Y820696D01*
X1307563Y820483D01*
X1307592Y820468D01*
X1307614Y820446D01*
X1307659Y820328D01*
X1307725Y820247D01*
X1307747Y820225D01*
X1307821Y820093D01*
X1307909Y820004D01*
X1307924Y819945D01*
X1307990Y819864D01*
X1308012Y819842D01*
X1308056Y819769D01*
X1308078Y819717D01*
X1308100Y819710D01*
X1308108Y819688D01*
X1308137Y819673D01*
X1308159Y819651D01*
X1308174Y819621D01*
X1308233Y819518D01*
X1308270Y819481D01*
X1308292Y819474D01*
X1308307Y819445D01*
X1308336Y819415D01*
X1308351Y819356D01*
X1308403Y819305D01*
X1308432Y819290D01*
X1308469Y819253D01*
X1308513Y819180D01*
X1308616Y819076D01*
X1308631Y819047D01*
X1308675Y818973D01*
X1308749Y818900D01*
X1308808Y818796D01*
X1308881Y818723D01*
X1308896Y818693D01*
X1308999Y818590D01*
X1309014Y818561D01*
X1309080Y818480D01*
X1309176Y818384D01*
X1309190Y818355D01*
X1309242Y818303D01*
X1309271Y818288D01*
X1309323Y818237D01*
X1309338Y818207D01*
X1309470Y818075D01*
X1309485Y818045D01*
X1309522Y818008D01*
X1309551Y817994D01*
X1309617Y817927D01*
X1309632Y817898D01*
X1309654Y817861D01*
X1309684Y817847D01*
X1309713Y817817D01*
X1309735Y817810D01*
X1309750Y817780D01*
X1309853Y817648D01*
X1309883Y817618D01*
X1309897Y817589D01*
X1309949Y817537D01*
X1309971Y817530D01*
X1309978Y817508D01*
X1310008Y817493D01*
X1310081Y817405D01*
X1310229Y817257D01*
X1310258Y817243D01*
X1310310Y817191D01*
X1310325Y817162D01*
X1310479Y817007D01*
X1310523Y816992D01*
X1310604Y816926D01*
X1310619Y816897D01*
X1310656Y816860D01*
X1310685Y816845D01*
X1310752Y816779D01*
X1310766Y816749D01*
X1310899Y816661D01*
X1310914Y816631D01*
X1310950Y816580D01*
X1310980Y816565D01*
X1311076Y816469D01*
X1311090Y816440D01*
X1311113Y816418D01*
X1311142Y816403D01*
X1311245Y816300D01*
X1311275Y816285D01*
X1311466Y816094D01*
X1311495Y816079D01*
X1311554Y816020D01*
X1311584Y816005D01*
X1311613Y815976D01*
X1311643Y815961D01*
X1311731Y815873D01*
X1311761Y815858D01*
X1311841Y815792D01*
X1311871Y815762D01*
X1311878Y815740D01*
X1311952Y815711D01*
X1312070Y815593D01*
X1312144Y815549D01*
X1312261Y815431D01*
X1312291Y815416D01*
X1312423Y815284D01*
X1312497Y815240D01*
X1312519Y815218D01*
X1312534Y815188D01*
X1312571Y815151D01*
X1312615Y815136D01*
X1312696Y815070D01*
X1312718Y815033D01*
X1312821Y814975D01*
X1312858Y814938D01*
X1312872Y814908D01*
X1312968Y814871D01*
X1313064Y814805D01*
X1313079Y814776D01*
X1313130Y814724D01*
X1313204Y814680D01*
X1313241Y814643D01*
X1313160Y814636D01*
X1313057Y814709D01*
X1312909Y814724D01*
X1312711Y814746D01*
X1312637Y814776D01*
X1312482Y814842D01*
X1312423Y814857D01*
X1312276Y814871D01*
X1312099Y814901D01*
X1311967Y814960D01*
X1311849Y814989D01*
X1311746Y815004D01*
X1311599Y815019D01*
X1311429Y815041D01*
X1311304Y815078D01*
X1311201Y815107D01*
X1311090Y815129D01*
X1310884Y815144D01*
X1310766Y815159D01*
X1310693Y815173D01*
X1310612Y815195D01*
X1310479Y815225D01*
X1310435Y815240D01*
X1310317Y815269D01*
X1310023Y815284D01*
X1309978Y815298D01*
X1309691Y815321D01*
X1309603Y815335D01*
X1309544Y815350D01*
X1309419Y815387D01*
X1309264Y815409D01*
X1308866Y815424D01*
X1308292Y815439D01*
X1308174Y815453D01*
X1308086Y815468D01*
X1307968Y815483D01*
X1307821Y815497D01*
X1307732Y815512D01*
X1307335Y815527D01*
X1307217Y815542D01*
X1306679Y815549D01*
X1306635Y815534D01*
X1306444Y815519D01*
X1306134Y815505D01*
X1306090Y815490D01*
X1305943Y815475D01*
X1305803Y815453D01*
X1305604Y815431D01*
X1304971Y815416D01*
X1304927Y815402D01*
X1304809Y815387D01*
X1304676Y815328D01*
X1304426Y815298D01*
X1304367Y815284D01*
X1304183Y815262D01*
X1304087Y815225D01*
X1303984Y815181D01*
X1303807Y815136D01*
X1303675Y815122D01*
X1303513Y815048D01*
X1303409Y815019D01*
X1303299Y814997D01*
X1303211Y814952D01*
X1303100Y814886D01*
X1302975Y814864D01*
X1302916Y814849D01*
X1302820Y814754D01*
X1302717Y814724D01*
X1302629Y814709D01*
X1302526Y814606D01*
X1302423Y814577D01*
X1302349Y814562D01*
X1302312Y814525D01*
X1302298Y814496D01*
X1302261Y814459D01*
X1302187Y814430D01*
X1302106Y814408D01*
X1302077Y814393D01*
X1302062Y814363D01*
X1302025Y814326D01*
X1301929Y814290D01*
X1301870Y814231D01*
X1301856Y814201D01*
X1301834Y814179D01*
X1301804Y814164D01*
X1301701Y814091D01*
X1301672Y814061D01*
X1301642Y814047D01*
X1301613Y814017D01*
X1301583Y814002D01*
X1301532Y813951D01*
X1301524Y813929D01*
X1301495Y813914D01*
X1301436Y813855D01*
X1301414Y813848D01*
X1301370Y813774D01*
X1301348Y813752D01*
X1301318Y813737D01*
X1301267Y813686D01*
X1301222Y813612D01*
X1301163Y813553D01*
X1301149Y813524D01*
X1301090Y813421D01*
X1301053Y813384D01*
X1301031Y813376D01*
X1301016Y813347D01*
X1300928Y813185D01*
X1300869Y813097D01*
X1300847Y813001D01*
X1300817Y812927D01*
X1300795Y812905D01*
X1300780Y812876D01*
X1300722Y812787D01*
X1300685Y812618D01*
X1300655Y812544D01*
X1300596Y812456D01*
X1300582Y812397D01*
X1300567Y812264D01*
X1300552Y812191D01*
X1300538Y812132D01*
X1300486Y812051D01*
X1300442Y811948D01*
X1300420Y811675D01*
X1300405Y811616D01*
X1300376Y811543D01*
X1300324Y811447D01*
X1300294Y811344D01*
X1300280Y811064D01*
X1300265Y810917D01*
X1300250Y810858D01*
X1300236Y810725D01*
X1300177Y810593D01*
X1300162Y810490D01*
X1300132Y810018D01*
X1300118Y809915D01*
X1300103Y809650D01*
X1300088Y809606D01*
X1300059Y809488D01*
X1300052Y809422D01*
X1300059Y809415D01*
X1300044Y809370D01*
X1300029Y809267D01*
X1300015Y809076D01*
X1299993Y808479D01*
X1299978Y807242D01*
X1299971Y806984D01*
X1299985Y806940D01*
X1300000Y805055D01*
X1300015Y805011D01*
X1300029Y804436D01*
X1300044Y804392D01*
X1300066Y804179D01*
X1300081Y804120D01*
X1300110Y803943D01*
X1300140Y803221D01*
X1300155Y802883D01*
X1300169Y802647D01*
X1300184Y802573D01*
X1300199Y802514D01*
X1300221Y802433D01*
X1300250Y802227D01*
X1300272Y801910D01*
X1300287Y801483D01*
X1300302Y801321D01*
X1300317Y801174D01*
X1300331Y801056D01*
X1300368Y800975D01*
X1300398Y800901D01*
X1300420Y800762D01*
X1300434Y800555D01*
X1300442Y800504D01*
X1300405Y800497D01*
X1300339Y800622D01*
X1300280Y800754D01*
X1300265Y800857D01*
X1300243Y800909D01*
X1300177Y800946D01*
X1300147Y801019D01*
X1300132Y801078D01*
X1300096Y801174D01*
X1300029Y801226D01*
X1300000Y801299D01*
X1299978Y801380D01*
X1299956Y801432D01*
X1299882Y801535D01*
X1299867Y801594D01*
X1299794Y801726D01*
X1299749Y801770D01*
X1299720Y801844D01*
X1299705Y801903D01*
X1299646Y802006D01*
X1299617Y802036D01*
X1299602Y802065D01*
X1299588Y802109D01*
X1299543Y802227D01*
X1299470Y802301D01*
X1299440Y802374D01*
X1299411Y802492D01*
X1299389Y802529D01*
X1299359Y802544D01*
X1299322Y802581D01*
X1299293Y802654D01*
X1299278Y802713D01*
X1299263Y802787D01*
X1299197Y802868D01*
X1299175Y802890D01*
X1299146Y802993D01*
X1299116Y803067D01*
X1299050Y803148D01*
X1299028Y803170D01*
X1298998Y803243D01*
X1298976Y803324D01*
X1298917Y803413D01*
X1298866Y803538D01*
X1298836Y803612D01*
X1298770Y803693D01*
X1298719Y803818D01*
X1298689Y803891D01*
X1298616Y803965D01*
X1298586Y804039D01*
X1298557Y804156D01*
X1298520Y804193D01*
X1298490Y804208D01*
X1298453Y804274D01*
X1298417Y804370D01*
X1298365Y804451D01*
X1298336Y804466D01*
X1298321Y804495D01*
X1298291Y804569D01*
X1298269Y804665D01*
X1298196Y804753D01*
X1298159Y804834D01*
X1298144Y804922D01*
X1298107Y804974D01*
X1298078Y804989D01*
X1298056Y805011D01*
X1298041Y805040D01*
X1298012Y805114D01*
X1297990Y805195D01*
X1297953Y805246D01*
X1297923Y805276D01*
X1297908Y805305D01*
X1297879Y805379D01*
X1297842Y805475D01*
X1297791Y805526D01*
X1297776Y805556D01*
X1297746Y805585D01*
X1297732Y805644D01*
X1297702Y805718D01*
X1297643Y805777D01*
X1297599Y805880D01*
X1297562Y805975D01*
X1297525Y806027D01*
X1297481Y806071D01*
X1297459Y806152D01*
X1297408Y806233D01*
X1297334Y806307D01*
X1297305Y806410D01*
X1297260Y806484D01*
X1297202Y806543D01*
X1297172Y806616D01*
X1297157Y806675D01*
X1297143Y806704D01*
X1297039Y806808D01*
X1297017Y806889D01*
X1297003Y806947D01*
X1296958Y807007D01*
X1296929Y807021D01*
X1296892Y807102D01*
X1296855Y807198D01*
X1296819Y807250D01*
X1296774Y807294D01*
X1296760Y807323D01*
X1296745Y807367D01*
X1296716Y807441D01*
X1296657Y807500D01*
X1296642Y807529D01*
X1296583Y807662D01*
X1296568Y807691D01*
X1296531Y807728D01*
X1296509Y807736D01*
X1296495Y807765D01*
X1296450Y807868D01*
X1296436Y807897D01*
X1296391Y807942D01*
X1296377Y807971D01*
X1296333Y808015D01*
X1296318Y808074D01*
X1296274Y808148D01*
X1296215Y808207D01*
X1296156Y808339D01*
X1296141Y808369D01*
X1296104Y808406D01*
X1296082Y808413D01*
X1296067Y808443D01*
X1296038Y808516D01*
X1296016Y808568D01*
X1295986Y808582D01*
X1295957Y808612D01*
X1295927Y808627D01*
X1295876Y808752D01*
X1295832Y808825D01*
X1295758Y808899D01*
X1295743Y808958D01*
X1295677Y809039D01*
X1295626Y809090D01*
X1295567Y809238D01*
X1295493Y809311D01*
X1295427Y809437D01*
X1295397Y809451D01*
X1295361Y809488D01*
X1295302Y809591D01*
X1295235Y809672D01*
X1295199Y809709D01*
X1295147Y809820D01*
X1295117Y809834D01*
X1295066Y809886D01*
X1295022Y809959D01*
X1294985Y809996D01*
X1294955Y810011D01*
X1294904Y810063D01*
X1294845Y810166D01*
X1294757Y810254D01*
X1294712Y810328D01*
X1294624Y810416D01*
X1294558Y810527D01*
X1294528Y810541D01*
X1294469Y810630D01*
X1294440Y810659D01*
X1294411Y810674D01*
X1294212Y810873D01*
X1294204Y810895D01*
X1294182Y810902D01*
X1294175Y810924D01*
X1294101Y810968D01*
X1294057Y811013D01*
X1293925Y811086D01*
X1293902Y811108D01*
X1293888Y811138D01*
X1293851Y811175D01*
X1293777Y811204D01*
X1293748Y811219D01*
X1293696Y811270D01*
X1293681Y811300D01*
X1293659Y811322D01*
X1293549Y811344D01*
X1293497Y811381D01*
X1293424Y811454D01*
X1293321Y811484D01*
X1293217Y811543D01*
X1293188Y811572D01*
X1293159Y811587D01*
X1293085Y811616D01*
X1292952Y811631D01*
X1292908Y811646D01*
X1292776Y811705D01*
X1292672Y811734D01*
X1292393Y811749D01*
X1291656Y811734D01*
X1291612Y811720D01*
X1291472Y811668D01*
X1291376Y811631D01*
X1291266Y811609D01*
X1291207Y811594D01*
X1291089Y811521D01*
X1290993Y811484D01*
X1290890Y811469D01*
X1290824Y811432D01*
X1290817Y811410D01*
X1290787Y811395D01*
X1290758Y811366D01*
X1290684Y811337D01*
X1290574Y811314D01*
X1290485Y811241D01*
X1290463Y811219D01*
X1290390Y811189D01*
X1290301Y811175D01*
X1290220Y811108D01*
X1290169Y811057D01*
X1290073Y811035D01*
X1289999Y811005D01*
X1289977Y810983D01*
X1289948Y810968D01*
X1289918Y810939D01*
X1289771Y810880D01*
X1289690Y810814D01*
X1289668Y810792D01*
X1289594Y810762D01*
X1289499Y810725D01*
X1289418Y810644D01*
X1289359Y810630D01*
X1289219Y810534D01*
X1289123Y810482D01*
X1289072Y810460D01*
X1289057Y810431D01*
X1288976Y810350D01*
X1288917Y810335D01*
X1288814Y810276D01*
X1288755Y810217D01*
X1288674Y810195D01*
X1288644Y810180D01*
X1288630Y810151D01*
X1288600Y810122D01*
X1288593Y810099D01*
X1288563Y810085D01*
X1288460Y810041D01*
X1288394Y810004D01*
X1288379Y809974D01*
X1288357Y809952D01*
X1288254Y809908D01*
X1288210Y809893D01*
X1288173Y809856D01*
X1288158Y809827D01*
X1288136Y809805D01*
X1287974Y809716D01*
X1287901Y809643D01*
X1287805Y809621D01*
X1287694Y809510D01*
X1287665Y809495D01*
X1287562Y809422D01*
X1287532Y809392D01*
X1287503Y809378D01*
X1287429Y809348D01*
X1287385Y809333D01*
X1287363Y809311D01*
X1287348Y809282D01*
X1287297Y809230D01*
X1287194Y809172D01*
X1287120Y809098D01*
X1287017Y809039D01*
X1286914Y808936D01*
X1286855Y808921D01*
X1286789Y808884D01*
X1286774Y808855D01*
X1286722Y808803D01*
X1286693Y808789D01*
X1286590Y808715D01*
X1286546Y808671D01*
X1286398Y808612D01*
X1286347Y808560D01*
X1286339Y808538D01*
X1286310Y808523D01*
X1286207Y808450D01*
X1286133Y808376D01*
X1286001Y808303D01*
X1285927Y808229D01*
X1285883Y808214D01*
X1285802Y808148D01*
X1285750Y808096D01*
X1285721Y808082D01*
X1285640Y808015D01*
X1285559Y807934D01*
X1285485Y807890D01*
X1285412Y807816D01*
X1285382Y807802D01*
X1285279Y807743D01*
X1285257Y807721D01*
X1285242Y807691D01*
X1285176Y807654D01*
X1285073Y807596D01*
X1284999Y807522D01*
X1284970Y807507D01*
X1284889Y807441D01*
X1284852Y807404D01*
X1284822Y807389D01*
X1284793Y807360D01*
X1284697Y807308D01*
X1284682Y807279D01*
X1284660Y807257D01*
X1284535Y807191D01*
X1284520Y807161D01*
X1284469Y807110D01*
X1284439Y807095D01*
X1284358Y807029D01*
X1284322Y806977D01*
X1284292Y806962D01*
X1284204Y806903D01*
X1284174Y806889D01*
X1284101Y806815D01*
X1284027Y806771D01*
X1283924Y806668D01*
X1283821Y806609D01*
X1283762Y806550D01*
X1283732Y806535D01*
X1283637Y806469D01*
X1283622Y806439D01*
X1283585Y806403D01*
X1283556Y806388D01*
X1283430Y806307D01*
X1283416Y806277D01*
X1283305Y806211D01*
X1283283Y806204D01*
X1283268Y806174D01*
X1283217Y806123D01*
X1283143Y806079D01*
X1283040Y805975D01*
X1283011Y805961D01*
X1282930Y805894D01*
X1282878Y805843D01*
X1282849Y805828D01*
X1282716Y805725D01*
X1282687Y805696D01*
X1282657Y805681D01*
X1282576Y805615D01*
X1282561Y805585D01*
X1282539Y805563D01*
X1282510Y805548D01*
X1282414Y805497D01*
X1282399Y805467D01*
X1282333Y805401D01*
X1282304Y805386D01*
X1282223Y805320D01*
X1282142Y805239D01*
X1282039Y805180D01*
X1281980Y805121D01*
X1281906Y805077D01*
X1281818Y804989D01*
X1281788Y804974D01*
X1281715Y804930D01*
X1281626Y804841D01*
X1281597Y804827D01*
X1281545Y804790D01*
X1281530Y804760D01*
X1281494Y804724D01*
X1281464Y804709D01*
X1281435Y804679D01*
X1281405Y804665D01*
X1281354Y804613D01*
X1281346Y804591D01*
X1281317Y804576D01*
X1281273Y804532D01*
X1281199Y804488D01*
X1281162Y804436D01*
X1281037Y804355D01*
X1280978Y804282D01*
X1280949Y804267D01*
X1280875Y804223D01*
X1280802Y804149D01*
X1280772Y804134D01*
X1280691Y804068D01*
X1280610Y803987D01*
X1280580Y803972D01*
X1280477Y803899D01*
X1280433Y803855D01*
X1280404Y803840D01*
X1280323Y803774D01*
X1280257Y803707D01*
X1280227Y803693D01*
X1280109Y803575D01*
X1280013Y803523D01*
X1279999Y803494D01*
X1279903Y803398D01*
X1279874Y803383D01*
X1279852Y803361D01*
X1279837Y803332D01*
X1279785Y803280D01*
X1279756Y803265D01*
X1279623Y803162D01*
X1279579Y803118D01*
X1279483Y803067D01*
X1279469Y803037D01*
X1279446Y803015D01*
X1279417Y803000D01*
X1279314Y802927D01*
X1279225Y802838D01*
X1279181Y802824D01*
X1279145Y802772D01*
X1279122Y802750D01*
X1279093Y802735D01*
X1279012Y802669D01*
X1278968Y802625D01*
X1278960Y802603D01*
X1278931Y802588D01*
X1278902Y802559D01*
X1278872Y802544D01*
X1278769Y802441D01*
X1278739Y802426D01*
X1278703Y802404D01*
X1278688Y802374D01*
X1278592Y802279D01*
X1278519Y802234D01*
X1278482Y802198D01*
X1278467Y802168D01*
X1278386Y802131D01*
X1278356Y802117D01*
X1278305Y802065D01*
X1278298Y802043D01*
X1278268Y802028D01*
X1278239Y801999D01*
X1278209Y801984D01*
X1278106Y801881D01*
X1278077Y801866D01*
X1277996Y801800D01*
X1277900Y801704D01*
X1277870Y801690D01*
X1277767Y801586D01*
X1277738Y801572D01*
X1277657Y801520D01*
X1277642Y801491D01*
X1277620Y801469D01*
X1277591Y801454D01*
X1277546Y801410D01*
X1277524Y801402D01*
X1277510Y801373D01*
X1277458Y801321D01*
X1277429Y801307D01*
X1277355Y801262D01*
X1277281Y801174D01*
X1277208Y801130D01*
X1277186Y801108D01*
X1277171Y801078D01*
X1277119Y801027D01*
X1277090Y801012D01*
X1277009Y800946D01*
X1276913Y800850D01*
X1276840Y800806D01*
X1276766Y800732D01*
X1276736Y800717D01*
X1276655Y800651D01*
X1276604Y800600D01*
X1276574Y800585D01*
X1276508Y800519D01*
X1276493Y800489D01*
X1276471Y800467D01*
X1276368Y800408D01*
X1276265Y800305D01*
X1276236Y800290D01*
X1276199Y800254D01*
X1276184Y800224D01*
X1276162Y800202D01*
X1276133Y800187D01*
X1276000Y800084D01*
X1275941Y800025D01*
X1275912Y800011D01*
X1275890Y799988D01*
X1275875Y799959D01*
X1275831Y799915D01*
X1275823Y799893D01*
X1275794Y799878D01*
X1275691Y799804D01*
X1275632Y799745D01*
X1275602Y799731D01*
X1275521Y799664D01*
X1275455Y799598D01*
X1275426Y799583D01*
X1275322Y799480D01*
X1275293Y799465D01*
X1275212Y799399D01*
X1275131Y799318D01*
X1275102Y799304D01*
X1274984Y799186D01*
X1274954Y799171D01*
X1274925Y799141D01*
X1274895Y799127D01*
X1274859Y799090D01*
X1274851Y799068D01*
X1274822Y799053D01*
X1274763Y798994D01*
X1274733Y798979D01*
X1274675Y798906D01*
X1274645Y798891D01*
X1274564Y798825D01*
X1274549Y798795D01*
X1274512Y798758D01*
X1274483Y798744D01*
X1274402Y798678D01*
X1274336Y798611D01*
X1274306Y798596D01*
X1274240Y798545D01*
X1274225Y798515D01*
X1274174Y798479D01*
X1274093Y798412D01*
X1274026Y798346D01*
X1273997Y798331D01*
X1273968Y798302D01*
X1273938Y798287D01*
X1273820Y798169D01*
X1273791Y798155D01*
X1273702Y798066D01*
X1273673Y798052D01*
X1273511Y797890D01*
X1273482Y797875D01*
X1273378Y797772D01*
X1273349Y797757D01*
X1273216Y797625D01*
X1273143Y797580D01*
X1273069Y797492D01*
X1273025Y797477D01*
X1272892Y797345D01*
X1272863Y797330D01*
X1272811Y797278D01*
X1272797Y797249D01*
X1272775Y797227D01*
X1272745Y797212D01*
X1272671Y797168D01*
X1272613Y797109D01*
X1272590Y797116D01*
X1272664Y797219D01*
X1272723Y797322D01*
X1272811Y797411D01*
X1272826Y797440D01*
X1272856Y797470D01*
X1272900Y797543D01*
X1272973Y797617D01*
X1272988Y797676D01*
X1273032Y797750D01*
X1273069Y797786D01*
X1273099Y797801D01*
X1273121Y797823D01*
X1273187Y797949D01*
X1273216Y797963D01*
X1273268Y798015D01*
X1273297Y798088D01*
X1273364Y798169D01*
X1273415Y798221D01*
X1273452Y798302D01*
X1273474Y798309D01*
X1273489Y798339D01*
X1273533Y798383D01*
X1273548Y798412D01*
X1273643Y798552D01*
X1273680Y798589D01*
X1273739Y798692D01*
X1273813Y798766D01*
X1273872Y798869D01*
X1273894Y798906D01*
X1273916Y798913D01*
X1273931Y798943D01*
X1273960Y798972D01*
X1274012Y799083D01*
X1274041Y799097D01*
X1274107Y799164D01*
X1274144Y799259D01*
X1274225Y799340D01*
X1274240Y799370D01*
X1274299Y799473D01*
X1274350Y799524D01*
X1274380Y799539D01*
X1274446Y799679D01*
X1274483Y799716D01*
X1274512Y799731D01*
X1274535Y799753D01*
X1274608Y799885D01*
X1274667Y799944D01*
X1274726Y800047D01*
X1274778Y800099D01*
X1274807Y800114D01*
X1274873Y800239D01*
X1274947Y800312D01*
X1274962Y800371D01*
X1275057Y800497D01*
X1275079Y800504D01*
X1275094Y800533D01*
X1275153Y800636D01*
X1275241Y800725D01*
X1275256Y800798D01*
X1275322Y800879D01*
X1275374Y800931D01*
X1275411Y801027D01*
X1275470Y801086D01*
X1275499Y801100D01*
X1275536Y801137D01*
X1275551Y801196D01*
X1275617Y801262D01*
X1275639Y801270D01*
X1275654Y801299D01*
X1275727Y801432D01*
X1275816Y801520D01*
X1275831Y801550D01*
X1275882Y801645D01*
X1275912Y801660D01*
X1275948Y801697D01*
X1275985Y801793D01*
X1276007Y801815D01*
X1276015Y801837D01*
X1276037Y801844D01*
X1276052Y801874D01*
X1276125Y801991D01*
X1276140Y802021D01*
X1276177Y802058D01*
X1276206Y802072D01*
X1276228Y802094D01*
X1276265Y802190D01*
X1276361Y802286D01*
X1276383Y802367D01*
X1276427Y802441D01*
X1276457Y802455D01*
X1276508Y802507D01*
X1276582Y802639D01*
X1276633Y802676D01*
X1276655Y802698D01*
X1276677Y802779D01*
X1276722Y802853D01*
X1276751Y802868D01*
X1276788Y802905D01*
X1276803Y802934D01*
X1276898Y803074D01*
X1276935Y803111D01*
X1276994Y803214D01*
X1277053Y803273D01*
X1277127Y803405D01*
X1277200Y803479D01*
X1277215Y803509D01*
X1277274Y803612D01*
X1277296Y803634D01*
X1277326Y803648D01*
X1277362Y803729D01*
X1277421Y803832D01*
X1277495Y803906D01*
X1277569Y804039D01*
X1277642Y804112D01*
X1277657Y804201D01*
X1277723Y804282D01*
X1277790Y804348D01*
X1277848Y804451D01*
X1277885Y804488D01*
X1277915Y804503D01*
X1277937Y804525D01*
X1277952Y804584D01*
X1278018Y804665D01*
X1278084Y804775D01*
X1278099Y804805D01*
X1278165Y804886D01*
X1278202Y804908D01*
X1278217Y804937D01*
X1278231Y804981D01*
X1278276Y805055D01*
X1278320Y805099D01*
X1278423Y805291D01*
X1278445Y805313D01*
X1278467Y805320D01*
X1278482Y805350D01*
X1278548Y805475D01*
X1278577Y805489D01*
X1278614Y805526D01*
X1278629Y805585D01*
X1278688Y805688D01*
X1278710Y805725D01*
X1278739Y805740D01*
X1278762Y805762D01*
X1278791Y805835D01*
X1278806Y805865D01*
X1278872Y805931D01*
X1278894Y805939D01*
X1278924Y806012D01*
X1278982Y806115D01*
X1279056Y806189D01*
X1279093Y806285D01*
X1279130Y806336D01*
X1279174Y806366D01*
X1279189Y806395D01*
X1279262Y806528D01*
X1279284Y806565D01*
X1279314Y806579D01*
X1279336Y806601D01*
X1279373Y806697D01*
X1279424Y806778D01*
X1279483Y806837D01*
X1279557Y806970D01*
X1279616Y807029D01*
X1279667Y807169D01*
X1279748Y807250D01*
X1279785Y807345D01*
X1279837Y807426D01*
X1279874Y807463D01*
X1279896Y807470D01*
X1279910Y807529D01*
X1279969Y807632D01*
X1280028Y807691D01*
X1280058Y807765D01*
X1280117Y807868D01*
X1280190Y807912D01*
X1280205Y807971D01*
X1280264Y808074D01*
X1280308Y808118D01*
X1280323Y808148D01*
X1280396Y808280D01*
X1280455Y808339D01*
X1280485Y808413D01*
X1280544Y808516D01*
X1280617Y808590D01*
X1280647Y808708D01*
X1280669Y808744D01*
X1280691Y808752D01*
X1280698Y808774D01*
X1280728Y808789D01*
X1280750Y808855D01*
X1280824Y808987D01*
X1280846Y809009D01*
X1280875Y809024D01*
X1280897Y809046D01*
X1280912Y809149D01*
X1280941Y809179D01*
X1280956Y809208D01*
X1281015Y809267D01*
X1281030Y809297D01*
X1281044Y809341D01*
X1281081Y809437D01*
X1281162Y809518D01*
X1281177Y809547D01*
X1281265Y809709D01*
X1281317Y809746D01*
X1281332Y809834D01*
X1281405Y809952D01*
X1281457Y810004D01*
X1281501Y810122D01*
X1281567Y810202D01*
X1281589Y810225D01*
X1281693Y810416D01*
X1281722Y810445D01*
X1281774Y810585D01*
X1281825Y810667D01*
X1281884Y810725D01*
X1281899Y810784D01*
X1281928Y810858D01*
X1281994Y810939D01*
X1282031Y811020D01*
X1282053Y811116D01*
X1282076Y811138D01*
X1282090Y811167D01*
X1282112Y811189D01*
X1282134Y811197D01*
X1282149Y811226D01*
X1282179Y811300D01*
X1282193Y811373D01*
X1282245Y811440D01*
X1282274Y811454D01*
X1282341Y811609D01*
X1282385Y811683D01*
X1282444Y811742D01*
X1282466Y811837D01*
X1282495Y811911D01*
X1282532Y811963D01*
X1282591Y812021D01*
X1282613Y812117D01*
X1282687Y812235D01*
X1282724Y812272D01*
X1282738Y812331D01*
X1282760Y812412D01*
X1282834Y812530D01*
X1282871Y812566D01*
X1282885Y812640D01*
X1282959Y812773D01*
X1283018Y812861D01*
X1283033Y812979D01*
X1283092Y813082D01*
X1283151Y813141D01*
X1283173Y813296D01*
X1283224Y813376D01*
X1283283Y813435D01*
X1283313Y813553D01*
X1283335Y813649D01*
X1283372Y813700D01*
X1283401Y813730D01*
X1283416Y813759D01*
X1283445Y813833D01*
X1283460Y813936D01*
X1283526Y814061D01*
X1283556Y814076D01*
X1283593Y814157D01*
X1283615Y814268D01*
X1283644Y814341D01*
X1283659Y814371D01*
X1283688Y814385D01*
X1283725Y814466D01*
X1283747Y814562D01*
X1283762Y814650D01*
X1283850Y814798D01*
X1283872Y814879D01*
X1283894Y814975D01*
X1283924Y815048D01*
X1283990Y815159D01*
X1284012Y815254D01*
X1284034Y815394D01*
X1284049Y815439D01*
X1284079Y815512D01*
X1284138Y815615D01*
X1284152Y815718D01*
X1284167Y815880D01*
X1284255Y816042D01*
X1284285Y816116D01*
X1284299Y816337D01*
X1284314Y816381D01*
X1284329Y816484D01*
X1284380Y816624D01*
X1284417Y816720D01*
X1284432Y816867D01*
X1284447Y817500D01*
X1284462Y817648D01*
X1284476Y817751D01*
X1284462Y818045D01*
X1284447Y818090D01*
X1284432Y818649D01*
X1284417Y818693D01*
X1284403Y818752D01*
X1284373Y818782D01*
X1284314Y818914D01*
X1284299Y819017D01*
X1284285Y819076D01*
X1284241Y819150D01*
X1284196Y819194D01*
X1284167Y819268D01*
X1284145Y819364D01*
X1284123Y819415D01*
X1284056Y819496D01*
X1283983Y819658D01*
X1283961Y819680D01*
X1283946Y819710D01*
X1283902Y819754D01*
X1283843Y819857D01*
X1283754Y819945D01*
X1283696Y820048D01*
X1283674Y820070D01*
X1283644Y820085D01*
X1283593Y820152D01*
X1283578Y820181D01*
X1283541Y820218D01*
X1283512Y820232D01*
X1283475Y820269D01*
X1283460Y820299D01*
X1283386Y820402D01*
X1283342Y820431D01*
X1283327Y820461D01*
X1283261Y820542D01*
X1283195Y820608D01*
X1283180Y820638D01*
X1282996Y820822D01*
X1282966Y820836D01*
X1282834Y820969D01*
X1282805Y820984D01*
X1282716Y821072D01*
X1282687Y821087D01*
X1282643Y821131D01*
X1282620Y821138D01*
X1282606Y821168D01*
X1282444Y821271D01*
X1282377Y821352D01*
X1282274Y821411D01*
X1282238Y821448D01*
X1282223Y821477D01*
X1282201Y821499D01*
X1282120Y821521D01*
X1282046Y821580D01*
X1282031Y821610D01*
X1282009Y821632D01*
X1281980Y821646D01*
X1281950Y821676D01*
X1281921Y821691D01*
X1281840Y821757D01*
X1281803Y821794D01*
X1281700Y821853D01*
X1281641Y821912D01*
X1281508Y821985D01*
X1281427Y822051D01*
X1281302Y822118D01*
X1281229Y822191D01*
X1281096Y822221D01*
X1281067Y822250D01*
X1281037Y822265D01*
X1280978Y822339D01*
X1280838Y822390D01*
X1280794Y822434D01*
X1280787Y822457D01*
X1280713Y822486D01*
X1280632Y822508D01*
X1280580Y822545D01*
X1280544Y822582D01*
X1280529Y822611D01*
X1280463Y822633D01*
X1280330Y822707D01*
X1280257Y822781D01*
X1280146Y822803D01*
X1280065Y822854D01*
X1280021Y822898D01*
X1279881Y822950D01*
X1279829Y822987D01*
X1279785Y823031D01*
X1279682Y823075D01*
X1279572Y823127D01*
X1279557Y823156D01*
X1279476Y823193D01*
X1279388Y823208D01*
X1279314Y823252D01*
X1279255Y823311D01*
X1279152Y823340D01*
X1279078Y823370D01*
X1279005Y823414D01*
X1278960Y823458D01*
X1278902Y823473D01*
X1278806Y823495D01*
X1278754Y823517D01*
X1278725Y823546D01*
X1278703Y823554D01*
X1278688Y823583D01*
X1278666Y823605D01*
X1278541Y823627D01*
X1278482Y823642D01*
X1278401Y823694D01*
X1278342Y823753D01*
X1278239Y823782D01*
X1278158Y823804D01*
X1278106Y823841D01*
X1278077Y823870D01*
X1278047Y823885D01*
X1277974Y823915D01*
X1277863Y823937D01*
X1277782Y823988D01*
X1277753Y824018D01*
X1277679Y824047D01*
X1277620Y824062D01*
X1277429Y824165D01*
X1277384Y824180D01*
X1277267Y824209D01*
X1277193Y824239D01*
X1277090Y824312D01*
X1276994Y824334D01*
X1276920Y824349D01*
X1276840Y824401D01*
X1276751Y824460D01*
X1276611Y824482D01*
X1276552Y824496D01*
X1276501Y824519D01*
X1276464Y824541D01*
X1276449Y824570D01*
X1276368Y824607D01*
X1276206Y824622D01*
X1276066Y824717D01*
X1276044Y824739D01*
X1275904Y824762D01*
X1275787Y824791D01*
X1275698Y824850D01*
X1275676Y824872D01*
X1275573Y824901D01*
X1275426Y824916D01*
X1275352Y824960D01*
X1275278Y825034D01*
X1275138Y825056D01*
X1275079Y825071D01*
X1274962Y825145D01*
X1274895Y825166D01*
X1274837Y825181D01*
X1274726Y825203D01*
X1274667Y825218D01*
X1274594Y825247D01*
X1274571Y825270D01*
X1274542Y825284D01*
X1274468Y825314D01*
X1274314Y825351D01*
X1274240Y825380D01*
X1274188Y825417D01*
X1274115Y825446D01*
X1274034Y825469D01*
X1273945Y825483D01*
X1273783Y825542D01*
X1273747Y825579D01*
X1273577Y825601D01*
X1273415Y825630D01*
X1273202Y825741D01*
X1272981Y825756D01*
X1272907Y825785D01*
X1272716Y825873D01*
X1272436Y825888D01*
X1272311Y825910D01*
X1272259Y825932D01*
X1272156Y826006D01*
X1272097Y826021D01*
X1271994Y826036D01*
X1271817Y826050D01*
X1271655Y826124D01*
X1271596Y826139D01*
X1271552Y826153D01*
X1271434Y826183D01*
X1271228Y826198D01*
X1271184Y826212D01*
X1271088Y826234D01*
X1271014Y826264D01*
X1270948Y826286D01*
X1270889Y826301D01*
X1270690Y826323D01*
X1270617Y826338D01*
X1270528Y826352D01*
X1270462Y826374D01*
X1270330Y826433D01*
X1270182Y826448D01*
X1270079Y826463D01*
X1270020Y826477D01*
X1269873Y826492D01*
X1269770Y826536D01*
X1269652Y826566D01*
X1269475Y826595D01*
X1269210Y826610D01*
X1269166Y826625D01*
X1269019Y826684D01*
X1268916Y826713D01*
X1268857Y826728D01*
X1268577Y826742D01*
X1268533Y826757D01*
X1268474Y826772D01*
X1268378Y826794D01*
X1268282Y826831D01*
X1268209Y826860D01*
X1267922Y826882D01*
X1267686Y826897D01*
X1267612Y826912D01*
X1267494Y826956D01*
X1267369Y826993D01*
X1267178Y827008D01*
X1266972Y827022D01*
X1266949Y827044D01*
X1266972Y827066D01*
X1267126Y827074D01*
X1267723Y827066D01*
X1267870Y827125D01*
X1268010Y827148D01*
X1268172Y827162D01*
X1268746Y827177D01*
X1269188Y827192D01*
X1269365Y827206D01*
X1269497Y827221D01*
X1269586Y827236D01*
X1269645Y827251D01*
X1269807Y827265D01*
X1269954Y827280D01*
X1270116Y827295D01*
X1270551Y827317D01*
X1270956Y827339D01*
X1271154Y827361D01*
X1271213Y827376D01*
X1271361Y827391D01*
X1271405Y827405D01*
X1271780Y827442D01*
X1272215Y827464D01*
X1272627Y827479D01*
X1272671Y827494D01*
X1272907Y827508D01*
X1272951Y827523D01*
X1273091Y827545D01*
X1273179Y827560D01*
X1273312Y827575D01*
X1273636Y827589D01*
X1273842Y827604D01*
X1274093Y827619D01*
X1274284Y827648D01*
X1274365Y827670D01*
X1274461Y827692D01*
X1274520Y827707D01*
X1274814Y827722D01*
X1275050Y827737D01*
X1275330Y827751D01*
X1275507Y827766D01*
X1275595Y827781D01*
X1275713Y827810D01*
X1275794Y827832D01*
X1275985Y827847D01*
X1276457Y827877D01*
X1276869Y827891D01*
X1276913Y827906D01*
X1277053Y827928D01*
X1277230Y827958D01*
X1277377Y827987D01*
X1277466Y828002D01*
X1277583Y828017D01*
X1278055Y828031D01*
X1278261Y828046D01*
X1278349Y828061D01*
X1278416Y828083D01*
X1278607Y828142D01*
X1278666Y828156D01*
X1279299Y828171D01*
X1279343Y828186D01*
X1279483Y828208D01*
X1279579Y828245D01*
X1279932Y828304D01*
X1280168Y828318D01*
X1280301Y828333D01*
X1280433Y828392D01*
X1280580Y828436D01*
X1280728Y828451D01*
X1280934Y828466D01*
X1281008Y828495D01*
X1281103Y828532D01*
X1281229Y828569D01*
X1281398Y828591D01*
X1281472Y828606D01*
X1281545Y828635D01*
X1281626Y828672D01*
X1281700Y828701D01*
X1281759Y828716D01*
X1281884Y828738D01*
X1281958Y828768D01*
X1281980Y828790D01*
X1282009Y828804D01*
X1282112Y828849D01*
X1282215Y828863D01*
X1282296Y828885D01*
X1282348Y828922D01*
X1282392Y828967D01*
X1282466Y828996D01*
X1282576Y829018D01*
X1282628Y829040D01*
X1282650Y829062D01*
X1282665Y829092D01*
X1282701Y829128D01*
X1282849Y829173D01*
X1282922Y829217D01*
X1282981Y829276D01*
X1283077Y829313D01*
X1283188Y829423D01*
X1283217Y829438D01*
X1283298Y829504D01*
X1283379Y829585D01*
X1283408Y829600D01*
X1283430Y829622D01*
X1283445Y829651D01*
X1283489Y829696D01*
X1283504Y829725D01*
X1283556Y829762D01*
X1283607Y829813D01*
X1283651Y829887D01*
X1283688Y829924D01*
X1283718Y829939D01*
X1283740Y830005D01*
X1283762Y830086D01*
X1283835Y830204D01*
X1283858Y830226D01*
X1283880Y830322D01*
X1283894Y830395D01*
X1283909Y830454D01*
X1283968Y830601D01*
X1283990Y830682D01*
X1284005Y830830D01*
X1283990Y831831D01*
X1283975Y831875D01*
X1283931Y832037D01*
X1283916Y832096D01*
X1283894Y832236D01*
X1283865Y832472D01*
X1283843Y832597D01*
X1283784Y832730D01*
X1283769Y832788D01*
X1283747Y832958D01*
X1283710Y833201D01*
X1283651Y833304D01*
X1283622Y833378D01*
X1283607Y833481D01*
X1283593Y833540D01*
X1283578Y833658D01*
X1283512Y833738D01*
X1283489Y833761D01*
X1283460Y833864D01*
X1283445Y834055D01*
X1283430Y834099D01*
X1283416Y834129D01*
X1283357Y834217D01*
X1283313Y834364D01*
X1283291Y834534D01*
X1283232Y834622D01*
X1283210Y834644D01*
X1283173Y834740D01*
X1283158Y834858D01*
X1283143Y834931D01*
X1283092Y835013D01*
X1283047Y835116D01*
X1283033Y835174D01*
X1283018Y835278D01*
X1282989Y835351D01*
X1282915Y835454D01*
X1282893Y835535D01*
X1282878Y835609D01*
X1282863Y835668D01*
X1282841Y835719D01*
X1282782Y835778D01*
X1282768Y835837D01*
X1282753Y835881D01*
X1282724Y836014D01*
X1282635Y836161D01*
X1282613Y836257D01*
X1282584Y836331D01*
X1282561Y836382D01*
X1282532Y836412D01*
X1282517Y836441D01*
X1282473Y836544D01*
X1282458Y836603D01*
X1282444Y836677D01*
X1282385Y836736D01*
X1282370Y836765D01*
X1282326Y836868D01*
X1282311Y836986D01*
X1282245Y837067D01*
X1282223Y837089D01*
X1282179Y837192D01*
X1282157Y837318D01*
X1282120Y837369D01*
X1282076Y837413D01*
X1282046Y837487D01*
X1282024Y837612D01*
X1282009Y837671D01*
X1281943Y837737D01*
X1281913Y837811D01*
X1281884Y837929D01*
X1281840Y838002D01*
X1281796Y838046D01*
X1281766Y838120D01*
X1281752Y838179D01*
X1281737Y838253D01*
X1281663Y838356D01*
X1281634Y838429D01*
X1281619Y838488D01*
X1281589Y838562D01*
X1281545Y838606D01*
X1281530Y838636D01*
X1281472Y838768D01*
X1281442Y838842D01*
X1281369Y838945D01*
X1281339Y839048D01*
X1281302Y839144D01*
X1281236Y839210D01*
X1281221Y839240D01*
X1281192Y839313D01*
X1281177Y839387D01*
X1281074Y839490D01*
X1281044Y839593D01*
X1281030Y839696D01*
X1280963Y839777D01*
X1280927Y839843D01*
X1280912Y839902D01*
X1280875Y839998D01*
X1280794Y840079D01*
X1280765Y840153D01*
X1280750Y840241D01*
X1280654Y840381D01*
X1280632Y840447D01*
X1280617Y840506D01*
X1280551Y840587D01*
X1280485Y840698D01*
X1280470Y840786D01*
X1280441Y840816D01*
X1280426Y840845D01*
X1280382Y840889D01*
X1280352Y840963D01*
X1280323Y841081D01*
X1280249Y841154D01*
X1280234Y841184D01*
X1280205Y841257D01*
X1280190Y841316D01*
X1280175Y841346D01*
X1280139Y841383D01*
X1280109Y841397D01*
X1280087Y841419D01*
X1280058Y841522D01*
X1280043Y841581D01*
X1280028Y841626D01*
X1280006Y841648D01*
X1279977Y841662D01*
X1279940Y841699D01*
X1279910Y841802D01*
X1279881Y841876D01*
X1279807Y841949D01*
X1279778Y842023D01*
X1279756Y842104D01*
X1279704Y842185D01*
X1279660Y842229D01*
X1279645Y842288D01*
X1279623Y842369D01*
X1279564Y842458D01*
X1279528Y842495D01*
X1279469Y842642D01*
X1279402Y842723D01*
X1279336Y842877D01*
X1279321Y842907D01*
X1279262Y842966D01*
X1279248Y843025D01*
X1279159Y843187D01*
X1279100Y843246D01*
X1279049Y843386D01*
X1279012Y843437D01*
X1278982Y843467D01*
X1278968Y843496D01*
X1278938Y843570D01*
X1278879Y843673D01*
X1278820Y843732D01*
X1278791Y843805D01*
X1278776Y843864D01*
X1278762Y843894D01*
X1278673Y843982D01*
X1278644Y844056D01*
X1278622Y844151D01*
X1278600Y844203D01*
X1278548Y844240D01*
X1278526Y844262D01*
X1278496Y844365D01*
X1278482Y844409D01*
X1278460Y844431D01*
X1278430Y844446D01*
X1278393Y844483D01*
X1278356Y844578D01*
X1278305Y844674D01*
X1278342Y844682D01*
X1278371Y844652D01*
X1278401Y844638D01*
X1278526Y844512D01*
X1278541Y844483D01*
X1278563Y844461D01*
X1278636Y844417D01*
X1278659Y844395D01*
X1278673Y844365D01*
X1278739Y844299D01*
X1278769Y844284D01*
X1278902Y844151D01*
X1278924Y844144D01*
X1278938Y844115D01*
X1279049Y844004D01*
X1279078Y843989D01*
X1279108Y843960D01*
X1279137Y843945D01*
X1279174Y843908D01*
X1279189Y843879D01*
X1279211Y843857D01*
X1279233Y843849D01*
X1279240Y843827D01*
X1279270Y843813D01*
X1279292Y843791D01*
X1279306Y843761D01*
X1279373Y843695D01*
X1279395Y843688D01*
X1279410Y843658D01*
X1279483Y843584D01*
X1279491Y843562D01*
X1279520Y843548D01*
X1279601Y843481D01*
X1279653Y843415D01*
X1279682Y843400D01*
X1279763Y843334D01*
X1279778Y843305D01*
X1279829Y843253D01*
X1279859Y843238D01*
X1279896Y843202D01*
X1279910Y843172D01*
X1280094Y842988D01*
X1280124Y842973D01*
X1280175Y842922D01*
X1280190Y842892D01*
X1280257Y842811D01*
X1280360Y842708D01*
X1280389Y842693D01*
X1280426Y842656D01*
X1280441Y842627D01*
X1280566Y842502D01*
X1280588Y842495D01*
X1280603Y842465D01*
X1280669Y842384D01*
X1280713Y842340D01*
X1280735Y842333D01*
X1280742Y842310D01*
X1280765Y842303D01*
X1280779Y842274D01*
X1280875Y842178D01*
X1280897Y842170D01*
X1280912Y842141D01*
X1280941Y842112D01*
X1280956Y842082D01*
X1280978Y842060D01*
X1281008Y842045D01*
X1281059Y841994D01*
X1281074Y841964D01*
X1281140Y841883D01*
X1281258Y841765D01*
X1281288Y841751D01*
X1281317Y841721D01*
X1281346Y841706D01*
X1281449Y841603D01*
X1281560Y841537D01*
X1281575Y841508D01*
X1281641Y841441D01*
X1281715Y841397D01*
X1281774Y841338D01*
X1281906Y841265D01*
X1282009Y841162D01*
X1282083Y841117D01*
X1282157Y841044D01*
X1282260Y840985D01*
X1282348Y840897D01*
X1282451Y840837D01*
X1282525Y840764D01*
X1282657Y840690D01*
X1282731Y840617D01*
X1282790Y840602D01*
X1282893Y840528D01*
X1282937Y840484D01*
X1283092Y840403D01*
X1283107Y840374D01*
X1283158Y840322D01*
X1283246Y840307D01*
X1283349Y840204D01*
X1283379Y840190D01*
X1283482Y840131D01*
X1283570Y840042D01*
X1283651Y840020D01*
X1283674Y839998D01*
X1283703Y839983D01*
X1283762Y839924D01*
X1283858Y839888D01*
X1283946Y839829D01*
X1283975Y839799D01*
X1283983Y839777D01*
X1284064Y839755D01*
X1284211Y839667D01*
X1284233Y839644D01*
X1284373Y839593D01*
X1284425Y839556D01*
X1284447Y839534D01*
X1284454Y839512D01*
X1284528Y839482D01*
X1284624Y839446D01*
X1284646Y839424D01*
X1284675Y839409D01*
X1284704Y839365D01*
X1284763Y839350D01*
X1284844Y839328D01*
X1284918Y839298D01*
X1284962Y839254D01*
X1284977Y839225D01*
X1284999Y839203D01*
X1285087Y839188D01*
X1285190Y839129D01*
X1285249Y839070D01*
X1285308Y839055D01*
X1285470Y838997D01*
X1285507Y838974D01*
X1285522Y838945D01*
X1285588Y838923D01*
X1285669Y838901D01*
X1285787Y838827D01*
X1285839Y838776D01*
X1285949Y838754D01*
X1286008Y838739D01*
X1286089Y838687D01*
X1286192Y838643D01*
X1286251Y838628D01*
X1286347Y838606D01*
X1286435Y838547D01*
X1286457Y838525D01*
X1286531Y838496D01*
X1286649Y838481D01*
X1286781Y838407D01*
X1286811Y838378D01*
X1286929Y838348D01*
X1287098Y838326D01*
X1287171Y838297D01*
X1287238Y838231D01*
X1287444Y838201D01*
X1287554Y838179D01*
X1287628Y838150D01*
X1287665Y838113D01*
X1287694Y838098D01*
X1287768Y838069D01*
X1288018Y838039D01*
X1288121Y838010D01*
X1288284Y837936D01*
X1288431Y837921D01*
X1288534Y837907D01*
X1288703Y837885D01*
X1288777Y837855D01*
X1288843Y837818D01*
X1288902Y837803D01*
X1289108Y837774D01*
X1289285Y837759D01*
X1289322Y837722D01*
X1289307Y837649D01*
X1289278Y837619D01*
X1289248Y837001D01*
X1289234Y836957D01*
X1289211Y836817D01*
X1289197Y836728D01*
X1289167Y836610D01*
X1289153Y836522D01*
X1289138Y836449D01*
X1289108Y835918D01*
X1289072Y835867D01*
X1289035Y835859D01*
X1288946Y835918D01*
X1288519Y835933D01*
X1288475Y835948D01*
X1288350Y835970D01*
X1288203Y836029D01*
X1288136Y836051D01*
X1287945Y836066D01*
X1287709Y836080D01*
X1287576Y836154D01*
X1287547Y836183D01*
X1287429Y836213D01*
X1287230Y836235D01*
X1287157Y836264D01*
X1287135Y836286D01*
X1287002Y836345D01*
X1286818Y836367D01*
X1286744Y836382D01*
X1286671Y836412D01*
X1286604Y836463D01*
X1286487Y836493D01*
X1286391Y836515D01*
X1286317Y836544D01*
X1286207Y836610D01*
X1286030Y836655D01*
X1285912Y836699D01*
X1285780Y836758D01*
X1285721Y836773D01*
X1285632Y836787D01*
X1285529Y836846D01*
X1285485Y836890D01*
X1285367Y836920D01*
X1285227Y836971D01*
X1285205Y836993D01*
X1285176Y837008D01*
X1285146Y837038D01*
X1285087Y837052D01*
X1284940Y837067D01*
X1284896Y837052D01*
X1284793Y837038D01*
X1284756Y837001D01*
X1284749Y836905D01*
X1284763Y836846D01*
X1284815Y836780D01*
X1284830Y836750D01*
X1284874Y836647D01*
X1284889Y836618D01*
X1284918Y836588D01*
X1284933Y836559D01*
X1284962Y836529D01*
X1285006Y836426D01*
X1285021Y836367D01*
X1285036Y836294D01*
X1285065Y836264D01*
X1285080Y836235D01*
X1285110Y836206D01*
X1285139Y836132D01*
X1285154Y836073D01*
X1285183Y835999D01*
X1285271Y835911D01*
X1285301Y835793D01*
X1285316Y835705D01*
X1285352Y835638D01*
X1285375Y835631D01*
X1285389Y835602D01*
X1285419Y835528D01*
X1285434Y835469D01*
X1285448Y835366D01*
X1285493Y835292D01*
X1285537Y835248D01*
X1285581Y835145D01*
X1285603Y834976D01*
X1285625Y834924D01*
X1285699Y834821D01*
X1285728Y834644D01*
X1285743Y834512D01*
X1285846Y834291D01*
X1285861Y834232D01*
X1285890Y833996D01*
X1285964Y833834D01*
X1285993Y833731D01*
X1286008Y833628D01*
X1286023Y833378D01*
X1286037Y833333D01*
X1286060Y833194D01*
X1286082Y833127D01*
X1286126Y832951D01*
X1286148Y832472D01*
X1286155Y831610D01*
X1286140Y831566D01*
X1286126Y831183D01*
X1286111Y831139D01*
X1286096Y831021D01*
X1286052Y830918D01*
X1286037Y830815D01*
X1286023Y830756D01*
X1286008Y830564D01*
X1285971Y830395D01*
X1285905Y830270D01*
X1285890Y830226D01*
X1285875Y830167D01*
X1285861Y830049D01*
X1285831Y829975D01*
X1285772Y829872D01*
X1285728Y829769D01*
X1285713Y829637D01*
X1285640Y829533D01*
X1285610Y829504D01*
X1285596Y829445D01*
X1285581Y829342D01*
X1285537Y829268D01*
X1285500Y829232D01*
X1285470Y829217D01*
X1285448Y829195D01*
X1285434Y829092D01*
X1285419Y829062D01*
X1285352Y828981D01*
X1285330Y828959D01*
X1285242Y828797D01*
X1285205Y828760D01*
X1285176Y828745D01*
X1285132Y828657D01*
X1285095Y828606D01*
X1285051Y828561D01*
X1285036Y828532D01*
X1284933Y828399D01*
X1284874Y828341D01*
X1284859Y828311D01*
X1284756Y828208D01*
X1284741Y828178D01*
X1284719Y828156D01*
X1284690Y828142D01*
X1284609Y828061D01*
X1284594Y828031D01*
X1284506Y827972D01*
X1284425Y827891D01*
X1284395Y827877D01*
X1284292Y827803D01*
X1284233Y827744D01*
X1284138Y827707D01*
X1284056Y827626D01*
X1283865Y827523D01*
X1283821Y827479D01*
X1283725Y827442D01*
X1283674Y827405D01*
X1283615Y827346D01*
X1283512Y827302D01*
X1283423Y827287D01*
X1283335Y827199D01*
X1283188Y827155D01*
X1283129Y827140D01*
X1283055Y827066D01*
X1282952Y827022D01*
X1282812Y827000D01*
X1282760Y826978D01*
X1282657Y826905D01*
X1282480Y826875D01*
X1282363Y826860D01*
X1282260Y826787D01*
X1282157Y826757D01*
X1282098Y826742D01*
X1281928Y826720D01*
X1281855Y826691D01*
X1281670Y826610D01*
X1281567Y826595D01*
X1281332Y826581D01*
X1281288Y826566D01*
X1281148Y826514D01*
X1281067Y826492D01*
X1280963Y826477D01*
X1280794Y826455D01*
X1280588Y826441D01*
X1280500Y826426D01*
X1280382Y826382D01*
X1280323Y826367D01*
X1280234Y826352D01*
X1280087Y826338D01*
X1279969Y826323D01*
X1279535Y826301D01*
X1279336Y826279D01*
X1279277Y826264D01*
X1279189Y826249D01*
X1279012Y826234D01*
X1278747Y826220D01*
X1278438Y826205D01*
X1278172Y826190D01*
X1277878Y826175D01*
X1277826Y826153D01*
X1277804Y826131D01*
X1277790Y826072D01*
X1277804Y825955D01*
X1277841Y825918D01*
X1278003Y825829D01*
X1278047Y825785D01*
X1278276Y825748D01*
X1278356Y825697D01*
X1278401Y825653D01*
X1278474Y825623D01*
X1278592Y825594D01*
X1278673Y825527D01*
X1278769Y825476D01*
X1278872Y825461D01*
X1278975Y825402D01*
X1279034Y825343D01*
X1279167Y825314D01*
X1279270Y825240D01*
X1279299Y825211D01*
X1279358Y825196D01*
X1279439Y825174D01*
X1279513Y825145D01*
X1279535Y825122D01*
X1279564Y825108D01*
X1279594Y825078D01*
X1279653Y825063D01*
X1279734Y825041D01*
X1279852Y824968D01*
X1279888Y824931D01*
X1279984Y824909D01*
X1280102Y824835D01*
X1280124Y824813D01*
X1280153Y824798D01*
X1280198Y824784D01*
X1280308Y824762D01*
X1280389Y824710D01*
X1280426Y824658D01*
X1280448Y824636D01*
X1280566Y824622D01*
X1280698Y824519D01*
X1280728Y824489D01*
X1280779Y824482D01*
X1280787Y824489D01*
X1280831Y824474D01*
X1280905Y824430D01*
X1280978Y824357D01*
X1281037Y824342D01*
X1281111Y824312D01*
X1281192Y824246D01*
X1281214Y824224D01*
X1281273Y824209D01*
X1281376Y824150D01*
X1281449Y824077D01*
X1281538Y824062D01*
X1281641Y823988D01*
X1281700Y823929D01*
X1281759Y823915D01*
X1281832Y823885D01*
X1281891Y823826D01*
X1281965Y823797D01*
X1282098Y823723D01*
X1282171Y823650D01*
X1282260Y823635D01*
X1282289Y823605D01*
X1282319Y823591D01*
X1282392Y823517D01*
X1282510Y823473D01*
X1282613Y823370D01*
X1282709Y823333D01*
X1282746Y823296D01*
X1282775Y823281D01*
X1282834Y823222D01*
X1282937Y823164D01*
X1283026Y823075D01*
X1283084Y823060D01*
X1283165Y823009D01*
X1283173Y822987D01*
X1283202Y822972D01*
X1283291Y822913D01*
X1283320Y822898D01*
X1283423Y822795D01*
X1283453Y822781D01*
X1283534Y822714D01*
X1283570Y822678D01*
X1283674Y822618D01*
X1283762Y822530D01*
X1283865Y822471D01*
X1283939Y822398D01*
X1284012Y822353D01*
X1284064Y822317D01*
X1284079Y822287D01*
X1284108Y822258D01*
X1284123Y822228D01*
X1284211Y822169D01*
X1284307Y822074D01*
X1284336Y822059D01*
X1284417Y821978D01*
X1284432Y821948D01*
X1284469Y821912D01*
X1284491Y821904D01*
X1284498Y821882D01*
X1284528Y821867D01*
X1284646Y821750D01*
X1284668Y821742D01*
X1284682Y821713D01*
X1284741Y821654D01*
X1284756Y821624D01*
X1284800Y821595D01*
X1284815Y821565D01*
X1285021Y821359D01*
X1285036Y821330D01*
X1285124Y821241D01*
X1285139Y821212D01*
X1285198Y821153D01*
X1285205Y821131D01*
X1285235Y821116D01*
X1285286Y821065D01*
X1285301Y821035D01*
X1285375Y820932D01*
X1285404Y820903D01*
X1285419Y820873D01*
X1285434Y820829D01*
X1285470Y820763D01*
X1285500Y820748D01*
X1285529Y820719D01*
X1285551Y820711D01*
X1285566Y820682D01*
X1285654Y820520D01*
X1285699Y820475D01*
X1285728Y820402D01*
X1285743Y820343D01*
X1285802Y820284D01*
X1285816Y820255D01*
X1285875Y820122D01*
X1285890Y820063D01*
X1285927Y820026D01*
X1285949Y820019D01*
X1285964Y819989D01*
X1285993Y819916D01*
X1286008Y819857D01*
X1286023Y819769D01*
X1286096Y819651D01*
X1286126Y819577D01*
X1286163Y819408D01*
X1286177Y819349D01*
X1286229Y819253D01*
X1286273Y819106D01*
X1286288Y818959D01*
X1286302Y818855D01*
X1286317Y818708D01*
X1286332Y818664D01*
X1286361Y818561D01*
X1286376Y818369D01*
X1286391Y818266D01*
X1286376Y817368D01*
X1286361Y817324D01*
X1286347Y817162D01*
X1286332Y817117D01*
X1286302Y817014D01*
X1286288Y816661D01*
X1286273Y816617D01*
X1286258Y816455D01*
X1286229Y816381D01*
X1286185Y816278D01*
X1286170Y816219D01*
X1286133Y815976D01*
X1286118Y815888D01*
X1286104Y815829D01*
X1286074Y815755D01*
X1286037Y815659D01*
X1286023Y815556D01*
X1286008Y815409D01*
X1285979Y815306D01*
X1285875Y815085D01*
X1285853Y814916D01*
X1285809Y814798D01*
X1285758Y814702D01*
X1285728Y814628D01*
X1285713Y814437D01*
X1285654Y814334D01*
X1285610Y814260D01*
X1285596Y814201D01*
X1285566Y814010D01*
X1285500Y813929D01*
X1285463Y813892D01*
X1285441Y813767D01*
X1285426Y813693D01*
X1285397Y813620D01*
X1285367Y813561D01*
X1285345Y813553D01*
X1285330Y813524D01*
X1285301Y813450D01*
X1285286Y813318D01*
X1285242Y813244D01*
X1285198Y813200D01*
X1285168Y813126D01*
X1285154Y813067D01*
X1285117Y812971D01*
X1285058Y812883D01*
X1285021Y812787D01*
X1285006Y812728D01*
X1284992Y812655D01*
X1284889Y812493D01*
X1284866Y812382D01*
X1284793Y812264D01*
X1284756Y812228D01*
X1284741Y812169D01*
X1284727Y812080D01*
X1284668Y811977D01*
X1284609Y811918D01*
X1284594Y811786D01*
X1284535Y811683D01*
X1284476Y811624D01*
X1284432Y811447D01*
X1284366Y811366D01*
X1284329Y811300D01*
X1284307Y811204D01*
X1284292Y811145D01*
X1284255Y811094D01*
X1284211Y811049D01*
X1284196Y811020D01*
X1284167Y810991D01*
X1284145Y810910D01*
X1284086Y810821D01*
X1284034Y810770D01*
X1284020Y810667D01*
X1283961Y810563D01*
X1283931Y810549D01*
X1283916Y810519D01*
X1283887Y810445D01*
X1283872Y810387D01*
X1283828Y810313D01*
X1283754Y810239D01*
X1283740Y810180D01*
X1283725Y810107D01*
X1283659Y810026D01*
X1283607Y809930D01*
X1283593Y809856D01*
X1283489Y809724D01*
X1283430Y809577D01*
X1283401Y809547D01*
X1283386Y809518D01*
X1283342Y809473D01*
X1283320Y809378D01*
X1283291Y809304D01*
X1283276Y809275D01*
X1283246Y809260D01*
X1283210Y809223D01*
X1283158Y809083D01*
X1283107Y809002D01*
X1283055Y808965D01*
X1283033Y808929D01*
X1283047Y808914D01*
X1283018Y808840D01*
X1283003Y808811D01*
X1282937Y808730D01*
X1282900Y808693D01*
X1282878Y808612D01*
X1282805Y808523D01*
X1282694Y808310D01*
X1282620Y808236D01*
X1282606Y808133D01*
X1282576Y808104D01*
X1282561Y808074D01*
X1282503Y808015D01*
X1282399Y807824D01*
X1282385Y807780D01*
X1282399Y807706D01*
X1282436Y807669D01*
X1282495Y807654D01*
X1282701Y807669D01*
X1282724Y807691D01*
X1282768Y807765D01*
X1282805Y807802D01*
X1282878Y807846D01*
X1282966Y807934D01*
X1283040Y807979D01*
X1283077Y808030D01*
X1283143Y808096D01*
X1283173Y808111D01*
X1283276Y808214D01*
X1283349Y808258D01*
X1283408Y808332D01*
X1283438Y808347D01*
X1283519Y808428D01*
X1283526Y808450D01*
X1283556Y808465D01*
X1283585Y808494D01*
X1283615Y808509D01*
X1283681Y808560D01*
X1283696Y808590D01*
X1283762Y808656D01*
X1283791Y808671D01*
X1283843Y808722D01*
X1283858Y808752D01*
X1283924Y808803D01*
X1283953Y808818D01*
X1284071Y808936D01*
X1284101Y808951D01*
X1284167Y808987D01*
X1284182Y809017D01*
X1284218Y809054D01*
X1284248Y809068D01*
X1284299Y809105D01*
X1284314Y809135D01*
X1284366Y809186D01*
X1284395Y809201D01*
X1284462Y809238D01*
X1284476Y809267D01*
X1284528Y809319D01*
X1284557Y809333D01*
X1284638Y809400D01*
X1284734Y809495D01*
X1284763Y809510D01*
X1284800Y809532D01*
X1284815Y809562D01*
X1284837Y809584D01*
X1284866Y809599D01*
X1284911Y809643D01*
X1284940Y809658D01*
X1285058Y809775D01*
X1285087Y809790D01*
X1285220Y809923D01*
X1285294Y809952D01*
X1285397Y810055D01*
X1285470Y810099D01*
X1285507Y810136D01*
X1285522Y810166D01*
X1285544Y810188D01*
X1285573Y810202D01*
X1285677Y810276D01*
X1285721Y810320D01*
X1285750Y810335D01*
X1285780Y810365D01*
X1285809Y810379D01*
X1285846Y810401D01*
X1285853Y810423D01*
X1285883Y810438D01*
X1285927Y810482D01*
X1286030Y810541D01*
X1286045Y810571D01*
X1286074Y810585D01*
X1286104Y810615D01*
X1286185Y810652D01*
X1286199Y810681D01*
X1286251Y810733D01*
X1286280Y810748D01*
X1286361Y810814D01*
X1286391Y810843D01*
X1286398Y810865D01*
X1286428Y810880D01*
X1286457Y810910D01*
X1286560Y810968D01*
X1286582Y810991D01*
X1286590Y811013D01*
X1286619Y811027D01*
X1286752Y811101D01*
X1286789Y811152D01*
X1286825Y811189D01*
X1286929Y811248D01*
X1286958Y811278D01*
X1286987Y811292D01*
X1287017Y811322D01*
X1287046Y811337D01*
X1287149Y811395D01*
X1287208Y811454D01*
X1287334Y811521D01*
X1287348Y811550D01*
X1287370Y811572D01*
X1287400Y811587D01*
X1287503Y811646D01*
X1287532Y811675D01*
X1287562Y811690D01*
X1287606Y811734D01*
X1287635Y811749D01*
X1287738Y811808D01*
X1287775Y811860D01*
X1287797Y811881D01*
X1287871Y811911D01*
X1287901Y811926D01*
X1287974Y811999D01*
X1288004Y812014D01*
X1288136Y812088D01*
X1288158Y812110D01*
X1288173Y812139D01*
X1288195Y812161D01*
X1288335Y812213D01*
X1288401Y812279D01*
X1288431Y812294D01*
X1288534Y812338D01*
X1288578Y812353D01*
X1288666Y812441D01*
X1288725Y812456D01*
X1288828Y812515D01*
X1288887Y812574D01*
X1288917Y812589D01*
X1288961Y812603D01*
X1289020Y812618D01*
X1289101Y812684D01*
X1289211Y812750D01*
X1289285Y812765D01*
X1289329Y812809D01*
X1289359Y812824D01*
X1289388Y812854D01*
X1289462Y812883D01*
X1289521Y812898D01*
X1289594Y812942D01*
X1289639Y812986D01*
X1289697Y813001D01*
X1289771Y813030D01*
X1289830Y813045D01*
X1289859Y813060D01*
X1289933Y813133D01*
X1290007Y813163D01*
X1290066Y813178D01*
X1290139Y813192D01*
X1290169Y813222D01*
X1290191Y813229D01*
X1290206Y813259D01*
X1290228Y813281D01*
X1290301Y813310D01*
X1290478Y813325D01*
X1290581Y813384D01*
X1290655Y813428D01*
X1290773Y813457D01*
X1290957Y813480D01*
X1291141Y813575D01*
X1291244Y813605D01*
X1291796Y813627D01*
X1291973Y813642D01*
X1292047Y813656D01*
X1292334Y813664D01*
X1292378Y813649D01*
X1292547Y813627D01*
X1292827Y813612D01*
X1293122Y813597D01*
X1293195Y813583D01*
X1293254Y813568D01*
X1293365Y813502D01*
X1293438Y813472D01*
X1293630Y813457D01*
X1293674Y813443D01*
X1293748Y813399D01*
X1293777Y813369D01*
X1293807Y813354D01*
X1293880Y813325D01*
X1294028Y813310D01*
X1294101Y813266D01*
X1294175Y813192D01*
X1294234Y813178D01*
X1294315Y813156D01*
X1294396Y813104D01*
X1294433Y813067D01*
X1294440Y813045D01*
X1294499Y813030D01*
X1294595Y812993D01*
X1294631Y812957D01*
X1294661Y812942D01*
X1294690Y812913D01*
X1294786Y812876D01*
X1294897Y812765D01*
X1294992Y812728D01*
X1295088Y812633D01*
X1295191Y812574D01*
X1295294Y812471D01*
X1295324Y812456D01*
X1295353Y812427D01*
X1295383Y812412D01*
X1295486Y812309D01*
X1295515Y812294D01*
X1295633Y812176D01*
X1295662Y812161D01*
X1295743Y812080D01*
X1295758Y812051D01*
X1295824Y811985D01*
X1295854Y811970D01*
X1295905Y811904D01*
X1295913Y811881D01*
X1295935Y811874D01*
X1295950Y811845D01*
X1296053Y811742D01*
X1296067Y811712D01*
X1296171Y811609D01*
X1296185Y811580D01*
X1296215Y811550D01*
X1296230Y811521D01*
X1296288Y811462D01*
X1296303Y811432D01*
X1296333Y811403D01*
X1296347Y811373D01*
X1296450Y811270D01*
X1296509Y811167D01*
X1296583Y811094D01*
X1296642Y810991D01*
X1296679Y810954D01*
X1296701Y810946D01*
X1296716Y810917D01*
X1296760Y810843D01*
X1296774Y810814D01*
X1296841Y810733D01*
X1296863Y810711D01*
X1296892Y810608D01*
X1296907Y810578D01*
X1296929Y810556D01*
X1296958Y810541D01*
X1297010Y810490D01*
X1297069Y810342D01*
X1297157Y810254D01*
X1297209Y810114D01*
X1297305Y809974D01*
X1297341Y809878D01*
X1297422Y809798D01*
X1297467Y809694D01*
X1297481Y809606D01*
X1297555Y809532D01*
X1297629Y809341D01*
X1297702Y809267D01*
X1297732Y809194D01*
X1297769Y809039D01*
X1297783Y809009D01*
X1297813Y808995D01*
X1297886Y808965D01*
X1297945Y808951D01*
X1298093Y808965D01*
X1298129Y809002D01*
X1298144Y809061D01*
X1298159Y809665D01*
X1298174Y809709D01*
X1298196Y810026D01*
X1298218Y810166D01*
X1298247Y810239D01*
X1298277Y810357D01*
X1298291Y810770D01*
X1298306Y810917D01*
X1298321Y811123D01*
X1298394Y811241D01*
X1298424Y811359D01*
X1298439Y811506D01*
X1298461Y811749D01*
X1298505Y811867D01*
X1298542Y811948D01*
X1298571Y812066D01*
X1298593Y812264D01*
X1298608Y812353D01*
X1298623Y812412D01*
X1298696Y812574D01*
X1298711Y812647D01*
X1298741Y812809D01*
X1298777Y812905D01*
X1298836Y812993D01*
X1298866Y813170D01*
X1298881Y813229D01*
X1298969Y813391D01*
X1298984Y813435D01*
X1299006Y813575D01*
X1299035Y813649D01*
X1299116Y813730D01*
X1299138Y813826D01*
X1299153Y813885D01*
X1299182Y813958D01*
X1299249Y814025D01*
X1299278Y814128D01*
X1299300Y814223D01*
X1299322Y814246D01*
X1299337Y814275D01*
X1299389Y814312D01*
X1299440Y814437D01*
X1299477Y814503D01*
X1299507Y814518D01*
X1299536Y814547D01*
X1299558Y814555D01*
X1299573Y814614D01*
X1299617Y814687D01*
X1299676Y814746D01*
X1299735Y814849D01*
X1299867Y814982D01*
X1299882Y815011D01*
X1300029Y815159D01*
X1300044Y815188D01*
X1300066Y815210D01*
X1300088Y815218D01*
X1300103Y815247D01*
X1300184Y815328D01*
X1300213Y815343D01*
X1300250Y815394D01*
X1300398Y815542D01*
X1300405Y815564D01*
X1300434Y815578D01*
X1300538Y815652D01*
X1300611Y815726D01*
X1300685Y815755D01*
X1300773Y815844D01*
X1300906Y815917D01*
X1300920Y815947D01*
X1300950Y815961D01*
X1300979Y815991D01*
X1301082Y816050D01*
X1301112Y816079D01*
X1301141Y816094D01*
X1301171Y816123D01*
X1301245Y816153D01*
X1301289Y816168D01*
X1301392Y816271D01*
X1301465Y816300D01*
X1301568Y816359D01*
X1301613Y816403D01*
X1301708Y816425D01*
X1301767Y816455D01*
X1301782Y816484D01*
X1301819Y816521D01*
X1301922Y816565D01*
X1302018Y816587D01*
X1302054Y816624D01*
X1302077Y816631D01*
X1302084Y816654D01*
X1302187Y816698D01*
X1302246Y816712D01*
X1302349Y816727D01*
X1302452Y816801D01*
X1302555Y816845D01*
X1302658Y816860D01*
X1302747Y816874D01*
X1302791Y816919D01*
X1302820Y816933D01*
X1302953Y816992D01*
X1303196Y817014D01*
X1303314Y817059D01*
X1303387Y817088D01*
X1303395Y817095D01*
X1303535Y817117D01*
X1303608Y817132D01*
X1303807Y817154D01*
X1303896Y817169D01*
X1303969Y817198D01*
X1304087Y817228D01*
X1304227Y817250D01*
X1304315Y817265D01*
X1304507Y817280D01*
X1306075Y817287D01*
X1306120Y817272D01*
X1306370Y817257D01*
X1306414Y817243D01*
X1306606Y817213D01*
X1306650Y817198D01*
X1306745Y817176D01*
X1306826Y817154D01*
X1307114Y817132D01*
X1307290Y817103D01*
X1307401Y817095D01*
X1307445Y817110D01*
X1307497Y817132D01*
X1307511Y817162D01*
X1307541Y817235D01*
X1307526Y817338D01*
X1307467Y817441D01*
X1307335Y817574D01*
X1307320Y817604D01*
X1307254Y817684D01*
X1307202Y817736D01*
X1307187Y817766D01*
X1307165Y817802D01*
X1307136Y817817D01*
X1307084Y817869D01*
X1307070Y817898D01*
X1307011Y818001D01*
X1306937Y818075D01*
X1306893Y818148D01*
X1306804Y818237D01*
X1306731Y818369D01*
X1306657Y818443D01*
X1306584Y818576D01*
X1306539Y818605D01*
X1306525Y818634D01*
X1306466Y818738D01*
X1306377Y818811D01*
X1306363Y818841D01*
X1306304Y818944D01*
X1306230Y819017D01*
X1306186Y819135D01*
X1306149Y819172D01*
X1306120Y819187D01*
X1306098Y819209D01*
X1306068Y819283D01*
X1306031Y819378D01*
X1306017Y819408D01*
X1305987Y819423D01*
X1305965Y819445D01*
X1305950Y819474D01*
X1305936Y819518D01*
X1305884Y819614D01*
X1305854Y819629D01*
X1305788Y819739D01*
X1305751Y819835D01*
X1305700Y819886D01*
X1305670Y819960D01*
X1305626Y820063D01*
X1305619Y820085D01*
X1305597Y820093D01*
X1305582Y820122D01*
X1305538Y820166D01*
X1305508Y820240D01*
X1305449Y820343D01*
X1305405Y820387D01*
X1305376Y820461D01*
X1305346Y820579D01*
X1305243Y820726D01*
X1305221Y820807D01*
X1305206Y820866D01*
X1305111Y820962D01*
X1305081Y821065D01*
X1305059Y821175D01*
X1305008Y821256D01*
X1304978Y821286D01*
X1304949Y821389D01*
X1304934Y821492D01*
X1304904Y821565D01*
X1304831Y821669D01*
X1304801Y821742D01*
X1304779Y821897D01*
X1304750Y821971D01*
X1304713Y822007D01*
X1304684Y822081D01*
X1304632Y822398D01*
X1304551Y822582D01*
X1304536Y822641D01*
X1304514Y822751D01*
X1304499Y822869D01*
X1304485Y822928D01*
X1304440Y823046D01*
X1304418Y823127D01*
X1304404Y823186D01*
X1304389Y823377D01*
X1304374Y823480D01*
X1304359Y823760D01*
X1304345Y823804D01*
X1304330Y823981D01*
X1304315Y824025D01*
X1304301Y824688D01*
X1304315Y824732D01*
X1304323Y824916D01*
X1304315Y824953D01*
X1304330Y824997D01*
X1304352Y825137D01*
X1304367Y825226D01*
X1304382Y825505D01*
X1304396Y825623D01*
X1304411Y825712D01*
X1304426Y825770D01*
X1304455Y825844D01*
X1304492Y825925D01*
X1304521Y826131D01*
X1304536Y826190D01*
X1304610Y826352D01*
X1304625Y826382D01*
X1304639Y826426D01*
X1304654Y826529D01*
X1304669Y826588D01*
X1304684Y826662D01*
X1304742Y826765D01*
X1304787Y826868D01*
X1304801Y826971D01*
X1304860Y827074D01*
X1304919Y827133D01*
X1304941Y827258D01*
X1304978Y827354D01*
X1305052Y827427D01*
X1305067Y827486D01*
X1305089Y827582D01*
X1305140Y827663D01*
X1305162Y827685D01*
X1305192Y827700D01*
X1305214Y827766D01*
X1305251Y827862D01*
X1305287Y827913D01*
X1305309Y827935D01*
X1305339Y827950D01*
X1305376Y828031D01*
X1305390Y828105D01*
X1305494Y828208D01*
X1305567Y828341D01*
X1305641Y828414D01*
X1305715Y828547D01*
X1305759Y828591D01*
X1305818Y828694D01*
X1305884Y828775D01*
X1305921Y828812D01*
X1305936Y828841D01*
X1306002Y828922D01*
X1306053Y828974D01*
X1306090Y829070D01*
X1306120Y829114D01*
X1306149Y829128D01*
X1306215Y829195D01*
X1306230Y829224D01*
X1306259Y829254D01*
X1306267Y829276D01*
X1306296Y829290D01*
X1306333Y829327D01*
X1306377Y829401D01*
X1306591Y829614D01*
X1306620Y829629D01*
X1306642Y829651D01*
X1306657Y829681D01*
X1306731Y829754D01*
X1306745Y829784D01*
X1307040Y830079D01*
X1307055Y830108D01*
X1307106Y830145D01*
X1307202Y830240D01*
X1307209Y830263D01*
X1307239Y830277D01*
X1307320Y830344D01*
X1307349Y830373D01*
X1307364Y830403D01*
X1307453Y830461D01*
X1307482Y830476D01*
X1307497Y830506D01*
X1307534Y830542D01*
X1307563Y830557D01*
X1307666Y830616D01*
X1307703Y830668D01*
X1307791Y830726D01*
X1307887Y830822D01*
X1307916Y830837D01*
X1307997Y830903D01*
X1308064Y830969D01*
X1308093Y830984D01*
X1308174Y831050D01*
X1308240Y831117D01*
X1308351Y831183D01*
X1308366Y831212D01*
X1308388Y831235D01*
X1308417Y831249D01*
X1308520Y831308D01*
X1308542Y831330D01*
X1308557Y831360D01*
X1308594Y831397D01*
X1308668Y831426D01*
X1308697Y831441D01*
X1308800Y831544D01*
X1308903Y831573D01*
X1308933Y831588D01*
X1309021Y831676D01*
X1309154Y831750D01*
X1309168Y831780D01*
X1309198Y831794D01*
X1309227Y831824D01*
X1309301Y831853D01*
X1309345Y831868D01*
X1309404Y831927D01*
X1309433Y831942D01*
X1309536Y832001D01*
X1309617Y832067D01*
X1309640Y832089D01*
X1309743Y832133D01*
X1309772Y832148D01*
X1309794Y832170D01*
X1309809Y832199D01*
X1309831Y832221D01*
X1309934Y832251D01*
X1310052Y832280D01*
X1310081Y832295D01*
X1310118Y832391D01*
X1310104Y832568D01*
X1310067Y832619D01*
X1309949Y832649D01*
X1309802Y832663D01*
X1309566Y832678D01*
X1309448Y832693D01*
X1309345Y832766D01*
X1309242Y832811D01*
X1309014Y832833D01*
X1308896Y832877D01*
X1308771Y832943D01*
X1308513Y832980D01*
X1308425Y832995D01*
X1308240Y833090D01*
X1308123Y833105D01*
X1308078Y833120D01*
X1307997Y833142D01*
X1307946Y833164D01*
X1307813Y833223D01*
X1307754Y833238D01*
X1307673Y833260D01*
X1307614Y833275D01*
X1307541Y833304D01*
X1307445Y833355D01*
X1307386Y833370D01*
X1307261Y833392D01*
X1307202Y833407D01*
X1307121Y833459D01*
X1307092Y833488D01*
X1307018Y833518D01*
X1306893Y833540D01*
X1306841Y833562D01*
X1306804Y833584D01*
X1306797Y833606D01*
X1306768Y833621D01*
X1306664Y833665D01*
X1306532Y833680D01*
X1306429Y833753D01*
X1306414Y833783D01*
X1306355Y833797D01*
X1306267Y833812D01*
X1306164Y833886D01*
X1306142Y833908D01*
X1306134Y833930D01*
X1306075Y833945D01*
X1306002Y833974D01*
X1305921Y834040D01*
X1305884Y834077D01*
X1305825Y834092D01*
X1305722Y834166D01*
X1305685Y834217D01*
X1305663Y834239D01*
X1305604Y834254D01*
X1305501Y834357D01*
X1305398Y834416D01*
X1305280Y834534D01*
X1305251Y834548D01*
X1305214Y834615D01*
X1305199Y834644D01*
X1305162Y834681D01*
X1305103Y834666D01*
X1305000Y834622D01*
X1304897Y834607D01*
X1292363Y834622D01*
X1292326Y834659D01*
X1292312Y834718D01*
X1292326Y837384D01*
X1292363Y837421D01*
X1292466Y837435D01*
X1293173Y837450D01*
X1293210Y837487D01*
X1293195Y837546D01*
X1293151Y837590D01*
X1293136Y837619D01*
X1293026Y837730D01*
X1292997Y837745D01*
X1292975Y837767D01*
X1292967Y837789D01*
X1292938Y837803D01*
X1292871Y837870D01*
X1292857Y837899D01*
X1292739Y838017D01*
X1292724Y838046D01*
X1292658Y838128D01*
X1292621Y838164D01*
X1292606Y838194D01*
X1292547Y838297D01*
X1292518Y838326D01*
X1292503Y838356D01*
X1292474Y838385D01*
X1292430Y838488D01*
X1292371Y838592D01*
X1292297Y838754D01*
X1292245Y838893D01*
X1292216Y838967D01*
X1292194Y838989D01*
X1292172Y839070D01*
X1292157Y839144D01*
X1292142Y839232D01*
X1292113Y839350D01*
X1292091Y839431D01*
X1292061Y839549D01*
X1292032Y839799D01*
X1292017Y840256D01*
X1292032Y840624D01*
X1292047Y840727D01*
X1292083Y840955D01*
X1292106Y841036D01*
X1292128Y841132D01*
X1292172Y841397D01*
X1292186Y841456D01*
X1292216Y841530D01*
X1292253Y841611D01*
X1292282Y841714D01*
X1292297Y841773D01*
X1292334Y841869D01*
X1292356Y841920D01*
X1292430Y842082D01*
X1292466Y842178D01*
X1292540Y842296D01*
X1292650Y842495D01*
X1292709Y842583D01*
X1292768Y842686D01*
X1292798Y842715D01*
X1292812Y842745D01*
X1292857Y842789D01*
X1292871Y842819D01*
X1292938Y842899D01*
X1292960Y842922D01*
X1292975Y842951D01*
X1293004Y842980D01*
X1293019Y843010D01*
X1293166Y843157D01*
X1293181Y843187D01*
X1293217Y843223D01*
X1293247Y843238D01*
X1293284Y843275D01*
X1293298Y843305D01*
X1293335Y843341D01*
X1293365Y843356D01*
X1293497Y843489D01*
X1293527Y843503D01*
X1293615Y843592D01*
X1293645Y843606D01*
X1293674Y843636D01*
X1293703Y843651D01*
X1293784Y843717D01*
X1293895Y843783D01*
X1293998Y843842D01*
X1294042Y843886D01*
X1294145Y843931D01*
X1294249Y843989D01*
X1294278Y844019D01*
X1294352Y844048D01*
X1294447Y844085D01*
X1294521Y844115D01*
X1294543Y844137D01*
X1294646Y844181D01*
X1294874Y844262D01*
X1295029Y844328D01*
X1295125Y844350D01*
X1295199Y844365D01*
X1295280Y844387D01*
X1295471Y844446D01*
X1295530Y844461D01*
X1295633Y844475D01*
X1295780Y844490D01*
X1295986Y844520D01*
X1296237Y844549D01*
X1296296Y844564D01*
X1297194Y844549D01*
X1297238Y844534D01*
X1297408Y844512D01*
X1297673Y844483D01*
X1297791Y844468D01*
X1297879Y844453D01*
X1297938Y844439D01*
X1298012Y844409D01*
X1298181Y844358D01*
X1298240Y844343D01*
X1298336Y844321D01*
X1298453Y844277D01*
X1298608Y844210D01*
X1298689Y844188D01*
X1298991Y844048D01*
X1299094Y843989D01*
X1299124Y843960D01*
X1299227Y843916D01*
X1299330Y843857D01*
X1299389Y843798D01*
X1299521Y843724D01*
X1299602Y843658D01*
X1299691Y843599D01*
X1299727Y843562D01*
X1299757Y843548D01*
X1299801Y843503D01*
X1299830Y843489D01*
X1299860Y843459D01*
X1299890Y843445D01*
X1300125Y843209D01*
X1300155Y843194D01*
X1300191Y843157D01*
X1300206Y843128D01*
X1300258Y843076D01*
X1300287Y843062D01*
X1300339Y843010D01*
X1300353Y842980D01*
X1300398Y842936D01*
X1300405Y842914D01*
X1300427Y842907D01*
X1300442Y842877D01*
X1300471Y842848D01*
X1300486Y842819D01*
X1300530Y842774D01*
X1300545Y842745D01*
X1300604Y842686D01*
X1300618Y842656D01*
X1300677Y842553D01*
X1300736Y842495D01*
X1300839Y842303D01*
X1300869Y842274D01*
X1300913Y842170D01*
X1301046Y841891D01*
X1301068Y841810D01*
X1301127Y841662D01*
X1301163Y841567D01*
X1301178Y841508D01*
X1301245Y841191D01*
X1301259Y841132D01*
X1301281Y841051D01*
X1301296Y840992D01*
X1301326Y840698D01*
X1301340Y840108D01*
X1301326Y839784D01*
X1301303Y839541D01*
X1301289Y839468D01*
X1301237Y839298D01*
X1301222Y839240D01*
X1301208Y839136D01*
X1301163Y838960D01*
X1301104Y838827D01*
X1301075Y838754D01*
X1301024Y838614D01*
X1301001Y838562D01*
X1300869Y838312D01*
X1300803Y838231D01*
X1300729Y838113D01*
X1300692Y838061D01*
X1300648Y838017D01*
X1300633Y837988D01*
X1300567Y837907D01*
X1300501Y837840D01*
X1300486Y837811D01*
X1300405Y837730D01*
X1300376Y837715D01*
X1300309Y837649D01*
X1300294Y837619D01*
X1300258Y837583D01*
X1300236Y837575D01*
X1300221Y837546D01*
X1300206Y837502D01*
X1300221Y837457D01*
X1300243Y837435D01*
X1300346Y837421D01*
X1300390Y837435D01*
X1303557Y837450D01*
X1303601Y837465D01*
X1303631Y837479D01*
X1303653Y837516D01*
X1303638Y837531D01*
X1303653Y837575D01*
X1303616Y837671D01*
X1303549Y837840D01*
X1303535Y837899D01*
X1303505Y838150D01*
X1303461Y838253D01*
X1303432Y838326D01*
X1303409Y838407D01*
X1303395Y838481D01*
X1303380Y838672D01*
X1303365Y838835D01*
X1303351Y838893D01*
X1303336Y838982D01*
X1303292Y839158D01*
X1303277Y839247D01*
X1303262Y839379D01*
X1303248Y839615D01*
X1303225Y839814D01*
X1303211Y840050D01*
X1303196Y840094D01*
X1303181Y840241D01*
X1303167Y840285D01*
X1303152Y840344D01*
X1303122Y840521D01*
X1303108Y842480D01*
X1303137Y843408D01*
X1303152Y843452D01*
X1303167Y843599D01*
X1303181Y919760D01*
X1303196Y919804D01*
X1303211Y920010D01*
X1303225Y920054D01*
X1303240Y920260D01*
X1303255Y920304D01*
X1303270Y920511D01*
X1303373Y920732D01*
X1303387Y920864D01*
X1303402Y920908D01*
X1303446Y920982D01*
X1303505Y921070D01*
X1303535Y921144D01*
X1303572Y921240D01*
X1303608Y921277D01*
X1303616Y921299D01*
X1303638Y921306D01*
X1303660Y921402D01*
X1303734Y921520D01*
X1303800Y921586D01*
X1303837Y921682D01*
X1303918Y921763D01*
X1303954Y921858D01*
X1304013Y921917D01*
X1304043Y921932D01*
X1304094Y921984D01*
X1304109Y922013D01*
X1304308Y922212D01*
X1304337Y922227D01*
X1304455Y922344D01*
X1304485Y922359D01*
X1304588Y922462D01*
X1304617Y922477D01*
X1304647Y922506D01*
X1304676Y922521D01*
X1304750Y922595D01*
X1304794Y922609D01*
X1304845Y922646D01*
X1304860Y922676D01*
X1304912Y922727D01*
X1304986Y922772D01*
X1305037Y922823D01*
X1305052Y922852D01*
X1305074Y922875D01*
X1305236Y922963D01*
X1305295Y923022D01*
X1305376Y923044D01*
X1305420Y923074D01*
X1305435Y923103D01*
X1305486Y923155D01*
X1305626Y923206D01*
X1305678Y923243D01*
X1305737Y923302D01*
X1305795Y923316D01*
X1305869Y923361D01*
X1305943Y923434D01*
X1306017Y923464D01*
X1306120Y923523D01*
X1306164Y923567D01*
X1306259Y923604D01*
X1306333Y923648D01*
X1306340Y923670D01*
X1306370Y923685D01*
X1306444Y923729D01*
X1306547Y923788D01*
X1306606Y923847D01*
X1306738Y923920D01*
X1306775Y923972D01*
X1306841Y924009D01*
X1306959Y924038D01*
X1307011Y924090D01*
X1307025Y924193D01*
X1306989Y924274D01*
X1306959Y924289D01*
X1306885Y924318D01*
X1306804Y924340D01*
X1306753Y924362D01*
X1306709Y924406D01*
X1306532Y924436D01*
X1306289Y924458D01*
X1306208Y924480D01*
X1306105Y924524D01*
X1306031Y924554D01*
X1305972Y924568D01*
X1305508Y924605D01*
X1305435Y924620D01*
X1305346Y924635D01*
X1305052Y924694D01*
X1304853Y924716D01*
X1304544Y924730D01*
X1304499Y924745D01*
X1304264Y924760D01*
X1304220Y924775D01*
X1304109Y924797D01*
X1304050Y924811D01*
X1303977Y924826D01*
X1303888Y924841D01*
X1303594Y924856D01*
X1303446Y924870D01*
X1303240Y924885D01*
X1303049Y924900D01*
X1302872Y924929D01*
X1302754Y924959D01*
X1302636Y924973D01*
X1302202Y924995D01*
X1302054Y925010D01*
X1301672Y925025D01*
X1301598Y925054D01*
X1301502Y925077D01*
X1301421Y925099D01*
X1301237Y925121D01*
X1301060Y925135D01*
X1300795Y925150D01*
X1300707Y925165D01*
X1300589Y925194D01*
X1300515Y925209D01*
X1300302Y925275D01*
X1300037Y925290D01*
X1299993Y925305D01*
X1299890Y925320D01*
X1299786Y925378D01*
X1299757Y925408D01*
X1299499Y925430D01*
X1299426Y925460D01*
X1299374Y925496D01*
X1299352Y925518D01*
X1299344Y925540D01*
X1299286Y925555D01*
X1299205Y925577D01*
X1299087Y925651D01*
X1299079Y925673D01*
X1299050Y925688D01*
X1298947Y925747D01*
X1298910Y925769D01*
X1298895Y925798D01*
X1298866Y925828D01*
X1298851Y925857D01*
X1298829Y925879D01*
X1298800Y925894D01*
X1298733Y925960D01*
X1298696Y926056D01*
X1298667Y926115D01*
X1298645Y926122D01*
X1298601Y926225D01*
X1298586Y926328D01*
X1298601Y927109D01*
X1298616Y927153D01*
X1298630Y927212D01*
X1298704Y927315D01*
X1298726Y927411D01*
X1298755Y927485D01*
X1298800Y927543D01*
X1298822Y927551D01*
X1298836Y927610D01*
X1298910Y927713D01*
X1298969Y927772D01*
X1298984Y927801D01*
X1299050Y927882D01*
X1299109Y927941D01*
X1299138Y927956D01*
X1299300Y928118D01*
X1299330Y928133D01*
X1299359Y928162D01*
X1299389Y928177D01*
X1299462Y928251D01*
X1299602Y928302D01*
X1299617Y928332D01*
X1299654Y928368D01*
X1299749Y928405D01*
X1299808Y928435D01*
X1299823Y928464D01*
X1299845Y928486D01*
X1299875Y928501D01*
X1299904Y928530D01*
X1299985Y928552D01*
X1300059Y928582D01*
X1300140Y928663D01*
X1300243Y928692D01*
X1300331Y928707D01*
X1300405Y928781D01*
X1300434Y928795D01*
X1300538Y928840D01*
X1300611Y928854D01*
X1300692Y928921D01*
X1300773Y928958D01*
X1300832Y928972D01*
X1300920Y928987D01*
X1301024Y929061D01*
X1301127Y929105D01*
X1301186Y929119D01*
X1301259Y929164D01*
X1301303Y929208D01*
X1301333Y929223D01*
X1301407Y929252D01*
X1301487Y929274D01*
X1301510Y929296D01*
X1301583Y929340D01*
X1301686Y929385D01*
X1301789Y929444D01*
X1301819Y929473D01*
X1301848Y929488D01*
X1301981Y929547D01*
X1302010Y929561D01*
X1302047Y929598D01*
X1302062Y929628D01*
X1302128Y929664D01*
X1302202Y929694D01*
X1302231Y929709D01*
X1302320Y929797D01*
X1302393Y929826D01*
X1302423Y929841D01*
X1302526Y929944D01*
X1302629Y930003D01*
X1302762Y930136D01*
X1302791Y930151D01*
X1302813Y930173D01*
X1302828Y930202D01*
X1302894Y930283D01*
X1302931Y930305D01*
X1302946Y930335D01*
X1302960Y930379D01*
X1302975Y930438D01*
X1303012Y930533D01*
X1303034Y930555D01*
X1303049Y930585D01*
X1303093Y930688D01*
X1303115Y930872D01*
X1303130Y931078D01*
X1303159Y931270D01*
X1303174Y931594D01*
X1303189Y931682D01*
X1303196Y934621D01*
X1303144Y934687D01*
X1303085Y934702D01*
X1302938Y934687D01*
X1302850Y934628D01*
X1302769Y934606D01*
X1302710Y934591D01*
X1302688Y934569D01*
X1302666Y934562D01*
X1302651Y934532D01*
X1302629Y934510D01*
X1302555Y934481D01*
X1302408Y934466D01*
X1302349Y934451D01*
X1302268Y934385D01*
X1302187Y934348D01*
X1302128Y934333D01*
X1302040Y934319D01*
X1301966Y934274D01*
X1301922Y934230D01*
X1301893Y934215D01*
X1301848Y934201D01*
X1301789Y934186D01*
X1301664Y934164D01*
X1301613Y934112D01*
X1301583Y934098D01*
X1301510Y934068D01*
X1301451Y934053D01*
X1301370Y934031D01*
X1301348Y934009D01*
X1301274Y933980D01*
X1301200Y933936D01*
X1301178Y933943D01*
X1301222Y934017D01*
X1301252Y934046D01*
X1301267Y934105D01*
X1301289Y934215D01*
X1301377Y934363D01*
X1301399Y934444D01*
X1301414Y934547D01*
X1301532Y934724D01*
X1301554Y934849D01*
X1301605Y934959D01*
X1301664Y935018D01*
X1301686Y935158D01*
X1301701Y935232D01*
X1301730Y935305D01*
X1301812Y935386D01*
X1301841Y935490D01*
X1301856Y935563D01*
X1301915Y935666D01*
X1301959Y935710D01*
X1301974Y935769D01*
X1301988Y935887D01*
X1302047Y935990D01*
X1302077Y936020D01*
X1302106Y936093D01*
X1302128Y936189D01*
X1302158Y936263D01*
X1302180Y936285D01*
X1302194Y936314D01*
X1302224Y936344D01*
X1302253Y936417D01*
X1302268Y936535D01*
X1302342Y936668D01*
X1302371Y936697D01*
X1302386Y936756D01*
X1302401Y936874D01*
X1302460Y936977D01*
X1302489Y936992D01*
X1302518Y937065D01*
X1302541Y937146D01*
X1302555Y937220D01*
X1302614Y937309D01*
X1302666Y937404D01*
X1302681Y937551D01*
X1302695Y937596D01*
X1302739Y937669D01*
X1302762Y937691D01*
X1302791Y937706D01*
X1302806Y937765D01*
X1302820Y937853D01*
X1302835Y937912D01*
X1302887Y937993D01*
X1302931Y938037D01*
X1302960Y938111D01*
X1302975Y938244D01*
X1303034Y938347D01*
X1303093Y938406D01*
X1303108Y938523D01*
X1303137Y938597D01*
X1303152Y938627D01*
X1303211Y938715D01*
X1303240Y938789D01*
X1303255Y938848D01*
X1303292Y938943D01*
X1303351Y939032D01*
X1303373Y939113D01*
X1303387Y939172D01*
X1303409Y939253D01*
X1303461Y939334D01*
X1303490Y939363D01*
X1303520Y939437D01*
X1303535Y939525D01*
X1303623Y939687D01*
X1303653Y939761D01*
X1303689Y939930D01*
X1303741Y940011D01*
X1303770Y940041D01*
X1303800Y940114D01*
X1303815Y940217D01*
X1303888Y940350D01*
X1303932Y940394D01*
X1303947Y940512D01*
X1303962Y940556D01*
X1303977Y940630D01*
X1304065Y940718D01*
X1304094Y940821D01*
X1304109Y940924D01*
X1304131Y940932D01*
X1304153Y940910D01*
D02*
G37*
G36*
X1297076Y921947D02*
X1297106Y921932D01*
X1297143Y921910D01*
X1297157Y921851D01*
X1297172Y915518D01*
X1297194Y915481D01*
X1297224Y915466D01*
X1297297Y915437D01*
X1297518Y915452D01*
X1297562Y915466D01*
X1297739Y915481D01*
X1297813Y915510D01*
X1297916Y915555D01*
X1298063Y915599D01*
X1298181Y915643D01*
X1298269Y915702D01*
X1298461Y915805D01*
X1298542Y915871D01*
X1298623Y915923D01*
X1298792Y916092D01*
X1298807Y916122D01*
X1298851Y916166D01*
X1298858Y916188D01*
X1298881Y916195D01*
X1298895Y916225D01*
X1298998Y916416D01*
X1299057Y916505D01*
X1299079Y916586D01*
X1299094Y916645D01*
X1299109Y916718D01*
X1299175Y916932D01*
X1299190Y917035D01*
X1299205Y917094D01*
X1299219Y917536D01*
X1299205Y917580D01*
X1299190Y917845D01*
X1299175Y917889D01*
X1299153Y917985D01*
X1299131Y918066D01*
X1299102Y918169D01*
X1299087Y918228D01*
X1299065Y918309D01*
X1299028Y918405D01*
X1298969Y918493D01*
X1298895Y918625D01*
X1298777Y918743D01*
X1298763Y918773D01*
X1298726Y918810D01*
X1298696Y918824D01*
X1298638Y918883D01*
X1298608Y918898D01*
X1298579Y918927D01*
X1298549Y918942D01*
X1298490Y919001D01*
X1298358Y919075D01*
X1298277Y919141D01*
X1298247Y919171D01*
X1298233Y919274D01*
X1298247Y919421D01*
X1298269Y919664D01*
X1298284Y919752D01*
X1298306Y919951D01*
X1298321Y920010D01*
X1298343Y920179D01*
X1298358Y920327D01*
X1298372Y920533D01*
X1298387Y920724D01*
X1298402Y920886D01*
X1298417Y921093D01*
X1298475Y921490D01*
X1298490Y921637D01*
X1298505Y921711D01*
X1298542Y921763D01*
X1298564Y921785D01*
X1298667Y921770D01*
X1298755Y921711D01*
X1298814Y921696D01*
X1298954Y921645D01*
X1299006Y921623D01*
X1299286Y921475D01*
X1299374Y921416D01*
X1299507Y921343D01*
X1299536Y921313D01*
X1299565Y921299D01*
X1299705Y921203D01*
X1299830Y921107D01*
X1299860Y921093D01*
X1299978Y920975D01*
X1300007Y920960D01*
X1300140Y920827D01*
X1300169Y920813D01*
X1300206Y920776D01*
X1300221Y920746D01*
X1300339Y920629D01*
X1300353Y920599D01*
X1300398Y920555D01*
X1300412Y920526D01*
X1300442Y920511D01*
X1300457Y920481D01*
X1300515Y920393D01*
X1300530Y920363D01*
X1300589Y920304D01*
X1300604Y920275D01*
X1300677Y920143D01*
X1300751Y920039D01*
X1300780Y919966D01*
X1300839Y919863D01*
X1300913Y919701D01*
X1300950Y919605D01*
X1301016Y919480D01*
X1301046Y919377D01*
X1301060Y919318D01*
X1301127Y919134D01*
X1301149Y919053D01*
X1301178Y918950D01*
X1301230Y918618D01*
X1301245Y918559D01*
X1301267Y918478D01*
X1301281Y918419D01*
X1301311Y918169D01*
X1301326Y917889D01*
X1301340Y917432D01*
X1301326Y916622D01*
X1301311Y916578D01*
X1301296Y916372D01*
X1301281Y916328D01*
X1301259Y916217D01*
X1301237Y916136D01*
X1301222Y916077D01*
X1301208Y915930D01*
X1301193Y915871D01*
X1301178Y915768D01*
X1301112Y915584D01*
X1301060Y915415D01*
X1301046Y915356D01*
X1300994Y915216D01*
X1300972Y915194D01*
X1300928Y915091D01*
X1300891Y914995D01*
X1300869Y914943D01*
X1300810Y914855D01*
X1300707Y914664D01*
X1300677Y914634D01*
X1300589Y914472D01*
X1300530Y914413D01*
X1300515Y914384D01*
X1300457Y914281D01*
X1300368Y914192D01*
X1300353Y914163D01*
X1300324Y914133D01*
X1300309Y914104D01*
X1300191Y913986D01*
X1300177Y913957D01*
X1300125Y913905D01*
X1300096Y913890D01*
X1300059Y913854D01*
X1300044Y913824D01*
X1300022Y913802D01*
X1299993Y913787D01*
X1299860Y913655D01*
X1299830Y913640D01*
X1299801Y913611D01*
X1299772Y913596D01*
X1299698Y913522D01*
X1299668Y913507D01*
X1299565Y913434D01*
X1299536Y913419D01*
X1299492Y913375D01*
X1299462Y913360D01*
X1299322Y913264D01*
X1299227Y913213D01*
X1299124Y913154D01*
X1299035Y913095D01*
X1298940Y913058D01*
X1298866Y913029D01*
X1298755Y912962D01*
X1298608Y912918D01*
X1298468Y912867D01*
X1298446Y912845D01*
X1298350Y912808D01*
X1298129Y912764D01*
X1298048Y912741D01*
X1297953Y912705D01*
X1297901Y912683D01*
X1297886D01*
X1297761Y912661D01*
X1297562Y912638D01*
X1297459Y912624D01*
X1297135Y912594D01*
X1297076Y912579D01*
X1296708Y912565D01*
X1296369Y912579D01*
X1296325Y912594D01*
X1296053Y912616D01*
X1295920Y912631D01*
X1295685Y912661D01*
X1295611Y912675D01*
X1295552Y912690D01*
X1295338Y912756D01*
X1295280Y912771D01*
X1295176Y912786D01*
X1295117Y912800D01*
X1295044Y912830D01*
X1295014Y912845D01*
X1294882Y912904D01*
X1294801Y912926D01*
X1294742Y912940D01*
X1294668Y912970D01*
X1294484Y913065D01*
X1294388Y913102D01*
X1294300Y913161D01*
X1294219Y913198D01*
X1294086Y913272D01*
X1293983Y913345D01*
X1293851Y913419D01*
X1293807Y913463D01*
X1293777Y913478D01*
X1293674Y913552D01*
X1293645Y913581D01*
X1293615Y913596D01*
X1293586Y913625D01*
X1293556Y913640D01*
X1293497Y913699D01*
X1293468Y913714D01*
X1293365Y913817D01*
X1293335Y913831D01*
X1293166Y914001D01*
X1293151Y914030D01*
X1293019Y914163D01*
X1293004Y914192D01*
X1292975Y914222D01*
X1292960Y914251D01*
X1292901Y914310D01*
X1292886Y914340D01*
X1292812Y914443D01*
X1292798Y914472D01*
X1292753Y914516D01*
X1292665Y914678D01*
X1292636Y914708D01*
X1292621Y914737D01*
X1292503Y914958D01*
X1292444Y915091D01*
X1292393Y915231D01*
X1292341Y915326D01*
X1292297Y915474D01*
X1292282Y915533D01*
X1292231Y915673D01*
X1292201Y915746D01*
X1292172Y915864D01*
X1292157Y915952D01*
X1292142Y916070D01*
X1292128Y916159D01*
X1292113Y916217D01*
X1292098Y916291D01*
X1292083Y916350D01*
X1292069Y916424D01*
X1292054Y916541D01*
X1292039Y916718D01*
X1292025Y916983D01*
X1292017Y917550D01*
X1292032Y917595D01*
X1292047Y917977D01*
X1292061Y918022D01*
X1292076Y918169D01*
X1292091Y918213D01*
X1292113Y918309D01*
X1292172Y918662D01*
X1292186Y918736D01*
X1292201Y918795D01*
X1292267Y918950D01*
X1292290Y919045D01*
X1292304Y919119D01*
X1292348Y919237D01*
X1292430Y919421D01*
X1292444Y919480D01*
X1292474Y919553D01*
X1292547Y919657D01*
X1292577Y919730D01*
X1292650Y919863D01*
X1292680Y919892D01*
X1292695Y919922D01*
X1292768Y920054D01*
X1292834Y920135D01*
X1292908Y920253D01*
X1292989Y920334D01*
X1293004Y920363D01*
X1293070Y920444D01*
X1293136Y920511D01*
X1293151Y920540D01*
X1293217Y920607D01*
X1293247Y920621D01*
X1293284Y920673D01*
X1293335Y920724D01*
X1293365Y920739D01*
X1293468Y920842D01*
X1293497Y920857D01*
X1293600Y920960D01*
X1293630Y920975D01*
X1293762Y921078D01*
X1293851Y921137D01*
X1293880Y921151D01*
X1293910Y921181D01*
X1293939Y921196D01*
X1293969Y921225D01*
X1294160Y921328D01*
X1294469Y921490D01*
X1294543Y921520D01*
X1294727Y921586D01*
X1294749Y921608D01*
X1294823Y921637D01*
X1294926Y921667D01*
X1295044Y921696D01*
X1295228Y921763D01*
X1295346Y921792D01*
X1295419Y921807D01*
X1295714Y921851D01*
X1295802Y921866D01*
X1295876Y921880D01*
X1295964Y921895D01*
X1296038Y921910D01*
X1296237Y921932D01*
X1296340Y921947D01*
X1297032Y921962D01*
X1297076Y921947D01*
D02*
G37*
G36*
X1292466Y912079D02*
X1292628Y911990D01*
X1292790Y911917D01*
X1292894Y911858D01*
X1292982Y911799D01*
X1293063Y911777D01*
X1293136Y911747D01*
X1293159Y911725D01*
X1293188Y911711D01*
X1293217Y911681D01*
X1293313Y911644D01*
X1293431Y911600D01*
X1293453Y911578D01*
X1293483Y911563D01*
X1293792Y911401D01*
X1293925Y911342D01*
X1294028Y911283D01*
X1294307Y911136D01*
X1294440Y911077D01*
X1294602Y910989D01*
X1294734Y910930D01*
X1294838Y910871D01*
X1294911Y910827D01*
X1294985Y910797D01*
X1295081Y910760D01*
X1295191Y910679D01*
X1295331Y910628D01*
X1295383Y910606D01*
X1295486Y910532D01*
X1295545Y910518D01*
X1295736Y910414D01*
X1295869Y910356D01*
X1296031Y910267D01*
X1296163Y910208D01*
X1296266Y910149D01*
X1296546Y910002D01*
X1296708Y909928D01*
X1296811Y909870D01*
X1296973Y909796D01*
X1297076Y909737D01*
X1297150Y909693D01*
X1297297Y909634D01*
X1297327Y909619D01*
X1297430Y909546D01*
X1297489Y909531D01*
X1297651Y909442D01*
X1297813Y909369D01*
X1297975Y909280D01*
X1298078Y909236D01*
X1298240Y909148D01*
X1298402Y909074D01*
X1298505Y909015D01*
X1298579Y908971D01*
X1299241Y908647D01*
X1299403Y908544D01*
X1299484Y908522D01*
X1299536Y908500D01*
X1299639Y908426D01*
X1299713Y908397D01*
X1299808Y908360D01*
X1299926Y908286D01*
X1300007Y908249D01*
X1300103Y908213D01*
X1300191Y908154D01*
X1300346Y908087D01*
X1300449Y908028D01*
X1300935Y907778D01*
X1300965Y907749D01*
X1300994Y907734D01*
X1301046Y907609D01*
X1301031Y906003D01*
X1301001Y905974D01*
X1300987Y905944D01*
X1300950Y905908D01*
X1300920Y905893D01*
X1300817Y905849D01*
X1300655Y905760D01*
X1300523Y905701D01*
X1300390Y905628D01*
X1300140Y905495D01*
X1299683Y905274D01*
X1299654Y905259D01*
X1299551Y905186D01*
X1299359Y905112D01*
X1299256Y905039D01*
X1299116Y904987D01*
X1298998Y904913D01*
X1298844Y904847D01*
X1298741Y904788D01*
X1298579Y904715D01*
X1298446Y904641D01*
X1298284Y904567D01*
X1298255Y904553D01*
X1298137Y904479D01*
X1298034Y904435D01*
X1297931Y904376D01*
X1297121Y903978D01*
X1297017Y903904D01*
X1296855Y903846D01*
X1296752Y903772D01*
X1296649Y903728D01*
X1296576Y903698D01*
X1296472Y903625D01*
X1296333Y903573D01*
X1296281Y903551D01*
X1296193Y903492D01*
X1296089Y903448D01*
X1295662Y903227D01*
X1295412Y903094D01*
X1295250Y903021D01*
X1295117Y902947D01*
X1294985Y902888D01*
X1294911Y902859D01*
X1294882Y902844D01*
X1294852Y902815D01*
X1294823Y902800D01*
X1294690Y902741D01*
X1294558Y902667D01*
X1294484Y902623D01*
X1294411Y902594D01*
X1293954Y902358D01*
X1293851Y902314D01*
X1293689Y902225D01*
X1293556Y902167D01*
X1293453Y902108D01*
X1293173Y901960D01*
X1293011Y901887D01*
X1292879Y901813D01*
X1292746Y901754D01*
X1292614Y901681D01*
X1292540Y901636D01*
X1292393Y901592D01*
X1292348Y901607D01*
X1292326Y901629D01*
X1292312Y901688D01*
X1292326Y904589D01*
X1292393Y904670D01*
X1292496Y904715D01*
X1292776Y904847D01*
X1292871Y904884D01*
X1292960Y904943D01*
X1293085Y904994D01*
X1293181Y905031D01*
X1293298Y905105D01*
X1293365Y905127D01*
X1293461Y905164D01*
X1293512Y905186D01*
X1293615Y905259D01*
X1293696Y905282D01*
X1293770Y905311D01*
X1293954Y905407D01*
X1294101Y905466D01*
X1294190Y905525D01*
X1294263Y905554D01*
X1294359Y905591D01*
X1294543Y905687D01*
X1294639Y905723D01*
X1294852Y905834D01*
X1294948Y905871D01*
X1295066Y905944D01*
X1295139Y905974D01*
X1295257Y906018D01*
X1295346Y906077D01*
X1295441Y906114D01*
X1295581Y906165D01*
X1295603Y906187D01*
X1295766Y906261D01*
X1295839Y906291D01*
X1295869Y906305D01*
X1295986Y906379D01*
X1296126Y906430D01*
X1296200Y906460D01*
X1296222Y906482D01*
X1296355Y906541D01*
X1296428Y906570D01*
X1296708Y906703D01*
X1296833Y906769D01*
X1296863Y906843D01*
X1296848Y906902D01*
X1296797Y906953D01*
X1296568Y907034D01*
X1296546Y907056D01*
X1296517Y907071D01*
X1296384Y907130D01*
X1296288Y907167D01*
X1296266Y907189D01*
X1296237Y907204D01*
X1296104Y907262D01*
X1295986Y907307D01*
X1295883Y907380D01*
X1295699Y907447D01*
X1295486Y907557D01*
X1295390Y907594D01*
X1295206Y907690D01*
X1295110Y907727D01*
X1294926Y907822D01*
X1294830Y907859D01*
X1294617Y907970D01*
X1294521Y908006D01*
X1294381Y908087D01*
X1294241Y908139D01*
X1294123Y908213D01*
X1294028Y908249D01*
X1294013D01*
X1293939Y908279D01*
X1293836Y908338D01*
X1293703Y908397D01*
X1293608Y908434D01*
X1293527Y908485D01*
X1293365Y908559D01*
X1293269Y908596D01*
X1293247Y908618D01*
X1293217Y908632D01*
X1293085Y908691D01*
X1292989Y908728D01*
X1292879Y908794D01*
X1292731Y908853D01*
X1292363Y909045D01*
X1292326Y909111D01*
X1292312Y909170D01*
X1292326Y912057D01*
X1292363Y912094D01*
X1292466Y912079D01*
D02*
G37*
G36*
X1292636Y900789D02*
X1292945Y900775D01*
X1293313Y900760D01*
X1293902Y900731D01*
X1294182Y900716D01*
X1294388Y900701D01*
X1294536Y900686D01*
X1294779Y900664D01*
X1294816Y900627D01*
X1294830Y900568D01*
X1294808Y900488D01*
X1294749Y900399D01*
X1294712Y900318D01*
X1294690Y900222D01*
X1294676Y900149D01*
X1294631Y899972D01*
X1294595Y899847D01*
X1294565Y899641D01*
X1294558Y899339D01*
X1294572Y899133D01*
X1294602Y898970D01*
X1294668Y898757D01*
X1294683Y898698D01*
X1294705Y898617D01*
X1294734Y898543D01*
X1294771Y898506D01*
X1294786Y898477D01*
X1294889Y898286D01*
X1294948Y898227D01*
X1294963Y898197D01*
X1294992Y898168D01*
X1295007Y898138D01*
X1295139Y898006D01*
X1295154Y897976D01*
X1295176Y897954D01*
X1295206Y897940D01*
X1295287Y897873D01*
X1295309Y897851D01*
X1295338Y897836D01*
X1295368Y897807D01*
X1295397Y897792D01*
X1295537Y897697D01*
X1295633Y897645D01*
X1295729Y897608D01*
X1295883Y897527D01*
X1295986Y897498D01*
X1296045Y897483D01*
X1296185Y897431D01*
X1296310Y897394D01*
X1296517Y897365D01*
X1296811Y897336D01*
X1296914Y897321D01*
X1297283Y897306D01*
X1300965Y897291D01*
X1301031Y897225D01*
X1301046Y897122D01*
X1301031Y894559D01*
X1300979Y894508D01*
X1300920Y894493D01*
X1292363Y894508D01*
X1292326Y894545D01*
X1292312Y894648D01*
X1292326Y897225D01*
X1292363Y897277D01*
X1292466Y897306D01*
X1293453Y897321D01*
X1293475Y897358D01*
X1293416Y897461D01*
X1293380Y897498D01*
X1293247Y897571D01*
X1293166Y897637D01*
X1293114Y897674D01*
X1293107Y897682D01*
X1293100Y897689D01*
X1293070Y897719D01*
X1293041Y897733D01*
X1292967Y897807D01*
X1292938Y897822D01*
X1292739Y898020D01*
X1292724Y898050D01*
X1292658Y898131D01*
X1292606Y898183D01*
X1292592Y898212D01*
X1292496Y898352D01*
X1292459Y898389D01*
X1292422Y898484D01*
X1292348Y898602D01*
X1292312Y898683D01*
X1292290Y898764D01*
X1292275Y898823D01*
X1292245Y898897D01*
X1292209Y898978D01*
X1292179Y899081D01*
X1292164Y899140D01*
X1292142Y899353D01*
X1292128Y899530D01*
X1292113Y899692D01*
X1292106Y900082D01*
X1292120Y900127D01*
X1292135Y900377D01*
X1292150Y900421D01*
X1292164Y900613D01*
X1292179Y900657D01*
X1292238Y900760D01*
X1292260Y900782D01*
X1292378Y900811D01*
X1292636Y900789D01*
D02*
G37*
G36*
X1297084Y892689D02*
X1297135Y892652D01*
X1297157Y892586D01*
X1297172Y886267D01*
X1297194Y886230D01*
X1297268Y886201D01*
X1297327Y886186D01*
X1297481Y886208D01*
X1297658Y886238D01*
X1297717Y886253D01*
X1297931Y886319D01*
X1298034Y886348D01*
X1298129Y886385D01*
X1298152Y886407D01*
X1298431Y886554D01*
X1298461Y886584D01*
X1298490Y886599D01*
X1298593Y886672D01*
X1298667Y886746D01*
X1298696Y886761D01*
X1298792Y886856D01*
X1298807Y886886D01*
X1298866Y886945D01*
X1298881Y886974D01*
X1298910Y887004D01*
X1299013Y887195D01*
X1299072Y887328D01*
X1299087Y887387D01*
X1299109Y887468D01*
X1299124Y887526D01*
X1299160Y887652D01*
X1299190Y887769D01*
X1299205Y887873D01*
X1299219Y888285D01*
X1299205Y888344D01*
X1299190Y888609D01*
X1299175Y888653D01*
X1299160Y888742D01*
X1299131Y888815D01*
X1299102Y888933D01*
X1299079Y889029D01*
X1299065Y889088D01*
X1298881Y889404D01*
X1298822Y889463D01*
X1298807Y889493D01*
X1298711Y889588D01*
X1298682Y889603D01*
X1298593Y889692D01*
X1298564Y889706D01*
X1298534Y889736D01*
X1298431Y889795D01*
X1298343Y889854D01*
X1298269Y889898D01*
X1298247Y889920D01*
X1298233Y890023D01*
X1298262Y890406D01*
X1298277Y890465D01*
X1298299Y890634D01*
X1298313Y890723D01*
X1298336Y890921D01*
X1298350Y891024D01*
X1298365Y891260D01*
X1298380Y891319D01*
X1298394Y891673D01*
X1298409Y891717D01*
X1298431Y891974D01*
X1298461Y892151D01*
X1298498Y892483D01*
X1298534Y892534D01*
X1298638Y892549D01*
X1298888Y892431D01*
X1299028Y892380D01*
X1299079Y892357D01*
X1299168Y892299D01*
X1299197Y892284D01*
X1299212D01*
X1299344Y892210D01*
X1299374Y892181D01*
X1299403Y892166D01*
X1299536Y892092D01*
X1299565Y892063D01*
X1299595Y892048D01*
X1299624Y892019D01*
X1299654Y892004D01*
X1299919Y891798D01*
X1299993Y891724D01*
X1300022Y891709D01*
X1300221Y891510D01*
X1300236Y891481D01*
X1300272Y891444D01*
X1300302Y891430D01*
X1300339Y891393D01*
X1300353Y891363D01*
X1300420Y891282D01*
X1300471Y891231D01*
X1300486Y891201D01*
X1300589Y891069D01*
X1300677Y890907D01*
X1300751Y890804D01*
X1300913Y890465D01*
X1300943Y890391D01*
X1301031Y890200D01*
X1301060Y890097D01*
X1301075Y890038D01*
X1301178Y889714D01*
X1301193Y889611D01*
X1301208Y889552D01*
X1301230Y889397D01*
X1301245Y889309D01*
X1301267Y889228D01*
X1301296Y889051D01*
X1301311Y888948D01*
X1301326Y888712D01*
X1301340Y888211D01*
X1301326Y887431D01*
X1301311Y887387D01*
X1301296Y887136D01*
X1301281Y887092D01*
X1301259Y886996D01*
X1301200Y886702D01*
X1301186Y886613D01*
X1301163Y886473D01*
X1301134Y886400D01*
X1301097Y886304D01*
X1301075Y886223D01*
X1301046Y886120D01*
X1300994Y885980D01*
X1300972Y885958D01*
X1300928Y885855D01*
X1300876Y885715D01*
X1300854Y885693D01*
X1300839Y885663D01*
X1300722Y885443D01*
X1300618Y885295D01*
X1300574Y885221D01*
X1300545Y885192D01*
X1300530Y885163D01*
X1300457Y885060D01*
X1300442Y885030D01*
X1300353Y884942D01*
X1300339Y884912D01*
X1300272Y884831D01*
X1300191Y884750D01*
X1300177Y884721D01*
X1300081Y884625D01*
X1300052Y884610D01*
X1300029Y884588D01*
X1300015Y884559D01*
X1299963Y884522D01*
X1299845Y884404D01*
X1299816Y884389D01*
X1299786Y884360D01*
X1299757Y884345D01*
X1299676Y884279D01*
X1299374Y884065D01*
X1299271Y884006D01*
X1299241Y883977D01*
X1298991Y883844D01*
X1298888Y883800D01*
X1298792Y883763D01*
X1298682Y883697D01*
X1298608Y883668D01*
X1298512Y883646D01*
X1298453Y883631D01*
X1298291Y883557D01*
X1298210Y883535D01*
X1298152Y883520D01*
X1298048Y883506D01*
X1297990Y883491D01*
X1297894Y883469D01*
X1297724Y883417D01*
X1297666Y883403D01*
X1297518Y883388D01*
X1297415Y883373D01*
X1297084Y883351D01*
X1296384Y883344D01*
X1296340Y883358D01*
X1295964Y883381D01*
X1295847Y883395D01*
X1295758Y883410D01*
X1295685Y883425D01*
X1295603Y883447D01*
X1295530Y883476D01*
X1295471Y883491D01*
X1295368Y883506D01*
X1295309Y883520D01*
X1295199Y883542D01*
X1295081Y883587D01*
X1294955Y883638D01*
X1294838Y883668D01*
X1294742Y883705D01*
X1294617Y883771D01*
X1294543Y883800D01*
X1294447Y883837D01*
X1294359Y883896D01*
X1294278Y883933D01*
X1294204Y883962D01*
X1294175Y883977D01*
X1294094Y884043D01*
X1293895Y884154D01*
X1293851Y884198D01*
X1293748Y884257D01*
X1293689Y884316D01*
X1293659Y884331D01*
X1293527Y884434D01*
X1293468Y884492D01*
X1293438Y884507D01*
X1293321Y884625D01*
X1293291Y884640D01*
X1293151Y884780D01*
X1293136Y884809D01*
X1293033Y884912D01*
X1293019Y884942D01*
X1292989Y884971D01*
X1292975Y885001D01*
X1292886Y885089D01*
X1292871Y885118D01*
X1292776Y885258D01*
X1292709Y885369D01*
X1292695Y885398D01*
X1292628Y885479D01*
X1292592Y885560D01*
X1292503Y885722D01*
X1292459Y885796D01*
X1292444Y885855D01*
X1292393Y885995D01*
X1292326Y886120D01*
X1292282Y886297D01*
X1292216Y886481D01*
X1292194Y886547D01*
X1292164Y886665D01*
X1292113Y886996D01*
X1292083Y887114D01*
X1292069Y887188D01*
X1292054Y887306D01*
X1292039Y887482D01*
X1292025Y887747D01*
X1292017Y888300D01*
X1292032Y888344D01*
X1292047Y888727D01*
X1292061Y888771D01*
X1292076Y888933D01*
X1292091Y888977D01*
X1292128Y889147D01*
X1292142Y889235D01*
X1292157Y889353D01*
X1292172Y889441D01*
X1292186Y889500D01*
X1292245Y889662D01*
X1292282Y889787D01*
X1292297Y889846D01*
X1292319Y889927D01*
X1292356Y890023D01*
X1292430Y890185D01*
X1292444Y890244D01*
X1292518Y890377D01*
X1292650Y890627D01*
X1292680Y890656D01*
X1292783Y890848D01*
X1292842Y890907D01*
X1292901Y891010D01*
X1292960Y891069D01*
X1292975Y891098D01*
X1293019Y891142D01*
X1293033Y891172D01*
X1293136Y891275D01*
X1293151Y891304D01*
X1293195Y891348D01*
X1293210Y891378D01*
X1293262Y891415D01*
X1293335Y891488D01*
X1293365Y891503D01*
X1293453Y891592D01*
X1293483Y891606D01*
X1293586Y891709D01*
X1293615Y891724D01*
X1293696Y891790D01*
X1293733Y891827D01*
X1293836Y891886D01*
X1293917Y891952D01*
X1294086Y892048D01*
X1294175Y892107D01*
X1294278Y892151D01*
X1294411Y892225D01*
X1294514Y892269D01*
X1294609Y892306D01*
X1294793Y892387D01*
X1294897Y892416D01*
X1294992Y892438D01*
X1295191Y892519D01*
X1295309Y892549D01*
X1295478Y892571D01*
X1295567Y892586D01*
X1295714Y892615D01*
X1295795Y892637D01*
X1295854Y892652D01*
X1295957Y892667D01*
X1296193Y892682D01*
X1296252Y892696D01*
X1297010Y892703D01*
X1297084Y892689D01*
D02*
G37*
G36*
X1300994Y881223D02*
X1301031Y881186D01*
X1301046Y881127D01*
X1301031Y878623D01*
X1300965Y878542D01*
X1300862Y878439D01*
X1300832Y878424D01*
X1300751Y878358D01*
X1300699Y878307D01*
X1300670Y878292D01*
X1300611Y878233D01*
X1300582Y878218D01*
X1300508Y878145D01*
X1300479Y878130D01*
X1300390Y878041D01*
X1300361Y878027D01*
X1300331Y877997D01*
X1300302Y877982D01*
X1300213Y877894D01*
X1300184Y877879D01*
X1300052Y877776D01*
X1299993Y877717D01*
X1299963Y877703D01*
X1299860Y877600D01*
X1299830Y877585D01*
X1299749Y877519D01*
X1299698Y877467D01*
X1299668Y877452D01*
X1299624Y877408D01*
X1299595Y877393D01*
X1299507Y877305D01*
X1299477Y877290D01*
X1299396Y877224D01*
X1299359Y877187D01*
X1299352Y877180D01*
X1299300Y877143D01*
X1299219Y877077D01*
X1299205Y877047D01*
X1299153Y877010D01*
X1299072Y876944D01*
X1299021Y876893D01*
X1298991Y876878D01*
X1298910Y876812D01*
X1298844Y876745D01*
X1298814Y876731D01*
X1298785Y876701D01*
X1298755Y876686D01*
X1298682Y876613D01*
X1298652Y876598D01*
X1298623Y876569D01*
X1298593Y876554D01*
X1298564Y876524D01*
X1298542Y876517D01*
X1298527Y876488D01*
X1298475Y876451D01*
X1298394Y876385D01*
X1298328Y876318D01*
X1298299Y876303D01*
X1298218Y876237D01*
X1298203Y876208D01*
X1298181Y876186D01*
X1298152Y876171D01*
X1298071Y876105D01*
X1298034Y876068D01*
X1298004Y876053D01*
X1297960Y876009D01*
X1297931Y875994D01*
X1297842Y875906D01*
X1297813Y875891D01*
X1297783Y875862D01*
X1297754Y875847D01*
X1297680Y875773D01*
X1297651Y875759D01*
X1297621Y875729D01*
X1297592Y875714D01*
X1297489Y875611D01*
X1297459Y875596D01*
X1297378Y875530D01*
X1297327Y875479D01*
X1297297Y875464D01*
X1297268Y875434D01*
X1297238Y875420D01*
X1297135Y875317D01*
X1297106Y875302D01*
X1297032Y875228D01*
X1297003Y875214D01*
X1296958Y875169D01*
X1296929Y875155D01*
X1296841Y875066D01*
X1296811Y875052D01*
X1296782Y875022D01*
X1296752Y875007D01*
X1296679Y874934D01*
X1296649Y874919D01*
X1296620Y874890D01*
X1296590Y874875D01*
X1296487Y874772D01*
X1296458Y874757D01*
X1296414Y874713D01*
X1296384Y874698D01*
X1296310Y874624D01*
X1296281Y874610D01*
X1296237Y874566D01*
X1296207Y874551D01*
X1296134Y874477D01*
X1296104Y874462D01*
X1296075Y874433D01*
X1296045Y874418D01*
X1295957Y874330D01*
X1295927Y874315D01*
X1295847Y874249D01*
X1295780Y874183D01*
X1295751Y874168D01*
X1295662Y874080D01*
X1295633Y874065D01*
X1295603Y874035D01*
X1295574Y874021D01*
X1295456Y873903D01*
X1295427Y873888D01*
X1295346Y873822D01*
X1295309Y873785D01*
X1295280Y873770D01*
X1295250Y873741D01*
X1295220Y873726D01*
X1295132Y873638D01*
X1295103Y873623D01*
X1295073Y873594D01*
X1295044Y873579D01*
X1294955Y873490D01*
X1294926Y873476D01*
X1294845Y873409D01*
X1294830Y873380D01*
X1294779Y873343D01*
X1294698Y873277D01*
X1294631Y873211D01*
X1294602Y873196D01*
X1294521Y873130D01*
X1294469Y873078D01*
X1294440Y873063D01*
X1294411Y873034D01*
X1294381Y873019D01*
X1294293Y872931D01*
X1294263Y872916D01*
X1294182Y872850D01*
X1294116Y872783D01*
X1294086Y872769D01*
X1294057Y872739D01*
X1294028Y872725D01*
X1293954Y872651D01*
X1293925Y872636D01*
X1293895Y872607D01*
X1293866Y872592D01*
X1293829Y872555D01*
X1293821Y872533D01*
X1293792Y872518D01*
X1293762Y872489D01*
X1293733Y872474D01*
X1293630Y872371D01*
X1293600Y872356D01*
X1293519Y872290D01*
X1293453Y872224D01*
X1293424Y872209D01*
X1293291Y872106D01*
X1293247Y872062D01*
X1293217Y872047D01*
X1293100Y871929D01*
X1293070Y871914D01*
X1292989Y871848D01*
X1292938Y871797D01*
X1292908Y871782D01*
X1292879Y871752D01*
X1292849Y871738D01*
X1292761Y871649D01*
X1292731Y871635D01*
X1292709Y871568D01*
X1292724Y871539D01*
X1292746Y871517D01*
X1292805Y871502D01*
X1300994Y871487D01*
X1301031Y871451D01*
X1301046Y871392D01*
X1301031Y868564D01*
X1300979Y868512D01*
X1300788Y868497D01*
X1288063Y868512D01*
X1287996Y868564D01*
X1287982Y868623D01*
X1287974Y868660D01*
X1287989Y871046D01*
X1288018Y871119D01*
X1288055Y871171D01*
X1288121Y871237D01*
X1288151Y871252D01*
X1288254Y871355D01*
X1288284Y871369D01*
X1288372Y871458D01*
X1288401Y871473D01*
X1288482Y871539D01*
X1288534Y871590D01*
X1288563Y871605D01*
X1288607Y871649D01*
X1288637Y871664D01*
X1288725Y871752D01*
X1288755Y871767D01*
X1288784Y871797D01*
X1288814Y871811D01*
X1288902Y871900D01*
X1288931Y871914D01*
X1288961Y871944D01*
X1288990Y871959D01*
X1289094Y872062D01*
X1289123Y872076D01*
X1289226Y872179D01*
X1289256Y872194D01*
X1289337Y872261D01*
X1289388Y872312D01*
X1289418Y872327D01*
X1289447Y872356D01*
X1289476Y872371D01*
X1289580Y872474D01*
X1289609Y872489D01*
X1289690Y872555D01*
X1289727Y872592D01*
X1289756Y872607D01*
X1289801Y872651D01*
X1289830Y872666D01*
X1289933Y872769D01*
X1289962Y872783D01*
X1289992Y872813D01*
X1290014Y872820D01*
X1290029Y872850D01*
X1290080Y872887D01*
X1290161Y872953D01*
X1290242Y873034D01*
X1290272Y873048D01*
X1290375Y873152D01*
X1290404Y873166D01*
X1290485Y873233D01*
X1290537Y873284D01*
X1290566Y873299D01*
X1290596Y873328D01*
X1290625Y873343D01*
X1290655Y873372D01*
X1290684Y873387D01*
X1290773Y873476D01*
X1290802Y873490D01*
X1290831Y873520D01*
X1290861Y873534D01*
X1290949Y873623D01*
X1290979Y873638D01*
X1291052Y873711D01*
X1291082Y873726D01*
X1291126Y873770D01*
X1291156Y873785D01*
X1291259Y873888D01*
X1291288Y873903D01*
X1291332Y873947D01*
X1291362Y873962D01*
X1291435Y874035D01*
X1291465Y874050D01*
X1291553Y874138D01*
X1291583Y874153D01*
X1291612Y874183D01*
X1291642Y874197D01*
X1291730Y874286D01*
X1291759Y874300D01*
X1291804Y874345D01*
X1291833Y874359D01*
X1291921Y874448D01*
X1291951Y874462D01*
X1292032Y874529D01*
X1292083Y874580D01*
X1292113Y874595D01*
X1292142Y874624D01*
X1292172Y874639D01*
X1292275Y874742D01*
X1292304Y874757D01*
X1292334Y874787D01*
X1292363Y874801D01*
X1292452Y874890D01*
X1292481Y874904D01*
X1292540Y874963D01*
X1292569Y874978D01*
X1292643Y875052D01*
X1292672Y875066D01*
X1292761Y875155D01*
X1292790Y875169D01*
X1292871Y875236D01*
X1292938Y875302D01*
X1292967Y875317D01*
X1293056Y875405D01*
X1293085Y875420D01*
X1293129Y875464D01*
X1293159Y875479D01*
X1293247Y875567D01*
X1293276Y875582D01*
X1293409Y875685D01*
X1293468Y875744D01*
X1293497Y875759D01*
X1293615Y875876D01*
X1293645Y875891D01*
X1293726Y875957D01*
X1293777Y876009D01*
X1293807Y876024D01*
X1293880Y876097D01*
X1293910Y876112D01*
X1293954Y876156D01*
X1293983Y876171D01*
X1294072Y876259D01*
X1294101Y876274D01*
X1294131Y876303D01*
X1294160Y876318D01*
X1294263Y876421D01*
X1294293Y876436D01*
X1294322Y876466D01*
X1294352Y876480D01*
X1294440Y876569D01*
X1294469Y876583D01*
X1294550Y876650D01*
X1294617Y876716D01*
X1294646Y876731D01*
X1294749Y876834D01*
X1294779Y876848D01*
X1294860Y876915D01*
X1294926Y876981D01*
X1294955Y876996D01*
X1294985Y877025D01*
X1295014Y877040D01*
X1295088Y877114D01*
X1295117Y877128D01*
X1295162Y877172D01*
X1295191Y877187D01*
X1295280Y877276D01*
X1295309Y877290D01*
X1295390Y877357D01*
X1295441Y877408D01*
X1295471Y877423D01*
X1295603Y877555D01*
X1295633Y877570D01*
X1295714Y877636D01*
X1295751Y877673D01*
X1295780Y877688D01*
X1295824Y877732D01*
X1295854Y877747D01*
X1295957Y877850D01*
X1295986Y877865D01*
X1296016Y877894D01*
X1296045Y877909D01*
X1296089Y877953D01*
X1296119Y877968D01*
X1296200Y878034D01*
X1296244Y878078D01*
X1296259Y878167D01*
X1296237Y878204D01*
X1296178Y878218D01*
X1288077Y878233D01*
X1288011Y878285D01*
X1287982Y878358D01*
X1287996Y881186D01*
X1288018Y881208D01*
X1288092Y881237D01*
X1300994Y881223D01*
D02*
G37*
G36*
X1300979Y865949D02*
X1301016Y865927D01*
X1301046Y865854D01*
X1301031Y863188D01*
X1300950Y863151D01*
X1295883Y863136D01*
X1295839Y863122D01*
X1295714Y863100D01*
X1295633Y863077D01*
X1295486Y863033D01*
X1295390Y863011D01*
X1295316Y862996D01*
X1295228Y862952D01*
X1295117Y862886D01*
X1294985Y862812D01*
X1294941Y862768D01*
X1294911Y862753D01*
X1294882Y862724D01*
X1294852Y862709D01*
X1294830Y862687D01*
X1294816Y862658D01*
X1294712Y862554D01*
X1294698Y862525D01*
X1294639Y862422D01*
X1294595Y862378D01*
X1294565Y862304D01*
X1294536Y862201D01*
X1294514Y862120D01*
X1294484Y862046D01*
X1294447Y861921D01*
X1294433Y861862D01*
X1294418Y861494D01*
X1294433Y861450D01*
X1294447Y861258D01*
X1294462Y861214D01*
X1294536Y860979D01*
X1294587Y860839D01*
X1294609Y860817D01*
X1294624Y860787D01*
X1294683Y860699D01*
X1294698Y860655D01*
X1294764Y860574D01*
X1294816Y860522D01*
X1294830Y860493D01*
X1294985Y860338D01*
X1295014Y860323D01*
X1295044Y860294D01*
X1295073Y860279D01*
X1295103Y860250D01*
X1295132Y860235D01*
X1295176Y860191D01*
X1295397Y860073D01*
X1295471Y860043D01*
X1295552Y860021D01*
X1295854Y859926D01*
X1295913Y859911D01*
X1296148Y859896D01*
X1296296Y859881D01*
X1300979Y859867D01*
X1301031Y859815D01*
X1301046Y859712D01*
X1301031Y857120D01*
X1300994Y857083D01*
X1300935Y857068D01*
X1292348Y857083D01*
X1292312Y857149D01*
X1292326Y859815D01*
X1292348Y859852D01*
X1292452Y859881D01*
X1293078Y859874D01*
X1293166Y859889D01*
X1293210Y859918D01*
X1293195Y860006D01*
X1293114Y860088D01*
X1293085Y860102D01*
X1292871Y860316D01*
X1292857Y860345D01*
X1292768Y860434D01*
X1292753Y860463D01*
X1292724Y860493D01*
X1292709Y860522D01*
X1292643Y860603D01*
X1292621Y860625D01*
X1292606Y860655D01*
X1292547Y860758D01*
X1292459Y860890D01*
X1292400Y861038D01*
X1292341Y861126D01*
X1292297Y861273D01*
X1292231Y861457D01*
X1292201Y861531D01*
X1292186Y861590D01*
X1292172Y861664D01*
X1292157Y861752D01*
X1292142Y861884D01*
X1292128Y862002D01*
X1292113Y862091D01*
X1292098Y862223D01*
X1292083Y862341D01*
X1292076Y862820D01*
X1292091Y862864D01*
X1292106Y863100D01*
X1292120Y863158D01*
X1292135Y863306D01*
X1292150Y863365D01*
X1292164Y863571D01*
X1292179Y863615D01*
X1292194Y863703D01*
X1292238Y863807D01*
X1292282Y863954D01*
X1292304Y864050D01*
X1292348Y864167D01*
X1292371Y864189D01*
X1292430Y864322D01*
X1292474Y864440D01*
X1292547Y864543D01*
X1292562Y864572D01*
X1292636Y864705D01*
X1292695Y864764D01*
X1292709Y864793D01*
X1292812Y864926D01*
X1292871Y864985D01*
X1292886Y865014D01*
X1293011Y865139D01*
X1293041Y865154D01*
X1293159Y865272D01*
X1293188Y865287D01*
X1293262Y865360D01*
X1293291Y865375D01*
X1293394Y865434D01*
X1293475Y865500D01*
X1293762Y865655D01*
X1293770Y865662D01*
X1293777Y865670D01*
X1293939Y865714D01*
X1294101Y865787D01*
X1294204Y865817D01*
X1294300Y865839D01*
X1294388Y865854D01*
X1294536Y865883D01*
X1294617Y865905D01*
X1294720Y865920D01*
X1294779Y865935D01*
X1295014Y865949D01*
X1295117Y865964D01*
X1300979Y865949D01*
D02*
G37*
G36*
X1297017Y855286D02*
X1297076Y855271D01*
X1297128Y855235D01*
X1297157Y855161D01*
X1297172Y848828D01*
X1297224Y848776D01*
X1297283Y848761D01*
X1297489Y848776D01*
X1297533Y848791D01*
X1297769Y848850D01*
X1297938Y848887D01*
X1298012Y848916D01*
X1298063Y848938D01*
X1298196Y848997D01*
X1298358Y849085D01*
X1298446Y849144D01*
X1298520Y849189D01*
X1298601Y849255D01*
X1298623Y849277D01*
X1298652Y849292D01*
X1298792Y849432D01*
X1298807Y849461D01*
X1298836Y849491D01*
X1298851Y849520D01*
X1298910Y849579D01*
X1298925Y849608D01*
X1299013Y849770D01*
X1299072Y849903D01*
X1299116Y850080D01*
X1299175Y850271D01*
X1299190Y850374D01*
X1299205Y850433D01*
X1299219Y850860D01*
X1299205Y850904D01*
X1299190Y851170D01*
X1299175Y851214D01*
X1299160Y851302D01*
X1299146Y851346D01*
X1299116Y851449D01*
X1299087Y851567D01*
X1299065Y851648D01*
X1299035Y851722D01*
X1298962Y851840D01*
X1298895Y851965D01*
X1298807Y852053D01*
X1298792Y852083D01*
X1298741Y852134D01*
X1298711Y852149D01*
X1298608Y852252D01*
X1298579Y852267D01*
X1298387Y852399D01*
X1298284Y852458D01*
X1298262Y852480D01*
X1298247Y852539D01*
X1298233Y852642D01*
X1298247Y852745D01*
X1298269Y852989D01*
X1298284Y853106D01*
X1298299Y853195D01*
X1298336Y853497D01*
X1298350Y853556D01*
X1298372Y853843D01*
X1298402Y854255D01*
X1298417Y854417D01*
X1298431Y854535D01*
X1298461Y854712D01*
X1298483Y854911D01*
X1298498Y855028D01*
X1298549Y855095D01*
X1298608Y855109D01*
X1298770Y855065D01*
X1299021Y854947D01*
X1299160Y854896D01*
X1299197Y854859D01*
X1299227Y854844D01*
X1299389Y854756D01*
X1299492Y854682D01*
X1299595Y854623D01*
X1299676Y854557D01*
X1299764Y854498D01*
X1299816Y854461D01*
X1299875Y854402D01*
X1299904Y854388D01*
X1300007Y854285D01*
X1300037Y854270D01*
X1300081Y854226D01*
X1300110Y854211D01*
X1300191Y854130D01*
X1300206Y854100D01*
X1300324Y853983D01*
X1300339Y853953D01*
X1300368Y853924D01*
X1300383Y853894D01*
X1300471Y853806D01*
X1300530Y853703D01*
X1300589Y853644D01*
X1300604Y853614D01*
X1300663Y853511D01*
X1300736Y853408D01*
X1300780Y853305D01*
X1300839Y853202D01*
X1300913Y853040D01*
X1300950Y852944D01*
X1301031Y852775D01*
X1301060Y852657D01*
X1301163Y852333D01*
X1301178Y852274D01*
X1301193Y852171D01*
X1301208Y852112D01*
X1301230Y851972D01*
X1301245Y851899D01*
X1301259Y851840D01*
X1301289Y851692D01*
X1301303Y851604D01*
X1301318Y851427D01*
X1301333Y851088D01*
X1301340Y850330D01*
X1301326Y850286D01*
X1301311Y849815D01*
X1301296Y849770D01*
X1301274Y849630D01*
X1301245Y849513D01*
X1301230Y849439D01*
X1301186Y849174D01*
X1301171Y849100D01*
X1301156Y849041D01*
X1301097Y848879D01*
X1301075Y848798D01*
X1301046Y848695D01*
X1301009Y848599D01*
X1300928Y848430D01*
X1300876Y848290D01*
X1300817Y848202D01*
X1300707Y848003D01*
X1300648Y847915D01*
X1300574Y847782D01*
X1300501Y847708D01*
X1300442Y847605D01*
X1300368Y847532D01*
X1300353Y847502D01*
X1300309Y847458D01*
X1300294Y847429D01*
X1300162Y847296D01*
X1300147Y847266D01*
X1300081Y847200D01*
X1300052Y847186D01*
X1299993Y847127D01*
X1299963Y847112D01*
X1299926Y847060D01*
X1299904Y847038D01*
X1299875Y847023D01*
X1299772Y846920D01*
X1299742Y846906D01*
X1299610Y846803D01*
X1299580Y846773D01*
X1299477Y846714D01*
X1299448Y846685D01*
X1299418Y846670D01*
X1299389Y846640D01*
X1299227Y846552D01*
X1299182Y846508D01*
X1299087Y846471D01*
X1299013Y846442D01*
X1298917Y846375D01*
X1298844Y846346D01*
X1298660Y846280D01*
X1298638Y846258D01*
X1298534Y846213D01*
X1298417Y846184D01*
X1298336Y846162D01*
X1298262Y846132D01*
X1298181Y846096D01*
X1298078Y846066D01*
X1297872Y846037D01*
X1297754Y846007D01*
X1297570Y845970D01*
X1297511Y845956D01*
X1297422Y845941D01*
X1297260Y845926D01*
X1297054Y845911D01*
X1296428Y845904D01*
X1296384Y845919D01*
X1296045Y845934D01*
X1296001Y845948D01*
X1295883Y845963D01*
X1295810Y845993D01*
X1295707Y846007D01*
X1295648Y846022D01*
X1295522Y846044D01*
X1295361Y846074D01*
X1295302Y846088D01*
X1295228Y846118D01*
X1295103Y846169D01*
X1294874Y846221D01*
X1294720Y846302D01*
X1294536Y846368D01*
X1294455Y846420D01*
X1294322Y846479D01*
X1294160Y846567D01*
X1294131Y846596D01*
X1293969Y846685D01*
X1293880Y846744D01*
X1293851Y846758D01*
X1293718Y846861D01*
X1293578Y846957D01*
X1293497Y847038D01*
X1293468Y847053D01*
X1293350Y847171D01*
X1293321Y847186D01*
X1293136Y847370D01*
X1293122Y847399D01*
X1293019Y847502D01*
X1293004Y847532D01*
X1292975Y847561D01*
X1292960Y847590D01*
X1292886Y847664D01*
X1292827Y847767D01*
X1292798Y847797D01*
X1292783Y847826D01*
X1292753Y847856D01*
X1292739Y847885D01*
X1292680Y847988D01*
X1292606Y848091D01*
X1292569Y848187D01*
X1292496Y848305D01*
X1292459Y848386D01*
X1292407Y848526D01*
X1292385Y848577D01*
X1292312Y848739D01*
X1292297Y848798D01*
X1292275Y848894D01*
X1292231Y849012D01*
X1292201Y849085D01*
X1292172Y849203D01*
X1292113Y849557D01*
X1292098Y849616D01*
X1292069Y849763D01*
X1292054Y849881D01*
X1292039Y850013D01*
X1292025Y850293D01*
X1292017Y850845D01*
X1292032Y850890D01*
X1292047Y851317D01*
X1292061Y851361D01*
X1292076Y851508D01*
X1292091Y851552D01*
X1292106Y851611D01*
X1292135Y851788D01*
X1292150Y851847D01*
X1292164Y851994D01*
X1292179Y852038D01*
Y852068D01*
X1292209Y852142D01*
X1292245Y852237D01*
X1292282Y852363D01*
X1292312Y852480D01*
X1292348Y852576D01*
X1292430Y852760D01*
X1292444Y852819D01*
X1292518Y852952D01*
X1292577Y853040D01*
X1292599Y853121D01*
X1292650Y853202D01*
X1292680Y853232D01*
X1292695Y853261D01*
X1292768Y853393D01*
X1292812Y853438D01*
X1292827Y853467D01*
X1292901Y853570D01*
X1292916Y853600D01*
X1292975Y853659D01*
X1292989Y853688D01*
X1293019Y853717D01*
X1293033Y853747D01*
X1293151Y853865D01*
X1293166Y853894D01*
X1293365Y854093D01*
X1293394Y854108D01*
X1293512Y854226D01*
X1293542Y854240D01*
X1293622Y854307D01*
X1293659Y854343D01*
X1293689Y854358D01*
X1293792Y854432D01*
X1293821Y854447D01*
X1293880Y854505D01*
X1294042Y854594D01*
X1294131Y854653D01*
X1294293Y854741D01*
X1294425Y854800D01*
X1294521Y854837D01*
X1294609Y854896D01*
X1294779Y854947D01*
X1294919Y854999D01*
X1295000Y855036D01*
X1295103Y855065D01*
X1295419Y855131D01*
X1295589Y855183D01*
X1295648Y855198D01*
X1295795Y855212D01*
X1295854Y855227D01*
X1296200Y855249D01*
X1296406Y855264D01*
X1296774Y855279D01*
X1296951Y855294D01*
X1296973Y855301D01*
X1297017Y855286D01*
D02*
G37*
G36*
X1294860Y832685D02*
X1295176Y832663D01*
X1295220Y832649D01*
X1295434Y832626D01*
X1295596Y832612D01*
X1295773Y832597D01*
X1295861Y832582D01*
X1295979Y832553D01*
X1296104Y832516D01*
X1296207Y832486D01*
X1296384Y832457D01*
X1296443Y832442D01*
X1296583Y832391D01*
X1296657Y832361D01*
X1296738Y832339D01*
X1296855Y832310D01*
X1296951Y832273D01*
X1297135Y832192D01*
X1297194Y832177D01*
X1297474Y832045D01*
X1297570Y832008D01*
X1297658Y831949D01*
X1297739Y831912D01*
X1297835Y831875D01*
X1297857Y831853D01*
X1297886Y831839D01*
X1297975Y831780D01*
X1298137Y831691D01*
X1298166Y831662D01*
X1298196Y831647D01*
X1298358Y831559D01*
X1298417Y831500D01*
X1298520Y831441D01*
X1298564Y831397D01*
X1298593Y831382D01*
X1298623Y831352D01*
X1298652Y831338D01*
X1298917Y831132D01*
X1298991Y831058D01*
X1299021Y831043D01*
X1299138Y830925D01*
X1299168Y830911D01*
X1299514Y830564D01*
X1299529Y830535D01*
X1299646Y830417D01*
X1299661Y830388D01*
X1299779Y830270D01*
X1299794Y830240D01*
X1299867Y830167D01*
X1299882Y830137D01*
X1299911Y830108D01*
X1299971Y830005D01*
X1300029Y829946D01*
X1300044Y829917D01*
X1300191Y829710D01*
X1300250Y829607D01*
X1300280Y829578D01*
X1300294Y829548D01*
X1300398Y829357D01*
X1300427Y829327D01*
X1300442Y829298D01*
X1300560Y829077D01*
X1300604Y829003D01*
X1300633Y828930D01*
X1300670Y828834D01*
X1300751Y828679D01*
X1300780Y828576D01*
X1300869Y828385D01*
X1300913Y828237D01*
X1300928Y828178D01*
X1300965Y828083D01*
X1301016Y827958D01*
X1301046Y827840D01*
X1301082Y827670D01*
X1301112Y827552D01*
X1301134Y827486D01*
X1301178Y827309D01*
X1301200Y827140D01*
X1301230Y826949D01*
X1301245Y826860D01*
X1301274Y826713D01*
X1301289Y826625D01*
X1301311Y826426D01*
X1301326Y826190D01*
X1301340Y825513D01*
X1301318Y824872D01*
X1301311Y824791D01*
Y824776D01*
X1301289Y824592D01*
X1301259Y824445D01*
X1301245Y824386D01*
X1301193Y823981D01*
X1301178Y823922D01*
X1301156Y823811D01*
X1301141Y823753D01*
X1301104Y823627D01*
X1301075Y823524D01*
X1301060Y823465D01*
X1301024Y823296D01*
X1301009Y823237D01*
X1300928Y823038D01*
X1300906Y822943D01*
X1300891Y822884D01*
X1300862Y822810D01*
X1300780Y822641D01*
X1300758Y822545D01*
X1300714Y822457D01*
X1300648Y822346D01*
X1300626Y822265D01*
X1300596Y822191D01*
X1300538Y822103D01*
X1300471Y821948D01*
X1300457Y821919D01*
X1300383Y821816D01*
X1300265Y821595D01*
X1300236Y821565D01*
X1300162Y821433D01*
X1300096Y821352D01*
X1300007Y821205D01*
X1299941Y821138D01*
X1299882Y821035D01*
X1299794Y820947D01*
X1299779Y820917D01*
X1299713Y820836D01*
X1299676Y820800D01*
X1299661Y820770D01*
X1299602Y820711D01*
X1299588Y820682D01*
X1299499Y820593D01*
X1299484Y820564D01*
X1299175Y820255D01*
X1299160Y820225D01*
X1299138Y820203D01*
X1299109Y820188D01*
X1299079Y820159D01*
X1299050Y820144D01*
X1298962Y820056D01*
X1298932Y820041D01*
X1298903Y820012D01*
X1298873Y819997D01*
X1298785Y819909D01*
X1298755Y819894D01*
X1298623Y819791D01*
X1298520Y819717D01*
X1298490Y819702D01*
X1298431Y819643D01*
X1298269Y819555D01*
X1298210Y819496D01*
X1298048Y819408D01*
X1297960Y819349D01*
X1297857Y819305D01*
X1297827Y819290D01*
X1297724Y819216D01*
X1297585Y819165D01*
X1297467Y819091D01*
X1297371Y819054D01*
X1297290Y819032D01*
X1297216Y819003D01*
X1297062Y818922D01*
X1296966Y818900D01*
X1296907Y818885D01*
X1296789Y818841D01*
X1296635Y818774D01*
X1296391Y818723D01*
X1296274Y818679D01*
X1296097Y818634D01*
X1296008Y818620D01*
X1295817Y818590D01*
X1295670Y818561D01*
X1295581Y818546D01*
X1295508Y818531D01*
X1295419Y818517D01*
X1295302Y818502D01*
X1295095Y818487D01*
X1294072Y818480D01*
X1294028Y818495D01*
X1293762Y818509D01*
X1293718Y818524D01*
X1293578Y818546D01*
X1293357Y818590D01*
X1293269Y818605D01*
X1293078Y818634D01*
X1293004Y818649D01*
X1292886Y818679D01*
X1292790Y818716D01*
X1292687Y818745D01*
X1292518Y818782D01*
X1292459Y818796D01*
X1292378Y818833D01*
X1292304Y818863D01*
X1292098Y818922D01*
X1292025Y818951D01*
X1291995Y818966D01*
X1291833Y819040D01*
X1291737Y819062D01*
X1291590Y819150D01*
X1291472Y819194D01*
X1291398Y819224D01*
X1291303Y819290D01*
X1291229Y819319D01*
X1291067Y819408D01*
X1290846Y819526D01*
X1290817Y819555D01*
X1290787Y819570D01*
X1290670Y819643D01*
X1290640Y819658D01*
X1290611Y819688D01*
X1290581Y819702D01*
X1290493Y819761D01*
X1290463Y819776D01*
X1290382Y819842D01*
X1290206Y819960D01*
X1290139Y820026D01*
X1290110Y820041D01*
X1290029Y820107D01*
X1289962Y820174D01*
X1289933Y820188D01*
X1289867Y820240D01*
X1289852Y820269D01*
X1289830Y820292D01*
X1289801Y820306D01*
X1289683Y820424D01*
X1289653Y820439D01*
X1289484Y820608D01*
X1289469Y820638D01*
X1289440Y820667D01*
X1289425Y820696D01*
X1289307Y820814D01*
X1289292Y820844D01*
X1289189Y820947D01*
X1289175Y820976D01*
X1289108Y821057D01*
X1289072Y821094D01*
X1289012Y821197D01*
X1288983Y821227D01*
X1288968Y821256D01*
X1288924Y821300D01*
X1288851Y821433D01*
X1288792Y821492D01*
X1288689Y821683D01*
X1288630Y821772D01*
X1288593Y821867D01*
X1288571Y821889D01*
X1288556Y821919D01*
X1288497Y822007D01*
X1288475Y822088D01*
X1288409Y822214D01*
X1288335Y822375D01*
X1288298Y822471D01*
X1288276Y822493D01*
X1288232Y822596D01*
X1288203Y822700D01*
X1288151Y822840D01*
X1288070Y823038D01*
X1288048Y823149D01*
X1288018Y823267D01*
X1287982Y823362D01*
X1287952Y823436D01*
X1287937Y823495D01*
X1287915Y823620D01*
X1287886Y823811D01*
X1287842Y823988D01*
X1287820Y824069D01*
X1287797Y824165D01*
X1287783Y824298D01*
X1287768Y824474D01*
X1287753Y824666D01*
X1287738Y824828D01*
X1287724Y824960D01*
X1287709Y825226D01*
X1287694Y825358D01*
X1287687Y825822D01*
X1287702Y825866D01*
X1287724Y826227D01*
X1287738Y826374D01*
X1287753Y826536D01*
X1287783Y826919D01*
X1287812Y827111D01*
X1287842Y827228D01*
X1287864Y827309D01*
X1287893Y827413D01*
X1287915Y827567D01*
X1287930Y827656D01*
X1287945Y827729D01*
X1287959Y827788D01*
X1288011Y827913D01*
X1288040Y828017D01*
X1288063Y828112D01*
X1288077Y828171D01*
X1288114Y828267D01*
X1288188Y828429D01*
X1288210Y828525D01*
X1288239Y828598D01*
X1288320Y828768D01*
X1288372Y828908D01*
X1288431Y828996D01*
X1288482Y829121D01*
X1288556Y829254D01*
X1288585Y829283D01*
X1288615Y829357D01*
X1288689Y829489D01*
X1288718Y829519D01*
X1288733Y829548D01*
X1288806Y829681D01*
X1288836Y829710D01*
X1288851Y829740D01*
X1288880Y829769D01*
X1288954Y829902D01*
X1289027Y829975D01*
X1289086Y830079D01*
X1289145Y830137D01*
X1289160Y830167D01*
X1289189Y830196D01*
X1289204Y830226D01*
X1289270Y830307D01*
X1289337Y830373D01*
X1289351Y830403D01*
X1289484Y830535D01*
X1289499Y830564D01*
X1289845Y830911D01*
X1289874Y830925D01*
X1289992Y831043D01*
X1290021Y831058D01*
X1290125Y831161D01*
X1290154Y831176D01*
X1290183Y831205D01*
X1290213Y831220D01*
X1290257Y831264D01*
X1290287Y831279D01*
X1290331Y831323D01*
X1290360Y831338D01*
X1290493Y831441D01*
X1290677Y831566D01*
X1290787Y831632D01*
X1290890Y831691D01*
X1290920Y831721D01*
X1291141Y831839D01*
X1291170Y831868D01*
X1291273Y831912D01*
X1291406Y831986D01*
X1291539Y832045D01*
X1291612Y832074D01*
X1291833Y832177D01*
X1291892Y832192D01*
X1291988Y832229D01*
X1292172Y832310D01*
X1292267Y832332D01*
X1292326Y832347D01*
X1292474Y832405D01*
X1292599Y832442D01*
X1292658Y832457D01*
X1292798Y832479D01*
X1292871Y832494D01*
X1293085Y832560D01*
X1293144Y832575D01*
X1293350Y832604D01*
X1293578Y832626D01*
X1293711Y832641D01*
X1293858Y832656D01*
X1293991Y832671D01*
X1294153Y832685D01*
X1294330Y832700D01*
X1294514Y832708D01*
X1294558Y832693D01*
X1294705Y832708D01*
X1294860Y832685D01*
D02*
G37*
%LPC*%
G36*
X1306753Y934260D02*
X1306738D01*
X1306716Y934252D01*
X1306731Y934223D01*
X1306738Y934215D01*
X1306760Y934238D01*
X1306753Y934260D01*
D02*
G37*
G36*
X1301465D02*
X1301429Y934252D01*
X1301436Y934215D01*
X1301465D01*
X1301473Y934223D01*
X1301465Y934260D01*
D02*
G37*
G36*
X1302629Y927897D02*
X1302622Y927875D01*
X1302644Y927868D01*
X1302651Y927875D01*
X1302629Y927897D01*
D02*
G37*
G36*
X1299182Y927809D02*
X1299175Y927801D01*
X1299197Y927794D01*
X1299205Y927801D01*
X1299182Y927809D01*
D02*
G37*
G36*
X1299050Y927661D02*
X1299043Y927654D01*
X1299050Y927632D01*
X1299057Y927654D01*
X1299050Y927661D01*
D02*
G37*
G36*
X1305648Y926395D02*
X1305634D01*
X1305508Y926387D01*
X1305516Y926365D01*
X1305678Y926380D01*
X1305685Y926387D01*
X1305648Y926395D01*
D02*
G37*
G36*
X1308712Y925393D02*
X1308704Y925386D01*
X1308727Y925378D01*
X1308734Y925386D01*
X1308712Y925393D01*
D02*
G37*
G36*
X1308579Y923081D02*
X1308572Y923074D01*
X1308579Y923066D01*
X1308587Y923074D01*
X1308579Y923081D01*
D02*
G37*
G36*
X1308432Y922934D02*
X1308425Y922926D01*
X1308432Y922919D01*
X1308439Y922926D01*
X1308432Y922934D01*
D02*
G37*
G36*
X1279005Y843842D02*
X1278990D01*
X1278968Y843820D01*
X1278975Y843768D01*
X1279019Y843783D01*
X1279027Y843835D01*
X1279005Y843842D01*
D02*
G37*
G36*
X1305030Y839321D02*
X1305022Y839254D01*
X1305030Y839247D01*
X1305044D01*
X1305052Y839313D01*
X1305030Y839321D01*
D02*
G37*
G36*
X1289064Y837597D02*
X1289057Y837575D01*
X1289064Y837568D01*
X1289072Y837590D01*
X1289064Y837597D01*
D02*
G37*
G36*
X1303748Y837391D02*
X1303712Y837384D01*
Y837369D01*
X1303704Y837332D01*
X1303726Y837281D01*
X1303763Y837273D01*
X1303785Y837295D01*
X1303770Y837369D01*
X1303748Y837391D01*
D02*
G37*
G36*
X1296340Y841662D02*
X1296296Y841648D01*
X1296156Y841626D01*
X1295994Y841567D01*
X1295913Y841544D01*
X1295810Y841515D01*
X1295441Y841324D01*
X1295397Y841279D01*
X1295368Y841265D01*
X1295265Y841191D01*
X1295206Y841132D01*
X1295176Y841117D01*
X1294978Y840919D01*
X1294963Y840889D01*
X1294874Y840801D01*
X1294860Y840771D01*
X1294786Y840639D01*
X1294742Y840594D01*
X1294727Y840565D01*
X1294683Y840462D01*
X1294653Y840388D01*
X1294580Y840270D01*
X1294558Y840175D01*
X1294543Y840116D01*
X1294528Y840027D01*
X1294499Y839910D01*
X1294477Y839829D01*
X1294462Y839770D01*
X1294447Y839622D01*
X1294462Y839136D01*
X1294477Y839092D01*
X1294521Y838945D01*
X1294536Y838886D01*
X1294558Y838761D01*
X1294572Y838702D01*
X1294683Y838488D01*
X1294720Y838393D01*
X1294757Y838341D01*
X1294786Y838312D01*
X1294801Y838282D01*
X1294860Y838179D01*
X1294926Y838098D01*
X1294978Y838046D01*
X1294992Y838017D01*
X1295191Y837818D01*
X1295220Y837803D01*
X1295309Y837715D01*
X1295338Y837700D01*
X1295441Y837627D01*
X1295530Y837568D01*
X1295869Y837406D01*
X1295950Y837384D01*
X1296148Y837303D01*
X1296252Y837288D01*
X1296310Y837273D01*
X1296553Y837251D01*
X1296620Y837244D01*
X1296635D01*
X1296988Y837259D01*
X1297032Y837273D01*
X1297209Y837288D01*
X1297253Y837303D01*
X1297327Y837332D01*
X1297430Y837376D01*
X1297658Y837457D01*
X1297769Y837524D01*
X1297798Y837538D01*
X1297931Y837612D01*
X1297990Y837671D01*
X1298019Y837686D01*
X1298152Y837789D01*
X1298380Y838017D01*
X1298394Y838046D01*
X1298424Y838076D01*
X1298439Y838105D01*
X1298498Y838164D01*
X1298571Y838297D01*
X1298616Y838341D01*
X1298674Y838474D01*
X1298777Y838695D01*
X1298822Y838871D01*
X1298844Y838967D01*
X1298866Y839048D01*
X1298895Y839151D01*
X1298910Y839254D01*
X1298925Y839534D01*
X1298910Y839725D01*
X1298895Y839784D01*
X1298873Y839865D01*
X1298785Y840219D01*
X1298755Y840293D01*
X1298674Y840447D01*
X1298586Y840609D01*
X1298512Y840712D01*
X1298468Y840786D01*
X1298409Y840845D01*
X1298394Y840874D01*
X1298365Y840904D01*
X1298350Y840933D01*
X1298328Y840955D01*
X1298299Y840970D01*
X1298247Y841022D01*
X1298233Y841051D01*
X1298166Y841117D01*
X1298137Y841132D01*
X1298078Y841191D01*
X1298048Y841206D01*
X1298019Y841235D01*
X1297916Y841294D01*
X1297886Y841324D01*
X1297857Y841338D01*
X1297724Y841397D01*
X1297592Y841471D01*
X1297489Y841515D01*
X1297393Y841537D01*
X1297334Y841552D01*
X1297187Y841611D01*
X1297128Y841626D01*
X1297054Y841640D01*
X1296936Y841655D01*
X1296340Y841662D01*
D02*
G37*
G36*
X1303881Y837082D02*
X1303866D01*
X1303859Y837074D01*
X1303881Y837067D01*
X1303888Y837074D01*
X1303881Y837082D01*
D02*
G37*
G36*
X1303896Y837052D02*
X1303851Y837038D01*
X1303829Y836971D01*
X1303844Y836912D01*
Y836898D01*
X1303866Y836846D01*
X1303910Y836861D01*
X1303918Y837016D01*
X1303896Y837052D01*
D02*
G37*
G36*
X1304043Y836684D02*
X1303977Y836633D01*
X1303984Y836552D01*
X1303977Y836544D01*
X1304028Y836463D01*
X1304050Y836471D01*
X1304065Y836603D01*
X1304050Y836633D01*
X1304065Y836647D01*
X1304058Y836655D01*
X1304035Y836662D01*
X1304050Y836677D01*
X1304043Y836684D01*
D02*
G37*
G36*
X1304146Y836331D02*
X1304124Y836309D01*
X1304131Y836301D01*
X1304139Y836309D01*
X1304183Y836323D01*
X1304146Y836331D01*
D02*
G37*
G36*
X1287797Y836272D02*
X1287783D01*
X1287746Y836264D01*
X1287827Y836257D01*
X1287834Y836264D01*
X1287797Y836272D01*
D02*
G37*
G36*
X1304190Y836316D02*
X1304175Y836301D01*
X1304161D01*
X1304131Y836286D01*
X1304124Y836250D01*
X1304146Y836183D01*
X1304183Y836176D01*
X1304198Y836220D01*
X1304190Y836301D01*
X1304198Y836309D01*
X1304190Y836316D01*
D02*
G37*
G36*
X1288931Y836154D02*
X1288902Y836139D01*
X1288895Y836102D01*
X1288931Y836095D01*
X1288939Y836102D01*
X1288931Y836154D01*
D02*
G37*
G36*
X1304323Y836036D02*
X1304315Y836029D01*
X1304323Y836021D01*
X1304330Y836029D01*
X1304323Y836036D01*
D02*
G37*
G36*
X1304293Y836021D02*
X1304286Y835999D01*
X1304293Y835992D01*
X1304301Y836014D01*
X1304293Y836021D01*
D02*
G37*
G36*
X1304440Y835756D02*
X1304433Y835705D01*
X1304455Y835697D01*
X1304463Y835719D01*
Y835734D01*
X1304440Y835756D01*
D02*
G37*
G36*
X1304588Y835476D02*
X1304580Y835454D01*
X1304588Y835447D01*
X1304595Y835454D01*
X1304588Y835476D01*
D02*
G37*
G36*
X1304897Y835049D02*
X1304882D01*
X1304875Y835042D01*
X1304897Y835035D01*
X1304904Y835042D01*
X1304897Y835049D01*
D02*
G37*
G36*
X1305044Y834902D02*
X1304986Y834887D01*
X1304978Y834865D01*
X1305015Y834828D01*
X1305030D01*
X1305074Y834843D01*
X1305081Y834850D01*
X1305044Y834902D01*
D02*
G37*
G36*
X1312983Y832884D02*
X1312946Y832877D01*
X1312953Y832855D01*
X1312990Y832862D01*
Y832877D01*
X1312983Y832884D01*
D02*
G37*
G36*
X1309610D02*
X1309485Y832877D01*
X1309492Y832855D01*
X1309610D01*
X1309617Y832862D01*
X1309610Y832884D01*
D02*
G37*
G36*
X1312806Y832737D02*
X1312799Y832715D01*
X1312806Y832708D01*
X1312828Y832730D01*
X1312806Y832737D01*
D02*
G37*
G36*
X1284543Y828215D02*
X1284535Y828208D01*
X1284543Y828186D01*
X1284565Y828193D01*
X1284543Y828215D01*
D02*
G37*
G36*
X1277694Y827847D02*
X1277613Y827840D01*
X1277620Y827818D01*
X1277679D01*
X1277701Y827825D01*
X1277694Y827847D01*
D02*
G37*
G36*
X1268783Y826978D02*
X1268599Y826971D01*
X1268592Y826949D01*
X1268569Y826941D01*
X1268628Y826927D01*
X1268636Y826919D01*
X1268651D01*
X1268768Y826934D01*
X1268791Y826956D01*
X1268783Y826978D01*
D02*
G37*
G36*
X1306031Y824548D02*
X1306024Y824541D01*
X1306031Y824474D01*
X1306039Y824541D01*
X1306031Y824548D01*
D02*
G37*
G36*
Y824460D02*
X1306024Y824349D01*
X1306031Y824342D01*
X1306039Y824349D01*
X1306031Y824460D01*
D02*
G37*
G36*
X1284631Y818318D02*
X1284609Y818134D01*
X1284638Y818090D01*
X1284653Y818193D01*
X1284638Y818252D01*
Y818281D01*
X1284631Y818318D01*
D02*
G37*
G36*
Y817523D02*
X1284616Y817449D01*
X1284609Y817353D01*
X1284624Y817309D01*
Y817235D01*
X1284631Y817228D01*
X1284653Y817427D01*
X1284638Y817471D01*
X1284631Y817523D01*
D02*
G37*
G36*
X1300626Y815549D02*
X1300589Y815542D01*
X1300596Y815519D01*
X1300633Y815527D01*
Y815542D01*
X1300626Y815549D01*
D02*
G37*
G36*
X1300479Y815402D02*
X1300442Y815394D01*
X1300449Y815372D01*
X1300479D01*
X1300486Y815379D01*
X1300479Y815402D01*
D02*
G37*
G36*
X1298475Y811027D02*
X1298468Y810976D01*
Y810961D01*
X1298475Y810939D01*
X1298498Y810961D01*
X1298483Y811020D01*
X1298475Y811027D01*
D02*
G37*
G36*
X1294941Y810261D02*
X1294933Y810239D01*
X1294941Y810232D01*
X1294948Y810254D01*
X1294941Y810261D01*
D02*
G37*
G36*
X1278828Y805637D02*
X1278820Y805629D01*
X1278828Y805622D01*
X1278835Y805629D01*
X1278828Y805637D01*
D02*
G37*
G36*
X1282142Y805445D02*
X1282134Y805438D01*
X1282142Y805431D01*
X1282149Y805438D01*
X1282142Y805445D01*
D02*
G37*
G36*
X1279726Y803472D02*
X1279719Y803464D01*
Y803449D01*
X1279756Y803442D01*
X1279763Y803464D01*
X1279726Y803472D01*
D02*
G37*
G36*
X1295368Y919296D02*
X1295235Y919281D01*
X1295132Y919222D01*
X1294970Y919148D01*
X1294867Y919089D01*
X1294838Y919060D01*
X1294808Y919045D01*
X1294668Y918950D01*
X1294617Y918898D01*
X1294587Y918883D01*
X1294403Y918699D01*
X1294388Y918670D01*
X1294359Y918640D01*
X1294344Y918611D01*
X1294285Y918552D01*
X1294197Y918390D01*
X1294123Y918228D01*
X1294072Y918088D01*
X1294042Y918014D01*
X1294028Y917955D01*
X1294013Y917882D01*
X1293991Y917683D01*
X1293976Y917447D01*
X1293991Y917109D01*
X1294005Y917064D01*
X1294020Y916917D01*
X1294064Y916814D01*
X1294094Y916740D01*
X1294123Y916637D01*
X1294160Y916541D01*
X1294212Y916460D01*
X1294271Y916372D01*
X1294330Y916269D01*
X1294388Y916210D01*
X1294403Y916181D01*
X1294462Y916122D01*
X1294477Y916092D01*
X1294631Y915938D01*
X1294661Y915923D01*
X1294690Y915893D01*
X1294720Y915879D01*
X1294852Y915776D01*
X1295044Y915673D01*
X1295176Y915613D01*
X1295324Y915569D01*
X1295427Y915584D01*
X1295464Y915606D01*
X1295493Y915680D01*
Y916019D01*
X1295478Y919229D01*
X1295427Y919281D01*
X1295368Y919296D01*
D02*
G37*
G36*
X1295383Y890060D02*
X1295265Y890045D01*
X1295117Y889986D01*
X1294838Y889839D01*
X1294779Y889780D01*
X1294646Y889706D01*
X1294499Y889559D01*
X1294469Y889544D01*
X1294447Y889522D01*
X1294433Y889493D01*
X1294403Y889463D01*
X1294388Y889434D01*
X1294344Y889390D01*
X1294330Y889360D01*
X1294300Y889331D01*
X1294285Y889301D01*
X1294226Y889198D01*
X1294153Y889095D01*
X1294109Y888933D01*
X1294079Y888859D01*
X1294042Y888764D01*
X1294013Y888646D01*
X1293998Y888558D01*
X1293983Y888381D01*
X1293976Y888035D01*
X1293991Y887990D01*
X1294005Y887755D01*
X1294020Y887711D01*
X1294035Y887652D01*
X1294079Y887549D01*
X1294160Y887320D01*
X1294307Y887070D01*
X1294344Y887018D01*
X1294388Y886974D01*
X1294403Y886945D01*
X1294469Y886864D01*
X1294587Y886746D01*
X1294617Y886731D01*
X1294705Y886643D01*
X1294734Y886628D01*
X1294941Y886481D01*
X1295000Y886466D01*
X1295280Y886333D01*
X1295441Y886348D01*
X1295449Y886356D01*
X1295493Y886459D01*
X1295478Y889994D01*
X1295456Y890030D01*
X1295427Y890045D01*
X1295383Y890060D01*
D02*
G37*
G36*
X1295368Y852650D02*
X1295287Y852628D01*
X1295103Y852547D01*
X1295044Y852532D01*
X1294941Y852458D01*
X1294926D01*
X1294793Y852385D01*
X1294712Y852318D01*
X1294690Y852296D01*
X1294661Y852281D01*
X1294580Y852215D01*
X1294403Y852038D01*
X1294388Y852009D01*
X1294330Y851950D01*
X1294315Y851921D01*
X1294285Y851891D01*
X1294197Y851729D01*
X1294153Y851656D01*
X1294057Y851383D01*
X1294035Y851302D01*
X1294005Y851184D01*
X1293991Y850993D01*
X1293976Y850890D01*
X1293991Y850433D01*
X1294005Y850389D01*
X1294020Y850271D01*
X1294035Y850227D01*
X1294094Y850080D01*
X1294123Y849977D01*
X1294160Y849881D01*
X1294182Y849859D01*
X1294197Y849829D01*
X1294315Y849623D01*
X1294388Y849549D01*
X1294403Y849520D01*
X1294469Y849439D01*
X1294631Y849277D01*
X1294661Y849262D01*
X1294734Y849189D01*
X1294764Y849174D01*
X1295000Y849026D01*
X1295139Y848975D01*
X1295265Y848909D01*
X1295324Y848894D01*
X1295441Y848909D01*
X1295478Y848945D01*
X1295493Y849049D01*
X1295478Y852583D01*
X1295427Y852635D01*
X1295368Y852650D01*
D02*
G37*
%LPD*%
D10*
X678401Y763207D02*
G03*
X677298Y963777I250129J101663D01*
G01*
X544830Y763270D02*
X678401D01*
X544830D02*
Y963930D01*
X676910D01*
D11*
X1217930Y694690D02*
X1318260D01*
X636270Y588010D02*
Y695960D01*
X535940D02*
X636270D01*
X1318260Y694690D02*
Y1032510D01*
X635000Y1140460D02*
X1216660D01*
X535940Y1032510D02*
X635000D01*
Y1140460D01*
X1216660Y1032510D02*
X1318260D01*
X535940D02*
X535940Y695960D01*
X1217930Y588010D02*
Y694690D01*
X636270Y588010D02*
X1217930D01*
X1216660Y1032510D02*
Y1140460D01*
D12*
X561340Y707390D02*
X546105D01*
X561340Y717547D01*
X546105D01*
Y722625D02*
Y732782D01*
Y727703D01*
X561340D01*
X548644Y748017D02*
X546105Y745478D01*
Y740399D01*
X548644Y737860D01*
X558801D01*
X561340Y740399D01*
Y745478D01*
X558801Y748017D01*
X549914Y986787D02*
X547375Y984248D01*
Y979169D01*
X549914Y976630D01*
X560071D01*
X562610Y979169D01*
Y984248D01*
X560071Y986787D01*
X562610Y994404D02*
Y999483D01*
X560071Y1002022D01*
X554992D01*
X552453Y999483D01*
Y994404D01*
X554992Y991865D01*
X560071D01*
X562610Y994404D01*
Y1007100D02*
Y1012178D01*
Y1009639D01*
X552453D01*
Y1007100D01*
X562610Y1019796D02*
Y1024874D01*
Y1022335D01*
X547375D01*
Y1019796D01*
X1211587Y754380D02*
X1226822D01*
X1221743Y759458D01*
X1226822Y764537D01*
X1211587D01*
X1226822Y769615D02*
X1211587D01*
Y777233D01*
X1214126Y779772D01*
X1219204D01*
X1221743Y777233D01*
Y769615D01*
X1211587Y784850D02*
Y795007D01*
Y789929D01*
X1226822D01*
X1214126Y825477D02*
X1211587Y822938D01*
Y817859D01*
X1214126Y815320D01*
X1224283D01*
X1226822Y817859D01*
Y822938D01*
X1224283Y825477D01*
X1211587Y830555D02*
X1226822D01*
X1219204D01*
X1216665Y833094D01*
Y838173D01*
X1219204Y840712D01*
X1226822D01*
X1216665Y848330D02*
Y853408D01*
X1219204Y855947D01*
X1226822D01*
Y848330D01*
X1224283Y845790D01*
X1221743Y848330D01*
Y855947D01*
X1216665Y861025D02*
X1226822D01*
X1221743D01*
X1219204Y863565D01*
X1216665Y866104D01*
Y868643D01*
X1231900Y881339D02*
Y883878D01*
X1229361Y886417D01*
X1216665D01*
Y878800D01*
X1219204Y876261D01*
X1224283D01*
X1226822Y878800D01*
Y886417D01*
Y899113D02*
Y894035D01*
X1224283Y891496D01*
X1219204D01*
X1216665Y894035D01*
Y899113D01*
X1219204Y901652D01*
X1221743D01*
Y891496D01*
X1216665Y906731D02*
X1226822D01*
X1221743D01*
X1219204Y909270D01*
X1216665Y911809D01*
Y914348D01*
X1214126Y947358D02*
X1211587Y944818D01*
Y939740D01*
X1214126Y937201D01*
X1224283D01*
X1226822Y939740D01*
Y944818D01*
X1224283Y947358D01*
X1226822Y954975D02*
Y960053D01*
X1224283Y962593D01*
X1219204D01*
X1216665Y960053D01*
Y954975D01*
X1219204Y952436D01*
X1224283D01*
X1226822Y954975D01*
Y967671D02*
Y972749D01*
Y970210D01*
X1216665D01*
Y967671D01*
X1226822Y980367D02*
Y985445D01*
Y982906D01*
X1211587D01*
Y980367D01*
X1243335Y777240D02*
X1253492D01*
X1258570Y782318D01*
X1253492Y787397D01*
X1243335D01*
X1258570Y800093D02*
Y795014D01*
X1256031Y792475D01*
X1250953D01*
X1248413Y795014D01*
Y800093D01*
X1250953Y802632D01*
X1253492D01*
Y792475D01*
X1258570Y807710D02*
Y815328D01*
X1256031Y817867D01*
X1253492Y815328D01*
Y810249D01*
X1250953Y807710D01*
X1248413Y810249D01*
Y817867D01*
X1258570Y822945D02*
Y828024D01*
Y825484D01*
X1248413D01*
Y822945D01*
X1258570Y838180D02*
Y843259D01*
X1256031Y845798D01*
X1250953D01*
X1248413Y843259D01*
Y838180D01*
X1250953Y835641D01*
X1256031D01*
X1258570Y838180D01*
Y850876D02*
X1248413D01*
Y858494D01*
X1250953Y861033D01*
X1258570D01*
X1248413Y881346D02*
X1258570Y886425D01*
X1248413Y891503D01*
X1258570Y896581D02*
Y901660D01*
Y899121D01*
X1243335D01*
X1245874Y896581D01*
X1258570Y909277D02*
X1256031D01*
Y911816D01*
X1258570D01*
Y909277D01*
X1245874Y921973D02*
X1243335Y924512D01*
Y929591D01*
X1245874Y932130D01*
X1256031D01*
X1258570Y929591D01*
Y924512D01*
X1256031Y921973D01*
X1245874D01*
X1258570Y937208D02*
X1256031D01*
Y939747D01*
X1258570D01*
Y937208D01*
Y949904D02*
X1248413D01*
X1243335Y954983D01*
X1248413Y960061D01*
X1258570D01*
X1250953D01*
Y949904D01*
D13*
X1129627Y615598D02*
X1137624Y603602D01*
Y615598D02*
X1129627Y603602D01*
X1141623D02*
X1145622D01*
X1143622D01*
Y615598D01*
X1141623Y613599D01*
X1151620D02*
X1153619Y615598D01*
X1157618D01*
X1159617Y613599D01*
Y605601D01*
X1157618Y603602D01*
X1153619D01*
X1151620Y605601D01*
Y613599D01*
X1171613Y615598D02*
X1167615Y613599D01*
X1163616Y609600D01*
Y605601D01*
X1165615Y603602D01*
X1169614D01*
X1171613Y605601D01*
Y607601D01*
X1169614Y609600D01*
X1163616D01*
X1127087Y1124868D02*
X1135084Y1112872D01*
Y1124868D02*
X1127087Y1112872D01*
X1139083D02*
X1143082D01*
X1141082D01*
Y1124868D01*
X1139083Y1122869D01*
X1149080D02*
X1151079Y1124868D01*
X1155078D01*
X1157077Y1122869D01*
Y1114871D01*
X1155078Y1112872D01*
X1151079D01*
X1149080Y1114871D01*
Y1122869D01*
X1169073Y1124868D02*
X1161076D01*
Y1118870D01*
X1165074Y1120869D01*
X1167074D01*
X1169073Y1118870D01*
Y1114871D01*
X1167074Y1112872D01*
X1163075D01*
X1161076Y1114871D01*
X678777Y1126138D02*
X686774Y1114142D01*
Y1126138D02*
X678777Y1114142D01*
X690773D02*
X694772D01*
X692772D01*
Y1126138D01*
X690773Y1124139D01*
X700770D02*
X702769Y1126138D01*
X706768D01*
X708767Y1124139D01*
Y1116141D01*
X706768Y1114142D01*
X702769D01*
X700770Y1116141D01*
Y1124139D01*
X718764Y1114142D02*
Y1126138D01*
X712766Y1120140D01*
X720763D01*
X579713Y746342D02*
Y757338D01*
X587044Y746342D01*
Y757338D01*
X590710D02*
X598041D01*
X594375D01*
Y746342D01*
X609037Y755506D02*
X607205Y757338D01*
X603539D01*
X601706Y755506D01*
Y748175D01*
X603539Y746342D01*
X607205D01*
X609037Y748175D01*
X620034Y746342D02*
X612703D01*
X620034Y753673D01*
Y755506D01*
X618201Y757338D01*
X614535D01*
X612703Y755506D01*
X623699D02*
X625532Y757338D01*
X629197D01*
X631030Y755506D01*
Y748175D01*
X629197Y746342D01*
X625532D01*
X623699Y748175D01*
Y755506D01*
X634696D02*
X636528Y757338D01*
X640194D01*
X642027Y755506D01*
Y748175D01*
X640194Y746342D01*
X636528D01*
X634696Y748175D01*
Y755506D01*
X630338Y879387D02*
X619342D01*
Y872056D01*
Y861060D02*
Y868391D01*
X626673Y861060D01*
X628506D01*
X630338Y862893D01*
Y866558D01*
X628506Y868391D01*
Y857394D02*
X630338Y855562D01*
Y851896D01*
X628506Y850063D01*
X621175D01*
X619342Y851896D01*
Y855562D01*
X621175Y857394D01*
X628506D01*
X619342Y846398D02*
Y842733D01*
Y844565D01*
X630338D01*
X628506Y846398D01*
X658278Y881290D02*
X647282D01*
Y873959D01*
Y862963D02*
Y870294D01*
X654613Y862963D01*
X656445D01*
X658278Y864796D01*
Y868461D01*
X656445Y870294D01*
Y859297D02*
X658278Y857465D01*
Y853799D01*
X656445Y851966D01*
X649115D01*
X647282Y853799D01*
Y857465D01*
X649115Y859297D01*
X656445D01*
Y848301D02*
X658278Y846468D01*
Y842803D01*
X656445Y840970D01*
X649115D01*
X647282Y842803D01*
Y846468D01*
X649115Y848301D01*
X656445D01*
X630354Y712888D02*
X626688D01*
X628521D01*
Y703725D01*
X626688Y701892D01*
X624855D01*
X623023Y703725D01*
X641350Y701892D02*
X634019D01*
X641350Y709223D01*
Y711056D01*
X639517Y712888D01*
X635852D01*
X634019Y711056D01*
X645015D02*
X646848Y712888D01*
X650514D01*
X652346Y711056D01*
Y703725D01*
X650514Y701892D01*
X646848D01*
X645015Y703725D01*
Y711056D01*
X656012Y701892D02*
X659677D01*
X657845D01*
Y712888D01*
X656012Y711056D01*
X629791Y992288D02*
X626125D01*
X627958D01*
Y983124D01*
X626125Y981292D01*
X624293D01*
X622460Y983124D01*
X640787Y981292D02*
X633456D01*
X640787Y988623D01*
Y990455D01*
X638955Y992288D01*
X635289D01*
X633456Y990455D01*
X644453D02*
X646285Y992288D01*
X649951D01*
X651784Y990455D01*
Y983124D01*
X649951Y981292D01*
X646285D01*
X644453Y983124D01*
Y990455D01*
X655449D02*
X657282Y992288D01*
X660947D01*
X662780Y990455D01*
Y983124D01*
X660947Y981292D01*
X657282D01*
X655449Y983124D01*
Y990455D01*
M02*
