G04*
G04 #@! TF.GenerationSoftware,Altium Limited,Altium Designer,24.3.1 (35)*
G04*
G04 Layer_Physical_Order=1*
G04 Layer_Color=255*
%FSLAX44Y44*%
%MOMM*%
G71*
G04*
G04 #@! TF.SameCoordinates,063D28A7-869B-49E0-B519-EA391C4CE498*
G04*
G04*
G04 #@! TF.FilePolarity,Positive*
G04*
G01*
G75*
%ADD14R,0.8000X1.0000*%
%ADD15R,7.5000X2.5000*%
%ADD16R,1.0000X1.0500*%
%ADD17R,1.0500X2.2000*%
%ADD25C,1.0000*%
%ADD26C,0.5000*%
%ADD27C,0.8500*%
%ADD28C,1.5000*%
D14*
X668920Y749300D02*
D03*
X654420D02*
D03*
D15*
X596900Y788600D02*
D03*
Y938600D02*
D03*
D16*
X594360Y732800D02*
D03*
X595630Y986780D02*
D03*
D17*
X579610Y717550D02*
D03*
X609110D02*
D03*
X610380Y1002030D02*
D03*
X580880D02*
D03*
D25*
X1195070Y610870D02*
D03*
Y1118870D02*
D03*
X656590D02*
D03*
D26*
X668020Y736600D02*
Y748400D01*
X668920Y749300D01*
X609110Y717550D02*
X648970D01*
X668020Y736600D01*
X594360Y745490D02*
X598170Y749300D01*
X654420D01*
X594360Y732800D02*
Y745490D01*
X579610Y717550D02*
X609110D01*
D27*
X595630Y789870D02*
Y838600D01*
Y789870D02*
X596900Y788600D01*
X610380Y1002030D02*
X628650D01*
X580880D02*
X610380D01*
X654050Y862330D02*
Y976630D01*
X595630Y838600D02*
X630320D01*
X654050Y862330D01*
X628650Y1002030D02*
X654050Y976630D01*
X595630Y938600D02*
Y986780D01*
Y891629D02*
Y938600D01*
Y891629D02*
X596900Y890359D01*
Y888600D02*
Y890359D01*
D28*
X595630Y888600D02*
D03*
Y838600D02*
D03*
M02*
